G04 #@! TF.GenerationSoftware,KiCad,Pcbnew,(5.1.5)-3*
G04 #@! TF.CreationDate,2020-01-04T12:29:47-06:00*
G04 #@! TF.ProjectId,HMC1121_4W_6CM,484d4331-3132-4315-9f34-575f36434d2e,rev?*
G04 #@! TF.SameCoordinates,Original*
G04 #@! TF.FileFunction,Soldermask,Bot*
G04 #@! TF.FilePolarity,Negative*
%FSLAX46Y46*%
G04 Gerber Fmt 4.6, Leading zero omitted, Abs format (unit mm)*
G04 Created by KiCad (PCBNEW (5.1.5)-3) date 2020-01-04 12:29:47*
%MOMM*%
%LPD*%
G04 APERTURE LIST*
%ADD10C,0.100000*%
%ADD11C,0.300000*%
%ADD12C,0.150000*%
G04 APERTURE END LIST*
D10*
G36*
X181152800Y-69240400D02*
G01*
X181152800Y-121005600D01*
X129082800Y-121005600D01*
X129082800Y-69138800D01*
X181152800Y-69240400D01*
G37*
X181152800Y-69240400D02*
X181152800Y-121005600D01*
X129082800Y-121005600D01*
X129082800Y-69138800D01*
X181152800Y-69240400D01*
D11*
X182000000Y-81892857D02*
X182214285Y-81964285D01*
X182285714Y-82035714D01*
X182357142Y-82178571D01*
X182357142Y-82392857D01*
X182285714Y-82535714D01*
X182214285Y-82607142D01*
X182071428Y-82678571D01*
X181500000Y-82678571D01*
X181500000Y-81178571D01*
X182000000Y-81178571D01*
X182142857Y-81250000D01*
X182214285Y-81321428D01*
X182285714Y-81464285D01*
X182285714Y-81607142D01*
X182214285Y-81750000D01*
X182142857Y-81821428D01*
X182000000Y-81892857D01*
X181500000Y-81892857D01*
X183000000Y-82535714D02*
X183071428Y-82607142D01*
X183000000Y-82678571D01*
X182928571Y-82607142D01*
X183000000Y-82535714D01*
X183000000Y-82678571D01*
X183714285Y-82678571D02*
X183714285Y-81178571D01*
X184214285Y-82250000D01*
X184714285Y-81178571D01*
X184714285Y-82678571D01*
X186071428Y-82678571D02*
X186071428Y-81892857D01*
X186000000Y-81750000D01*
X185857142Y-81678571D01*
X185571428Y-81678571D01*
X185428571Y-81750000D01*
X186071428Y-82607142D02*
X185928571Y-82678571D01*
X185571428Y-82678571D01*
X185428571Y-82607142D01*
X185357142Y-82464285D01*
X185357142Y-82321428D01*
X185428571Y-82178571D01*
X185571428Y-82107142D01*
X185928571Y-82107142D01*
X186071428Y-82035714D01*
X186714285Y-82607142D02*
X186857142Y-82678571D01*
X187142857Y-82678571D01*
X187285714Y-82607142D01*
X187357142Y-82464285D01*
X187357142Y-82392857D01*
X187285714Y-82250000D01*
X187142857Y-82178571D01*
X186928571Y-82178571D01*
X186785714Y-82107142D01*
X186714285Y-81964285D01*
X186714285Y-81892857D01*
X186785714Y-81750000D01*
X186928571Y-81678571D01*
X187142857Y-81678571D01*
X187285714Y-81750000D01*
X188000000Y-82678571D02*
X188000000Y-81178571D01*
X188142857Y-82107142D02*
X188571428Y-82678571D01*
X188571428Y-81678571D02*
X188000000Y-82250000D01*
D12*
G36*
X156561620Y-103148592D02*
G01*
X156912018Y-103293732D01*
X157227371Y-103504444D01*
X157495556Y-103772629D01*
X157706268Y-104087982D01*
X157851408Y-104438380D01*
X157925400Y-104810365D01*
X157925400Y-105189635D01*
X157851408Y-105561620D01*
X157706268Y-105912018D01*
X157495556Y-106227371D01*
X157227371Y-106495556D01*
X156912018Y-106706268D01*
X156561620Y-106851408D01*
X156189635Y-106925400D01*
X155810365Y-106925400D01*
X155438380Y-106851408D01*
X155087982Y-106706268D01*
X154772629Y-106495556D01*
X154504444Y-106227371D01*
X154293732Y-105912018D01*
X154148592Y-105561620D01*
X154074600Y-105189635D01*
X154074600Y-104810365D01*
X154148592Y-104438380D01*
X154293732Y-104087982D01*
X154504444Y-103772629D01*
X154772629Y-103504444D01*
X155087982Y-103293732D01*
X155438380Y-103148592D01*
X155810365Y-103074600D01*
X156189635Y-103074600D01*
X156561620Y-103148592D01*
G37*
G36*
X168591400Y-100139400D02*
G01*
X163640600Y-100139400D01*
X163640600Y-98488600D01*
X168591400Y-98488600D01*
X168591400Y-100139400D01*
G37*
G36*
X148423800Y-100139400D02*
G01*
X143473000Y-100139400D01*
X143473000Y-98488600D01*
X148423800Y-98488600D01*
X148423800Y-100139400D01*
G37*
G36*
X168591400Y-91503400D02*
G01*
X163640600Y-91503400D01*
X163640600Y-89852600D01*
X168591400Y-89852600D01*
X168591400Y-91503400D01*
G37*
G36*
X148423800Y-91503400D02*
G01*
X143473000Y-91503400D01*
X143473000Y-89852600D01*
X148423800Y-89852600D01*
X148423800Y-91503400D01*
G37*
G36*
X156561620Y-83148592D02*
G01*
X156912018Y-83293732D01*
X157227371Y-83504444D01*
X157495556Y-83772629D01*
X157706268Y-84087982D01*
X157851408Y-84438380D01*
X157925400Y-84810365D01*
X157925400Y-85189635D01*
X157851408Y-85561620D01*
X157706268Y-85912018D01*
X157495556Y-86227371D01*
X157227371Y-86495556D01*
X156912018Y-86706268D01*
X156561620Y-86851408D01*
X156189635Y-86925400D01*
X155810365Y-86925400D01*
X155438380Y-86851408D01*
X155087982Y-86706268D01*
X154772629Y-86495556D01*
X154504444Y-86227371D01*
X154293732Y-85912018D01*
X154148592Y-85561620D01*
X154074600Y-85189635D01*
X154074600Y-84810365D01*
X154148592Y-84438380D01*
X154293732Y-84087982D01*
X154504444Y-83772629D01*
X154772629Y-83504444D01*
X155087982Y-83293732D01*
X155438380Y-83148592D01*
X155810365Y-83074600D01*
X156189635Y-83074600D01*
X156561620Y-83148592D01*
G37*
M02*
