G04 #@! TF.GenerationSoftware,KiCad,Pcbnew,(5.1.5)-3*
G04 #@! TF.CreationDate,2020-01-04T12:29:47-06:00*
G04 #@! TF.ProjectId,HMC1121_4W_6CM,484d4331-3132-4315-9f34-575f36434d2e,rev?*
G04 #@! TF.SameCoordinates,Original*
G04 #@! TF.FileFunction,Paste,Top*
G04 #@! TF.FilePolarity,Positive*
%FSLAX46Y46*%
G04 Gerber Fmt 4.6, Leading zero omitted, Abs format (unit mm)*
G04 Created by KiCad (PCBNEW (5.1.5)-3) date 2020-01-04 12:29:47*
%MOMM*%
%LPD*%
G04 APERTURE LIST*
%ADD10C,0.300000*%
%ADD11C,0.010000*%
%ADD12R,0.650000X1.060000*%
%ADD13R,0.900000X0.800000*%
%ADD14C,0.150000*%
%ADD15R,0.551180X0.299720*%
%ADD16R,0.299720X0.551180*%
%ADD17R,0.900000X0.500000*%
G04 APERTURE END LIST*
D10*
X181535714Y-75178571D02*
X182392857Y-75178571D01*
X181964285Y-76678571D02*
X181964285Y-75178571D01*
X182892857Y-76535714D02*
X182964285Y-76607142D01*
X182892857Y-76678571D01*
X182821428Y-76607142D01*
X182892857Y-76535714D01*
X182892857Y-76678571D01*
X184750000Y-76678571D02*
X184750000Y-75178571D01*
X185321428Y-75178571D01*
X185464285Y-75250000D01*
X185535714Y-75321428D01*
X185607142Y-75464285D01*
X185607142Y-75678571D01*
X185535714Y-75821428D01*
X185464285Y-75892857D01*
X185321428Y-75964285D01*
X184750000Y-75964285D01*
X186892857Y-76678571D02*
X186892857Y-75892857D01*
X186821428Y-75750000D01*
X186678571Y-75678571D01*
X186392857Y-75678571D01*
X186250000Y-75750000D01*
X186892857Y-76607142D02*
X186750000Y-76678571D01*
X186392857Y-76678571D01*
X186250000Y-76607142D01*
X186178571Y-76464285D01*
X186178571Y-76321428D01*
X186250000Y-76178571D01*
X186392857Y-76107142D01*
X186750000Y-76107142D01*
X186892857Y-76035714D01*
X187535714Y-76607142D02*
X187678571Y-76678571D01*
X187964285Y-76678571D01*
X188107142Y-76607142D01*
X188178571Y-76464285D01*
X188178571Y-76392857D01*
X188107142Y-76250000D01*
X187964285Y-76178571D01*
X187750000Y-76178571D01*
X187607142Y-76107142D01*
X187535714Y-75964285D01*
X187535714Y-75892857D01*
X187607142Y-75750000D01*
X187750000Y-75678571D01*
X187964285Y-75678571D01*
X188107142Y-75750000D01*
X188607142Y-75678571D02*
X189178571Y-75678571D01*
X188821428Y-75178571D02*
X188821428Y-76464285D01*
X188892857Y-76607142D01*
X189035714Y-76678571D01*
X189178571Y-76678571D01*
X190250000Y-76607142D02*
X190107142Y-76678571D01*
X189821428Y-76678571D01*
X189678571Y-76607142D01*
X189607142Y-76464285D01*
X189607142Y-75892857D01*
X189678571Y-75750000D01*
X189821428Y-75678571D01*
X190107142Y-75678571D01*
X190250000Y-75750000D01*
X190321428Y-75892857D01*
X190321428Y-76035714D01*
X189607142Y-76178571D01*
D11*
G36*
X156083000Y-94996000D02*
G01*
X157988000Y-94996000D01*
X157988000Y-93091000D01*
X156083000Y-93091000D01*
X156083000Y-94996000D01*
G37*
X156083000Y-94996000D02*
X157988000Y-94996000D01*
X157988000Y-93091000D01*
X156083000Y-93091000D01*
X156083000Y-94996000D01*
G36*
X156083000Y-97409000D02*
G01*
X157988000Y-97409000D01*
X157988000Y-95504000D01*
X156083000Y-95504000D01*
X156083000Y-97409000D01*
G37*
X156083000Y-97409000D02*
X157988000Y-97409000D01*
X157988000Y-95504000D01*
X156083000Y-95504000D01*
X156083000Y-97409000D01*
G36*
X153670000Y-95504000D02*
G01*
X155575000Y-95504000D01*
X155575000Y-97409000D01*
X153670000Y-97409000D01*
X153670000Y-95504000D01*
G37*
X153670000Y-95504000D02*
X155575000Y-95504000D01*
X155575000Y-97409000D01*
X153670000Y-97409000D01*
X153670000Y-95504000D01*
G36*
X153670000Y-93091000D02*
G01*
X155575000Y-93091000D01*
X155575000Y-94996000D01*
X153670000Y-94996000D01*
X153670000Y-93091000D01*
G37*
X153670000Y-93091000D02*
X155575000Y-93091000D01*
X155575000Y-94996000D01*
X153670000Y-94996000D01*
X153670000Y-93091000D01*
D12*
X170804800Y-108780400D03*
X172704800Y-108780400D03*
X172704800Y-110980400D03*
X171754800Y-110980400D03*
X170804800Y-110980400D03*
D13*
X141944600Y-109855000D03*
X139944600Y-110805000D03*
X139944600Y-108905000D03*
D14*
G36*
X158913891Y-70544453D02*
G01*
X158935126Y-70547603D01*
X158955950Y-70552819D01*
X158976162Y-70560051D01*
X158995568Y-70569230D01*
X159013981Y-70580266D01*
X159031224Y-70593054D01*
X159047130Y-70607470D01*
X159061546Y-70623376D01*
X159074334Y-70640619D01*
X159085370Y-70659032D01*
X159094549Y-70678438D01*
X159101781Y-70698650D01*
X159106997Y-70719474D01*
X159110147Y-70740709D01*
X159111200Y-70762150D01*
X159111200Y-71274650D01*
X159110147Y-71296091D01*
X159106997Y-71317326D01*
X159101781Y-71338150D01*
X159094549Y-71358362D01*
X159085370Y-71377768D01*
X159074334Y-71396181D01*
X159061546Y-71413424D01*
X159047130Y-71429330D01*
X159031224Y-71443746D01*
X159013981Y-71456534D01*
X158995568Y-71467570D01*
X158976162Y-71476749D01*
X158955950Y-71483981D01*
X158935126Y-71489197D01*
X158913891Y-71492347D01*
X158892450Y-71493400D01*
X158454950Y-71493400D01*
X158433509Y-71492347D01*
X158412274Y-71489197D01*
X158391450Y-71483981D01*
X158371238Y-71476749D01*
X158351832Y-71467570D01*
X158333419Y-71456534D01*
X158316176Y-71443746D01*
X158300270Y-71429330D01*
X158285854Y-71413424D01*
X158273066Y-71396181D01*
X158262030Y-71377768D01*
X158252851Y-71358362D01*
X158245619Y-71338150D01*
X158240403Y-71317326D01*
X158237253Y-71296091D01*
X158236200Y-71274650D01*
X158236200Y-70762150D01*
X158237253Y-70740709D01*
X158240403Y-70719474D01*
X158245619Y-70698650D01*
X158252851Y-70678438D01*
X158262030Y-70659032D01*
X158273066Y-70640619D01*
X158285854Y-70623376D01*
X158300270Y-70607470D01*
X158316176Y-70593054D01*
X158333419Y-70580266D01*
X158351832Y-70569230D01*
X158371238Y-70560051D01*
X158391450Y-70552819D01*
X158412274Y-70547603D01*
X158433509Y-70544453D01*
X158454950Y-70543400D01*
X158892450Y-70543400D01*
X158913891Y-70544453D01*
G37*
G36*
X160488891Y-70544453D02*
G01*
X160510126Y-70547603D01*
X160530950Y-70552819D01*
X160551162Y-70560051D01*
X160570568Y-70569230D01*
X160588981Y-70580266D01*
X160606224Y-70593054D01*
X160622130Y-70607470D01*
X160636546Y-70623376D01*
X160649334Y-70640619D01*
X160660370Y-70659032D01*
X160669549Y-70678438D01*
X160676781Y-70698650D01*
X160681997Y-70719474D01*
X160685147Y-70740709D01*
X160686200Y-70762150D01*
X160686200Y-71274650D01*
X160685147Y-71296091D01*
X160681997Y-71317326D01*
X160676781Y-71338150D01*
X160669549Y-71358362D01*
X160660370Y-71377768D01*
X160649334Y-71396181D01*
X160636546Y-71413424D01*
X160622130Y-71429330D01*
X160606224Y-71443746D01*
X160588981Y-71456534D01*
X160570568Y-71467570D01*
X160551162Y-71476749D01*
X160530950Y-71483981D01*
X160510126Y-71489197D01*
X160488891Y-71492347D01*
X160467450Y-71493400D01*
X160029950Y-71493400D01*
X160008509Y-71492347D01*
X159987274Y-71489197D01*
X159966450Y-71483981D01*
X159946238Y-71476749D01*
X159926832Y-71467570D01*
X159908419Y-71456534D01*
X159891176Y-71443746D01*
X159875270Y-71429330D01*
X159860854Y-71413424D01*
X159848066Y-71396181D01*
X159837030Y-71377768D01*
X159827851Y-71358362D01*
X159820619Y-71338150D01*
X159815403Y-71317326D01*
X159812253Y-71296091D01*
X159811200Y-71274650D01*
X159811200Y-70762150D01*
X159812253Y-70740709D01*
X159815403Y-70719474D01*
X159820619Y-70698650D01*
X159827851Y-70678438D01*
X159837030Y-70659032D01*
X159848066Y-70640619D01*
X159860854Y-70623376D01*
X159875270Y-70607470D01*
X159891176Y-70593054D01*
X159908419Y-70580266D01*
X159926832Y-70569230D01*
X159946238Y-70560051D01*
X159966450Y-70552819D01*
X159987274Y-70547603D01*
X160008509Y-70544453D01*
X160029950Y-70543400D01*
X160467450Y-70543400D01*
X160488891Y-70544453D01*
G37*
G36*
X171152691Y-112556053D02*
G01*
X171173926Y-112559203D01*
X171194750Y-112564419D01*
X171214962Y-112571651D01*
X171234368Y-112580830D01*
X171252781Y-112591866D01*
X171270024Y-112604654D01*
X171285930Y-112619070D01*
X171300346Y-112634976D01*
X171313134Y-112652219D01*
X171324170Y-112670632D01*
X171333349Y-112690038D01*
X171340581Y-112710250D01*
X171345797Y-112731074D01*
X171348947Y-112752309D01*
X171350000Y-112773750D01*
X171350000Y-113286250D01*
X171348947Y-113307691D01*
X171345797Y-113328926D01*
X171340581Y-113349750D01*
X171333349Y-113369962D01*
X171324170Y-113389368D01*
X171313134Y-113407781D01*
X171300346Y-113425024D01*
X171285930Y-113440930D01*
X171270024Y-113455346D01*
X171252781Y-113468134D01*
X171234368Y-113479170D01*
X171214962Y-113488349D01*
X171194750Y-113495581D01*
X171173926Y-113500797D01*
X171152691Y-113503947D01*
X171131250Y-113505000D01*
X170693750Y-113505000D01*
X170672309Y-113503947D01*
X170651074Y-113500797D01*
X170630250Y-113495581D01*
X170610038Y-113488349D01*
X170590632Y-113479170D01*
X170572219Y-113468134D01*
X170554976Y-113455346D01*
X170539070Y-113440930D01*
X170524654Y-113425024D01*
X170511866Y-113407781D01*
X170500830Y-113389368D01*
X170491651Y-113369962D01*
X170484419Y-113349750D01*
X170479203Y-113328926D01*
X170476053Y-113307691D01*
X170475000Y-113286250D01*
X170475000Y-112773750D01*
X170476053Y-112752309D01*
X170479203Y-112731074D01*
X170484419Y-112710250D01*
X170491651Y-112690038D01*
X170500830Y-112670632D01*
X170511866Y-112652219D01*
X170524654Y-112634976D01*
X170539070Y-112619070D01*
X170554976Y-112604654D01*
X170572219Y-112591866D01*
X170590632Y-112580830D01*
X170610038Y-112571651D01*
X170630250Y-112564419D01*
X170651074Y-112559203D01*
X170672309Y-112556053D01*
X170693750Y-112555000D01*
X171131250Y-112555000D01*
X171152691Y-112556053D01*
G37*
G36*
X172727691Y-112556053D02*
G01*
X172748926Y-112559203D01*
X172769750Y-112564419D01*
X172789962Y-112571651D01*
X172809368Y-112580830D01*
X172827781Y-112591866D01*
X172845024Y-112604654D01*
X172860930Y-112619070D01*
X172875346Y-112634976D01*
X172888134Y-112652219D01*
X172899170Y-112670632D01*
X172908349Y-112690038D01*
X172915581Y-112710250D01*
X172920797Y-112731074D01*
X172923947Y-112752309D01*
X172925000Y-112773750D01*
X172925000Y-113286250D01*
X172923947Y-113307691D01*
X172920797Y-113328926D01*
X172915581Y-113349750D01*
X172908349Y-113369962D01*
X172899170Y-113389368D01*
X172888134Y-113407781D01*
X172875346Y-113425024D01*
X172860930Y-113440930D01*
X172845024Y-113455346D01*
X172827781Y-113468134D01*
X172809368Y-113479170D01*
X172789962Y-113488349D01*
X172769750Y-113495581D01*
X172748926Y-113500797D01*
X172727691Y-113503947D01*
X172706250Y-113505000D01*
X172268750Y-113505000D01*
X172247309Y-113503947D01*
X172226074Y-113500797D01*
X172205250Y-113495581D01*
X172185038Y-113488349D01*
X172165632Y-113479170D01*
X172147219Y-113468134D01*
X172129976Y-113455346D01*
X172114070Y-113440930D01*
X172099654Y-113425024D01*
X172086866Y-113407781D01*
X172075830Y-113389368D01*
X172066651Y-113369962D01*
X172059419Y-113349750D01*
X172054203Y-113328926D01*
X172051053Y-113307691D01*
X172050000Y-113286250D01*
X172050000Y-112773750D01*
X172051053Y-112752309D01*
X172054203Y-112731074D01*
X172059419Y-112710250D01*
X172066651Y-112690038D01*
X172075830Y-112670632D01*
X172086866Y-112652219D01*
X172099654Y-112634976D01*
X172114070Y-112619070D01*
X172129976Y-112604654D01*
X172147219Y-112591866D01*
X172165632Y-112580830D01*
X172185038Y-112571651D01*
X172205250Y-112564419D01*
X172226074Y-112559203D01*
X172247309Y-112556053D01*
X172268750Y-112555000D01*
X172706250Y-112555000D01*
X172727691Y-112556053D01*
G37*
G36*
X174826491Y-112111053D02*
G01*
X174847726Y-112114203D01*
X174868550Y-112119419D01*
X174888762Y-112126651D01*
X174908168Y-112135830D01*
X174926581Y-112146866D01*
X174943824Y-112159654D01*
X174959730Y-112174070D01*
X174974146Y-112189976D01*
X174986934Y-112207219D01*
X174997970Y-112225632D01*
X175007149Y-112245038D01*
X175014381Y-112265250D01*
X175019597Y-112286074D01*
X175022747Y-112307309D01*
X175023800Y-112328750D01*
X175023800Y-112766250D01*
X175022747Y-112787691D01*
X175019597Y-112808926D01*
X175014381Y-112829750D01*
X175007149Y-112849962D01*
X174997970Y-112869368D01*
X174986934Y-112887781D01*
X174974146Y-112905024D01*
X174959730Y-112920930D01*
X174943824Y-112935346D01*
X174926581Y-112948134D01*
X174908168Y-112959170D01*
X174888762Y-112968349D01*
X174868550Y-112975581D01*
X174847726Y-112980797D01*
X174826491Y-112983947D01*
X174805050Y-112985000D01*
X174292550Y-112985000D01*
X174271109Y-112983947D01*
X174249874Y-112980797D01*
X174229050Y-112975581D01*
X174208838Y-112968349D01*
X174189432Y-112959170D01*
X174171019Y-112948134D01*
X174153776Y-112935346D01*
X174137870Y-112920930D01*
X174123454Y-112905024D01*
X174110666Y-112887781D01*
X174099630Y-112869368D01*
X174090451Y-112849962D01*
X174083219Y-112829750D01*
X174078003Y-112808926D01*
X174074853Y-112787691D01*
X174073800Y-112766250D01*
X174073800Y-112328750D01*
X174074853Y-112307309D01*
X174078003Y-112286074D01*
X174083219Y-112265250D01*
X174090451Y-112245038D01*
X174099630Y-112225632D01*
X174110666Y-112207219D01*
X174123454Y-112189976D01*
X174137870Y-112174070D01*
X174153776Y-112159654D01*
X174171019Y-112146866D01*
X174189432Y-112135830D01*
X174208838Y-112126651D01*
X174229050Y-112119419D01*
X174249874Y-112114203D01*
X174271109Y-112111053D01*
X174292550Y-112110000D01*
X174805050Y-112110000D01*
X174826491Y-112111053D01*
G37*
G36*
X174826491Y-110536053D02*
G01*
X174847726Y-110539203D01*
X174868550Y-110544419D01*
X174888762Y-110551651D01*
X174908168Y-110560830D01*
X174926581Y-110571866D01*
X174943824Y-110584654D01*
X174959730Y-110599070D01*
X174974146Y-110614976D01*
X174986934Y-110632219D01*
X174997970Y-110650632D01*
X175007149Y-110670038D01*
X175014381Y-110690250D01*
X175019597Y-110711074D01*
X175022747Y-110732309D01*
X175023800Y-110753750D01*
X175023800Y-111191250D01*
X175022747Y-111212691D01*
X175019597Y-111233926D01*
X175014381Y-111254750D01*
X175007149Y-111274962D01*
X174997970Y-111294368D01*
X174986934Y-111312781D01*
X174974146Y-111330024D01*
X174959730Y-111345930D01*
X174943824Y-111360346D01*
X174926581Y-111373134D01*
X174908168Y-111384170D01*
X174888762Y-111393349D01*
X174868550Y-111400581D01*
X174847726Y-111405797D01*
X174826491Y-111408947D01*
X174805050Y-111410000D01*
X174292550Y-111410000D01*
X174271109Y-111408947D01*
X174249874Y-111405797D01*
X174229050Y-111400581D01*
X174208838Y-111393349D01*
X174189432Y-111384170D01*
X174171019Y-111373134D01*
X174153776Y-111360346D01*
X174137870Y-111345930D01*
X174123454Y-111330024D01*
X174110666Y-111312781D01*
X174099630Y-111294368D01*
X174090451Y-111274962D01*
X174083219Y-111254750D01*
X174078003Y-111233926D01*
X174074853Y-111212691D01*
X174073800Y-111191250D01*
X174073800Y-110753750D01*
X174074853Y-110732309D01*
X174078003Y-110711074D01*
X174083219Y-110690250D01*
X174090451Y-110670038D01*
X174099630Y-110650632D01*
X174110666Y-110632219D01*
X174123454Y-110614976D01*
X174137870Y-110599070D01*
X174153776Y-110584654D01*
X174171019Y-110571866D01*
X174189432Y-110560830D01*
X174208838Y-110551651D01*
X174229050Y-110544419D01*
X174249874Y-110539203D01*
X174271109Y-110536053D01*
X174292550Y-110535000D01*
X174805050Y-110535000D01*
X174826491Y-110536053D01*
G37*
G36*
X170914891Y-104682053D02*
G01*
X170936126Y-104685203D01*
X170956950Y-104690419D01*
X170977162Y-104697651D01*
X170996568Y-104706830D01*
X171014981Y-104717866D01*
X171032224Y-104730654D01*
X171048130Y-104745070D01*
X171062546Y-104760976D01*
X171075334Y-104778219D01*
X171086370Y-104796632D01*
X171095549Y-104816038D01*
X171102781Y-104836250D01*
X171107997Y-104857074D01*
X171111147Y-104878309D01*
X171112200Y-104899750D01*
X171112200Y-105337250D01*
X171111147Y-105358691D01*
X171107997Y-105379926D01*
X171102781Y-105400750D01*
X171095549Y-105420962D01*
X171086370Y-105440368D01*
X171075334Y-105458781D01*
X171062546Y-105476024D01*
X171048130Y-105491930D01*
X171032224Y-105506346D01*
X171014981Y-105519134D01*
X170996568Y-105530170D01*
X170977162Y-105539349D01*
X170956950Y-105546581D01*
X170936126Y-105551797D01*
X170914891Y-105554947D01*
X170893450Y-105556000D01*
X170380950Y-105556000D01*
X170359509Y-105554947D01*
X170338274Y-105551797D01*
X170317450Y-105546581D01*
X170297238Y-105539349D01*
X170277832Y-105530170D01*
X170259419Y-105519134D01*
X170242176Y-105506346D01*
X170226270Y-105491930D01*
X170211854Y-105476024D01*
X170199066Y-105458781D01*
X170188030Y-105440368D01*
X170178851Y-105420962D01*
X170171619Y-105400750D01*
X170166403Y-105379926D01*
X170163253Y-105358691D01*
X170162200Y-105337250D01*
X170162200Y-104899750D01*
X170163253Y-104878309D01*
X170166403Y-104857074D01*
X170171619Y-104836250D01*
X170178851Y-104816038D01*
X170188030Y-104796632D01*
X170199066Y-104778219D01*
X170211854Y-104760976D01*
X170226270Y-104745070D01*
X170242176Y-104730654D01*
X170259419Y-104717866D01*
X170277832Y-104706830D01*
X170297238Y-104697651D01*
X170317450Y-104690419D01*
X170338274Y-104685203D01*
X170359509Y-104682053D01*
X170380950Y-104681000D01*
X170893450Y-104681000D01*
X170914891Y-104682053D01*
G37*
G36*
X170914891Y-106257053D02*
G01*
X170936126Y-106260203D01*
X170956950Y-106265419D01*
X170977162Y-106272651D01*
X170996568Y-106281830D01*
X171014981Y-106292866D01*
X171032224Y-106305654D01*
X171048130Y-106320070D01*
X171062546Y-106335976D01*
X171075334Y-106353219D01*
X171086370Y-106371632D01*
X171095549Y-106391038D01*
X171102781Y-106411250D01*
X171107997Y-106432074D01*
X171111147Y-106453309D01*
X171112200Y-106474750D01*
X171112200Y-106912250D01*
X171111147Y-106933691D01*
X171107997Y-106954926D01*
X171102781Y-106975750D01*
X171095549Y-106995962D01*
X171086370Y-107015368D01*
X171075334Y-107033781D01*
X171062546Y-107051024D01*
X171048130Y-107066930D01*
X171032224Y-107081346D01*
X171014981Y-107094134D01*
X170996568Y-107105170D01*
X170977162Y-107114349D01*
X170956950Y-107121581D01*
X170936126Y-107126797D01*
X170914891Y-107129947D01*
X170893450Y-107131000D01*
X170380950Y-107131000D01*
X170359509Y-107129947D01*
X170338274Y-107126797D01*
X170317450Y-107121581D01*
X170297238Y-107114349D01*
X170277832Y-107105170D01*
X170259419Y-107094134D01*
X170242176Y-107081346D01*
X170226270Y-107066930D01*
X170211854Y-107051024D01*
X170199066Y-107033781D01*
X170188030Y-107015368D01*
X170178851Y-106995962D01*
X170171619Y-106975750D01*
X170166403Y-106954926D01*
X170163253Y-106933691D01*
X170162200Y-106912250D01*
X170162200Y-106474750D01*
X170163253Y-106453309D01*
X170166403Y-106432074D01*
X170171619Y-106411250D01*
X170178851Y-106391038D01*
X170188030Y-106371632D01*
X170199066Y-106353219D01*
X170211854Y-106335976D01*
X170226270Y-106320070D01*
X170242176Y-106305654D01*
X170259419Y-106292866D01*
X170277832Y-106281830D01*
X170297238Y-106272651D01*
X170317450Y-106265419D01*
X170338274Y-106260203D01*
X170359509Y-106257053D01*
X170380950Y-106256000D01*
X170893450Y-106256000D01*
X170914891Y-106257053D01*
G37*
G36*
X172997691Y-104694053D02*
G01*
X173018926Y-104697203D01*
X173039750Y-104702419D01*
X173059962Y-104709651D01*
X173079368Y-104718830D01*
X173097781Y-104729866D01*
X173115024Y-104742654D01*
X173130930Y-104757070D01*
X173145346Y-104772976D01*
X173158134Y-104790219D01*
X173169170Y-104808632D01*
X173178349Y-104828038D01*
X173185581Y-104848250D01*
X173190797Y-104869074D01*
X173193947Y-104890309D01*
X173195000Y-104911750D01*
X173195000Y-105349250D01*
X173193947Y-105370691D01*
X173190797Y-105391926D01*
X173185581Y-105412750D01*
X173178349Y-105432962D01*
X173169170Y-105452368D01*
X173158134Y-105470781D01*
X173145346Y-105488024D01*
X173130930Y-105503930D01*
X173115024Y-105518346D01*
X173097781Y-105531134D01*
X173079368Y-105542170D01*
X173059962Y-105551349D01*
X173039750Y-105558581D01*
X173018926Y-105563797D01*
X172997691Y-105566947D01*
X172976250Y-105568000D01*
X172463750Y-105568000D01*
X172442309Y-105566947D01*
X172421074Y-105563797D01*
X172400250Y-105558581D01*
X172380038Y-105551349D01*
X172360632Y-105542170D01*
X172342219Y-105531134D01*
X172324976Y-105518346D01*
X172309070Y-105503930D01*
X172294654Y-105488024D01*
X172281866Y-105470781D01*
X172270830Y-105452368D01*
X172261651Y-105432962D01*
X172254419Y-105412750D01*
X172249203Y-105391926D01*
X172246053Y-105370691D01*
X172245000Y-105349250D01*
X172245000Y-104911750D01*
X172246053Y-104890309D01*
X172249203Y-104869074D01*
X172254419Y-104848250D01*
X172261651Y-104828038D01*
X172270830Y-104808632D01*
X172281866Y-104790219D01*
X172294654Y-104772976D01*
X172309070Y-104757070D01*
X172324976Y-104742654D01*
X172342219Y-104729866D01*
X172360632Y-104718830D01*
X172380038Y-104709651D01*
X172400250Y-104702419D01*
X172421074Y-104697203D01*
X172442309Y-104694053D01*
X172463750Y-104693000D01*
X172976250Y-104693000D01*
X172997691Y-104694053D01*
G37*
G36*
X172997691Y-106269053D02*
G01*
X173018926Y-106272203D01*
X173039750Y-106277419D01*
X173059962Y-106284651D01*
X173079368Y-106293830D01*
X173097781Y-106304866D01*
X173115024Y-106317654D01*
X173130930Y-106332070D01*
X173145346Y-106347976D01*
X173158134Y-106365219D01*
X173169170Y-106383632D01*
X173178349Y-106403038D01*
X173185581Y-106423250D01*
X173190797Y-106444074D01*
X173193947Y-106465309D01*
X173195000Y-106486750D01*
X173195000Y-106924250D01*
X173193947Y-106945691D01*
X173190797Y-106966926D01*
X173185581Y-106987750D01*
X173178349Y-107007962D01*
X173169170Y-107027368D01*
X173158134Y-107045781D01*
X173145346Y-107063024D01*
X173130930Y-107078930D01*
X173115024Y-107093346D01*
X173097781Y-107106134D01*
X173079368Y-107117170D01*
X173059962Y-107126349D01*
X173039750Y-107133581D01*
X173018926Y-107138797D01*
X172997691Y-107141947D01*
X172976250Y-107143000D01*
X172463750Y-107143000D01*
X172442309Y-107141947D01*
X172421074Y-107138797D01*
X172400250Y-107133581D01*
X172380038Y-107126349D01*
X172360632Y-107117170D01*
X172342219Y-107106134D01*
X172324976Y-107093346D01*
X172309070Y-107078930D01*
X172294654Y-107063024D01*
X172281866Y-107045781D01*
X172270830Y-107027368D01*
X172261651Y-107007962D01*
X172254419Y-106987750D01*
X172249203Y-106966926D01*
X172246053Y-106945691D01*
X172245000Y-106924250D01*
X172245000Y-106486750D01*
X172246053Y-106465309D01*
X172249203Y-106444074D01*
X172254419Y-106423250D01*
X172261651Y-106403038D01*
X172270830Y-106383632D01*
X172281866Y-106365219D01*
X172294654Y-106347976D01*
X172309070Y-106332070D01*
X172324976Y-106317654D01*
X172342219Y-106304866D01*
X172360632Y-106293830D01*
X172380038Y-106284651D01*
X172400250Y-106277419D01*
X172421074Y-106272203D01*
X172442309Y-106269053D01*
X172463750Y-106268000D01*
X172976250Y-106268000D01*
X172997691Y-106269053D01*
G37*
G36*
X152739358Y-106159510D02*
G01*
X152753676Y-106161634D01*
X152767717Y-106165151D01*
X152781346Y-106170028D01*
X152794431Y-106176217D01*
X152806847Y-106183658D01*
X152818473Y-106192281D01*
X152829198Y-106202002D01*
X152838919Y-106212727D01*
X152847542Y-106224353D01*
X152854983Y-106236769D01*
X152861172Y-106249854D01*
X152866049Y-106263483D01*
X152869566Y-106277524D01*
X152871690Y-106291842D01*
X152872400Y-106306300D01*
X152872400Y-106601300D01*
X152871690Y-106615758D01*
X152869566Y-106630076D01*
X152866049Y-106644117D01*
X152861172Y-106657746D01*
X152854983Y-106670831D01*
X152847542Y-106683247D01*
X152838919Y-106694873D01*
X152829198Y-106705598D01*
X152818473Y-106715319D01*
X152806847Y-106723942D01*
X152794431Y-106731383D01*
X152781346Y-106737572D01*
X152767717Y-106742449D01*
X152753676Y-106745966D01*
X152739358Y-106748090D01*
X152724900Y-106748800D01*
X152379900Y-106748800D01*
X152365442Y-106748090D01*
X152351124Y-106745966D01*
X152337083Y-106742449D01*
X152323454Y-106737572D01*
X152310369Y-106731383D01*
X152297953Y-106723942D01*
X152286327Y-106715319D01*
X152275602Y-106705598D01*
X152265881Y-106694873D01*
X152257258Y-106683247D01*
X152249817Y-106670831D01*
X152243628Y-106657746D01*
X152238751Y-106644117D01*
X152235234Y-106630076D01*
X152233110Y-106615758D01*
X152232400Y-106601300D01*
X152232400Y-106306300D01*
X152233110Y-106291842D01*
X152235234Y-106277524D01*
X152238751Y-106263483D01*
X152243628Y-106249854D01*
X152249817Y-106236769D01*
X152257258Y-106224353D01*
X152265881Y-106212727D01*
X152275602Y-106202002D01*
X152286327Y-106192281D01*
X152297953Y-106183658D01*
X152310369Y-106176217D01*
X152323454Y-106170028D01*
X152337083Y-106165151D01*
X152351124Y-106161634D01*
X152365442Y-106159510D01*
X152379900Y-106158800D01*
X152724900Y-106158800D01*
X152739358Y-106159510D01*
G37*
G36*
X152739358Y-105189510D02*
G01*
X152753676Y-105191634D01*
X152767717Y-105195151D01*
X152781346Y-105200028D01*
X152794431Y-105206217D01*
X152806847Y-105213658D01*
X152818473Y-105222281D01*
X152829198Y-105232002D01*
X152838919Y-105242727D01*
X152847542Y-105254353D01*
X152854983Y-105266769D01*
X152861172Y-105279854D01*
X152866049Y-105293483D01*
X152869566Y-105307524D01*
X152871690Y-105321842D01*
X152872400Y-105336300D01*
X152872400Y-105631300D01*
X152871690Y-105645758D01*
X152869566Y-105660076D01*
X152866049Y-105674117D01*
X152861172Y-105687746D01*
X152854983Y-105700831D01*
X152847542Y-105713247D01*
X152838919Y-105724873D01*
X152829198Y-105735598D01*
X152818473Y-105745319D01*
X152806847Y-105753942D01*
X152794431Y-105761383D01*
X152781346Y-105767572D01*
X152767717Y-105772449D01*
X152753676Y-105775966D01*
X152739358Y-105778090D01*
X152724900Y-105778800D01*
X152379900Y-105778800D01*
X152365442Y-105778090D01*
X152351124Y-105775966D01*
X152337083Y-105772449D01*
X152323454Y-105767572D01*
X152310369Y-105761383D01*
X152297953Y-105753942D01*
X152286327Y-105745319D01*
X152275602Y-105735598D01*
X152265881Y-105724873D01*
X152257258Y-105713247D01*
X152249817Y-105700831D01*
X152243628Y-105687746D01*
X152238751Y-105674117D01*
X152235234Y-105660076D01*
X152233110Y-105645758D01*
X152232400Y-105631300D01*
X152232400Y-105336300D01*
X152233110Y-105321842D01*
X152235234Y-105307524D01*
X152238751Y-105293483D01*
X152243628Y-105279854D01*
X152249817Y-105266769D01*
X152257258Y-105254353D01*
X152265881Y-105242727D01*
X152275602Y-105232002D01*
X152286327Y-105222281D01*
X152297953Y-105213658D01*
X152310369Y-105206217D01*
X152323454Y-105200028D01*
X152337083Y-105195151D01*
X152351124Y-105191634D01*
X152365442Y-105189510D01*
X152379900Y-105188800D01*
X152724900Y-105188800D01*
X152739358Y-105189510D01*
G37*
G36*
X159140158Y-106870710D02*
G01*
X159154476Y-106872834D01*
X159168517Y-106876351D01*
X159182146Y-106881228D01*
X159195231Y-106887417D01*
X159207647Y-106894858D01*
X159219273Y-106903481D01*
X159229998Y-106913202D01*
X159239719Y-106923927D01*
X159248342Y-106935553D01*
X159255783Y-106947969D01*
X159261972Y-106961054D01*
X159266849Y-106974683D01*
X159270366Y-106988724D01*
X159272490Y-107003042D01*
X159273200Y-107017500D01*
X159273200Y-107312500D01*
X159272490Y-107326958D01*
X159270366Y-107341276D01*
X159266849Y-107355317D01*
X159261972Y-107368946D01*
X159255783Y-107382031D01*
X159248342Y-107394447D01*
X159239719Y-107406073D01*
X159229998Y-107416798D01*
X159219273Y-107426519D01*
X159207647Y-107435142D01*
X159195231Y-107442583D01*
X159182146Y-107448772D01*
X159168517Y-107453649D01*
X159154476Y-107457166D01*
X159140158Y-107459290D01*
X159125700Y-107460000D01*
X158780700Y-107460000D01*
X158766242Y-107459290D01*
X158751924Y-107457166D01*
X158737883Y-107453649D01*
X158724254Y-107448772D01*
X158711169Y-107442583D01*
X158698753Y-107435142D01*
X158687127Y-107426519D01*
X158676402Y-107416798D01*
X158666681Y-107406073D01*
X158658058Y-107394447D01*
X158650617Y-107382031D01*
X158644428Y-107368946D01*
X158639551Y-107355317D01*
X158636034Y-107341276D01*
X158633910Y-107326958D01*
X158633200Y-107312500D01*
X158633200Y-107017500D01*
X158633910Y-107003042D01*
X158636034Y-106988724D01*
X158639551Y-106974683D01*
X158644428Y-106961054D01*
X158650617Y-106947969D01*
X158658058Y-106935553D01*
X158666681Y-106923927D01*
X158676402Y-106913202D01*
X158687127Y-106903481D01*
X158698753Y-106894858D01*
X158711169Y-106887417D01*
X158724254Y-106881228D01*
X158737883Y-106876351D01*
X158751924Y-106872834D01*
X158766242Y-106870710D01*
X158780700Y-106870000D01*
X159125700Y-106870000D01*
X159140158Y-106870710D01*
G37*
G36*
X159140158Y-105900710D02*
G01*
X159154476Y-105902834D01*
X159168517Y-105906351D01*
X159182146Y-105911228D01*
X159195231Y-105917417D01*
X159207647Y-105924858D01*
X159219273Y-105933481D01*
X159229998Y-105943202D01*
X159239719Y-105953927D01*
X159248342Y-105965553D01*
X159255783Y-105977969D01*
X159261972Y-105991054D01*
X159266849Y-106004683D01*
X159270366Y-106018724D01*
X159272490Y-106033042D01*
X159273200Y-106047500D01*
X159273200Y-106342500D01*
X159272490Y-106356958D01*
X159270366Y-106371276D01*
X159266849Y-106385317D01*
X159261972Y-106398946D01*
X159255783Y-106412031D01*
X159248342Y-106424447D01*
X159239719Y-106436073D01*
X159229998Y-106446798D01*
X159219273Y-106456519D01*
X159207647Y-106465142D01*
X159195231Y-106472583D01*
X159182146Y-106478772D01*
X159168517Y-106483649D01*
X159154476Y-106487166D01*
X159140158Y-106489290D01*
X159125700Y-106490000D01*
X158780700Y-106490000D01*
X158766242Y-106489290D01*
X158751924Y-106487166D01*
X158737883Y-106483649D01*
X158724254Y-106478772D01*
X158711169Y-106472583D01*
X158698753Y-106465142D01*
X158687127Y-106456519D01*
X158676402Y-106446798D01*
X158666681Y-106436073D01*
X158658058Y-106424447D01*
X158650617Y-106412031D01*
X158644428Y-106398946D01*
X158639551Y-106385317D01*
X158636034Y-106371276D01*
X158633910Y-106356958D01*
X158633200Y-106342500D01*
X158633200Y-106047500D01*
X158633910Y-106033042D01*
X158636034Y-106018724D01*
X158639551Y-106004683D01*
X158644428Y-105991054D01*
X158650617Y-105977969D01*
X158658058Y-105965553D01*
X158666681Y-105953927D01*
X158676402Y-105943202D01*
X158687127Y-105933481D01*
X158698753Y-105924858D01*
X158711169Y-105917417D01*
X158724254Y-105911228D01*
X158737883Y-105906351D01*
X158751924Y-105902834D01*
X158766242Y-105900710D01*
X158780700Y-105900000D01*
X159125700Y-105900000D01*
X159140158Y-105900710D01*
G37*
G36*
X159193758Y-82179910D02*
G01*
X159208076Y-82182034D01*
X159222117Y-82185551D01*
X159235746Y-82190428D01*
X159248831Y-82196617D01*
X159261247Y-82204058D01*
X159272873Y-82212681D01*
X159283598Y-82222402D01*
X159293319Y-82233127D01*
X159301942Y-82244753D01*
X159309383Y-82257169D01*
X159315572Y-82270254D01*
X159320449Y-82283883D01*
X159323966Y-82297924D01*
X159326090Y-82312242D01*
X159326800Y-82326700D01*
X159326800Y-82671700D01*
X159326090Y-82686158D01*
X159323966Y-82700476D01*
X159320449Y-82714517D01*
X159315572Y-82728146D01*
X159309383Y-82741231D01*
X159301942Y-82753647D01*
X159293319Y-82765273D01*
X159283598Y-82775998D01*
X159272873Y-82785719D01*
X159261247Y-82794342D01*
X159248831Y-82801783D01*
X159235746Y-82807972D01*
X159222117Y-82812849D01*
X159208076Y-82816366D01*
X159193758Y-82818490D01*
X159179300Y-82819200D01*
X158884300Y-82819200D01*
X158869842Y-82818490D01*
X158855524Y-82816366D01*
X158841483Y-82812849D01*
X158827854Y-82807972D01*
X158814769Y-82801783D01*
X158802353Y-82794342D01*
X158790727Y-82785719D01*
X158780002Y-82775998D01*
X158770281Y-82765273D01*
X158761658Y-82753647D01*
X158754217Y-82741231D01*
X158748028Y-82728146D01*
X158743151Y-82714517D01*
X158739634Y-82700476D01*
X158737510Y-82686158D01*
X158736800Y-82671700D01*
X158736800Y-82326700D01*
X158737510Y-82312242D01*
X158739634Y-82297924D01*
X158743151Y-82283883D01*
X158748028Y-82270254D01*
X158754217Y-82257169D01*
X158761658Y-82244753D01*
X158770281Y-82233127D01*
X158780002Y-82222402D01*
X158790727Y-82212681D01*
X158802353Y-82204058D01*
X158814769Y-82196617D01*
X158827854Y-82190428D01*
X158841483Y-82185551D01*
X158855524Y-82182034D01*
X158869842Y-82179910D01*
X158884300Y-82179200D01*
X159179300Y-82179200D01*
X159193758Y-82179910D01*
G37*
G36*
X158223758Y-82179910D02*
G01*
X158238076Y-82182034D01*
X158252117Y-82185551D01*
X158265746Y-82190428D01*
X158278831Y-82196617D01*
X158291247Y-82204058D01*
X158302873Y-82212681D01*
X158313598Y-82222402D01*
X158323319Y-82233127D01*
X158331942Y-82244753D01*
X158339383Y-82257169D01*
X158345572Y-82270254D01*
X158350449Y-82283883D01*
X158353966Y-82297924D01*
X158356090Y-82312242D01*
X158356800Y-82326700D01*
X158356800Y-82671700D01*
X158356090Y-82686158D01*
X158353966Y-82700476D01*
X158350449Y-82714517D01*
X158345572Y-82728146D01*
X158339383Y-82741231D01*
X158331942Y-82753647D01*
X158323319Y-82765273D01*
X158313598Y-82775998D01*
X158302873Y-82785719D01*
X158291247Y-82794342D01*
X158278831Y-82801783D01*
X158265746Y-82807972D01*
X158252117Y-82812849D01*
X158238076Y-82816366D01*
X158223758Y-82818490D01*
X158209300Y-82819200D01*
X157914300Y-82819200D01*
X157899842Y-82818490D01*
X157885524Y-82816366D01*
X157871483Y-82812849D01*
X157857854Y-82807972D01*
X157844769Y-82801783D01*
X157832353Y-82794342D01*
X157820727Y-82785719D01*
X157810002Y-82775998D01*
X157800281Y-82765273D01*
X157791658Y-82753647D01*
X157784217Y-82741231D01*
X157778028Y-82728146D01*
X157773151Y-82714517D01*
X157769634Y-82700476D01*
X157767510Y-82686158D01*
X157766800Y-82671700D01*
X157766800Y-82326700D01*
X157767510Y-82312242D01*
X157769634Y-82297924D01*
X157773151Y-82283883D01*
X157778028Y-82270254D01*
X157784217Y-82257169D01*
X157791658Y-82244753D01*
X157800281Y-82233127D01*
X157810002Y-82222402D01*
X157820727Y-82212681D01*
X157832353Y-82204058D01*
X157844769Y-82196617D01*
X157857854Y-82190428D01*
X157871483Y-82185551D01*
X157885524Y-82182034D01*
X157899842Y-82179910D01*
X157914300Y-82179200D01*
X158209300Y-82179200D01*
X158223758Y-82179910D01*
G37*
G36*
X150781658Y-85634310D02*
G01*
X150795976Y-85636434D01*
X150810017Y-85639951D01*
X150823646Y-85644828D01*
X150836731Y-85651017D01*
X150849147Y-85658458D01*
X150860773Y-85667081D01*
X150871498Y-85676802D01*
X150881219Y-85687527D01*
X150889842Y-85699153D01*
X150897283Y-85711569D01*
X150903472Y-85724654D01*
X150908349Y-85738283D01*
X150911866Y-85752324D01*
X150913990Y-85766642D01*
X150914700Y-85781100D01*
X150914700Y-86126100D01*
X150913990Y-86140558D01*
X150911866Y-86154876D01*
X150908349Y-86168917D01*
X150903472Y-86182546D01*
X150897283Y-86195631D01*
X150889842Y-86208047D01*
X150881219Y-86219673D01*
X150871498Y-86230398D01*
X150860773Y-86240119D01*
X150849147Y-86248742D01*
X150836731Y-86256183D01*
X150823646Y-86262372D01*
X150810017Y-86267249D01*
X150795976Y-86270766D01*
X150781658Y-86272890D01*
X150767200Y-86273600D01*
X150472200Y-86273600D01*
X150457742Y-86272890D01*
X150443424Y-86270766D01*
X150429383Y-86267249D01*
X150415754Y-86262372D01*
X150402669Y-86256183D01*
X150390253Y-86248742D01*
X150378627Y-86240119D01*
X150367902Y-86230398D01*
X150358181Y-86219673D01*
X150349558Y-86208047D01*
X150342117Y-86195631D01*
X150335928Y-86182546D01*
X150331051Y-86168917D01*
X150327534Y-86154876D01*
X150325410Y-86140558D01*
X150324700Y-86126100D01*
X150324700Y-85781100D01*
X150325410Y-85766642D01*
X150327534Y-85752324D01*
X150331051Y-85738283D01*
X150335928Y-85724654D01*
X150342117Y-85711569D01*
X150349558Y-85699153D01*
X150358181Y-85687527D01*
X150367902Y-85676802D01*
X150378627Y-85667081D01*
X150390253Y-85658458D01*
X150402669Y-85651017D01*
X150415754Y-85644828D01*
X150429383Y-85639951D01*
X150443424Y-85636434D01*
X150457742Y-85634310D01*
X150472200Y-85633600D01*
X150767200Y-85633600D01*
X150781658Y-85634310D01*
G37*
G36*
X151751658Y-85634310D02*
G01*
X151765976Y-85636434D01*
X151780017Y-85639951D01*
X151793646Y-85644828D01*
X151806731Y-85651017D01*
X151819147Y-85658458D01*
X151830773Y-85667081D01*
X151841498Y-85676802D01*
X151851219Y-85687527D01*
X151859842Y-85699153D01*
X151867283Y-85711569D01*
X151873472Y-85724654D01*
X151878349Y-85738283D01*
X151881866Y-85752324D01*
X151883990Y-85766642D01*
X151884700Y-85781100D01*
X151884700Y-86126100D01*
X151883990Y-86140558D01*
X151881866Y-86154876D01*
X151878349Y-86168917D01*
X151873472Y-86182546D01*
X151867283Y-86195631D01*
X151859842Y-86208047D01*
X151851219Y-86219673D01*
X151841498Y-86230398D01*
X151830773Y-86240119D01*
X151819147Y-86248742D01*
X151806731Y-86256183D01*
X151793646Y-86262372D01*
X151780017Y-86267249D01*
X151765976Y-86270766D01*
X151751658Y-86272890D01*
X151737200Y-86273600D01*
X151442200Y-86273600D01*
X151427742Y-86272890D01*
X151413424Y-86270766D01*
X151399383Y-86267249D01*
X151385754Y-86262372D01*
X151372669Y-86256183D01*
X151360253Y-86248742D01*
X151348627Y-86240119D01*
X151337902Y-86230398D01*
X151328181Y-86219673D01*
X151319558Y-86208047D01*
X151312117Y-86195631D01*
X151305928Y-86182546D01*
X151301051Y-86168917D01*
X151297534Y-86154876D01*
X151295410Y-86140558D01*
X151294700Y-86126100D01*
X151294700Y-85781100D01*
X151295410Y-85766642D01*
X151297534Y-85752324D01*
X151301051Y-85738283D01*
X151305928Y-85724654D01*
X151312117Y-85711569D01*
X151319558Y-85699153D01*
X151328181Y-85687527D01*
X151337902Y-85676802D01*
X151348627Y-85667081D01*
X151360253Y-85658458D01*
X151372669Y-85651017D01*
X151385754Y-85644828D01*
X151399383Y-85639951D01*
X151413424Y-85636434D01*
X151427742Y-85634310D01*
X151442200Y-85633600D01*
X151737200Y-85633600D01*
X151751658Y-85634310D01*
G37*
G36*
X155129758Y-89291910D02*
G01*
X155144076Y-89294034D01*
X155158117Y-89297551D01*
X155171746Y-89302428D01*
X155184831Y-89308617D01*
X155197247Y-89316058D01*
X155208873Y-89324681D01*
X155219598Y-89334402D01*
X155229319Y-89345127D01*
X155237942Y-89356753D01*
X155245383Y-89369169D01*
X155251572Y-89382254D01*
X155256449Y-89395883D01*
X155259966Y-89409924D01*
X155262090Y-89424242D01*
X155262800Y-89438700D01*
X155262800Y-89783700D01*
X155262090Y-89798158D01*
X155259966Y-89812476D01*
X155256449Y-89826517D01*
X155251572Y-89840146D01*
X155245383Y-89853231D01*
X155237942Y-89865647D01*
X155229319Y-89877273D01*
X155219598Y-89887998D01*
X155208873Y-89897719D01*
X155197247Y-89906342D01*
X155184831Y-89913783D01*
X155171746Y-89919972D01*
X155158117Y-89924849D01*
X155144076Y-89928366D01*
X155129758Y-89930490D01*
X155115300Y-89931200D01*
X154820300Y-89931200D01*
X154805842Y-89930490D01*
X154791524Y-89928366D01*
X154777483Y-89924849D01*
X154763854Y-89919972D01*
X154750769Y-89913783D01*
X154738353Y-89906342D01*
X154726727Y-89897719D01*
X154716002Y-89887998D01*
X154706281Y-89877273D01*
X154697658Y-89865647D01*
X154690217Y-89853231D01*
X154684028Y-89840146D01*
X154679151Y-89826517D01*
X154675634Y-89812476D01*
X154673510Y-89798158D01*
X154672800Y-89783700D01*
X154672800Y-89438700D01*
X154673510Y-89424242D01*
X154675634Y-89409924D01*
X154679151Y-89395883D01*
X154684028Y-89382254D01*
X154690217Y-89369169D01*
X154697658Y-89356753D01*
X154706281Y-89345127D01*
X154716002Y-89334402D01*
X154726727Y-89324681D01*
X154738353Y-89316058D01*
X154750769Y-89308617D01*
X154763854Y-89302428D01*
X154777483Y-89297551D01*
X154791524Y-89294034D01*
X154805842Y-89291910D01*
X154820300Y-89291200D01*
X155115300Y-89291200D01*
X155129758Y-89291910D01*
G37*
G36*
X154159758Y-89291910D02*
G01*
X154174076Y-89294034D01*
X154188117Y-89297551D01*
X154201746Y-89302428D01*
X154214831Y-89308617D01*
X154227247Y-89316058D01*
X154238873Y-89324681D01*
X154249598Y-89334402D01*
X154259319Y-89345127D01*
X154267942Y-89356753D01*
X154275383Y-89369169D01*
X154281572Y-89382254D01*
X154286449Y-89395883D01*
X154289966Y-89409924D01*
X154292090Y-89424242D01*
X154292800Y-89438700D01*
X154292800Y-89783700D01*
X154292090Y-89798158D01*
X154289966Y-89812476D01*
X154286449Y-89826517D01*
X154281572Y-89840146D01*
X154275383Y-89853231D01*
X154267942Y-89865647D01*
X154259319Y-89877273D01*
X154249598Y-89887998D01*
X154238873Y-89897719D01*
X154227247Y-89906342D01*
X154214831Y-89913783D01*
X154201746Y-89919972D01*
X154188117Y-89924849D01*
X154174076Y-89928366D01*
X154159758Y-89930490D01*
X154145300Y-89931200D01*
X153850300Y-89931200D01*
X153835842Y-89930490D01*
X153821524Y-89928366D01*
X153807483Y-89924849D01*
X153793854Y-89919972D01*
X153780769Y-89913783D01*
X153768353Y-89906342D01*
X153756727Y-89897719D01*
X153746002Y-89887998D01*
X153736281Y-89877273D01*
X153727658Y-89865647D01*
X153720217Y-89853231D01*
X153714028Y-89840146D01*
X153709151Y-89826517D01*
X153705634Y-89812476D01*
X153703510Y-89798158D01*
X153702800Y-89783700D01*
X153702800Y-89438700D01*
X153703510Y-89424242D01*
X153705634Y-89409924D01*
X153709151Y-89395883D01*
X153714028Y-89382254D01*
X153720217Y-89369169D01*
X153727658Y-89356753D01*
X153736281Y-89345127D01*
X153746002Y-89334402D01*
X153756727Y-89324681D01*
X153768353Y-89316058D01*
X153780769Y-89308617D01*
X153793854Y-89302428D01*
X153807483Y-89297551D01*
X153821524Y-89294034D01*
X153835842Y-89291910D01*
X153850300Y-89291200D01*
X154145300Y-89291200D01*
X154159758Y-89291910D01*
G37*
G36*
X158838158Y-89342710D02*
G01*
X158852476Y-89344834D01*
X158866517Y-89348351D01*
X158880146Y-89353228D01*
X158893231Y-89359417D01*
X158905647Y-89366858D01*
X158917273Y-89375481D01*
X158927998Y-89385202D01*
X158937719Y-89395927D01*
X158946342Y-89407553D01*
X158953783Y-89419969D01*
X158959972Y-89433054D01*
X158964849Y-89446683D01*
X158968366Y-89460724D01*
X158970490Y-89475042D01*
X158971200Y-89489500D01*
X158971200Y-89834500D01*
X158970490Y-89848958D01*
X158968366Y-89863276D01*
X158964849Y-89877317D01*
X158959972Y-89890946D01*
X158953783Y-89904031D01*
X158946342Y-89916447D01*
X158937719Y-89928073D01*
X158927998Y-89938798D01*
X158917273Y-89948519D01*
X158905647Y-89957142D01*
X158893231Y-89964583D01*
X158880146Y-89970772D01*
X158866517Y-89975649D01*
X158852476Y-89979166D01*
X158838158Y-89981290D01*
X158823700Y-89982000D01*
X158528700Y-89982000D01*
X158514242Y-89981290D01*
X158499924Y-89979166D01*
X158485883Y-89975649D01*
X158472254Y-89970772D01*
X158459169Y-89964583D01*
X158446753Y-89957142D01*
X158435127Y-89948519D01*
X158424402Y-89938798D01*
X158414681Y-89928073D01*
X158406058Y-89916447D01*
X158398617Y-89904031D01*
X158392428Y-89890946D01*
X158387551Y-89877317D01*
X158384034Y-89863276D01*
X158381910Y-89848958D01*
X158381200Y-89834500D01*
X158381200Y-89489500D01*
X158381910Y-89475042D01*
X158384034Y-89460724D01*
X158387551Y-89446683D01*
X158392428Y-89433054D01*
X158398617Y-89419969D01*
X158406058Y-89407553D01*
X158414681Y-89395927D01*
X158424402Y-89385202D01*
X158435127Y-89375481D01*
X158446753Y-89366858D01*
X158459169Y-89359417D01*
X158472254Y-89353228D01*
X158485883Y-89348351D01*
X158499924Y-89344834D01*
X158514242Y-89342710D01*
X158528700Y-89342000D01*
X158823700Y-89342000D01*
X158838158Y-89342710D01*
G37*
G36*
X157868158Y-89342710D02*
G01*
X157882476Y-89344834D01*
X157896517Y-89348351D01*
X157910146Y-89353228D01*
X157923231Y-89359417D01*
X157935647Y-89366858D01*
X157947273Y-89375481D01*
X157957998Y-89385202D01*
X157967719Y-89395927D01*
X157976342Y-89407553D01*
X157983783Y-89419969D01*
X157989972Y-89433054D01*
X157994849Y-89446683D01*
X157998366Y-89460724D01*
X158000490Y-89475042D01*
X158001200Y-89489500D01*
X158001200Y-89834500D01*
X158000490Y-89848958D01*
X157998366Y-89863276D01*
X157994849Y-89877317D01*
X157989972Y-89890946D01*
X157983783Y-89904031D01*
X157976342Y-89916447D01*
X157967719Y-89928073D01*
X157957998Y-89938798D01*
X157947273Y-89948519D01*
X157935647Y-89957142D01*
X157923231Y-89964583D01*
X157910146Y-89970772D01*
X157896517Y-89975649D01*
X157882476Y-89979166D01*
X157868158Y-89981290D01*
X157853700Y-89982000D01*
X157558700Y-89982000D01*
X157544242Y-89981290D01*
X157529924Y-89979166D01*
X157515883Y-89975649D01*
X157502254Y-89970772D01*
X157489169Y-89964583D01*
X157476753Y-89957142D01*
X157465127Y-89948519D01*
X157454402Y-89938798D01*
X157444681Y-89928073D01*
X157436058Y-89916447D01*
X157428617Y-89904031D01*
X157422428Y-89890946D01*
X157417551Y-89877317D01*
X157414034Y-89863276D01*
X157411910Y-89848958D01*
X157411200Y-89834500D01*
X157411200Y-89489500D01*
X157411910Y-89475042D01*
X157414034Y-89460724D01*
X157417551Y-89446683D01*
X157422428Y-89433054D01*
X157428617Y-89419969D01*
X157436058Y-89407553D01*
X157444681Y-89395927D01*
X157454402Y-89385202D01*
X157465127Y-89375481D01*
X157476753Y-89366858D01*
X157489169Y-89359417D01*
X157502254Y-89353228D01*
X157515883Y-89348351D01*
X157529924Y-89344834D01*
X157544242Y-89342710D01*
X157558700Y-89342000D01*
X157853700Y-89342000D01*
X157868158Y-89342710D01*
G37*
G36*
X159193758Y-100112310D02*
G01*
X159208076Y-100114434D01*
X159222117Y-100117951D01*
X159235746Y-100122828D01*
X159248831Y-100129017D01*
X159261247Y-100136458D01*
X159272873Y-100145081D01*
X159283598Y-100154802D01*
X159293319Y-100165527D01*
X159301942Y-100177153D01*
X159309383Y-100189569D01*
X159315572Y-100202654D01*
X159320449Y-100216283D01*
X159323966Y-100230324D01*
X159326090Y-100244642D01*
X159326800Y-100259100D01*
X159326800Y-100604100D01*
X159326090Y-100618558D01*
X159323966Y-100632876D01*
X159320449Y-100646917D01*
X159315572Y-100660546D01*
X159309383Y-100673631D01*
X159301942Y-100686047D01*
X159293319Y-100697673D01*
X159283598Y-100708398D01*
X159272873Y-100718119D01*
X159261247Y-100726742D01*
X159248831Y-100734183D01*
X159235746Y-100740372D01*
X159222117Y-100745249D01*
X159208076Y-100748766D01*
X159193758Y-100750890D01*
X159179300Y-100751600D01*
X158884300Y-100751600D01*
X158869842Y-100750890D01*
X158855524Y-100748766D01*
X158841483Y-100745249D01*
X158827854Y-100740372D01*
X158814769Y-100734183D01*
X158802353Y-100726742D01*
X158790727Y-100718119D01*
X158780002Y-100708398D01*
X158770281Y-100697673D01*
X158761658Y-100686047D01*
X158754217Y-100673631D01*
X158748028Y-100660546D01*
X158743151Y-100646917D01*
X158739634Y-100632876D01*
X158737510Y-100618558D01*
X158736800Y-100604100D01*
X158736800Y-100259100D01*
X158737510Y-100244642D01*
X158739634Y-100230324D01*
X158743151Y-100216283D01*
X158748028Y-100202654D01*
X158754217Y-100189569D01*
X158761658Y-100177153D01*
X158770281Y-100165527D01*
X158780002Y-100154802D01*
X158790727Y-100145081D01*
X158802353Y-100136458D01*
X158814769Y-100129017D01*
X158827854Y-100122828D01*
X158841483Y-100117951D01*
X158855524Y-100114434D01*
X158869842Y-100112310D01*
X158884300Y-100111600D01*
X159179300Y-100111600D01*
X159193758Y-100112310D01*
G37*
G36*
X158223758Y-100112310D02*
G01*
X158238076Y-100114434D01*
X158252117Y-100117951D01*
X158265746Y-100122828D01*
X158278831Y-100129017D01*
X158291247Y-100136458D01*
X158302873Y-100145081D01*
X158313598Y-100154802D01*
X158323319Y-100165527D01*
X158331942Y-100177153D01*
X158339383Y-100189569D01*
X158345572Y-100202654D01*
X158350449Y-100216283D01*
X158353966Y-100230324D01*
X158356090Y-100244642D01*
X158356800Y-100259100D01*
X158356800Y-100604100D01*
X158356090Y-100618558D01*
X158353966Y-100632876D01*
X158350449Y-100646917D01*
X158345572Y-100660546D01*
X158339383Y-100673631D01*
X158331942Y-100686047D01*
X158323319Y-100697673D01*
X158313598Y-100708398D01*
X158302873Y-100718119D01*
X158291247Y-100726742D01*
X158278831Y-100734183D01*
X158265746Y-100740372D01*
X158252117Y-100745249D01*
X158238076Y-100748766D01*
X158223758Y-100750890D01*
X158209300Y-100751600D01*
X157914300Y-100751600D01*
X157899842Y-100750890D01*
X157885524Y-100748766D01*
X157871483Y-100745249D01*
X157857854Y-100740372D01*
X157844769Y-100734183D01*
X157832353Y-100726742D01*
X157820727Y-100718119D01*
X157810002Y-100708398D01*
X157800281Y-100697673D01*
X157791658Y-100686047D01*
X157784217Y-100673631D01*
X157778028Y-100660546D01*
X157773151Y-100646917D01*
X157769634Y-100632876D01*
X157767510Y-100618558D01*
X157766800Y-100604100D01*
X157766800Y-100259100D01*
X157767510Y-100244642D01*
X157769634Y-100230324D01*
X157773151Y-100216283D01*
X157778028Y-100202654D01*
X157784217Y-100189569D01*
X157791658Y-100177153D01*
X157800281Y-100165527D01*
X157810002Y-100154802D01*
X157820727Y-100145081D01*
X157832353Y-100136458D01*
X157844769Y-100129017D01*
X157857854Y-100122828D01*
X157871483Y-100117951D01*
X157885524Y-100114434D01*
X157899842Y-100112310D01*
X157914300Y-100111600D01*
X158209300Y-100111600D01*
X158223758Y-100112310D01*
G37*
G36*
X155446958Y-100180710D02*
G01*
X155461276Y-100182834D01*
X155475317Y-100186351D01*
X155488946Y-100191228D01*
X155502031Y-100197417D01*
X155514447Y-100204858D01*
X155526073Y-100213481D01*
X155536798Y-100223202D01*
X155546519Y-100233927D01*
X155555142Y-100245553D01*
X155562583Y-100257969D01*
X155568772Y-100271054D01*
X155573649Y-100284683D01*
X155577166Y-100298724D01*
X155579290Y-100313042D01*
X155580000Y-100327500D01*
X155580000Y-100672500D01*
X155579290Y-100686958D01*
X155577166Y-100701276D01*
X155573649Y-100715317D01*
X155568772Y-100728946D01*
X155562583Y-100742031D01*
X155555142Y-100754447D01*
X155546519Y-100766073D01*
X155536798Y-100776798D01*
X155526073Y-100786519D01*
X155514447Y-100795142D01*
X155502031Y-100802583D01*
X155488946Y-100808772D01*
X155475317Y-100813649D01*
X155461276Y-100817166D01*
X155446958Y-100819290D01*
X155432500Y-100820000D01*
X155137500Y-100820000D01*
X155123042Y-100819290D01*
X155108724Y-100817166D01*
X155094683Y-100813649D01*
X155081054Y-100808772D01*
X155067969Y-100802583D01*
X155055553Y-100795142D01*
X155043927Y-100786519D01*
X155033202Y-100776798D01*
X155023481Y-100766073D01*
X155014858Y-100754447D01*
X155007417Y-100742031D01*
X155001228Y-100728946D01*
X154996351Y-100715317D01*
X154992834Y-100701276D01*
X154990710Y-100686958D01*
X154990000Y-100672500D01*
X154990000Y-100327500D01*
X154990710Y-100313042D01*
X154992834Y-100298724D01*
X154996351Y-100284683D01*
X155001228Y-100271054D01*
X155007417Y-100257969D01*
X155014858Y-100245553D01*
X155023481Y-100233927D01*
X155033202Y-100223202D01*
X155043927Y-100213481D01*
X155055553Y-100204858D01*
X155067969Y-100197417D01*
X155081054Y-100191228D01*
X155094683Y-100186351D01*
X155108724Y-100182834D01*
X155123042Y-100180710D01*
X155137500Y-100180000D01*
X155432500Y-100180000D01*
X155446958Y-100180710D01*
G37*
G36*
X154476958Y-100180710D02*
G01*
X154491276Y-100182834D01*
X154505317Y-100186351D01*
X154518946Y-100191228D01*
X154532031Y-100197417D01*
X154544447Y-100204858D01*
X154556073Y-100213481D01*
X154566798Y-100223202D01*
X154576519Y-100233927D01*
X154585142Y-100245553D01*
X154592583Y-100257969D01*
X154598772Y-100271054D01*
X154603649Y-100284683D01*
X154607166Y-100298724D01*
X154609290Y-100313042D01*
X154610000Y-100327500D01*
X154610000Y-100672500D01*
X154609290Y-100686958D01*
X154607166Y-100701276D01*
X154603649Y-100715317D01*
X154598772Y-100728946D01*
X154592583Y-100742031D01*
X154585142Y-100754447D01*
X154576519Y-100766073D01*
X154566798Y-100776798D01*
X154556073Y-100786519D01*
X154544447Y-100795142D01*
X154532031Y-100802583D01*
X154518946Y-100808772D01*
X154505317Y-100813649D01*
X154491276Y-100817166D01*
X154476958Y-100819290D01*
X154462500Y-100820000D01*
X154167500Y-100820000D01*
X154153042Y-100819290D01*
X154138724Y-100817166D01*
X154124683Y-100813649D01*
X154111054Y-100808772D01*
X154097969Y-100802583D01*
X154085553Y-100795142D01*
X154073927Y-100786519D01*
X154063202Y-100776798D01*
X154053481Y-100766073D01*
X154044858Y-100754447D01*
X154037417Y-100742031D01*
X154031228Y-100728946D01*
X154026351Y-100715317D01*
X154022834Y-100701276D01*
X154020710Y-100686958D01*
X154020000Y-100672500D01*
X154020000Y-100327500D01*
X154020710Y-100313042D01*
X154022834Y-100298724D01*
X154026351Y-100284683D01*
X154031228Y-100271054D01*
X154037417Y-100257969D01*
X154044858Y-100245553D01*
X154053481Y-100233927D01*
X154063202Y-100223202D01*
X154073927Y-100213481D01*
X154085553Y-100204858D01*
X154097969Y-100197417D01*
X154111054Y-100191228D01*
X154124683Y-100186351D01*
X154138724Y-100182834D01*
X154153042Y-100180710D01*
X154167500Y-100180000D01*
X154462500Y-100180000D01*
X154476958Y-100180710D01*
G37*
D15*
X158828740Y-92999560D03*
X158828740Y-93499940D03*
X158828740Y-94000320D03*
X158828740Y-94500700D03*
X158828740Y-95001080D03*
X158828740Y-95498920D03*
X158828740Y-95999300D03*
X158828740Y-96499680D03*
X158828740Y-97000060D03*
X158828740Y-97500440D03*
D16*
X158079440Y-98125280D03*
X157579060Y-98125280D03*
X157078680Y-98125280D03*
X156578300Y-98125280D03*
X156077920Y-98125280D03*
X155580080Y-98125280D03*
X155079700Y-98125280D03*
X154579320Y-98125280D03*
X154078940Y-98125280D03*
X153578560Y-98125280D03*
D15*
X152829260Y-97500440D03*
X152829260Y-97000060D03*
X152829260Y-96499680D03*
X152829260Y-95999300D03*
X152829260Y-95498920D03*
X152829260Y-95001080D03*
X152829260Y-94500700D03*
X152829260Y-94000320D03*
X152829260Y-93499940D03*
X152829260Y-92999560D03*
D16*
X153578560Y-92374720D03*
X154078940Y-92374720D03*
X154579320Y-92374720D03*
X155079700Y-92374720D03*
X155580080Y-92374720D03*
X156080460Y-92374720D03*
X156578300Y-92374720D03*
X157078680Y-92374720D03*
X157579060Y-92374720D03*
X158079440Y-92374720D03*
D14*
G36*
X171941758Y-114409710D02*
G01*
X171956076Y-114411834D01*
X171970117Y-114415351D01*
X171983746Y-114420228D01*
X171996831Y-114426417D01*
X172009247Y-114433858D01*
X172020873Y-114442481D01*
X172031598Y-114452202D01*
X172041319Y-114462927D01*
X172049942Y-114474553D01*
X172057383Y-114486969D01*
X172063572Y-114500054D01*
X172068449Y-114513683D01*
X172071966Y-114527724D01*
X172074090Y-114542042D01*
X172074800Y-114556500D01*
X172074800Y-114851500D01*
X172074090Y-114865958D01*
X172071966Y-114880276D01*
X172068449Y-114894317D01*
X172063572Y-114907946D01*
X172057383Y-114921031D01*
X172049942Y-114933447D01*
X172041319Y-114945073D01*
X172031598Y-114955798D01*
X172020873Y-114965519D01*
X172009247Y-114974142D01*
X171996831Y-114981583D01*
X171983746Y-114987772D01*
X171970117Y-114992649D01*
X171956076Y-114996166D01*
X171941758Y-114998290D01*
X171927300Y-114999000D01*
X171582300Y-114999000D01*
X171567842Y-114998290D01*
X171553524Y-114996166D01*
X171539483Y-114992649D01*
X171525854Y-114987772D01*
X171512769Y-114981583D01*
X171500353Y-114974142D01*
X171488727Y-114965519D01*
X171478002Y-114955798D01*
X171468281Y-114945073D01*
X171459658Y-114933447D01*
X171452217Y-114921031D01*
X171446028Y-114907946D01*
X171441151Y-114894317D01*
X171437634Y-114880276D01*
X171435510Y-114865958D01*
X171434800Y-114851500D01*
X171434800Y-114556500D01*
X171435510Y-114542042D01*
X171437634Y-114527724D01*
X171441151Y-114513683D01*
X171446028Y-114500054D01*
X171452217Y-114486969D01*
X171459658Y-114474553D01*
X171468281Y-114462927D01*
X171478002Y-114452202D01*
X171488727Y-114442481D01*
X171500353Y-114433858D01*
X171512769Y-114426417D01*
X171525854Y-114420228D01*
X171539483Y-114415351D01*
X171553524Y-114411834D01*
X171567842Y-114409710D01*
X171582300Y-114409000D01*
X171927300Y-114409000D01*
X171941758Y-114409710D01*
G37*
G36*
X171941758Y-115379710D02*
G01*
X171956076Y-115381834D01*
X171970117Y-115385351D01*
X171983746Y-115390228D01*
X171996831Y-115396417D01*
X172009247Y-115403858D01*
X172020873Y-115412481D01*
X172031598Y-115422202D01*
X172041319Y-115432927D01*
X172049942Y-115444553D01*
X172057383Y-115456969D01*
X172063572Y-115470054D01*
X172068449Y-115483683D01*
X172071966Y-115497724D01*
X172074090Y-115512042D01*
X172074800Y-115526500D01*
X172074800Y-115821500D01*
X172074090Y-115835958D01*
X172071966Y-115850276D01*
X172068449Y-115864317D01*
X172063572Y-115877946D01*
X172057383Y-115891031D01*
X172049942Y-115903447D01*
X172041319Y-115915073D01*
X172031598Y-115925798D01*
X172020873Y-115935519D01*
X172009247Y-115944142D01*
X171996831Y-115951583D01*
X171983746Y-115957772D01*
X171970117Y-115962649D01*
X171956076Y-115966166D01*
X171941758Y-115968290D01*
X171927300Y-115969000D01*
X171582300Y-115969000D01*
X171567842Y-115968290D01*
X171553524Y-115966166D01*
X171539483Y-115962649D01*
X171525854Y-115957772D01*
X171512769Y-115951583D01*
X171500353Y-115944142D01*
X171488727Y-115935519D01*
X171478002Y-115925798D01*
X171468281Y-115915073D01*
X171459658Y-115903447D01*
X171452217Y-115891031D01*
X171446028Y-115877946D01*
X171441151Y-115864317D01*
X171437634Y-115850276D01*
X171435510Y-115835958D01*
X171434800Y-115821500D01*
X171434800Y-115526500D01*
X171435510Y-115512042D01*
X171437634Y-115497724D01*
X171441151Y-115483683D01*
X171446028Y-115470054D01*
X171452217Y-115456969D01*
X171459658Y-115444553D01*
X171468281Y-115432927D01*
X171478002Y-115422202D01*
X171488727Y-115412481D01*
X171500353Y-115403858D01*
X171512769Y-115396417D01*
X171525854Y-115390228D01*
X171539483Y-115385351D01*
X171553524Y-115381834D01*
X171567842Y-115379710D01*
X171582300Y-115379000D01*
X171927300Y-115379000D01*
X171941758Y-115379710D01*
G37*
G36*
X155164704Y-108651004D02*
G01*
X155188973Y-108654604D01*
X155212771Y-108660565D01*
X155235871Y-108668830D01*
X155258049Y-108679320D01*
X155279093Y-108691933D01*
X155298798Y-108706547D01*
X155316977Y-108723023D01*
X155333453Y-108741202D01*
X155348067Y-108760907D01*
X155360680Y-108781951D01*
X155371170Y-108804129D01*
X155379435Y-108827229D01*
X155385396Y-108851027D01*
X155388996Y-108875296D01*
X155390200Y-108899800D01*
X155390200Y-110149800D01*
X155388996Y-110174304D01*
X155385396Y-110198573D01*
X155379435Y-110222371D01*
X155371170Y-110245471D01*
X155360680Y-110267649D01*
X155348067Y-110288693D01*
X155333453Y-110308398D01*
X155316977Y-110326577D01*
X155298798Y-110343053D01*
X155279093Y-110357667D01*
X155258049Y-110370280D01*
X155235871Y-110380770D01*
X155212771Y-110389035D01*
X155188973Y-110394996D01*
X155164704Y-110398596D01*
X155140200Y-110399800D01*
X154390200Y-110399800D01*
X154365696Y-110398596D01*
X154341427Y-110394996D01*
X154317629Y-110389035D01*
X154294529Y-110380770D01*
X154272351Y-110370280D01*
X154251307Y-110357667D01*
X154231602Y-110343053D01*
X154213423Y-110326577D01*
X154196947Y-110308398D01*
X154182333Y-110288693D01*
X154169720Y-110267649D01*
X154159230Y-110245471D01*
X154150965Y-110222371D01*
X154145004Y-110198573D01*
X154141404Y-110174304D01*
X154140200Y-110149800D01*
X154140200Y-108899800D01*
X154141404Y-108875296D01*
X154145004Y-108851027D01*
X154150965Y-108827229D01*
X154159230Y-108804129D01*
X154169720Y-108781951D01*
X154182333Y-108760907D01*
X154196947Y-108741202D01*
X154213423Y-108723023D01*
X154231602Y-108706547D01*
X154251307Y-108691933D01*
X154272351Y-108679320D01*
X154294529Y-108668830D01*
X154317629Y-108660565D01*
X154341427Y-108654604D01*
X154365696Y-108651004D01*
X154390200Y-108649800D01*
X155140200Y-108649800D01*
X155164704Y-108651004D01*
G37*
G36*
X152364704Y-108651004D02*
G01*
X152388973Y-108654604D01*
X152412771Y-108660565D01*
X152435871Y-108668830D01*
X152458049Y-108679320D01*
X152479093Y-108691933D01*
X152498798Y-108706547D01*
X152516977Y-108723023D01*
X152533453Y-108741202D01*
X152548067Y-108760907D01*
X152560680Y-108781951D01*
X152571170Y-108804129D01*
X152579435Y-108827229D01*
X152585396Y-108851027D01*
X152588996Y-108875296D01*
X152590200Y-108899800D01*
X152590200Y-110149800D01*
X152588996Y-110174304D01*
X152585396Y-110198573D01*
X152579435Y-110222371D01*
X152571170Y-110245471D01*
X152560680Y-110267649D01*
X152548067Y-110288693D01*
X152533453Y-110308398D01*
X152516977Y-110326577D01*
X152498798Y-110343053D01*
X152479093Y-110357667D01*
X152458049Y-110370280D01*
X152435871Y-110380770D01*
X152412771Y-110389035D01*
X152388973Y-110394996D01*
X152364704Y-110398596D01*
X152340200Y-110399800D01*
X151590200Y-110399800D01*
X151565696Y-110398596D01*
X151541427Y-110394996D01*
X151517629Y-110389035D01*
X151494529Y-110380770D01*
X151472351Y-110370280D01*
X151451307Y-110357667D01*
X151431602Y-110343053D01*
X151413423Y-110326577D01*
X151396947Y-110308398D01*
X151382333Y-110288693D01*
X151369720Y-110267649D01*
X151359230Y-110245471D01*
X151350965Y-110222371D01*
X151345004Y-110198573D01*
X151341404Y-110174304D01*
X151340200Y-110149800D01*
X151340200Y-108899800D01*
X151341404Y-108875296D01*
X151345004Y-108851027D01*
X151350965Y-108827229D01*
X151359230Y-108804129D01*
X151369720Y-108781951D01*
X151382333Y-108760907D01*
X151396947Y-108741202D01*
X151413423Y-108723023D01*
X151431602Y-108706547D01*
X151451307Y-108691933D01*
X151472351Y-108679320D01*
X151494529Y-108668830D01*
X151517629Y-108660565D01*
X151541427Y-108654604D01*
X151565696Y-108651004D01*
X151590200Y-108649800D01*
X152340200Y-108649800D01*
X152364704Y-108651004D01*
G37*
G36*
X157038304Y-108651004D02*
G01*
X157062573Y-108654604D01*
X157086371Y-108660565D01*
X157109471Y-108668830D01*
X157131649Y-108679320D01*
X157152693Y-108691933D01*
X157172398Y-108706547D01*
X157190577Y-108723023D01*
X157207053Y-108741202D01*
X157221667Y-108760907D01*
X157234280Y-108781951D01*
X157244770Y-108804129D01*
X157253035Y-108827229D01*
X157258996Y-108851027D01*
X157262596Y-108875296D01*
X157263800Y-108899800D01*
X157263800Y-110149800D01*
X157262596Y-110174304D01*
X157258996Y-110198573D01*
X157253035Y-110222371D01*
X157244770Y-110245471D01*
X157234280Y-110267649D01*
X157221667Y-110288693D01*
X157207053Y-110308398D01*
X157190577Y-110326577D01*
X157172398Y-110343053D01*
X157152693Y-110357667D01*
X157131649Y-110370280D01*
X157109471Y-110380770D01*
X157086371Y-110389035D01*
X157062573Y-110394996D01*
X157038304Y-110398596D01*
X157013800Y-110399800D01*
X156263800Y-110399800D01*
X156239296Y-110398596D01*
X156215027Y-110394996D01*
X156191229Y-110389035D01*
X156168129Y-110380770D01*
X156145951Y-110370280D01*
X156124907Y-110357667D01*
X156105202Y-110343053D01*
X156087023Y-110326577D01*
X156070547Y-110308398D01*
X156055933Y-110288693D01*
X156043320Y-110267649D01*
X156032830Y-110245471D01*
X156024565Y-110222371D01*
X156018604Y-110198573D01*
X156015004Y-110174304D01*
X156013800Y-110149800D01*
X156013800Y-108899800D01*
X156015004Y-108875296D01*
X156018604Y-108851027D01*
X156024565Y-108827229D01*
X156032830Y-108804129D01*
X156043320Y-108781951D01*
X156055933Y-108760907D01*
X156070547Y-108741202D01*
X156087023Y-108723023D01*
X156105202Y-108706547D01*
X156124907Y-108691933D01*
X156145951Y-108679320D01*
X156168129Y-108668830D01*
X156191229Y-108660565D01*
X156215027Y-108654604D01*
X156239296Y-108651004D01*
X156263800Y-108649800D01*
X157013800Y-108649800D01*
X157038304Y-108651004D01*
G37*
G36*
X159838304Y-108651004D02*
G01*
X159862573Y-108654604D01*
X159886371Y-108660565D01*
X159909471Y-108668830D01*
X159931649Y-108679320D01*
X159952693Y-108691933D01*
X159972398Y-108706547D01*
X159990577Y-108723023D01*
X160007053Y-108741202D01*
X160021667Y-108760907D01*
X160034280Y-108781951D01*
X160044770Y-108804129D01*
X160053035Y-108827229D01*
X160058996Y-108851027D01*
X160062596Y-108875296D01*
X160063800Y-108899800D01*
X160063800Y-110149800D01*
X160062596Y-110174304D01*
X160058996Y-110198573D01*
X160053035Y-110222371D01*
X160044770Y-110245471D01*
X160034280Y-110267649D01*
X160021667Y-110288693D01*
X160007053Y-110308398D01*
X159990577Y-110326577D01*
X159972398Y-110343053D01*
X159952693Y-110357667D01*
X159931649Y-110370280D01*
X159909471Y-110380770D01*
X159886371Y-110389035D01*
X159862573Y-110394996D01*
X159838304Y-110398596D01*
X159813800Y-110399800D01*
X159063800Y-110399800D01*
X159039296Y-110398596D01*
X159015027Y-110394996D01*
X158991229Y-110389035D01*
X158968129Y-110380770D01*
X158945951Y-110370280D01*
X158924907Y-110357667D01*
X158905202Y-110343053D01*
X158887023Y-110326577D01*
X158870547Y-110308398D01*
X158855933Y-110288693D01*
X158843320Y-110267649D01*
X158832830Y-110245471D01*
X158824565Y-110222371D01*
X158818604Y-110198573D01*
X158815004Y-110174304D01*
X158813800Y-110149800D01*
X158813800Y-108899800D01*
X158815004Y-108875296D01*
X158818604Y-108851027D01*
X158824565Y-108827229D01*
X158832830Y-108804129D01*
X158843320Y-108781951D01*
X158855933Y-108760907D01*
X158870547Y-108741202D01*
X158887023Y-108723023D01*
X158905202Y-108706547D01*
X158924907Y-108691933D01*
X158945951Y-108679320D01*
X158968129Y-108668830D01*
X158991229Y-108660565D01*
X159015027Y-108654604D01*
X159039296Y-108651004D01*
X159063800Y-108649800D01*
X159813800Y-108649800D01*
X159838304Y-108651004D01*
G37*
G36*
X159838304Y-78120204D02*
G01*
X159862573Y-78123804D01*
X159886371Y-78129765D01*
X159909471Y-78138030D01*
X159931649Y-78148520D01*
X159952693Y-78161133D01*
X159972398Y-78175747D01*
X159990577Y-78192223D01*
X160007053Y-78210402D01*
X160021667Y-78230107D01*
X160034280Y-78251151D01*
X160044770Y-78273329D01*
X160053035Y-78296429D01*
X160058996Y-78320227D01*
X160062596Y-78344496D01*
X160063800Y-78369000D01*
X160063800Y-79619000D01*
X160062596Y-79643504D01*
X160058996Y-79667773D01*
X160053035Y-79691571D01*
X160044770Y-79714671D01*
X160034280Y-79736849D01*
X160021667Y-79757893D01*
X160007053Y-79777598D01*
X159990577Y-79795777D01*
X159972398Y-79812253D01*
X159952693Y-79826867D01*
X159931649Y-79839480D01*
X159909471Y-79849970D01*
X159886371Y-79858235D01*
X159862573Y-79864196D01*
X159838304Y-79867796D01*
X159813800Y-79869000D01*
X159063800Y-79869000D01*
X159039296Y-79867796D01*
X159015027Y-79864196D01*
X158991229Y-79858235D01*
X158968129Y-79849970D01*
X158945951Y-79839480D01*
X158924907Y-79826867D01*
X158905202Y-79812253D01*
X158887023Y-79795777D01*
X158870547Y-79777598D01*
X158855933Y-79757893D01*
X158843320Y-79736849D01*
X158832830Y-79714671D01*
X158824565Y-79691571D01*
X158818604Y-79667773D01*
X158815004Y-79643504D01*
X158813800Y-79619000D01*
X158813800Y-78369000D01*
X158815004Y-78344496D01*
X158818604Y-78320227D01*
X158824565Y-78296429D01*
X158832830Y-78273329D01*
X158843320Y-78251151D01*
X158855933Y-78230107D01*
X158870547Y-78210402D01*
X158887023Y-78192223D01*
X158905202Y-78175747D01*
X158924907Y-78161133D01*
X158945951Y-78148520D01*
X158968129Y-78138030D01*
X158991229Y-78129765D01*
X159015027Y-78123804D01*
X159039296Y-78120204D01*
X159063800Y-78119000D01*
X159813800Y-78119000D01*
X159838304Y-78120204D01*
G37*
G36*
X157038304Y-78120204D02*
G01*
X157062573Y-78123804D01*
X157086371Y-78129765D01*
X157109471Y-78138030D01*
X157131649Y-78148520D01*
X157152693Y-78161133D01*
X157172398Y-78175747D01*
X157190577Y-78192223D01*
X157207053Y-78210402D01*
X157221667Y-78230107D01*
X157234280Y-78251151D01*
X157244770Y-78273329D01*
X157253035Y-78296429D01*
X157258996Y-78320227D01*
X157262596Y-78344496D01*
X157263800Y-78369000D01*
X157263800Y-79619000D01*
X157262596Y-79643504D01*
X157258996Y-79667773D01*
X157253035Y-79691571D01*
X157244770Y-79714671D01*
X157234280Y-79736849D01*
X157221667Y-79757893D01*
X157207053Y-79777598D01*
X157190577Y-79795777D01*
X157172398Y-79812253D01*
X157152693Y-79826867D01*
X157131649Y-79839480D01*
X157109471Y-79849970D01*
X157086371Y-79858235D01*
X157062573Y-79864196D01*
X157038304Y-79867796D01*
X157013800Y-79869000D01*
X156263800Y-79869000D01*
X156239296Y-79867796D01*
X156215027Y-79864196D01*
X156191229Y-79858235D01*
X156168129Y-79849970D01*
X156145951Y-79839480D01*
X156124907Y-79826867D01*
X156105202Y-79812253D01*
X156087023Y-79795777D01*
X156070547Y-79777598D01*
X156055933Y-79757893D01*
X156043320Y-79736849D01*
X156032830Y-79714671D01*
X156024565Y-79691571D01*
X156018604Y-79667773D01*
X156015004Y-79643504D01*
X156013800Y-79619000D01*
X156013800Y-78369000D01*
X156015004Y-78344496D01*
X156018604Y-78320227D01*
X156024565Y-78296429D01*
X156032830Y-78273329D01*
X156043320Y-78251151D01*
X156055933Y-78230107D01*
X156070547Y-78210402D01*
X156087023Y-78192223D01*
X156105202Y-78175747D01*
X156124907Y-78161133D01*
X156145951Y-78148520D01*
X156168129Y-78138030D01*
X156191229Y-78129765D01*
X156215027Y-78123804D01*
X156239296Y-78120204D01*
X156263800Y-78119000D01*
X157013800Y-78119000D01*
X157038304Y-78120204D01*
G37*
G36*
X146319504Y-80355404D02*
G01*
X146343773Y-80359004D01*
X146367571Y-80364965D01*
X146390671Y-80373230D01*
X146412849Y-80383720D01*
X146433893Y-80396333D01*
X146453598Y-80410947D01*
X146471777Y-80427423D01*
X146488253Y-80445602D01*
X146502867Y-80465307D01*
X146515480Y-80486351D01*
X146525970Y-80508529D01*
X146534235Y-80531629D01*
X146540196Y-80555427D01*
X146543796Y-80579696D01*
X146545000Y-80604200D01*
X146545000Y-81854200D01*
X146543796Y-81878704D01*
X146540196Y-81902973D01*
X146534235Y-81926771D01*
X146525970Y-81949871D01*
X146515480Y-81972049D01*
X146502867Y-81993093D01*
X146488253Y-82012798D01*
X146471777Y-82030977D01*
X146453598Y-82047453D01*
X146433893Y-82062067D01*
X146412849Y-82074680D01*
X146390671Y-82085170D01*
X146367571Y-82093435D01*
X146343773Y-82099396D01*
X146319504Y-82102996D01*
X146295000Y-82104200D01*
X145545000Y-82104200D01*
X145520496Y-82102996D01*
X145496227Y-82099396D01*
X145472429Y-82093435D01*
X145449329Y-82085170D01*
X145427151Y-82074680D01*
X145406107Y-82062067D01*
X145386402Y-82047453D01*
X145368223Y-82030977D01*
X145351747Y-82012798D01*
X145337133Y-81993093D01*
X145324520Y-81972049D01*
X145314030Y-81949871D01*
X145305765Y-81926771D01*
X145299804Y-81902973D01*
X145296204Y-81878704D01*
X145295000Y-81854200D01*
X145295000Y-80604200D01*
X145296204Y-80579696D01*
X145299804Y-80555427D01*
X145305765Y-80531629D01*
X145314030Y-80508529D01*
X145324520Y-80486351D01*
X145337133Y-80465307D01*
X145351747Y-80445602D01*
X145368223Y-80427423D01*
X145386402Y-80410947D01*
X145406107Y-80396333D01*
X145427151Y-80383720D01*
X145449329Y-80373230D01*
X145472429Y-80364965D01*
X145496227Y-80359004D01*
X145520496Y-80355404D01*
X145545000Y-80354200D01*
X146295000Y-80354200D01*
X146319504Y-80355404D01*
G37*
G36*
X149119504Y-80355404D02*
G01*
X149143773Y-80359004D01*
X149167571Y-80364965D01*
X149190671Y-80373230D01*
X149212849Y-80383720D01*
X149233893Y-80396333D01*
X149253598Y-80410947D01*
X149271777Y-80427423D01*
X149288253Y-80445602D01*
X149302867Y-80465307D01*
X149315480Y-80486351D01*
X149325970Y-80508529D01*
X149334235Y-80531629D01*
X149340196Y-80555427D01*
X149343796Y-80579696D01*
X149345000Y-80604200D01*
X149345000Y-81854200D01*
X149343796Y-81878704D01*
X149340196Y-81902973D01*
X149334235Y-81926771D01*
X149325970Y-81949871D01*
X149315480Y-81972049D01*
X149302867Y-81993093D01*
X149288253Y-82012798D01*
X149271777Y-82030977D01*
X149253598Y-82047453D01*
X149233893Y-82062067D01*
X149212849Y-82074680D01*
X149190671Y-82085170D01*
X149167571Y-82093435D01*
X149143773Y-82099396D01*
X149119504Y-82102996D01*
X149095000Y-82104200D01*
X148345000Y-82104200D01*
X148320496Y-82102996D01*
X148296227Y-82099396D01*
X148272429Y-82093435D01*
X148249329Y-82085170D01*
X148227151Y-82074680D01*
X148206107Y-82062067D01*
X148186402Y-82047453D01*
X148168223Y-82030977D01*
X148151747Y-82012798D01*
X148137133Y-81993093D01*
X148124520Y-81972049D01*
X148114030Y-81949871D01*
X148105765Y-81926771D01*
X148099804Y-81902973D01*
X148096204Y-81878704D01*
X148095000Y-81854200D01*
X148095000Y-80604200D01*
X148096204Y-80579696D01*
X148099804Y-80555427D01*
X148105765Y-80531629D01*
X148114030Y-80508529D01*
X148124520Y-80486351D01*
X148137133Y-80465307D01*
X148151747Y-80445602D01*
X148168223Y-80427423D01*
X148186402Y-80410947D01*
X148206107Y-80396333D01*
X148227151Y-80383720D01*
X148249329Y-80373230D01*
X148272429Y-80364965D01*
X148296227Y-80359004D01*
X148320496Y-80355404D01*
X148345000Y-80354200D01*
X149095000Y-80354200D01*
X149119504Y-80355404D01*
G37*
G36*
X151316958Y-106269910D02*
G01*
X151331276Y-106272034D01*
X151345317Y-106275551D01*
X151358946Y-106280428D01*
X151372031Y-106286617D01*
X151384447Y-106294058D01*
X151396073Y-106302681D01*
X151406798Y-106312402D01*
X151416519Y-106323127D01*
X151425142Y-106334753D01*
X151432583Y-106347169D01*
X151438772Y-106360254D01*
X151443649Y-106373883D01*
X151447166Y-106387924D01*
X151449290Y-106402242D01*
X151450000Y-106416700D01*
X151450000Y-106711700D01*
X151449290Y-106726158D01*
X151447166Y-106740476D01*
X151443649Y-106754517D01*
X151438772Y-106768146D01*
X151432583Y-106781231D01*
X151425142Y-106793647D01*
X151416519Y-106805273D01*
X151406798Y-106815998D01*
X151396073Y-106825719D01*
X151384447Y-106834342D01*
X151372031Y-106841783D01*
X151358946Y-106847972D01*
X151345317Y-106852849D01*
X151331276Y-106856366D01*
X151316958Y-106858490D01*
X151302500Y-106859200D01*
X150957500Y-106859200D01*
X150943042Y-106858490D01*
X150928724Y-106856366D01*
X150914683Y-106852849D01*
X150901054Y-106847972D01*
X150887969Y-106841783D01*
X150875553Y-106834342D01*
X150863927Y-106825719D01*
X150853202Y-106815998D01*
X150843481Y-106805273D01*
X150834858Y-106793647D01*
X150827417Y-106781231D01*
X150821228Y-106768146D01*
X150816351Y-106754517D01*
X150812834Y-106740476D01*
X150810710Y-106726158D01*
X150810000Y-106711700D01*
X150810000Y-106416700D01*
X150810710Y-106402242D01*
X150812834Y-106387924D01*
X150816351Y-106373883D01*
X150821228Y-106360254D01*
X150827417Y-106347169D01*
X150834858Y-106334753D01*
X150843481Y-106323127D01*
X150853202Y-106312402D01*
X150863927Y-106302681D01*
X150875553Y-106294058D01*
X150887969Y-106286617D01*
X150901054Y-106280428D01*
X150914683Y-106275551D01*
X150928724Y-106272034D01*
X150943042Y-106269910D01*
X150957500Y-106269200D01*
X151302500Y-106269200D01*
X151316958Y-106269910D01*
G37*
G36*
X151316958Y-105299910D02*
G01*
X151331276Y-105302034D01*
X151345317Y-105305551D01*
X151358946Y-105310428D01*
X151372031Y-105316617D01*
X151384447Y-105324058D01*
X151396073Y-105332681D01*
X151406798Y-105342402D01*
X151416519Y-105353127D01*
X151425142Y-105364753D01*
X151432583Y-105377169D01*
X151438772Y-105390254D01*
X151443649Y-105403883D01*
X151447166Y-105417924D01*
X151449290Y-105432242D01*
X151450000Y-105446700D01*
X151450000Y-105741700D01*
X151449290Y-105756158D01*
X151447166Y-105770476D01*
X151443649Y-105784517D01*
X151438772Y-105798146D01*
X151432583Y-105811231D01*
X151425142Y-105823647D01*
X151416519Y-105835273D01*
X151406798Y-105845998D01*
X151396073Y-105855719D01*
X151384447Y-105864342D01*
X151372031Y-105871783D01*
X151358946Y-105877972D01*
X151345317Y-105882849D01*
X151331276Y-105886366D01*
X151316958Y-105888490D01*
X151302500Y-105889200D01*
X150957500Y-105889200D01*
X150943042Y-105888490D01*
X150928724Y-105886366D01*
X150914683Y-105882849D01*
X150901054Y-105877972D01*
X150887969Y-105871783D01*
X150875553Y-105864342D01*
X150863927Y-105855719D01*
X150853202Y-105845998D01*
X150843481Y-105835273D01*
X150834858Y-105823647D01*
X150827417Y-105811231D01*
X150821228Y-105798146D01*
X150816351Y-105784517D01*
X150812834Y-105770476D01*
X150810710Y-105756158D01*
X150810000Y-105741700D01*
X150810000Y-105446700D01*
X150810710Y-105432242D01*
X150812834Y-105417924D01*
X150816351Y-105403883D01*
X150821228Y-105390254D01*
X150827417Y-105377169D01*
X150834858Y-105364753D01*
X150843481Y-105353127D01*
X150853202Y-105342402D01*
X150863927Y-105332681D01*
X150875553Y-105324058D01*
X150887969Y-105316617D01*
X150901054Y-105310428D01*
X150914683Y-105305551D01*
X150928724Y-105302034D01*
X150943042Y-105299910D01*
X150957500Y-105299200D01*
X151302500Y-105299200D01*
X151316958Y-105299910D01*
G37*
G36*
X160460958Y-106921510D02*
G01*
X160475276Y-106923634D01*
X160489317Y-106927151D01*
X160502946Y-106932028D01*
X160516031Y-106938217D01*
X160528447Y-106945658D01*
X160540073Y-106954281D01*
X160550798Y-106964002D01*
X160560519Y-106974727D01*
X160569142Y-106986353D01*
X160576583Y-106998769D01*
X160582772Y-107011854D01*
X160587649Y-107025483D01*
X160591166Y-107039524D01*
X160593290Y-107053842D01*
X160594000Y-107068300D01*
X160594000Y-107363300D01*
X160593290Y-107377758D01*
X160591166Y-107392076D01*
X160587649Y-107406117D01*
X160582772Y-107419746D01*
X160576583Y-107432831D01*
X160569142Y-107445247D01*
X160560519Y-107456873D01*
X160550798Y-107467598D01*
X160540073Y-107477319D01*
X160528447Y-107485942D01*
X160516031Y-107493383D01*
X160502946Y-107499572D01*
X160489317Y-107504449D01*
X160475276Y-107507966D01*
X160460958Y-107510090D01*
X160446500Y-107510800D01*
X160101500Y-107510800D01*
X160087042Y-107510090D01*
X160072724Y-107507966D01*
X160058683Y-107504449D01*
X160045054Y-107499572D01*
X160031969Y-107493383D01*
X160019553Y-107485942D01*
X160007927Y-107477319D01*
X159997202Y-107467598D01*
X159987481Y-107456873D01*
X159978858Y-107445247D01*
X159971417Y-107432831D01*
X159965228Y-107419746D01*
X159960351Y-107406117D01*
X159956834Y-107392076D01*
X159954710Y-107377758D01*
X159954000Y-107363300D01*
X159954000Y-107068300D01*
X159954710Y-107053842D01*
X159956834Y-107039524D01*
X159960351Y-107025483D01*
X159965228Y-107011854D01*
X159971417Y-106998769D01*
X159978858Y-106986353D01*
X159987481Y-106974727D01*
X159997202Y-106964002D01*
X160007927Y-106954281D01*
X160019553Y-106945658D01*
X160031969Y-106938217D01*
X160045054Y-106932028D01*
X160058683Y-106927151D01*
X160072724Y-106923634D01*
X160087042Y-106921510D01*
X160101500Y-106920800D01*
X160446500Y-106920800D01*
X160460958Y-106921510D01*
G37*
G36*
X160460958Y-105951510D02*
G01*
X160475276Y-105953634D01*
X160489317Y-105957151D01*
X160502946Y-105962028D01*
X160516031Y-105968217D01*
X160528447Y-105975658D01*
X160540073Y-105984281D01*
X160550798Y-105994002D01*
X160560519Y-106004727D01*
X160569142Y-106016353D01*
X160576583Y-106028769D01*
X160582772Y-106041854D01*
X160587649Y-106055483D01*
X160591166Y-106069524D01*
X160593290Y-106083842D01*
X160594000Y-106098300D01*
X160594000Y-106393300D01*
X160593290Y-106407758D01*
X160591166Y-106422076D01*
X160587649Y-106436117D01*
X160582772Y-106449746D01*
X160576583Y-106462831D01*
X160569142Y-106475247D01*
X160560519Y-106486873D01*
X160550798Y-106497598D01*
X160540073Y-106507319D01*
X160528447Y-106515942D01*
X160516031Y-106523383D01*
X160502946Y-106529572D01*
X160489317Y-106534449D01*
X160475276Y-106537966D01*
X160460958Y-106540090D01*
X160446500Y-106540800D01*
X160101500Y-106540800D01*
X160087042Y-106540090D01*
X160072724Y-106537966D01*
X160058683Y-106534449D01*
X160045054Y-106529572D01*
X160031969Y-106523383D01*
X160019553Y-106515942D01*
X160007927Y-106507319D01*
X159997202Y-106497598D01*
X159987481Y-106486873D01*
X159978858Y-106475247D01*
X159971417Y-106462831D01*
X159965228Y-106449746D01*
X159960351Y-106436117D01*
X159956834Y-106422076D01*
X159954710Y-106407758D01*
X159954000Y-106393300D01*
X159954000Y-106098300D01*
X159954710Y-106083842D01*
X159956834Y-106069524D01*
X159960351Y-106055483D01*
X159965228Y-106041854D01*
X159971417Y-106028769D01*
X159978858Y-106016353D01*
X159987481Y-106004727D01*
X159997202Y-105994002D01*
X160007927Y-105984281D01*
X160019553Y-105975658D01*
X160031969Y-105968217D01*
X160045054Y-105962028D01*
X160058683Y-105957151D01*
X160072724Y-105953634D01*
X160087042Y-105951510D01*
X160101500Y-105950800D01*
X160446500Y-105950800D01*
X160460958Y-105951510D01*
G37*
G36*
X157720558Y-80757510D02*
G01*
X157734876Y-80759634D01*
X157748917Y-80763151D01*
X157762546Y-80768028D01*
X157775631Y-80774217D01*
X157788047Y-80781658D01*
X157799673Y-80790281D01*
X157810398Y-80800002D01*
X157820119Y-80810727D01*
X157828742Y-80822353D01*
X157836183Y-80834769D01*
X157842372Y-80847854D01*
X157847249Y-80861483D01*
X157850766Y-80875524D01*
X157852890Y-80889842D01*
X157853600Y-80904300D01*
X157853600Y-81249300D01*
X157852890Y-81263758D01*
X157850766Y-81278076D01*
X157847249Y-81292117D01*
X157842372Y-81305746D01*
X157836183Y-81318831D01*
X157828742Y-81331247D01*
X157820119Y-81342873D01*
X157810398Y-81353598D01*
X157799673Y-81363319D01*
X157788047Y-81371942D01*
X157775631Y-81379383D01*
X157762546Y-81385572D01*
X157748917Y-81390449D01*
X157734876Y-81393966D01*
X157720558Y-81396090D01*
X157706100Y-81396800D01*
X157411100Y-81396800D01*
X157396642Y-81396090D01*
X157382324Y-81393966D01*
X157368283Y-81390449D01*
X157354654Y-81385572D01*
X157341569Y-81379383D01*
X157329153Y-81371942D01*
X157317527Y-81363319D01*
X157306802Y-81353598D01*
X157297081Y-81342873D01*
X157288458Y-81331247D01*
X157281017Y-81318831D01*
X157274828Y-81305746D01*
X157269951Y-81292117D01*
X157266434Y-81278076D01*
X157264310Y-81263758D01*
X157263600Y-81249300D01*
X157263600Y-80904300D01*
X157264310Y-80889842D01*
X157266434Y-80875524D01*
X157269951Y-80861483D01*
X157274828Y-80847854D01*
X157281017Y-80834769D01*
X157288458Y-80822353D01*
X157297081Y-80810727D01*
X157306802Y-80800002D01*
X157317527Y-80790281D01*
X157329153Y-80781658D01*
X157341569Y-80774217D01*
X157354654Y-80768028D01*
X157368283Y-80763151D01*
X157382324Y-80759634D01*
X157396642Y-80757510D01*
X157411100Y-80756800D01*
X157706100Y-80756800D01*
X157720558Y-80757510D01*
G37*
G36*
X156750558Y-80757510D02*
G01*
X156764876Y-80759634D01*
X156778917Y-80763151D01*
X156792546Y-80768028D01*
X156805631Y-80774217D01*
X156818047Y-80781658D01*
X156829673Y-80790281D01*
X156840398Y-80800002D01*
X156850119Y-80810727D01*
X156858742Y-80822353D01*
X156866183Y-80834769D01*
X156872372Y-80847854D01*
X156877249Y-80861483D01*
X156880766Y-80875524D01*
X156882890Y-80889842D01*
X156883600Y-80904300D01*
X156883600Y-81249300D01*
X156882890Y-81263758D01*
X156880766Y-81278076D01*
X156877249Y-81292117D01*
X156872372Y-81305746D01*
X156866183Y-81318831D01*
X156858742Y-81331247D01*
X156850119Y-81342873D01*
X156840398Y-81353598D01*
X156829673Y-81363319D01*
X156818047Y-81371942D01*
X156805631Y-81379383D01*
X156792546Y-81385572D01*
X156778917Y-81390449D01*
X156764876Y-81393966D01*
X156750558Y-81396090D01*
X156736100Y-81396800D01*
X156441100Y-81396800D01*
X156426642Y-81396090D01*
X156412324Y-81393966D01*
X156398283Y-81390449D01*
X156384654Y-81385572D01*
X156371569Y-81379383D01*
X156359153Y-81371942D01*
X156347527Y-81363319D01*
X156336802Y-81353598D01*
X156327081Y-81342873D01*
X156318458Y-81331247D01*
X156311017Y-81318831D01*
X156304828Y-81305746D01*
X156299951Y-81292117D01*
X156296434Y-81278076D01*
X156294310Y-81263758D01*
X156293600Y-81249300D01*
X156293600Y-80904300D01*
X156294310Y-80889842D01*
X156296434Y-80875524D01*
X156299951Y-80861483D01*
X156304828Y-80847854D01*
X156311017Y-80834769D01*
X156318458Y-80822353D01*
X156327081Y-80810727D01*
X156336802Y-80800002D01*
X156347527Y-80790281D01*
X156359153Y-80781658D01*
X156371569Y-80774217D01*
X156384654Y-80768028D01*
X156398283Y-80763151D01*
X156412324Y-80759634D01*
X156426642Y-80757510D01*
X156441100Y-80756800D01*
X156736100Y-80756800D01*
X156750558Y-80757510D01*
G37*
G36*
X150776958Y-84330710D02*
G01*
X150791276Y-84332834D01*
X150805317Y-84336351D01*
X150818946Y-84341228D01*
X150832031Y-84347417D01*
X150844447Y-84354858D01*
X150856073Y-84363481D01*
X150866798Y-84373202D01*
X150876519Y-84383927D01*
X150885142Y-84395553D01*
X150892583Y-84407969D01*
X150898772Y-84421054D01*
X150903649Y-84434683D01*
X150907166Y-84448724D01*
X150909290Y-84463042D01*
X150910000Y-84477500D01*
X150910000Y-84822500D01*
X150909290Y-84836958D01*
X150907166Y-84851276D01*
X150903649Y-84865317D01*
X150898772Y-84878946D01*
X150892583Y-84892031D01*
X150885142Y-84904447D01*
X150876519Y-84916073D01*
X150866798Y-84926798D01*
X150856073Y-84936519D01*
X150844447Y-84945142D01*
X150832031Y-84952583D01*
X150818946Y-84958772D01*
X150805317Y-84963649D01*
X150791276Y-84967166D01*
X150776958Y-84969290D01*
X150762500Y-84970000D01*
X150467500Y-84970000D01*
X150453042Y-84969290D01*
X150438724Y-84967166D01*
X150424683Y-84963649D01*
X150411054Y-84958772D01*
X150397969Y-84952583D01*
X150385553Y-84945142D01*
X150373927Y-84936519D01*
X150363202Y-84926798D01*
X150353481Y-84916073D01*
X150344858Y-84904447D01*
X150337417Y-84892031D01*
X150331228Y-84878946D01*
X150326351Y-84865317D01*
X150322834Y-84851276D01*
X150320710Y-84836958D01*
X150320000Y-84822500D01*
X150320000Y-84477500D01*
X150320710Y-84463042D01*
X150322834Y-84448724D01*
X150326351Y-84434683D01*
X150331228Y-84421054D01*
X150337417Y-84407969D01*
X150344858Y-84395553D01*
X150353481Y-84383927D01*
X150363202Y-84373202D01*
X150373927Y-84363481D01*
X150385553Y-84354858D01*
X150397969Y-84347417D01*
X150411054Y-84341228D01*
X150424683Y-84336351D01*
X150438724Y-84332834D01*
X150453042Y-84330710D01*
X150467500Y-84330000D01*
X150762500Y-84330000D01*
X150776958Y-84330710D01*
G37*
G36*
X151746958Y-84330710D02*
G01*
X151761276Y-84332834D01*
X151775317Y-84336351D01*
X151788946Y-84341228D01*
X151802031Y-84347417D01*
X151814447Y-84354858D01*
X151826073Y-84363481D01*
X151836798Y-84373202D01*
X151846519Y-84383927D01*
X151855142Y-84395553D01*
X151862583Y-84407969D01*
X151868772Y-84421054D01*
X151873649Y-84434683D01*
X151877166Y-84448724D01*
X151879290Y-84463042D01*
X151880000Y-84477500D01*
X151880000Y-84822500D01*
X151879290Y-84836958D01*
X151877166Y-84851276D01*
X151873649Y-84865317D01*
X151868772Y-84878946D01*
X151862583Y-84892031D01*
X151855142Y-84904447D01*
X151846519Y-84916073D01*
X151836798Y-84926798D01*
X151826073Y-84936519D01*
X151814447Y-84945142D01*
X151802031Y-84952583D01*
X151788946Y-84958772D01*
X151775317Y-84963649D01*
X151761276Y-84967166D01*
X151746958Y-84969290D01*
X151732500Y-84970000D01*
X151437500Y-84970000D01*
X151423042Y-84969290D01*
X151408724Y-84967166D01*
X151394683Y-84963649D01*
X151381054Y-84958772D01*
X151367969Y-84952583D01*
X151355553Y-84945142D01*
X151343927Y-84936519D01*
X151333202Y-84926798D01*
X151323481Y-84916073D01*
X151314858Y-84904447D01*
X151307417Y-84892031D01*
X151301228Y-84878946D01*
X151296351Y-84865317D01*
X151292834Y-84851276D01*
X151290710Y-84836958D01*
X151290000Y-84822500D01*
X151290000Y-84477500D01*
X151290710Y-84463042D01*
X151292834Y-84448724D01*
X151296351Y-84434683D01*
X151301228Y-84421054D01*
X151307417Y-84407969D01*
X151314858Y-84395553D01*
X151323481Y-84383927D01*
X151333202Y-84373202D01*
X151343927Y-84363481D01*
X151355553Y-84354858D01*
X151367969Y-84347417D01*
X151381054Y-84341228D01*
X151394683Y-84336351D01*
X151408724Y-84332834D01*
X151423042Y-84330710D01*
X151437500Y-84330000D01*
X151732500Y-84330000D01*
X151746958Y-84330710D01*
G37*
G36*
X155180558Y-87869510D02*
G01*
X155194876Y-87871634D01*
X155208917Y-87875151D01*
X155222546Y-87880028D01*
X155235631Y-87886217D01*
X155248047Y-87893658D01*
X155259673Y-87902281D01*
X155270398Y-87912002D01*
X155280119Y-87922727D01*
X155288742Y-87934353D01*
X155296183Y-87946769D01*
X155302372Y-87959854D01*
X155307249Y-87973483D01*
X155310766Y-87987524D01*
X155312890Y-88001842D01*
X155313600Y-88016300D01*
X155313600Y-88361300D01*
X155312890Y-88375758D01*
X155310766Y-88390076D01*
X155307249Y-88404117D01*
X155302372Y-88417746D01*
X155296183Y-88430831D01*
X155288742Y-88443247D01*
X155280119Y-88454873D01*
X155270398Y-88465598D01*
X155259673Y-88475319D01*
X155248047Y-88483942D01*
X155235631Y-88491383D01*
X155222546Y-88497572D01*
X155208917Y-88502449D01*
X155194876Y-88505966D01*
X155180558Y-88508090D01*
X155166100Y-88508800D01*
X154871100Y-88508800D01*
X154856642Y-88508090D01*
X154842324Y-88505966D01*
X154828283Y-88502449D01*
X154814654Y-88497572D01*
X154801569Y-88491383D01*
X154789153Y-88483942D01*
X154777527Y-88475319D01*
X154766802Y-88465598D01*
X154757081Y-88454873D01*
X154748458Y-88443247D01*
X154741017Y-88430831D01*
X154734828Y-88417746D01*
X154729951Y-88404117D01*
X154726434Y-88390076D01*
X154724310Y-88375758D01*
X154723600Y-88361300D01*
X154723600Y-88016300D01*
X154724310Y-88001842D01*
X154726434Y-87987524D01*
X154729951Y-87973483D01*
X154734828Y-87959854D01*
X154741017Y-87946769D01*
X154748458Y-87934353D01*
X154757081Y-87922727D01*
X154766802Y-87912002D01*
X154777527Y-87902281D01*
X154789153Y-87893658D01*
X154801569Y-87886217D01*
X154814654Y-87880028D01*
X154828283Y-87875151D01*
X154842324Y-87871634D01*
X154856642Y-87869510D01*
X154871100Y-87868800D01*
X155166100Y-87868800D01*
X155180558Y-87869510D01*
G37*
G36*
X154210558Y-87869510D02*
G01*
X154224876Y-87871634D01*
X154238917Y-87875151D01*
X154252546Y-87880028D01*
X154265631Y-87886217D01*
X154278047Y-87893658D01*
X154289673Y-87902281D01*
X154300398Y-87912002D01*
X154310119Y-87922727D01*
X154318742Y-87934353D01*
X154326183Y-87946769D01*
X154332372Y-87959854D01*
X154337249Y-87973483D01*
X154340766Y-87987524D01*
X154342890Y-88001842D01*
X154343600Y-88016300D01*
X154343600Y-88361300D01*
X154342890Y-88375758D01*
X154340766Y-88390076D01*
X154337249Y-88404117D01*
X154332372Y-88417746D01*
X154326183Y-88430831D01*
X154318742Y-88443247D01*
X154310119Y-88454873D01*
X154300398Y-88465598D01*
X154289673Y-88475319D01*
X154278047Y-88483942D01*
X154265631Y-88491383D01*
X154252546Y-88497572D01*
X154238917Y-88502449D01*
X154224876Y-88505966D01*
X154210558Y-88508090D01*
X154196100Y-88508800D01*
X153901100Y-88508800D01*
X153886642Y-88508090D01*
X153872324Y-88505966D01*
X153858283Y-88502449D01*
X153844654Y-88497572D01*
X153831569Y-88491383D01*
X153819153Y-88483942D01*
X153807527Y-88475319D01*
X153796802Y-88465598D01*
X153787081Y-88454873D01*
X153778458Y-88443247D01*
X153771017Y-88430831D01*
X153764828Y-88417746D01*
X153759951Y-88404117D01*
X153756434Y-88390076D01*
X153754310Y-88375758D01*
X153753600Y-88361300D01*
X153753600Y-88016300D01*
X153754310Y-88001842D01*
X153756434Y-87987524D01*
X153759951Y-87973483D01*
X153764828Y-87959854D01*
X153771017Y-87946769D01*
X153778458Y-87934353D01*
X153787081Y-87922727D01*
X153796802Y-87912002D01*
X153807527Y-87902281D01*
X153819153Y-87893658D01*
X153831569Y-87886217D01*
X153844654Y-87880028D01*
X153858283Y-87875151D01*
X153872324Y-87871634D01*
X153886642Y-87869510D01*
X153901100Y-87868800D01*
X154196100Y-87868800D01*
X154210558Y-87869510D01*
G37*
G36*
X161174958Y-87971110D02*
G01*
X161189276Y-87973234D01*
X161203317Y-87976751D01*
X161216946Y-87981628D01*
X161230031Y-87987817D01*
X161242447Y-87995258D01*
X161254073Y-88003881D01*
X161264798Y-88013602D01*
X161274519Y-88024327D01*
X161283142Y-88035953D01*
X161290583Y-88048369D01*
X161296772Y-88061454D01*
X161301649Y-88075083D01*
X161305166Y-88089124D01*
X161307290Y-88103442D01*
X161308000Y-88117900D01*
X161308000Y-88462900D01*
X161307290Y-88477358D01*
X161305166Y-88491676D01*
X161301649Y-88505717D01*
X161296772Y-88519346D01*
X161290583Y-88532431D01*
X161283142Y-88544847D01*
X161274519Y-88556473D01*
X161264798Y-88567198D01*
X161254073Y-88576919D01*
X161242447Y-88585542D01*
X161230031Y-88592983D01*
X161216946Y-88599172D01*
X161203317Y-88604049D01*
X161189276Y-88607566D01*
X161174958Y-88609690D01*
X161160500Y-88610400D01*
X160865500Y-88610400D01*
X160851042Y-88609690D01*
X160836724Y-88607566D01*
X160822683Y-88604049D01*
X160809054Y-88599172D01*
X160795969Y-88592983D01*
X160783553Y-88585542D01*
X160771927Y-88576919D01*
X160761202Y-88567198D01*
X160751481Y-88556473D01*
X160742858Y-88544847D01*
X160735417Y-88532431D01*
X160729228Y-88519346D01*
X160724351Y-88505717D01*
X160720834Y-88491676D01*
X160718710Y-88477358D01*
X160718000Y-88462900D01*
X160718000Y-88117900D01*
X160718710Y-88103442D01*
X160720834Y-88089124D01*
X160724351Y-88075083D01*
X160729228Y-88061454D01*
X160735417Y-88048369D01*
X160742858Y-88035953D01*
X160751481Y-88024327D01*
X160761202Y-88013602D01*
X160771927Y-88003881D01*
X160783553Y-87995258D01*
X160795969Y-87987817D01*
X160809054Y-87981628D01*
X160822683Y-87976751D01*
X160836724Y-87973234D01*
X160851042Y-87971110D01*
X160865500Y-87970400D01*
X161160500Y-87970400D01*
X161174958Y-87971110D01*
G37*
G36*
X160204958Y-87971110D02*
G01*
X160219276Y-87973234D01*
X160233317Y-87976751D01*
X160246946Y-87981628D01*
X160260031Y-87987817D01*
X160272447Y-87995258D01*
X160284073Y-88003881D01*
X160294798Y-88013602D01*
X160304519Y-88024327D01*
X160313142Y-88035953D01*
X160320583Y-88048369D01*
X160326772Y-88061454D01*
X160331649Y-88075083D01*
X160335166Y-88089124D01*
X160337290Y-88103442D01*
X160338000Y-88117900D01*
X160338000Y-88462900D01*
X160337290Y-88477358D01*
X160335166Y-88491676D01*
X160331649Y-88505717D01*
X160326772Y-88519346D01*
X160320583Y-88532431D01*
X160313142Y-88544847D01*
X160304519Y-88556473D01*
X160294798Y-88567198D01*
X160284073Y-88576919D01*
X160272447Y-88585542D01*
X160260031Y-88592983D01*
X160246946Y-88599172D01*
X160233317Y-88604049D01*
X160219276Y-88607566D01*
X160204958Y-88609690D01*
X160190500Y-88610400D01*
X159895500Y-88610400D01*
X159881042Y-88609690D01*
X159866724Y-88607566D01*
X159852683Y-88604049D01*
X159839054Y-88599172D01*
X159825969Y-88592983D01*
X159813553Y-88585542D01*
X159801927Y-88576919D01*
X159791202Y-88567198D01*
X159781481Y-88556473D01*
X159772858Y-88544847D01*
X159765417Y-88532431D01*
X159759228Y-88519346D01*
X159754351Y-88505717D01*
X159750834Y-88491676D01*
X159748710Y-88477358D01*
X159748000Y-88462900D01*
X159748000Y-88117900D01*
X159748710Y-88103442D01*
X159750834Y-88089124D01*
X159754351Y-88075083D01*
X159759228Y-88061454D01*
X159765417Y-88048369D01*
X159772858Y-88035953D01*
X159781481Y-88024327D01*
X159791202Y-88013602D01*
X159801927Y-88003881D01*
X159813553Y-87995258D01*
X159825969Y-87987817D01*
X159839054Y-87981628D01*
X159852683Y-87976751D01*
X159866724Y-87973234D01*
X159881042Y-87971110D01*
X159895500Y-87970400D01*
X160190500Y-87970400D01*
X160204958Y-87971110D01*
G37*
G36*
X159196958Y-101330710D02*
G01*
X159211276Y-101332834D01*
X159225317Y-101336351D01*
X159238946Y-101341228D01*
X159252031Y-101347417D01*
X159264447Y-101354858D01*
X159276073Y-101363481D01*
X159286798Y-101373202D01*
X159296519Y-101383927D01*
X159305142Y-101395553D01*
X159312583Y-101407969D01*
X159318772Y-101421054D01*
X159323649Y-101434683D01*
X159327166Y-101448724D01*
X159329290Y-101463042D01*
X159330000Y-101477500D01*
X159330000Y-101822500D01*
X159329290Y-101836958D01*
X159327166Y-101851276D01*
X159323649Y-101865317D01*
X159318772Y-101878946D01*
X159312583Y-101892031D01*
X159305142Y-101904447D01*
X159296519Y-101916073D01*
X159286798Y-101926798D01*
X159276073Y-101936519D01*
X159264447Y-101945142D01*
X159252031Y-101952583D01*
X159238946Y-101958772D01*
X159225317Y-101963649D01*
X159211276Y-101967166D01*
X159196958Y-101969290D01*
X159182500Y-101970000D01*
X158887500Y-101970000D01*
X158873042Y-101969290D01*
X158858724Y-101967166D01*
X158844683Y-101963649D01*
X158831054Y-101958772D01*
X158817969Y-101952583D01*
X158805553Y-101945142D01*
X158793927Y-101936519D01*
X158783202Y-101926798D01*
X158773481Y-101916073D01*
X158764858Y-101904447D01*
X158757417Y-101892031D01*
X158751228Y-101878946D01*
X158746351Y-101865317D01*
X158742834Y-101851276D01*
X158740710Y-101836958D01*
X158740000Y-101822500D01*
X158740000Y-101477500D01*
X158740710Y-101463042D01*
X158742834Y-101448724D01*
X158746351Y-101434683D01*
X158751228Y-101421054D01*
X158757417Y-101407969D01*
X158764858Y-101395553D01*
X158773481Y-101383927D01*
X158783202Y-101373202D01*
X158793927Y-101363481D01*
X158805553Y-101354858D01*
X158817969Y-101347417D01*
X158831054Y-101341228D01*
X158844683Y-101336351D01*
X158858724Y-101332834D01*
X158873042Y-101330710D01*
X158887500Y-101330000D01*
X159182500Y-101330000D01*
X159196958Y-101330710D01*
G37*
G36*
X158226958Y-101330710D02*
G01*
X158241276Y-101332834D01*
X158255317Y-101336351D01*
X158268946Y-101341228D01*
X158282031Y-101347417D01*
X158294447Y-101354858D01*
X158306073Y-101363481D01*
X158316798Y-101373202D01*
X158326519Y-101383927D01*
X158335142Y-101395553D01*
X158342583Y-101407969D01*
X158348772Y-101421054D01*
X158353649Y-101434683D01*
X158357166Y-101448724D01*
X158359290Y-101463042D01*
X158360000Y-101477500D01*
X158360000Y-101822500D01*
X158359290Y-101836958D01*
X158357166Y-101851276D01*
X158353649Y-101865317D01*
X158348772Y-101878946D01*
X158342583Y-101892031D01*
X158335142Y-101904447D01*
X158326519Y-101916073D01*
X158316798Y-101926798D01*
X158306073Y-101936519D01*
X158294447Y-101945142D01*
X158282031Y-101952583D01*
X158268946Y-101958772D01*
X158255317Y-101963649D01*
X158241276Y-101967166D01*
X158226958Y-101969290D01*
X158212500Y-101970000D01*
X157917500Y-101970000D01*
X157903042Y-101969290D01*
X157888724Y-101967166D01*
X157874683Y-101963649D01*
X157861054Y-101958772D01*
X157847969Y-101952583D01*
X157835553Y-101945142D01*
X157823927Y-101936519D01*
X157813202Y-101926798D01*
X157803481Y-101916073D01*
X157794858Y-101904447D01*
X157787417Y-101892031D01*
X157781228Y-101878946D01*
X157776351Y-101865317D01*
X157772834Y-101851276D01*
X157770710Y-101836958D01*
X157770000Y-101822500D01*
X157770000Y-101477500D01*
X157770710Y-101463042D01*
X157772834Y-101448724D01*
X157776351Y-101434683D01*
X157781228Y-101421054D01*
X157787417Y-101407969D01*
X157794858Y-101395553D01*
X157803481Y-101383927D01*
X157813202Y-101373202D01*
X157823927Y-101363481D01*
X157835553Y-101354858D01*
X157847969Y-101347417D01*
X157861054Y-101341228D01*
X157874683Y-101336351D01*
X157888724Y-101332834D01*
X157903042Y-101330710D01*
X157917500Y-101330000D01*
X158212500Y-101330000D01*
X158226958Y-101330710D01*
G37*
G36*
X155446958Y-101480710D02*
G01*
X155461276Y-101482834D01*
X155475317Y-101486351D01*
X155488946Y-101491228D01*
X155502031Y-101497417D01*
X155514447Y-101504858D01*
X155526073Y-101513481D01*
X155536798Y-101523202D01*
X155546519Y-101533927D01*
X155555142Y-101545553D01*
X155562583Y-101557969D01*
X155568772Y-101571054D01*
X155573649Y-101584683D01*
X155577166Y-101598724D01*
X155579290Y-101613042D01*
X155580000Y-101627500D01*
X155580000Y-101972500D01*
X155579290Y-101986958D01*
X155577166Y-102001276D01*
X155573649Y-102015317D01*
X155568772Y-102028946D01*
X155562583Y-102042031D01*
X155555142Y-102054447D01*
X155546519Y-102066073D01*
X155536798Y-102076798D01*
X155526073Y-102086519D01*
X155514447Y-102095142D01*
X155502031Y-102102583D01*
X155488946Y-102108772D01*
X155475317Y-102113649D01*
X155461276Y-102117166D01*
X155446958Y-102119290D01*
X155432500Y-102120000D01*
X155137500Y-102120000D01*
X155123042Y-102119290D01*
X155108724Y-102117166D01*
X155094683Y-102113649D01*
X155081054Y-102108772D01*
X155067969Y-102102583D01*
X155055553Y-102095142D01*
X155043927Y-102086519D01*
X155033202Y-102076798D01*
X155023481Y-102066073D01*
X155014858Y-102054447D01*
X155007417Y-102042031D01*
X155001228Y-102028946D01*
X154996351Y-102015317D01*
X154992834Y-102001276D01*
X154990710Y-101986958D01*
X154990000Y-101972500D01*
X154990000Y-101627500D01*
X154990710Y-101613042D01*
X154992834Y-101598724D01*
X154996351Y-101584683D01*
X155001228Y-101571054D01*
X155007417Y-101557969D01*
X155014858Y-101545553D01*
X155023481Y-101533927D01*
X155033202Y-101523202D01*
X155043927Y-101513481D01*
X155055553Y-101504858D01*
X155067969Y-101497417D01*
X155081054Y-101491228D01*
X155094683Y-101486351D01*
X155108724Y-101482834D01*
X155123042Y-101480710D01*
X155137500Y-101480000D01*
X155432500Y-101480000D01*
X155446958Y-101480710D01*
G37*
G36*
X154476958Y-101480710D02*
G01*
X154491276Y-101482834D01*
X154505317Y-101486351D01*
X154518946Y-101491228D01*
X154532031Y-101497417D01*
X154544447Y-101504858D01*
X154556073Y-101513481D01*
X154566798Y-101523202D01*
X154576519Y-101533927D01*
X154585142Y-101545553D01*
X154592583Y-101557969D01*
X154598772Y-101571054D01*
X154603649Y-101584683D01*
X154607166Y-101598724D01*
X154609290Y-101613042D01*
X154610000Y-101627500D01*
X154610000Y-101972500D01*
X154609290Y-101986958D01*
X154607166Y-102001276D01*
X154603649Y-102015317D01*
X154598772Y-102028946D01*
X154592583Y-102042031D01*
X154585142Y-102054447D01*
X154576519Y-102066073D01*
X154566798Y-102076798D01*
X154556073Y-102086519D01*
X154544447Y-102095142D01*
X154532031Y-102102583D01*
X154518946Y-102108772D01*
X154505317Y-102113649D01*
X154491276Y-102117166D01*
X154476958Y-102119290D01*
X154462500Y-102120000D01*
X154167500Y-102120000D01*
X154153042Y-102119290D01*
X154138724Y-102117166D01*
X154124683Y-102113649D01*
X154111054Y-102108772D01*
X154097969Y-102102583D01*
X154085553Y-102095142D01*
X154073927Y-102086519D01*
X154063202Y-102076798D01*
X154053481Y-102066073D01*
X154044858Y-102054447D01*
X154037417Y-102042031D01*
X154031228Y-102028946D01*
X154026351Y-102015317D01*
X154022834Y-102001276D01*
X154020710Y-101986958D01*
X154020000Y-101972500D01*
X154020000Y-101627500D01*
X154020710Y-101613042D01*
X154022834Y-101598724D01*
X154026351Y-101584683D01*
X154031228Y-101571054D01*
X154037417Y-101557969D01*
X154044858Y-101545553D01*
X154053481Y-101533927D01*
X154063202Y-101523202D01*
X154073927Y-101513481D01*
X154085553Y-101504858D01*
X154097969Y-101497417D01*
X154111054Y-101491228D01*
X154124683Y-101486351D01*
X154138724Y-101482834D01*
X154153042Y-101480710D01*
X154167500Y-101480000D01*
X154462500Y-101480000D01*
X154476958Y-101480710D01*
G37*
G36*
X151094704Y-80355404D02*
G01*
X151118973Y-80359004D01*
X151142771Y-80364965D01*
X151165871Y-80373230D01*
X151188049Y-80383720D01*
X151209093Y-80396333D01*
X151228798Y-80410947D01*
X151246977Y-80427423D01*
X151263453Y-80445602D01*
X151278067Y-80465307D01*
X151290680Y-80486351D01*
X151301170Y-80508529D01*
X151309435Y-80531629D01*
X151315396Y-80555427D01*
X151318996Y-80579696D01*
X151320200Y-80604200D01*
X151320200Y-81854200D01*
X151318996Y-81878704D01*
X151315396Y-81902973D01*
X151309435Y-81926771D01*
X151301170Y-81949871D01*
X151290680Y-81972049D01*
X151278067Y-81993093D01*
X151263453Y-82012798D01*
X151246977Y-82030977D01*
X151228798Y-82047453D01*
X151209093Y-82062067D01*
X151188049Y-82074680D01*
X151165871Y-82085170D01*
X151142771Y-82093435D01*
X151118973Y-82099396D01*
X151094704Y-82102996D01*
X151070200Y-82104200D01*
X150320200Y-82104200D01*
X150295696Y-82102996D01*
X150271427Y-82099396D01*
X150247629Y-82093435D01*
X150224529Y-82085170D01*
X150202351Y-82074680D01*
X150181307Y-82062067D01*
X150161602Y-82047453D01*
X150143423Y-82030977D01*
X150126947Y-82012798D01*
X150112333Y-81993093D01*
X150099720Y-81972049D01*
X150089230Y-81949871D01*
X150080965Y-81926771D01*
X150075004Y-81902973D01*
X150071404Y-81878704D01*
X150070200Y-81854200D01*
X150070200Y-80604200D01*
X150071404Y-80579696D01*
X150075004Y-80555427D01*
X150080965Y-80531629D01*
X150089230Y-80508529D01*
X150099720Y-80486351D01*
X150112333Y-80465307D01*
X150126947Y-80445602D01*
X150143423Y-80427423D01*
X150161602Y-80410947D01*
X150181307Y-80396333D01*
X150202351Y-80383720D01*
X150224529Y-80373230D01*
X150247629Y-80364965D01*
X150271427Y-80359004D01*
X150295696Y-80355404D01*
X150320200Y-80354200D01*
X151070200Y-80354200D01*
X151094704Y-80355404D01*
G37*
G36*
X153894704Y-80355404D02*
G01*
X153918973Y-80359004D01*
X153942771Y-80364965D01*
X153965871Y-80373230D01*
X153988049Y-80383720D01*
X154009093Y-80396333D01*
X154028798Y-80410947D01*
X154046977Y-80427423D01*
X154063453Y-80445602D01*
X154078067Y-80465307D01*
X154090680Y-80486351D01*
X154101170Y-80508529D01*
X154109435Y-80531629D01*
X154115396Y-80555427D01*
X154118996Y-80579696D01*
X154120200Y-80604200D01*
X154120200Y-81854200D01*
X154118996Y-81878704D01*
X154115396Y-81902973D01*
X154109435Y-81926771D01*
X154101170Y-81949871D01*
X154090680Y-81972049D01*
X154078067Y-81993093D01*
X154063453Y-82012798D01*
X154046977Y-82030977D01*
X154028798Y-82047453D01*
X154009093Y-82062067D01*
X153988049Y-82074680D01*
X153965871Y-82085170D01*
X153942771Y-82093435D01*
X153918973Y-82099396D01*
X153894704Y-82102996D01*
X153870200Y-82104200D01*
X153120200Y-82104200D01*
X153095696Y-82102996D01*
X153071427Y-82099396D01*
X153047629Y-82093435D01*
X153024529Y-82085170D01*
X153002351Y-82074680D01*
X152981307Y-82062067D01*
X152961602Y-82047453D01*
X152943423Y-82030977D01*
X152926947Y-82012798D01*
X152912333Y-81993093D01*
X152899720Y-81972049D01*
X152889230Y-81949871D01*
X152880965Y-81926771D01*
X152875004Y-81902973D01*
X152871404Y-81878704D01*
X152870200Y-81854200D01*
X152870200Y-80604200D01*
X152871404Y-80579696D01*
X152875004Y-80555427D01*
X152880965Y-80531629D01*
X152889230Y-80508529D01*
X152899720Y-80486351D01*
X152912333Y-80465307D01*
X152926947Y-80445602D01*
X152943423Y-80427423D01*
X152961602Y-80410947D01*
X152981307Y-80396333D01*
X153002351Y-80383720D01*
X153024529Y-80373230D01*
X153047629Y-80364965D01*
X153071427Y-80359004D01*
X153095696Y-80355404D01*
X153120200Y-80354200D01*
X153870200Y-80354200D01*
X153894704Y-80355404D01*
G37*
G36*
X165578704Y-83911404D02*
G01*
X165602973Y-83915004D01*
X165626771Y-83920965D01*
X165649871Y-83929230D01*
X165672049Y-83939720D01*
X165693093Y-83952333D01*
X165712798Y-83966947D01*
X165730977Y-83983423D01*
X165747453Y-84001602D01*
X165762067Y-84021307D01*
X165774680Y-84042351D01*
X165785170Y-84064529D01*
X165793435Y-84087629D01*
X165799396Y-84111427D01*
X165802996Y-84135696D01*
X165804200Y-84160200D01*
X165804200Y-85410200D01*
X165802996Y-85434704D01*
X165799396Y-85458973D01*
X165793435Y-85482771D01*
X165785170Y-85505871D01*
X165774680Y-85528049D01*
X165762067Y-85549093D01*
X165747453Y-85568798D01*
X165730977Y-85586977D01*
X165712798Y-85603453D01*
X165693093Y-85618067D01*
X165672049Y-85630680D01*
X165649871Y-85641170D01*
X165626771Y-85649435D01*
X165602973Y-85655396D01*
X165578704Y-85658996D01*
X165554200Y-85660200D01*
X164804200Y-85660200D01*
X164779696Y-85658996D01*
X164755427Y-85655396D01*
X164731629Y-85649435D01*
X164708529Y-85641170D01*
X164686351Y-85630680D01*
X164665307Y-85618067D01*
X164645602Y-85603453D01*
X164627423Y-85586977D01*
X164610947Y-85568798D01*
X164596333Y-85549093D01*
X164583720Y-85528049D01*
X164573230Y-85505871D01*
X164564965Y-85482771D01*
X164559004Y-85458973D01*
X164555404Y-85434704D01*
X164554200Y-85410200D01*
X164554200Y-84160200D01*
X164555404Y-84135696D01*
X164559004Y-84111427D01*
X164564965Y-84087629D01*
X164573230Y-84064529D01*
X164583720Y-84042351D01*
X164596333Y-84021307D01*
X164610947Y-84001602D01*
X164627423Y-83983423D01*
X164645602Y-83966947D01*
X164665307Y-83952333D01*
X164686351Y-83939720D01*
X164708529Y-83929230D01*
X164731629Y-83920965D01*
X164755427Y-83915004D01*
X164779696Y-83911404D01*
X164804200Y-83910200D01*
X165554200Y-83910200D01*
X165578704Y-83911404D01*
G37*
G36*
X162778704Y-83911404D02*
G01*
X162802973Y-83915004D01*
X162826771Y-83920965D01*
X162849871Y-83929230D01*
X162872049Y-83939720D01*
X162893093Y-83952333D01*
X162912798Y-83966947D01*
X162930977Y-83983423D01*
X162947453Y-84001602D01*
X162962067Y-84021307D01*
X162974680Y-84042351D01*
X162985170Y-84064529D01*
X162993435Y-84087629D01*
X162999396Y-84111427D01*
X163002996Y-84135696D01*
X163004200Y-84160200D01*
X163004200Y-85410200D01*
X163002996Y-85434704D01*
X162999396Y-85458973D01*
X162993435Y-85482771D01*
X162985170Y-85505871D01*
X162974680Y-85528049D01*
X162962067Y-85549093D01*
X162947453Y-85568798D01*
X162930977Y-85586977D01*
X162912798Y-85603453D01*
X162893093Y-85618067D01*
X162872049Y-85630680D01*
X162849871Y-85641170D01*
X162826771Y-85649435D01*
X162802973Y-85655396D01*
X162778704Y-85658996D01*
X162754200Y-85660200D01*
X162004200Y-85660200D01*
X161979696Y-85658996D01*
X161955427Y-85655396D01*
X161931629Y-85649435D01*
X161908529Y-85641170D01*
X161886351Y-85630680D01*
X161865307Y-85618067D01*
X161845602Y-85603453D01*
X161827423Y-85586977D01*
X161810947Y-85568798D01*
X161796333Y-85549093D01*
X161783720Y-85528049D01*
X161773230Y-85505871D01*
X161764965Y-85482771D01*
X161759004Y-85458973D01*
X161755404Y-85434704D01*
X161754200Y-85410200D01*
X161754200Y-84160200D01*
X161755404Y-84135696D01*
X161759004Y-84111427D01*
X161764965Y-84087629D01*
X161773230Y-84064529D01*
X161783720Y-84042351D01*
X161796333Y-84021307D01*
X161810947Y-84001602D01*
X161827423Y-83983423D01*
X161845602Y-83966947D01*
X161865307Y-83952333D01*
X161886351Y-83939720D01*
X161908529Y-83929230D01*
X161931629Y-83920965D01*
X161955427Y-83915004D01*
X161979696Y-83911404D01*
X162004200Y-83910200D01*
X162754200Y-83910200D01*
X162778704Y-83911404D01*
G37*
G36*
X165223104Y-108701804D02*
G01*
X165247373Y-108705404D01*
X165271171Y-108711365D01*
X165294271Y-108719630D01*
X165316449Y-108730120D01*
X165337493Y-108742733D01*
X165357198Y-108757347D01*
X165375377Y-108773823D01*
X165391853Y-108792002D01*
X165406467Y-108811707D01*
X165419080Y-108832751D01*
X165429570Y-108854929D01*
X165437835Y-108878029D01*
X165443796Y-108901827D01*
X165447396Y-108926096D01*
X165448600Y-108950600D01*
X165448600Y-110200600D01*
X165447396Y-110225104D01*
X165443796Y-110249373D01*
X165437835Y-110273171D01*
X165429570Y-110296271D01*
X165419080Y-110318449D01*
X165406467Y-110339493D01*
X165391853Y-110359198D01*
X165375377Y-110377377D01*
X165357198Y-110393853D01*
X165337493Y-110408467D01*
X165316449Y-110421080D01*
X165294271Y-110431570D01*
X165271171Y-110439835D01*
X165247373Y-110445796D01*
X165223104Y-110449396D01*
X165198600Y-110450600D01*
X164448600Y-110450600D01*
X164424096Y-110449396D01*
X164399827Y-110445796D01*
X164376029Y-110439835D01*
X164352929Y-110431570D01*
X164330751Y-110421080D01*
X164309707Y-110408467D01*
X164290002Y-110393853D01*
X164271823Y-110377377D01*
X164255347Y-110359198D01*
X164240733Y-110339493D01*
X164228120Y-110318449D01*
X164217630Y-110296271D01*
X164209365Y-110273171D01*
X164203404Y-110249373D01*
X164199804Y-110225104D01*
X164198600Y-110200600D01*
X164198600Y-108950600D01*
X164199804Y-108926096D01*
X164203404Y-108901827D01*
X164209365Y-108878029D01*
X164217630Y-108854929D01*
X164228120Y-108832751D01*
X164240733Y-108811707D01*
X164255347Y-108792002D01*
X164271823Y-108773823D01*
X164290002Y-108757347D01*
X164309707Y-108742733D01*
X164330751Y-108730120D01*
X164352929Y-108719630D01*
X164376029Y-108711365D01*
X164399827Y-108705404D01*
X164424096Y-108701804D01*
X164448600Y-108700600D01*
X165198600Y-108700600D01*
X165223104Y-108701804D01*
G37*
G36*
X162423104Y-108701804D02*
G01*
X162447373Y-108705404D01*
X162471171Y-108711365D01*
X162494271Y-108719630D01*
X162516449Y-108730120D01*
X162537493Y-108742733D01*
X162557198Y-108757347D01*
X162575377Y-108773823D01*
X162591853Y-108792002D01*
X162606467Y-108811707D01*
X162619080Y-108832751D01*
X162629570Y-108854929D01*
X162637835Y-108878029D01*
X162643796Y-108901827D01*
X162647396Y-108926096D01*
X162648600Y-108950600D01*
X162648600Y-110200600D01*
X162647396Y-110225104D01*
X162643796Y-110249373D01*
X162637835Y-110273171D01*
X162629570Y-110296271D01*
X162619080Y-110318449D01*
X162606467Y-110339493D01*
X162591853Y-110359198D01*
X162575377Y-110377377D01*
X162557198Y-110393853D01*
X162537493Y-110408467D01*
X162516449Y-110421080D01*
X162494271Y-110431570D01*
X162471171Y-110439835D01*
X162447373Y-110445796D01*
X162423104Y-110449396D01*
X162398600Y-110450600D01*
X161648600Y-110450600D01*
X161624096Y-110449396D01*
X161599827Y-110445796D01*
X161576029Y-110439835D01*
X161552929Y-110431570D01*
X161530751Y-110421080D01*
X161509707Y-110408467D01*
X161490002Y-110393853D01*
X161471823Y-110377377D01*
X161455347Y-110359198D01*
X161440733Y-110339493D01*
X161428120Y-110318449D01*
X161417630Y-110296271D01*
X161409365Y-110273171D01*
X161403404Y-110249373D01*
X161399804Y-110225104D01*
X161398600Y-110200600D01*
X161398600Y-108950600D01*
X161399804Y-108926096D01*
X161403404Y-108901827D01*
X161409365Y-108878029D01*
X161417630Y-108854929D01*
X161428120Y-108832751D01*
X161440733Y-108811707D01*
X161455347Y-108792002D01*
X161471823Y-108773823D01*
X161490002Y-108757347D01*
X161509707Y-108742733D01*
X161530751Y-108730120D01*
X161552929Y-108719630D01*
X161576029Y-108711365D01*
X161599827Y-108705404D01*
X161624096Y-108701804D01*
X161648600Y-108700600D01*
X162398600Y-108700600D01*
X162423104Y-108701804D01*
G37*
G36*
X146776704Y-108651004D02*
G01*
X146800973Y-108654604D01*
X146824771Y-108660565D01*
X146847871Y-108668830D01*
X146870049Y-108679320D01*
X146891093Y-108691933D01*
X146910798Y-108706547D01*
X146928977Y-108723023D01*
X146945453Y-108741202D01*
X146960067Y-108760907D01*
X146972680Y-108781951D01*
X146983170Y-108804129D01*
X146991435Y-108827229D01*
X146997396Y-108851027D01*
X147000996Y-108875296D01*
X147002200Y-108899800D01*
X147002200Y-110149800D01*
X147000996Y-110174304D01*
X146997396Y-110198573D01*
X146991435Y-110222371D01*
X146983170Y-110245471D01*
X146972680Y-110267649D01*
X146960067Y-110288693D01*
X146945453Y-110308398D01*
X146928977Y-110326577D01*
X146910798Y-110343053D01*
X146891093Y-110357667D01*
X146870049Y-110370280D01*
X146847871Y-110380770D01*
X146824771Y-110389035D01*
X146800973Y-110394996D01*
X146776704Y-110398596D01*
X146752200Y-110399800D01*
X146002200Y-110399800D01*
X145977696Y-110398596D01*
X145953427Y-110394996D01*
X145929629Y-110389035D01*
X145906529Y-110380770D01*
X145884351Y-110370280D01*
X145863307Y-110357667D01*
X145843602Y-110343053D01*
X145825423Y-110326577D01*
X145808947Y-110308398D01*
X145794333Y-110288693D01*
X145781720Y-110267649D01*
X145771230Y-110245471D01*
X145762965Y-110222371D01*
X145757004Y-110198573D01*
X145753404Y-110174304D01*
X145752200Y-110149800D01*
X145752200Y-108899800D01*
X145753404Y-108875296D01*
X145757004Y-108851027D01*
X145762965Y-108827229D01*
X145771230Y-108804129D01*
X145781720Y-108781951D01*
X145794333Y-108760907D01*
X145808947Y-108741202D01*
X145825423Y-108723023D01*
X145843602Y-108706547D01*
X145863307Y-108691933D01*
X145884351Y-108679320D01*
X145906529Y-108668830D01*
X145929629Y-108660565D01*
X145953427Y-108654604D01*
X145977696Y-108651004D01*
X146002200Y-108649800D01*
X146752200Y-108649800D01*
X146776704Y-108651004D01*
G37*
G36*
X149576704Y-108651004D02*
G01*
X149600973Y-108654604D01*
X149624771Y-108660565D01*
X149647871Y-108668830D01*
X149670049Y-108679320D01*
X149691093Y-108691933D01*
X149710798Y-108706547D01*
X149728977Y-108723023D01*
X149745453Y-108741202D01*
X149760067Y-108760907D01*
X149772680Y-108781951D01*
X149783170Y-108804129D01*
X149791435Y-108827229D01*
X149797396Y-108851027D01*
X149800996Y-108875296D01*
X149802200Y-108899800D01*
X149802200Y-110149800D01*
X149800996Y-110174304D01*
X149797396Y-110198573D01*
X149791435Y-110222371D01*
X149783170Y-110245471D01*
X149772680Y-110267649D01*
X149760067Y-110288693D01*
X149745453Y-110308398D01*
X149728977Y-110326577D01*
X149710798Y-110343053D01*
X149691093Y-110357667D01*
X149670049Y-110370280D01*
X149647871Y-110380770D01*
X149624771Y-110389035D01*
X149600973Y-110394996D01*
X149576704Y-110398596D01*
X149552200Y-110399800D01*
X148802200Y-110399800D01*
X148777696Y-110398596D01*
X148753427Y-110394996D01*
X148729629Y-110389035D01*
X148706529Y-110380770D01*
X148684351Y-110370280D01*
X148663307Y-110357667D01*
X148643602Y-110343053D01*
X148625423Y-110326577D01*
X148608947Y-110308398D01*
X148594333Y-110288693D01*
X148581720Y-110267649D01*
X148571230Y-110245471D01*
X148562965Y-110222371D01*
X148557004Y-110198573D01*
X148553404Y-110174304D01*
X148552200Y-110149800D01*
X148552200Y-108899800D01*
X148553404Y-108875296D01*
X148557004Y-108851027D01*
X148562965Y-108827229D01*
X148571230Y-108804129D01*
X148581720Y-108781951D01*
X148594333Y-108760907D01*
X148608947Y-108741202D01*
X148625423Y-108723023D01*
X148643602Y-108706547D01*
X148663307Y-108691933D01*
X148684351Y-108679320D01*
X148706529Y-108668830D01*
X148729629Y-108660565D01*
X148753427Y-108654604D01*
X148777696Y-108651004D01*
X148802200Y-108649800D01*
X149552200Y-108649800D01*
X149576704Y-108651004D01*
G37*
G36*
X168792158Y-109456710D02*
G01*
X168806476Y-109458834D01*
X168820517Y-109462351D01*
X168834146Y-109467228D01*
X168847231Y-109473417D01*
X168859647Y-109480858D01*
X168871273Y-109489481D01*
X168881998Y-109499202D01*
X168891719Y-109509927D01*
X168900342Y-109521553D01*
X168907783Y-109533969D01*
X168913972Y-109547054D01*
X168918849Y-109560683D01*
X168922366Y-109574724D01*
X168924490Y-109589042D01*
X168925200Y-109603500D01*
X168925200Y-109898500D01*
X168924490Y-109912958D01*
X168922366Y-109927276D01*
X168918849Y-109941317D01*
X168913972Y-109954946D01*
X168907783Y-109968031D01*
X168900342Y-109980447D01*
X168891719Y-109992073D01*
X168881998Y-110002798D01*
X168871273Y-110012519D01*
X168859647Y-110021142D01*
X168847231Y-110028583D01*
X168834146Y-110034772D01*
X168820517Y-110039649D01*
X168806476Y-110043166D01*
X168792158Y-110045290D01*
X168777700Y-110046000D01*
X168432700Y-110046000D01*
X168418242Y-110045290D01*
X168403924Y-110043166D01*
X168389883Y-110039649D01*
X168376254Y-110034772D01*
X168363169Y-110028583D01*
X168350753Y-110021142D01*
X168339127Y-110012519D01*
X168328402Y-110002798D01*
X168318681Y-109992073D01*
X168310058Y-109980447D01*
X168302617Y-109968031D01*
X168296428Y-109954946D01*
X168291551Y-109941317D01*
X168288034Y-109927276D01*
X168285910Y-109912958D01*
X168285200Y-109898500D01*
X168285200Y-109603500D01*
X168285910Y-109589042D01*
X168288034Y-109574724D01*
X168291551Y-109560683D01*
X168296428Y-109547054D01*
X168302617Y-109533969D01*
X168310058Y-109521553D01*
X168318681Y-109509927D01*
X168328402Y-109499202D01*
X168339127Y-109489481D01*
X168350753Y-109480858D01*
X168363169Y-109473417D01*
X168376254Y-109467228D01*
X168389883Y-109462351D01*
X168403924Y-109458834D01*
X168418242Y-109456710D01*
X168432700Y-109456000D01*
X168777700Y-109456000D01*
X168792158Y-109456710D01*
G37*
G36*
X168792158Y-110426710D02*
G01*
X168806476Y-110428834D01*
X168820517Y-110432351D01*
X168834146Y-110437228D01*
X168847231Y-110443417D01*
X168859647Y-110450858D01*
X168871273Y-110459481D01*
X168881998Y-110469202D01*
X168891719Y-110479927D01*
X168900342Y-110491553D01*
X168907783Y-110503969D01*
X168913972Y-110517054D01*
X168918849Y-110530683D01*
X168922366Y-110544724D01*
X168924490Y-110559042D01*
X168925200Y-110573500D01*
X168925200Y-110868500D01*
X168924490Y-110882958D01*
X168922366Y-110897276D01*
X168918849Y-110911317D01*
X168913972Y-110924946D01*
X168907783Y-110938031D01*
X168900342Y-110950447D01*
X168891719Y-110962073D01*
X168881998Y-110972798D01*
X168871273Y-110982519D01*
X168859647Y-110991142D01*
X168847231Y-110998583D01*
X168834146Y-111004772D01*
X168820517Y-111009649D01*
X168806476Y-111013166D01*
X168792158Y-111015290D01*
X168777700Y-111016000D01*
X168432700Y-111016000D01*
X168418242Y-111015290D01*
X168403924Y-111013166D01*
X168389883Y-111009649D01*
X168376254Y-111004772D01*
X168363169Y-110998583D01*
X168350753Y-110991142D01*
X168339127Y-110982519D01*
X168328402Y-110972798D01*
X168318681Y-110962073D01*
X168310058Y-110950447D01*
X168302617Y-110938031D01*
X168296428Y-110924946D01*
X168291551Y-110911317D01*
X168288034Y-110897276D01*
X168285910Y-110882958D01*
X168285200Y-110868500D01*
X168285200Y-110573500D01*
X168285910Y-110559042D01*
X168288034Y-110544724D01*
X168291551Y-110530683D01*
X168296428Y-110517054D01*
X168302617Y-110503969D01*
X168310058Y-110491553D01*
X168318681Y-110479927D01*
X168328402Y-110469202D01*
X168339127Y-110459481D01*
X168350753Y-110450858D01*
X168363169Y-110443417D01*
X168376254Y-110437228D01*
X168389883Y-110432351D01*
X168403924Y-110428834D01*
X168418242Y-110426710D01*
X168432700Y-110426000D01*
X168777700Y-110426000D01*
X168792158Y-110426710D01*
G37*
G36*
X138825104Y-116728204D02*
G01*
X138849373Y-116731804D01*
X138873171Y-116737765D01*
X138896271Y-116746030D01*
X138918449Y-116756520D01*
X138939493Y-116769133D01*
X138959198Y-116783747D01*
X138977377Y-116800223D01*
X138993853Y-116818402D01*
X139008467Y-116838107D01*
X139021080Y-116859151D01*
X139031570Y-116881329D01*
X139039835Y-116904429D01*
X139045796Y-116928227D01*
X139049396Y-116952496D01*
X139050600Y-116977000D01*
X139050600Y-118227000D01*
X139049396Y-118251504D01*
X139045796Y-118275773D01*
X139039835Y-118299571D01*
X139031570Y-118322671D01*
X139021080Y-118344849D01*
X139008467Y-118365893D01*
X138993853Y-118385598D01*
X138977377Y-118403777D01*
X138959198Y-118420253D01*
X138939493Y-118434867D01*
X138918449Y-118447480D01*
X138896271Y-118457970D01*
X138873171Y-118466235D01*
X138849373Y-118472196D01*
X138825104Y-118475796D01*
X138800600Y-118477000D01*
X138050600Y-118477000D01*
X138026096Y-118475796D01*
X138001827Y-118472196D01*
X137978029Y-118466235D01*
X137954929Y-118457970D01*
X137932751Y-118447480D01*
X137911707Y-118434867D01*
X137892002Y-118420253D01*
X137873823Y-118403777D01*
X137857347Y-118385598D01*
X137842733Y-118365893D01*
X137830120Y-118344849D01*
X137819630Y-118322671D01*
X137811365Y-118299571D01*
X137805404Y-118275773D01*
X137801804Y-118251504D01*
X137800600Y-118227000D01*
X137800600Y-116977000D01*
X137801804Y-116952496D01*
X137805404Y-116928227D01*
X137811365Y-116904429D01*
X137819630Y-116881329D01*
X137830120Y-116859151D01*
X137842733Y-116838107D01*
X137857347Y-116818402D01*
X137873823Y-116800223D01*
X137892002Y-116783747D01*
X137911707Y-116769133D01*
X137932751Y-116756520D01*
X137954929Y-116746030D01*
X137978029Y-116737765D01*
X138001827Y-116731804D01*
X138026096Y-116728204D01*
X138050600Y-116727000D01*
X138800600Y-116727000D01*
X138825104Y-116728204D01*
G37*
G36*
X141625104Y-116728204D02*
G01*
X141649373Y-116731804D01*
X141673171Y-116737765D01*
X141696271Y-116746030D01*
X141718449Y-116756520D01*
X141739493Y-116769133D01*
X141759198Y-116783747D01*
X141777377Y-116800223D01*
X141793853Y-116818402D01*
X141808467Y-116838107D01*
X141821080Y-116859151D01*
X141831570Y-116881329D01*
X141839835Y-116904429D01*
X141845796Y-116928227D01*
X141849396Y-116952496D01*
X141850600Y-116977000D01*
X141850600Y-118227000D01*
X141849396Y-118251504D01*
X141845796Y-118275773D01*
X141839835Y-118299571D01*
X141831570Y-118322671D01*
X141821080Y-118344849D01*
X141808467Y-118365893D01*
X141793853Y-118385598D01*
X141777377Y-118403777D01*
X141759198Y-118420253D01*
X141739493Y-118434867D01*
X141718449Y-118447480D01*
X141696271Y-118457970D01*
X141673171Y-118466235D01*
X141649373Y-118472196D01*
X141625104Y-118475796D01*
X141600600Y-118477000D01*
X140850600Y-118477000D01*
X140826096Y-118475796D01*
X140801827Y-118472196D01*
X140778029Y-118466235D01*
X140754929Y-118457970D01*
X140732751Y-118447480D01*
X140711707Y-118434867D01*
X140692002Y-118420253D01*
X140673823Y-118403777D01*
X140657347Y-118385598D01*
X140642733Y-118365893D01*
X140630120Y-118344849D01*
X140619630Y-118322671D01*
X140611365Y-118299571D01*
X140605404Y-118275773D01*
X140601804Y-118251504D01*
X140600600Y-118227000D01*
X140600600Y-116977000D01*
X140601804Y-116952496D01*
X140605404Y-116928227D01*
X140611365Y-116904429D01*
X140619630Y-116881329D01*
X140630120Y-116859151D01*
X140642733Y-116838107D01*
X140657347Y-116818402D01*
X140673823Y-116800223D01*
X140692002Y-116783747D01*
X140711707Y-116769133D01*
X140732751Y-116756520D01*
X140754929Y-116746030D01*
X140778029Y-116737765D01*
X140801827Y-116731804D01*
X140826096Y-116728204D01*
X140850600Y-116727000D01*
X141600600Y-116727000D01*
X141625104Y-116728204D01*
G37*
G36*
X138825104Y-112791204D02*
G01*
X138849373Y-112794804D01*
X138873171Y-112800765D01*
X138896271Y-112809030D01*
X138918449Y-112819520D01*
X138939493Y-112832133D01*
X138959198Y-112846747D01*
X138977377Y-112863223D01*
X138993853Y-112881402D01*
X139008467Y-112901107D01*
X139021080Y-112922151D01*
X139031570Y-112944329D01*
X139039835Y-112967429D01*
X139045796Y-112991227D01*
X139049396Y-113015496D01*
X139050600Y-113040000D01*
X139050600Y-114290000D01*
X139049396Y-114314504D01*
X139045796Y-114338773D01*
X139039835Y-114362571D01*
X139031570Y-114385671D01*
X139021080Y-114407849D01*
X139008467Y-114428893D01*
X138993853Y-114448598D01*
X138977377Y-114466777D01*
X138959198Y-114483253D01*
X138939493Y-114497867D01*
X138918449Y-114510480D01*
X138896271Y-114520970D01*
X138873171Y-114529235D01*
X138849373Y-114535196D01*
X138825104Y-114538796D01*
X138800600Y-114540000D01*
X138050600Y-114540000D01*
X138026096Y-114538796D01*
X138001827Y-114535196D01*
X137978029Y-114529235D01*
X137954929Y-114520970D01*
X137932751Y-114510480D01*
X137911707Y-114497867D01*
X137892002Y-114483253D01*
X137873823Y-114466777D01*
X137857347Y-114448598D01*
X137842733Y-114428893D01*
X137830120Y-114407849D01*
X137819630Y-114385671D01*
X137811365Y-114362571D01*
X137805404Y-114338773D01*
X137801804Y-114314504D01*
X137800600Y-114290000D01*
X137800600Y-113040000D01*
X137801804Y-113015496D01*
X137805404Y-112991227D01*
X137811365Y-112967429D01*
X137819630Y-112944329D01*
X137830120Y-112922151D01*
X137842733Y-112901107D01*
X137857347Y-112881402D01*
X137873823Y-112863223D01*
X137892002Y-112846747D01*
X137911707Y-112832133D01*
X137932751Y-112819520D01*
X137954929Y-112809030D01*
X137978029Y-112800765D01*
X138001827Y-112794804D01*
X138026096Y-112791204D01*
X138050600Y-112790000D01*
X138800600Y-112790000D01*
X138825104Y-112791204D01*
G37*
G36*
X141625104Y-112791204D02*
G01*
X141649373Y-112794804D01*
X141673171Y-112800765D01*
X141696271Y-112809030D01*
X141718449Y-112819520D01*
X141739493Y-112832133D01*
X141759198Y-112846747D01*
X141777377Y-112863223D01*
X141793853Y-112881402D01*
X141808467Y-112901107D01*
X141821080Y-112922151D01*
X141831570Y-112944329D01*
X141839835Y-112967429D01*
X141845796Y-112991227D01*
X141849396Y-113015496D01*
X141850600Y-113040000D01*
X141850600Y-114290000D01*
X141849396Y-114314504D01*
X141845796Y-114338773D01*
X141839835Y-114362571D01*
X141831570Y-114385671D01*
X141821080Y-114407849D01*
X141808467Y-114428893D01*
X141793853Y-114448598D01*
X141777377Y-114466777D01*
X141759198Y-114483253D01*
X141739493Y-114497867D01*
X141718449Y-114510480D01*
X141696271Y-114520970D01*
X141673171Y-114529235D01*
X141649373Y-114535196D01*
X141625104Y-114538796D01*
X141600600Y-114540000D01*
X140850600Y-114540000D01*
X140826096Y-114538796D01*
X140801827Y-114535196D01*
X140778029Y-114529235D01*
X140754929Y-114520970D01*
X140732751Y-114510480D01*
X140711707Y-114497867D01*
X140692002Y-114483253D01*
X140673823Y-114466777D01*
X140657347Y-114448598D01*
X140642733Y-114428893D01*
X140630120Y-114407849D01*
X140619630Y-114385671D01*
X140611365Y-114362571D01*
X140605404Y-114338773D01*
X140601804Y-114314504D01*
X140600600Y-114290000D01*
X140600600Y-113040000D01*
X140601804Y-113015496D01*
X140605404Y-112991227D01*
X140611365Y-112967429D01*
X140619630Y-112944329D01*
X140630120Y-112922151D01*
X140642733Y-112901107D01*
X140657347Y-112881402D01*
X140673823Y-112863223D01*
X140692002Y-112846747D01*
X140711707Y-112832133D01*
X140732751Y-112819520D01*
X140754929Y-112809030D01*
X140778029Y-112800765D01*
X140801827Y-112794804D01*
X140826096Y-112791204D01*
X140850600Y-112790000D01*
X141600600Y-112790000D01*
X141625104Y-112791204D01*
G37*
G36*
X160754891Y-84475653D02*
G01*
X160776126Y-84478803D01*
X160796950Y-84484019D01*
X160817162Y-84491251D01*
X160836568Y-84500430D01*
X160854981Y-84511466D01*
X160872224Y-84524254D01*
X160888130Y-84538670D01*
X160902546Y-84554576D01*
X160915334Y-84571819D01*
X160926370Y-84590232D01*
X160935549Y-84609638D01*
X160942781Y-84629850D01*
X160947997Y-84650674D01*
X160951147Y-84671909D01*
X160952200Y-84693350D01*
X160952200Y-85130850D01*
X160951147Y-85152291D01*
X160947997Y-85173526D01*
X160942781Y-85194350D01*
X160935549Y-85214562D01*
X160926370Y-85233968D01*
X160915334Y-85252381D01*
X160902546Y-85269624D01*
X160888130Y-85285530D01*
X160872224Y-85299946D01*
X160854981Y-85312734D01*
X160836568Y-85323770D01*
X160817162Y-85332949D01*
X160796950Y-85340181D01*
X160776126Y-85345397D01*
X160754891Y-85348547D01*
X160733450Y-85349600D01*
X160220950Y-85349600D01*
X160199509Y-85348547D01*
X160178274Y-85345397D01*
X160157450Y-85340181D01*
X160137238Y-85332949D01*
X160117832Y-85323770D01*
X160099419Y-85312734D01*
X160082176Y-85299946D01*
X160066270Y-85285530D01*
X160051854Y-85269624D01*
X160039066Y-85252381D01*
X160028030Y-85233968D01*
X160018851Y-85214562D01*
X160011619Y-85194350D01*
X160006403Y-85173526D01*
X160003253Y-85152291D01*
X160002200Y-85130850D01*
X160002200Y-84693350D01*
X160003253Y-84671909D01*
X160006403Y-84650674D01*
X160011619Y-84629850D01*
X160018851Y-84609638D01*
X160028030Y-84590232D01*
X160039066Y-84571819D01*
X160051854Y-84554576D01*
X160066270Y-84538670D01*
X160082176Y-84524254D01*
X160099419Y-84511466D01*
X160117832Y-84500430D01*
X160137238Y-84491251D01*
X160157450Y-84484019D01*
X160178274Y-84478803D01*
X160199509Y-84475653D01*
X160220950Y-84474600D01*
X160733450Y-84474600D01*
X160754891Y-84475653D01*
G37*
G36*
X160754891Y-86050653D02*
G01*
X160776126Y-86053803D01*
X160796950Y-86059019D01*
X160817162Y-86066251D01*
X160836568Y-86075430D01*
X160854981Y-86086466D01*
X160872224Y-86099254D01*
X160888130Y-86113670D01*
X160902546Y-86129576D01*
X160915334Y-86146819D01*
X160926370Y-86165232D01*
X160935549Y-86184638D01*
X160942781Y-86204850D01*
X160947997Y-86225674D01*
X160951147Y-86246909D01*
X160952200Y-86268350D01*
X160952200Y-86705850D01*
X160951147Y-86727291D01*
X160947997Y-86748526D01*
X160942781Y-86769350D01*
X160935549Y-86789562D01*
X160926370Y-86808968D01*
X160915334Y-86827381D01*
X160902546Y-86844624D01*
X160888130Y-86860530D01*
X160872224Y-86874946D01*
X160854981Y-86887734D01*
X160836568Y-86898770D01*
X160817162Y-86907949D01*
X160796950Y-86915181D01*
X160776126Y-86920397D01*
X160754891Y-86923547D01*
X160733450Y-86924600D01*
X160220950Y-86924600D01*
X160199509Y-86923547D01*
X160178274Y-86920397D01*
X160157450Y-86915181D01*
X160137238Y-86907949D01*
X160117832Y-86898770D01*
X160099419Y-86887734D01*
X160082176Y-86874946D01*
X160066270Y-86860530D01*
X160051854Y-86844624D01*
X160039066Y-86827381D01*
X160028030Y-86808968D01*
X160018851Y-86789562D01*
X160011619Y-86769350D01*
X160006403Y-86748526D01*
X160003253Y-86727291D01*
X160002200Y-86705850D01*
X160002200Y-86268350D01*
X160003253Y-86246909D01*
X160006403Y-86225674D01*
X160011619Y-86204850D01*
X160018851Y-86184638D01*
X160028030Y-86165232D01*
X160039066Y-86146819D01*
X160051854Y-86129576D01*
X160066270Y-86113670D01*
X160082176Y-86099254D01*
X160099419Y-86086466D01*
X160117832Y-86075430D01*
X160137238Y-86066251D01*
X160157450Y-86059019D01*
X160178274Y-86053803D01*
X160199509Y-86050653D01*
X160220950Y-86049600D01*
X160733450Y-86049600D01*
X160754891Y-86050653D01*
G37*
G36*
X153185691Y-101544453D02*
G01*
X153206926Y-101547603D01*
X153227750Y-101552819D01*
X153247962Y-101560051D01*
X153267368Y-101569230D01*
X153285781Y-101580266D01*
X153303024Y-101593054D01*
X153318930Y-101607470D01*
X153333346Y-101623376D01*
X153346134Y-101640619D01*
X153357170Y-101659032D01*
X153366349Y-101678438D01*
X153373581Y-101698650D01*
X153378797Y-101719474D01*
X153381947Y-101740709D01*
X153383000Y-101762150D01*
X153383000Y-102199650D01*
X153381947Y-102221091D01*
X153378797Y-102242326D01*
X153373581Y-102263150D01*
X153366349Y-102283362D01*
X153357170Y-102302768D01*
X153346134Y-102321181D01*
X153333346Y-102338424D01*
X153318930Y-102354330D01*
X153303024Y-102368746D01*
X153285781Y-102381534D01*
X153267368Y-102392570D01*
X153247962Y-102401749D01*
X153227750Y-102408981D01*
X153206926Y-102414197D01*
X153185691Y-102417347D01*
X153164250Y-102418400D01*
X152651750Y-102418400D01*
X152630309Y-102417347D01*
X152609074Y-102414197D01*
X152588250Y-102408981D01*
X152568038Y-102401749D01*
X152548632Y-102392570D01*
X152530219Y-102381534D01*
X152512976Y-102368746D01*
X152497070Y-102354330D01*
X152482654Y-102338424D01*
X152469866Y-102321181D01*
X152458830Y-102302768D01*
X152449651Y-102283362D01*
X152442419Y-102263150D01*
X152437203Y-102242326D01*
X152434053Y-102221091D01*
X152433000Y-102199650D01*
X152433000Y-101762150D01*
X152434053Y-101740709D01*
X152437203Y-101719474D01*
X152442419Y-101698650D01*
X152449651Y-101678438D01*
X152458830Y-101659032D01*
X152469866Y-101640619D01*
X152482654Y-101623376D01*
X152497070Y-101607470D01*
X152512976Y-101593054D01*
X152530219Y-101580266D01*
X152548632Y-101569230D01*
X152568038Y-101560051D01*
X152588250Y-101552819D01*
X152609074Y-101547603D01*
X152630309Y-101544453D01*
X152651750Y-101543400D01*
X153164250Y-101543400D01*
X153185691Y-101544453D01*
G37*
G36*
X153185691Y-103119453D02*
G01*
X153206926Y-103122603D01*
X153227750Y-103127819D01*
X153247962Y-103135051D01*
X153267368Y-103144230D01*
X153285781Y-103155266D01*
X153303024Y-103168054D01*
X153318930Y-103182470D01*
X153333346Y-103198376D01*
X153346134Y-103215619D01*
X153357170Y-103234032D01*
X153366349Y-103253438D01*
X153373581Y-103273650D01*
X153378797Y-103294474D01*
X153381947Y-103315709D01*
X153383000Y-103337150D01*
X153383000Y-103774650D01*
X153381947Y-103796091D01*
X153378797Y-103817326D01*
X153373581Y-103838150D01*
X153366349Y-103858362D01*
X153357170Y-103877768D01*
X153346134Y-103896181D01*
X153333346Y-103913424D01*
X153318930Y-103929330D01*
X153303024Y-103943746D01*
X153285781Y-103956534D01*
X153267368Y-103967570D01*
X153247962Y-103976749D01*
X153227750Y-103983981D01*
X153206926Y-103989197D01*
X153185691Y-103992347D01*
X153164250Y-103993400D01*
X152651750Y-103993400D01*
X152630309Y-103992347D01*
X152609074Y-103989197D01*
X152588250Y-103983981D01*
X152568038Y-103976749D01*
X152548632Y-103967570D01*
X152530219Y-103956534D01*
X152512976Y-103943746D01*
X152497070Y-103929330D01*
X152482654Y-103913424D01*
X152469866Y-103896181D01*
X152458830Y-103877768D01*
X152449651Y-103858362D01*
X152442419Y-103838150D01*
X152437203Y-103817326D01*
X152434053Y-103796091D01*
X152433000Y-103774650D01*
X152433000Y-103337150D01*
X152434053Y-103315709D01*
X152437203Y-103294474D01*
X152442419Y-103273650D01*
X152449651Y-103253438D01*
X152458830Y-103234032D01*
X152469866Y-103215619D01*
X152482654Y-103198376D01*
X152497070Y-103182470D01*
X152512976Y-103168054D01*
X152530219Y-103155266D01*
X152548632Y-103144230D01*
X152568038Y-103135051D01*
X152588250Y-103127819D01*
X152609074Y-103122603D01*
X152630309Y-103119453D01*
X152651750Y-103118400D01*
X153164250Y-103118400D01*
X153185691Y-103119453D01*
G37*
G36*
X159477691Y-102876053D02*
G01*
X159498926Y-102879203D01*
X159519750Y-102884419D01*
X159539962Y-102891651D01*
X159559368Y-102900830D01*
X159577781Y-102911866D01*
X159595024Y-102924654D01*
X159610930Y-102939070D01*
X159625346Y-102954976D01*
X159638134Y-102972219D01*
X159649170Y-102990632D01*
X159658349Y-103010038D01*
X159665581Y-103030250D01*
X159670797Y-103051074D01*
X159673947Y-103072309D01*
X159675000Y-103093750D01*
X159675000Y-103531250D01*
X159673947Y-103552691D01*
X159670797Y-103573926D01*
X159665581Y-103594750D01*
X159658349Y-103614962D01*
X159649170Y-103634368D01*
X159638134Y-103652781D01*
X159625346Y-103670024D01*
X159610930Y-103685930D01*
X159595024Y-103700346D01*
X159577781Y-103713134D01*
X159559368Y-103724170D01*
X159539962Y-103733349D01*
X159519750Y-103740581D01*
X159498926Y-103745797D01*
X159477691Y-103748947D01*
X159456250Y-103750000D01*
X158943750Y-103750000D01*
X158922309Y-103748947D01*
X158901074Y-103745797D01*
X158880250Y-103740581D01*
X158860038Y-103733349D01*
X158840632Y-103724170D01*
X158822219Y-103713134D01*
X158804976Y-103700346D01*
X158789070Y-103685930D01*
X158774654Y-103670024D01*
X158761866Y-103652781D01*
X158750830Y-103634368D01*
X158741651Y-103614962D01*
X158734419Y-103594750D01*
X158729203Y-103573926D01*
X158726053Y-103552691D01*
X158725000Y-103531250D01*
X158725000Y-103093750D01*
X158726053Y-103072309D01*
X158729203Y-103051074D01*
X158734419Y-103030250D01*
X158741651Y-103010038D01*
X158750830Y-102990632D01*
X158761866Y-102972219D01*
X158774654Y-102954976D01*
X158789070Y-102939070D01*
X158804976Y-102924654D01*
X158822219Y-102911866D01*
X158840632Y-102900830D01*
X158860038Y-102891651D01*
X158880250Y-102884419D01*
X158901074Y-102879203D01*
X158922309Y-102876053D01*
X158943750Y-102875000D01*
X159456250Y-102875000D01*
X159477691Y-102876053D01*
G37*
G36*
X159477691Y-104451053D02*
G01*
X159498926Y-104454203D01*
X159519750Y-104459419D01*
X159539962Y-104466651D01*
X159559368Y-104475830D01*
X159577781Y-104486866D01*
X159595024Y-104499654D01*
X159610930Y-104514070D01*
X159625346Y-104529976D01*
X159638134Y-104547219D01*
X159649170Y-104565632D01*
X159658349Y-104585038D01*
X159665581Y-104605250D01*
X159670797Y-104626074D01*
X159673947Y-104647309D01*
X159675000Y-104668750D01*
X159675000Y-105106250D01*
X159673947Y-105127691D01*
X159670797Y-105148926D01*
X159665581Y-105169750D01*
X159658349Y-105189962D01*
X159649170Y-105209368D01*
X159638134Y-105227781D01*
X159625346Y-105245024D01*
X159610930Y-105260930D01*
X159595024Y-105275346D01*
X159577781Y-105288134D01*
X159559368Y-105299170D01*
X159539962Y-105308349D01*
X159519750Y-105315581D01*
X159498926Y-105320797D01*
X159477691Y-105323947D01*
X159456250Y-105325000D01*
X158943750Y-105325000D01*
X158922309Y-105323947D01*
X158901074Y-105320797D01*
X158880250Y-105315581D01*
X158860038Y-105308349D01*
X158840632Y-105299170D01*
X158822219Y-105288134D01*
X158804976Y-105275346D01*
X158789070Y-105260930D01*
X158774654Y-105245024D01*
X158761866Y-105227781D01*
X158750830Y-105209368D01*
X158741651Y-105189962D01*
X158734419Y-105169750D01*
X158729203Y-105148926D01*
X158726053Y-105127691D01*
X158725000Y-105106250D01*
X158725000Y-104668750D01*
X158726053Y-104647309D01*
X158729203Y-104626074D01*
X158734419Y-104605250D01*
X158741651Y-104585038D01*
X158750830Y-104565632D01*
X158761866Y-104547219D01*
X158774654Y-104529976D01*
X158789070Y-104514070D01*
X158804976Y-104499654D01*
X158822219Y-104486866D01*
X158840632Y-104475830D01*
X158860038Y-104466651D01*
X158880250Y-104459419D01*
X158901074Y-104454203D01*
X158922309Y-104451053D01*
X158943750Y-104450000D01*
X159456250Y-104450000D01*
X159477691Y-104451053D01*
G37*
G36*
X159027691Y-87066653D02*
G01*
X159048926Y-87069803D01*
X159069750Y-87075019D01*
X159089962Y-87082251D01*
X159109368Y-87091430D01*
X159127781Y-87102466D01*
X159145024Y-87115254D01*
X159160930Y-87129670D01*
X159175346Y-87145576D01*
X159188134Y-87162819D01*
X159199170Y-87181232D01*
X159208349Y-87200638D01*
X159215581Y-87220850D01*
X159220797Y-87241674D01*
X159223947Y-87262909D01*
X159225000Y-87284350D01*
X159225000Y-87721850D01*
X159223947Y-87743291D01*
X159220797Y-87764526D01*
X159215581Y-87785350D01*
X159208349Y-87805562D01*
X159199170Y-87824968D01*
X159188134Y-87843381D01*
X159175346Y-87860624D01*
X159160930Y-87876530D01*
X159145024Y-87890946D01*
X159127781Y-87903734D01*
X159109368Y-87914770D01*
X159089962Y-87923949D01*
X159069750Y-87931181D01*
X159048926Y-87936397D01*
X159027691Y-87939547D01*
X159006250Y-87940600D01*
X158493750Y-87940600D01*
X158472309Y-87939547D01*
X158451074Y-87936397D01*
X158430250Y-87931181D01*
X158410038Y-87923949D01*
X158390632Y-87914770D01*
X158372219Y-87903734D01*
X158354976Y-87890946D01*
X158339070Y-87876530D01*
X158324654Y-87860624D01*
X158311866Y-87843381D01*
X158300830Y-87824968D01*
X158291651Y-87805562D01*
X158284419Y-87785350D01*
X158279203Y-87764526D01*
X158276053Y-87743291D01*
X158275000Y-87721850D01*
X158275000Y-87284350D01*
X158276053Y-87262909D01*
X158279203Y-87241674D01*
X158284419Y-87220850D01*
X158291651Y-87200638D01*
X158300830Y-87181232D01*
X158311866Y-87162819D01*
X158324654Y-87145576D01*
X158339070Y-87129670D01*
X158354976Y-87115254D01*
X158372219Y-87102466D01*
X158390632Y-87091430D01*
X158410038Y-87082251D01*
X158430250Y-87075019D01*
X158451074Y-87069803D01*
X158472309Y-87066653D01*
X158493750Y-87065600D01*
X159006250Y-87065600D01*
X159027691Y-87066653D01*
G37*
G36*
X159027691Y-85491653D02*
G01*
X159048926Y-85494803D01*
X159069750Y-85500019D01*
X159089962Y-85507251D01*
X159109368Y-85516430D01*
X159127781Y-85527466D01*
X159145024Y-85540254D01*
X159160930Y-85554670D01*
X159175346Y-85570576D01*
X159188134Y-85587819D01*
X159199170Y-85606232D01*
X159208349Y-85625638D01*
X159215581Y-85645850D01*
X159220797Y-85666674D01*
X159223947Y-85687909D01*
X159225000Y-85709350D01*
X159225000Y-86146850D01*
X159223947Y-86168291D01*
X159220797Y-86189526D01*
X159215581Y-86210350D01*
X159208349Y-86230562D01*
X159199170Y-86249968D01*
X159188134Y-86268381D01*
X159175346Y-86285624D01*
X159160930Y-86301530D01*
X159145024Y-86315946D01*
X159127781Y-86328734D01*
X159109368Y-86339770D01*
X159089962Y-86348949D01*
X159069750Y-86356181D01*
X159048926Y-86361397D01*
X159027691Y-86364547D01*
X159006250Y-86365600D01*
X158493750Y-86365600D01*
X158472309Y-86364547D01*
X158451074Y-86361397D01*
X158430250Y-86356181D01*
X158410038Y-86348949D01*
X158390632Y-86339770D01*
X158372219Y-86328734D01*
X158354976Y-86315946D01*
X158339070Y-86301530D01*
X158324654Y-86285624D01*
X158311866Y-86268381D01*
X158300830Y-86249968D01*
X158291651Y-86230562D01*
X158284419Y-86210350D01*
X158279203Y-86189526D01*
X158276053Y-86168291D01*
X158275000Y-86146850D01*
X158275000Y-85709350D01*
X158276053Y-85687909D01*
X158279203Y-85666674D01*
X158284419Y-85645850D01*
X158291651Y-85625638D01*
X158300830Y-85606232D01*
X158311866Y-85587819D01*
X158324654Y-85570576D01*
X158339070Y-85554670D01*
X158354976Y-85540254D01*
X158372219Y-85527466D01*
X158390632Y-85516430D01*
X158410038Y-85507251D01*
X158430250Y-85500019D01*
X158451074Y-85494803D01*
X158472309Y-85491653D01*
X158493750Y-85490600D01*
X159006250Y-85490600D01*
X159027691Y-85491653D01*
G37*
G36*
X152169691Y-88616153D02*
G01*
X152190926Y-88619303D01*
X152211750Y-88624519D01*
X152231962Y-88631751D01*
X152251368Y-88640930D01*
X152269781Y-88651966D01*
X152287024Y-88664754D01*
X152302930Y-88679170D01*
X152317346Y-88695076D01*
X152330134Y-88712319D01*
X152341170Y-88730732D01*
X152350349Y-88750138D01*
X152357581Y-88770350D01*
X152362797Y-88791174D01*
X152365947Y-88812409D01*
X152367000Y-88833850D01*
X152367000Y-89271350D01*
X152365947Y-89292791D01*
X152362797Y-89314026D01*
X152357581Y-89334850D01*
X152350349Y-89355062D01*
X152341170Y-89374468D01*
X152330134Y-89392881D01*
X152317346Y-89410124D01*
X152302930Y-89426030D01*
X152287024Y-89440446D01*
X152269781Y-89453234D01*
X152251368Y-89464270D01*
X152231962Y-89473449D01*
X152211750Y-89480681D01*
X152190926Y-89485897D01*
X152169691Y-89489047D01*
X152148250Y-89490100D01*
X151635750Y-89490100D01*
X151614309Y-89489047D01*
X151593074Y-89485897D01*
X151572250Y-89480681D01*
X151552038Y-89473449D01*
X151532632Y-89464270D01*
X151514219Y-89453234D01*
X151496976Y-89440446D01*
X151481070Y-89426030D01*
X151466654Y-89410124D01*
X151453866Y-89392881D01*
X151442830Y-89374468D01*
X151433651Y-89355062D01*
X151426419Y-89334850D01*
X151421203Y-89314026D01*
X151418053Y-89292791D01*
X151417000Y-89271350D01*
X151417000Y-88833850D01*
X151418053Y-88812409D01*
X151421203Y-88791174D01*
X151426419Y-88770350D01*
X151433651Y-88750138D01*
X151442830Y-88730732D01*
X151453866Y-88712319D01*
X151466654Y-88695076D01*
X151481070Y-88679170D01*
X151496976Y-88664754D01*
X151514219Y-88651966D01*
X151532632Y-88640930D01*
X151552038Y-88631751D01*
X151572250Y-88624519D01*
X151593074Y-88619303D01*
X151614309Y-88616153D01*
X151635750Y-88615100D01*
X152148250Y-88615100D01*
X152169691Y-88616153D01*
G37*
G36*
X152169691Y-87041153D02*
G01*
X152190926Y-87044303D01*
X152211750Y-87049519D01*
X152231962Y-87056751D01*
X152251368Y-87065930D01*
X152269781Y-87076966D01*
X152287024Y-87089754D01*
X152302930Y-87104170D01*
X152317346Y-87120076D01*
X152330134Y-87137319D01*
X152341170Y-87155732D01*
X152350349Y-87175138D01*
X152357581Y-87195350D01*
X152362797Y-87216174D01*
X152365947Y-87237409D01*
X152367000Y-87258850D01*
X152367000Y-87696350D01*
X152365947Y-87717791D01*
X152362797Y-87739026D01*
X152357581Y-87759850D01*
X152350349Y-87780062D01*
X152341170Y-87799468D01*
X152330134Y-87817881D01*
X152317346Y-87835124D01*
X152302930Y-87851030D01*
X152287024Y-87865446D01*
X152269781Y-87878234D01*
X152251368Y-87889270D01*
X152231962Y-87898449D01*
X152211750Y-87905681D01*
X152190926Y-87910897D01*
X152169691Y-87914047D01*
X152148250Y-87915100D01*
X151635750Y-87915100D01*
X151614309Y-87914047D01*
X151593074Y-87910897D01*
X151572250Y-87905681D01*
X151552038Y-87898449D01*
X151532632Y-87889270D01*
X151514219Y-87878234D01*
X151496976Y-87865446D01*
X151481070Y-87851030D01*
X151466654Y-87835124D01*
X151453866Y-87817881D01*
X151442830Y-87799468D01*
X151433651Y-87780062D01*
X151426419Y-87759850D01*
X151421203Y-87739026D01*
X151418053Y-87717791D01*
X151417000Y-87696350D01*
X151417000Y-87258850D01*
X151418053Y-87237409D01*
X151421203Y-87216174D01*
X151426419Y-87195350D01*
X151433651Y-87175138D01*
X151442830Y-87155732D01*
X151453866Y-87137319D01*
X151466654Y-87120076D01*
X151481070Y-87104170D01*
X151496976Y-87089754D01*
X151514219Y-87076966D01*
X151532632Y-87065930D01*
X151552038Y-87056751D01*
X151572250Y-87049519D01*
X151593074Y-87044303D01*
X151614309Y-87041153D01*
X151635750Y-87040100D01*
X152148250Y-87040100D01*
X152169691Y-87041153D01*
G37*
D17*
X166319200Y-106680000D03*
X166319200Y-105180000D03*
X168452800Y-106680000D03*
X168452800Y-105180000D03*
M02*
