M48
; DRILL file {KiCad (5.1.5)-3} date 1/4/2020 12:29:59 PM
; FORMAT={2:4/ absolute / inch / suppress leading zeros}
; #@! TF.CreationDate,2020-01-04T12:29:59-06:00
; #@! TF.GenerationSoftware,Kicad,Pcbnew,(5.1.5)-3
FMAT,2
INCH,TZ
T1C0.0150
T2C0.0866
%
G90
G05
T1
X51500Y-31220
X51520Y-33500
X51540Y-30140
X51593Y-42058
X51760Y-32240
X51800Y-40700
X51900Y-28240
X51920Y-29000
X51960Y-43060
X52000Y-43820
X52200Y-34120
X52580Y-44760
X52700Y-28240
X52720Y-28980
X52740Y-31080
X52740Y-43060
X52760Y-32840
X52760Y-43800
X52800Y-41520
X53035Y-40460
X53260Y-34340
X53350Y-29500
X53460Y-41940
X53600Y-43280
X54000Y-27944
X54160Y-40240
X54160Y-46300
X54180Y-44760
X54240Y-34540
X54470Y-32840
X54740Y-29640
X54820Y-31180
X55100Y-42640
X55110Y-41310
X55220Y-40120
X55400Y-34720
X56220Y-44160
X56307Y-39900
X56400Y-32740
X56440Y-41020
X56600Y-35000
X56620Y-35540
X56620Y-39260
X56640Y-38400
X56660Y-36400
X56700Y-30520
X56700Y-42260
X56700Y-46660
X56720Y-45700
X57000Y-27944
X57000Y-39260
X57040Y-35540
X57060Y-36400
X57060Y-38400
X57330Y-33800
X57380Y-39260
X57390Y-29260
X57400Y-32400
X57420Y-31540
X57440Y-35540
X57560Y-36400
X57560Y-38400
X57600Y-42740
X57600Y-43520
X57800Y-39260
X57820Y-35540
X57820Y-40580
X58060Y-36400
X58060Y-38400
X58110Y-41713
X58200Y-35540
X58200Y-39260
X58480Y-30440
X58560Y-36400
X58560Y-38400
X58620Y-34420
X58940Y-42180
X58996Y-33327
X59035Y-33839
X59060Y-36400
X59060Y-38400
X59060Y-39200
X59290Y-31580
X59290Y-32400
X59400Y-35320
X59570Y-36400
X59590Y-38400
X59640Y-42120
X59940Y-39540
X59960Y-46680
X60000Y-27944
X60060Y-42280
X60080Y-45560
X60100Y-44460
X60140Y-29820
X60140Y-35940
X60236Y-34764
X60540Y-36690
X60540Y-37090
X60540Y-37490
X60540Y-37890
X60540Y-38290
X60820Y-30660
X60940Y-36690
X60940Y-37090
X60940Y-37490
X60940Y-37890
X60940Y-38290
X60980Y-42700
X60980Y-43500
X61100Y-31880
X61122Y-39843
X61180Y-34720
X61320Y-39300
X61340Y-35280
X61340Y-36690
X61340Y-37090
X61340Y-37490
X61340Y-37890
X61340Y-38290
X61620Y-43520
X61640Y-42700
X61740Y-36690
X61740Y-37090
X61740Y-37490
X61740Y-37890
X61740Y-38290
X61820Y-28200
X62140Y-36690
X62140Y-37090
X62140Y-37490
X62140Y-37890
X62140Y-38290
X62200Y-31900
X62480Y-29900
X62520Y-42460
X62620Y-36160
X62660Y-35500
X62740Y-32200
X62780Y-38860
X62820Y-30700
X62820Y-31500
X62854Y-45453
X62894Y-39540
X62894Y-40020
X63040Y-42360
X63140Y-36400
X63180Y-46660
X63228Y-43622
X63268Y-41378
X63640Y-34760
X63640Y-36400
X64100Y-41580
X64140Y-36400
X64140Y-38430
X64460Y-31480
X64640Y-36400
X64640Y-38430
X64660Y-34900
X64700Y-35540
X64700Y-39260
X64720Y-40700
X64940Y-42760
X64940Y-43540
X65040Y-42060
X65060Y-33820
X65080Y-32960
X65080Y-35540
X65080Y-39260
X65140Y-36400
X65140Y-38430
X65460Y-35540
X65480Y-39260
X65551Y-45354
X65640Y-29300
X65640Y-36400
X65640Y-38430
X65760Y-32080
X65860Y-35540
X65880Y-39260
X65900Y-30500
X66140Y-36400
X66140Y-38430
X66260Y-39260
X66280Y-35540
X66380Y-33400
X66500Y-27950
X66500Y-39900
X66500Y-43040
X66520Y-34800
X66620Y-44460
X67083Y-46856
X67380Y-31480
X67480Y-40520
X67580Y-29760
X67600Y-34200
X67620Y-45750
X68000Y-27944
X68089Y-46856
X68340Y-32400
X68360Y-42440
X68460Y-41100
X68500Y-33680
X68980Y-31080
X69000Y-44300
X69140Y-46860
X69320Y-28320
X69320Y-29040
X69540Y-33080
X69560Y-41840
X70100Y-46856
X70140Y-28320
X70140Y-29040
X70400Y-32480
X70406Y-42720
X70406Y-43997
X70406Y-45273
X70406Y-46550
X70460Y-29680
X70480Y-31040
T2
X61417Y-41339
X61417Y-33465
T0
M30
