G04 #@! TF.GenerationSoftware,KiCad,Pcbnew,(5.1.5)-3*
G04 #@! TF.CreationDate,2020-01-04T12:29:47-06:00*
G04 #@! TF.ProjectId,HMC1121_4W_6CM,484d4331-3132-4315-9f34-575f36434d2e,rev?*
G04 #@! TF.SameCoordinates,Original*
G04 #@! TF.FileFunction,Profile,NP*
%FSLAX46Y46*%
G04 Gerber Fmt 4.6, Leading zero omitted, Abs format (unit mm)*
G04 Created by KiCad (PCBNEW (5.1.5)-3) date 2020-01-04 12:29:47*
%MOMM*%
%LPD*%
G04 APERTURE LIST*
%ADD10C,0.050800*%
%ADD11C,0.050000*%
G04 APERTURE END LIST*
D10*
X178906707Y-83415979D02*
G75*
G03X179832000Y-81711800I-1106707J1704179D01*
G01*
X178906707Y-106804621D02*
G75*
G02X179832000Y-108508800I-1106707J-1704179D01*
G01*
X130046415Y-85342415D02*
G75*
G03X131749801Y-87350599I2033585J-1585D01*
G01*
X130046415Y-104395585D02*
G75*
G02X131749801Y-102387401I2033585J1585D01*
G01*
D11*
X130048000Y-72009000D02*
G75*
G02X132080000Y-69977000I2032000J0D01*
G01*
X130048000Y-117983000D02*
X130046415Y-104394000D01*
X132080000Y-120015000D02*
G75*
G02X130048000Y-117983000I0J2032000D01*
G01*
X178054000Y-120015000D02*
X132080000Y-120015000D01*
X179832000Y-118237000D02*
G75*
G02X178054000Y-120015000I-1778000J0D01*
G01*
X179832000Y-108508800D02*
X179832000Y-118237000D01*
X177800001Y-69976981D02*
G75*
G02X179831999Y-72000001I-1J-2032019D01*
G01*
X179832000Y-72000000D02*
X179832000Y-81711800D01*
X130048000Y-72009000D02*
X130048000Y-85344000D01*
D10*
X143256000Y-89408000D02*
X131749801Y-87350599D01*
X143256000Y-100584000D02*
X131749801Y-102387401D01*
X143256000Y-89408000D02*
X143256000Y-100584000D01*
X168910000Y-89408000D02*
X178906707Y-83415979D01*
X168910000Y-100584000D02*
X178906707Y-106804621D01*
X168910000Y-100584000D02*
X168910000Y-89408000D01*
X177800001Y-69976981D02*
X132080000Y-69977000D01*
M02*
