G04 #@! TF.GenerationSoftware,KiCad,Pcbnew,(5.1.5)-3*
G04 #@! TF.CreationDate,2020-01-04T12:29:47-06:00*
G04 #@! TF.ProjectId,HMC1121_4W_6CM,484d4331-3132-4315-9f34-575f36434d2e,rev?*
G04 #@! TF.SameCoordinates,Original*
G04 #@! TF.FileFunction,Copper,L2,Bot*
G04 #@! TF.FilePolarity,Positive*
%FSLAX46Y46*%
G04 Gerber Fmt 4.6, Leading zero omitted, Abs format (unit mm)*
G04 Created by KiCad (PCBNEW (5.1.5)-3) date 2020-01-04 12:29:47*
%MOMM*%
%LPD*%
G04 APERTURE LIST*
%ADD10C,0.300000*%
%ADD11R,4.900000X1.600000*%
%ADD12C,3.800000*%
%ADD13C,0.800000*%
%ADD14C,0.711200*%
%ADD15C,0.254000*%
G04 APERTURE END LIST*
D10*
X181678571Y-73892857D02*
X181892857Y-73964285D01*
X181964285Y-74035714D01*
X182035714Y-74178571D01*
X182035714Y-74392857D01*
X181964285Y-74535714D01*
X181892857Y-74607142D01*
X181750000Y-74678571D01*
X181178571Y-74678571D01*
X181178571Y-73178571D01*
X181678571Y-73178571D01*
X181821428Y-73250000D01*
X181892857Y-73321428D01*
X181964285Y-73464285D01*
X181964285Y-73607142D01*
X181892857Y-73750000D01*
X181821428Y-73821428D01*
X181678571Y-73892857D01*
X181178571Y-73892857D01*
X182464285Y-73678571D02*
X183035714Y-73678571D01*
X182678571Y-73178571D02*
X182678571Y-74464285D01*
X182750000Y-74607142D01*
X182892857Y-74678571D01*
X183035714Y-74678571D01*
X183535714Y-74678571D02*
X183535714Y-73678571D01*
X183535714Y-73821428D02*
X183607142Y-73750000D01*
X183750000Y-73678571D01*
X183964285Y-73678571D01*
X184107142Y-73750000D01*
X184178571Y-73892857D01*
X184178571Y-74678571D01*
X184178571Y-73892857D02*
X184250000Y-73750000D01*
X184392857Y-73678571D01*
X184607142Y-73678571D01*
X184750000Y-73750000D01*
X184821428Y-73892857D01*
X184821428Y-74678571D01*
D11*
X166116000Y-99314000D03*
X166116000Y-90678000D03*
D12*
X156000000Y-105000000D03*
X156000000Y-85000000D03*
D11*
X145948400Y-90678000D03*
X145948400Y-99314000D03*
D13*
X137160000Y-70976997D03*
X144780000Y-70976994D03*
X152400000Y-70976991D03*
X157022800Y-71628000D03*
X172720000Y-70976983D03*
X178968400Y-75387200D03*
X171145200Y-79959200D03*
X168910000Y-101346000D03*
X168605200Y-84836000D03*
X173888400Y-104394000D03*
X171399200Y-102920800D03*
X164338000Y-99720400D03*
X158699200Y-75946000D03*
X165303200Y-99720400D03*
X179019200Y-78841600D03*
X178816000Y-82499200D03*
X176631600Y-84023200D03*
X173990000Y-85547200D03*
X171704000Y-86868000D03*
X139039600Y-75285600D03*
X133959600Y-78943200D03*
X171653200Y-75590400D03*
X135509000Y-74930000D03*
X134010400Y-83413600D03*
X130810000Y-79298800D03*
X130911600Y-76555600D03*
X130860800Y-85090000D03*
X168910000Y-70993000D03*
X168960800Y-88392000D03*
X154482800Y-77876400D03*
X138353800Y-83413600D03*
X143256000Y-83159600D03*
X140716000Y-88188800D03*
X137769600Y-87731600D03*
X135280400Y-87223600D03*
X143764000Y-88900000D03*
X132588000Y-86664800D03*
X134708873Y-102768400D03*
X137566400Y-102209600D03*
X140258800Y-101904800D03*
X143020273Y-101346000D03*
X131572000Y-103378000D03*
X131046732Y-106828474D03*
X134112000Y-105460800D03*
X165201600Y-106832400D03*
X173634400Y-107797600D03*
X159650000Y-115450000D03*
X176682400Y-106273600D03*
X178832000Y-111751533D03*
X178832000Y-114994266D03*
X178832000Y-108508800D03*
X178832000Y-118237000D03*
X143357600Y-104190800D03*
X135788400Y-106527600D03*
X142798800Y-112166400D03*
X136144000Y-109931200D03*
X133553200Y-113690400D03*
X139979400Y-104927400D03*
X144018000Y-107340400D03*
X152654000Y-112928400D03*
X152603200Y-115722400D03*
X164388800Y-103378000D03*
X175615600Y-119024400D03*
X172945777Y-119015000D03*
X170391666Y-119015000D03*
X178054000Y-119015000D03*
X150012400Y-92456000D03*
X150012400Y-97536000D03*
X148742400Y-92456000D03*
X147472400Y-92456000D03*
X146202400Y-92456000D03*
X144932400Y-92456000D03*
X151307800Y-92456000D03*
X148742400Y-97536000D03*
X147472400Y-97536000D03*
X146202400Y-97536000D03*
X144932400Y-97536000D03*
X151358600Y-97536000D03*
X160375600Y-92456000D03*
X161645600Y-92456000D03*
X162915600Y-92456000D03*
X164185600Y-92456000D03*
X165455600Y-92456000D03*
X166725600Y-92456000D03*
X167995600Y-92456000D03*
X162915600Y-97612200D03*
X164185600Y-97612200D03*
X165455600Y-97612200D03*
X166725600Y-97612200D03*
X167995600Y-97612200D03*
X167335200Y-99720400D03*
X168300400Y-99720400D03*
D14*
X157835600Y-97256600D03*
X156819600Y-97256600D03*
X155803600Y-97256600D03*
X154787600Y-97256600D03*
X153771600Y-97256600D03*
X157835600Y-96240600D03*
X156819600Y-96240600D03*
X155803600Y-96240600D03*
X154787600Y-96240600D03*
X153771600Y-96240600D03*
X157835600Y-95224600D03*
X156819600Y-95224600D03*
X155803600Y-95224600D03*
X154787600Y-95224600D03*
X153771600Y-95224600D03*
X157835600Y-94208600D03*
X156819600Y-94208600D03*
X155803600Y-94208600D03*
X154787600Y-94208600D03*
X153771600Y-94208600D03*
X157835600Y-93192600D03*
X156819600Y-93192600D03*
X155803600Y-93192600D03*
X154787600Y-93192600D03*
X153771600Y-93192600D03*
D13*
X149950000Y-85950000D03*
X150876000Y-89712800D03*
X155397200Y-88188800D03*
X149850000Y-84650000D03*
X150596600Y-80213200D03*
X150596600Y-82296000D03*
X144018000Y-77520800D03*
X159562800Y-77978000D03*
X161645600Y-88290400D03*
X157988000Y-81026000D03*
X159359600Y-81788000D03*
X159156400Y-90170000D03*
X152247600Y-100431600D03*
X159750000Y-101650800D03*
X159750000Y-100431600D03*
X146862800Y-103073200D03*
X155250000Y-101200000D03*
X152552400Y-107391200D03*
X149707600Y-107137200D03*
X151485600Y-106984800D03*
X155752800Y-99822000D03*
X156565600Y-108458000D03*
X156514800Y-110540800D03*
X164947600Y-108610400D03*
X164947600Y-110591600D03*
X146304000Y-110540800D03*
X146304000Y-108559600D03*
X154889200Y-110490000D03*
X139954000Y-108305600D03*
X137617200Y-113690400D03*
X137566400Y-117602000D03*
X168910000Y-109321600D03*
X171754800Y-116205000D03*
X175260000Y-112522000D03*
X168351200Y-90271600D03*
X167284400Y-90271600D03*
X165303200Y-90271600D03*
X164338000Y-90271600D03*
X143865600Y-97536000D03*
X143814800Y-99720400D03*
X144780000Y-99720400D03*
X146812000Y-99720400D03*
X147828000Y-99720400D03*
X143916400Y-92456000D03*
X143814800Y-90271600D03*
X144881600Y-90271600D03*
X146862800Y-90271600D03*
X147828000Y-90271600D03*
X139242800Y-79197200D03*
X175209200Y-78943200D03*
X150012400Y-99568000D03*
X159461200Y-98704400D03*
X164236400Y-88646000D03*
X148894800Y-87426800D03*
X152755600Y-91287600D03*
X166725600Y-74422000D03*
X173583600Y-82296000D03*
X167030400Y-81483200D03*
X144068800Y-116078000D03*
X131826000Y-71729600D03*
X133858000Y-71729600D03*
X133908800Y-73609200D03*
X131876800Y-73660000D03*
X131978400Y-109372400D03*
X133959600Y-109372400D03*
X134010400Y-111252000D03*
X132080000Y-111302800D03*
X176072800Y-71932800D03*
X178155600Y-71932800D03*
X178155600Y-73761600D03*
X176072800Y-73761600D03*
X162814000Y-105613200D03*
X145897600Y-90271600D03*
X145745200Y-99720400D03*
X166268400Y-90271600D03*
X166319200Y-99720400D03*
X165303200Y-83718400D03*
X131470400Y-81889600D03*
X159054800Y-91846400D03*
X155803600Y-89611200D03*
X155194000Y-80975200D03*
X152755600Y-75742800D03*
X163728400Y-79959200D03*
X144018000Y-118516400D03*
X160477200Y-118516400D03*
X159562800Y-80010000D03*
X165252400Y-85902800D03*
X145796000Y-82296000D03*
X145618200Y-85852000D03*
X145770600Y-74320400D03*
X160121600Y-107594400D03*
X158800800Y-107848400D03*
X154889200Y-108458000D03*
X160700000Y-105100000D03*
X152298400Y-118567200D03*
X169214800Y-112928400D03*
X167386000Y-77470000D03*
X148539200Y-77317600D03*
X145846800Y-80111600D03*
X153000000Y-88300000D03*
X166500000Y-115200000D03*
X160600000Y-110800000D03*
X147600000Y-105950000D03*
D15*
G36*
X178115449Y-70415858D02*
G01*
X178418890Y-70507472D01*
X178698745Y-70656274D01*
X178944378Y-70856607D01*
X179146416Y-71100828D01*
X179297172Y-71379646D01*
X179390901Y-71682436D01*
X179426000Y-72016387D01*
X179426001Y-81687838D01*
X179392730Y-82027166D01*
X179301140Y-82330526D01*
X179152373Y-82610315D01*
X178952093Y-82855883D01*
X178693913Y-83069467D01*
X178689970Y-83072076D01*
X168709621Y-89054293D01*
X168683125Y-89068456D01*
X168659890Y-89087524D01*
X168635754Y-89105426D01*
X168629008Y-89112869D01*
X168621243Y-89119242D01*
X168602176Y-89142475D01*
X168581994Y-89164743D01*
X168576831Y-89173358D01*
X168570457Y-89181124D01*
X168556289Y-89207630D01*
X168540839Y-89233408D01*
X168537455Y-89242866D01*
X168532720Y-89251725D01*
X168523996Y-89280486D01*
X168513872Y-89308782D01*
X168512398Y-89318719D01*
X168509482Y-89328332D01*
X168506537Y-89358234D01*
X168502126Y-89387970D01*
X168503601Y-89417987D01*
X168503600Y-100570644D01*
X168501849Y-100597235D01*
X168506202Y-100630379D01*
X168509481Y-100663667D01*
X168511409Y-100670024D01*
X168512274Y-100676607D01*
X168523009Y-100708264D01*
X168532719Y-100740274D01*
X168535851Y-100746133D01*
X168537983Y-100752421D01*
X168554691Y-100781380D01*
X168570456Y-100810875D01*
X168574670Y-100816009D01*
X168577988Y-100821761D01*
X168600023Y-100846903D01*
X168621242Y-100872758D01*
X168626378Y-100876973D01*
X168630753Y-100881965D01*
X168657259Y-100902317D01*
X168683124Y-100923544D01*
X168706640Y-100936114D01*
X178671775Y-107137089D01*
X178931952Y-107344785D01*
X179136487Y-107586820D01*
X179290114Y-107863970D01*
X179386983Y-108165678D01*
X179425495Y-108498532D01*
X179425615Y-108512341D01*
X179426000Y-108515944D01*
X179426001Y-118217136D01*
X179397961Y-118503110D01*
X179320677Y-118759085D01*
X179195144Y-118995178D01*
X179026152Y-119202385D01*
X178820121Y-119372828D01*
X178584917Y-119500002D01*
X178329489Y-119579070D01*
X178044725Y-119609000D01*
X132099854Y-119609000D01*
X131764556Y-119576124D01*
X131461120Y-119484512D01*
X131181260Y-119335706D01*
X130935635Y-119135379D01*
X130733599Y-118891158D01*
X130582845Y-118612345D01*
X130489118Y-118309562D01*
X130453999Y-117975421D01*
X130452417Y-104419389D01*
X130485469Y-104079567D01*
X130576912Y-103775840D01*
X130725607Y-103495660D01*
X130925885Y-103249705D01*
X131170131Y-103047326D01*
X131449028Y-102896245D01*
X131767122Y-102797507D01*
X131818301Y-102788026D01*
X143307437Y-100987300D01*
X143335668Y-100984519D01*
X143366015Y-100975314D01*
X143396724Y-100967353D01*
X143404263Y-100963711D01*
X143412275Y-100961281D01*
X143440248Y-100946329D01*
X143468809Y-100932533D01*
X143475493Y-100927490D01*
X143482876Y-100923544D01*
X143507391Y-100903424D01*
X143532715Y-100884319D01*
X143538288Y-100878068D01*
X143544758Y-100872758D01*
X143564880Y-100848240D01*
X143585987Y-100824564D01*
X143590231Y-100817350D01*
X143595544Y-100810876D01*
X143610497Y-100782901D01*
X143626579Y-100755564D01*
X143629335Y-100747658D01*
X143633281Y-100740275D01*
X143642489Y-100709919D01*
X143652928Y-100679971D01*
X143654088Y-100671682D01*
X143656519Y-100663668D01*
X143659629Y-100632090D01*
X143664024Y-100600690D01*
X143662400Y-100572376D01*
X143662400Y-89423997D01*
X143664288Y-89400073D01*
X143660059Y-89364268D01*
X143656519Y-89328332D01*
X143655364Y-89324524D01*
X143654897Y-89320572D01*
X143643758Y-89286263D01*
X143633281Y-89251725D01*
X143631404Y-89248214D01*
X143630176Y-89244431D01*
X143612560Y-89212959D01*
X143595544Y-89181124D01*
X143593019Y-89178047D01*
X143591076Y-89174576D01*
X143567642Y-89147125D01*
X143544758Y-89119242D01*
X143541685Y-89116720D01*
X143539099Y-89113691D01*
X143510736Y-89091321D01*
X143482875Y-89068456D01*
X143479371Y-89066583D01*
X143476243Y-89064116D01*
X143444074Y-89047716D01*
X143412274Y-89030719D01*
X143408467Y-89029564D01*
X143404922Y-89027757D01*
X143370176Y-89017949D01*
X143335667Y-89007481D01*
X143311782Y-89005128D01*
X131838131Y-86953548D01*
X131509644Y-86865870D01*
X131224906Y-86726103D01*
X130972740Y-86533694D01*
X130762749Y-86295969D01*
X130602931Y-86021985D01*
X130499373Y-85722169D01*
X130453851Y-85392219D01*
X130453419Y-85369835D01*
X130454000Y-85363941D01*
X130454000Y-72028854D01*
X130486876Y-71693556D01*
X130578488Y-71390122D01*
X130727290Y-71110266D01*
X130927620Y-70864637D01*
X131171843Y-70662598D01*
X131450654Y-70511845D01*
X131753439Y-70418118D01*
X132083762Y-70383400D01*
X177784216Y-70383380D01*
X178115449Y-70415858D01*
G37*
X178115449Y-70415858D02*
X178418890Y-70507472D01*
X178698745Y-70656274D01*
X178944378Y-70856607D01*
X179146416Y-71100828D01*
X179297172Y-71379646D01*
X179390901Y-71682436D01*
X179426000Y-72016387D01*
X179426001Y-81687838D01*
X179392730Y-82027166D01*
X179301140Y-82330526D01*
X179152373Y-82610315D01*
X178952093Y-82855883D01*
X178693913Y-83069467D01*
X178689970Y-83072076D01*
X168709621Y-89054293D01*
X168683125Y-89068456D01*
X168659890Y-89087524D01*
X168635754Y-89105426D01*
X168629008Y-89112869D01*
X168621243Y-89119242D01*
X168602176Y-89142475D01*
X168581994Y-89164743D01*
X168576831Y-89173358D01*
X168570457Y-89181124D01*
X168556289Y-89207630D01*
X168540839Y-89233408D01*
X168537455Y-89242866D01*
X168532720Y-89251725D01*
X168523996Y-89280486D01*
X168513872Y-89308782D01*
X168512398Y-89318719D01*
X168509482Y-89328332D01*
X168506537Y-89358234D01*
X168502126Y-89387970D01*
X168503601Y-89417987D01*
X168503600Y-100570644D01*
X168501849Y-100597235D01*
X168506202Y-100630379D01*
X168509481Y-100663667D01*
X168511409Y-100670024D01*
X168512274Y-100676607D01*
X168523009Y-100708264D01*
X168532719Y-100740274D01*
X168535851Y-100746133D01*
X168537983Y-100752421D01*
X168554691Y-100781380D01*
X168570456Y-100810875D01*
X168574670Y-100816009D01*
X168577988Y-100821761D01*
X168600023Y-100846903D01*
X168621242Y-100872758D01*
X168626378Y-100876973D01*
X168630753Y-100881965D01*
X168657259Y-100902317D01*
X168683124Y-100923544D01*
X168706640Y-100936114D01*
X178671775Y-107137089D01*
X178931952Y-107344785D01*
X179136487Y-107586820D01*
X179290114Y-107863970D01*
X179386983Y-108165678D01*
X179425495Y-108498532D01*
X179425615Y-108512341D01*
X179426000Y-108515944D01*
X179426001Y-118217136D01*
X179397961Y-118503110D01*
X179320677Y-118759085D01*
X179195144Y-118995178D01*
X179026152Y-119202385D01*
X178820121Y-119372828D01*
X178584917Y-119500002D01*
X178329489Y-119579070D01*
X178044725Y-119609000D01*
X132099854Y-119609000D01*
X131764556Y-119576124D01*
X131461120Y-119484512D01*
X131181260Y-119335706D01*
X130935635Y-119135379D01*
X130733599Y-118891158D01*
X130582845Y-118612345D01*
X130489118Y-118309562D01*
X130453999Y-117975421D01*
X130452417Y-104419389D01*
X130485469Y-104079567D01*
X130576912Y-103775840D01*
X130725607Y-103495660D01*
X130925885Y-103249705D01*
X131170131Y-103047326D01*
X131449028Y-102896245D01*
X131767122Y-102797507D01*
X131818301Y-102788026D01*
X143307437Y-100987300D01*
X143335668Y-100984519D01*
X143366015Y-100975314D01*
X143396724Y-100967353D01*
X143404263Y-100963711D01*
X143412275Y-100961281D01*
X143440248Y-100946329D01*
X143468809Y-100932533D01*
X143475493Y-100927490D01*
X143482876Y-100923544D01*
X143507391Y-100903424D01*
X143532715Y-100884319D01*
X143538288Y-100878068D01*
X143544758Y-100872758D01*
X143564880Y-100848240D01*
X143585987Y-100824564D01*
X143590231Y-100817350D01*
X143595544Y-100810876D01*
X143610497Y-100782901D01*
X143626579Y-100755564D01*
X143629335Y-100747658D01*
X143633281Y-100740275D01*
X143642489Y-100709919D01*
X143652928Y-100679971D01*
X143654088Y-100671682D01*
X143656519Y-100663668D01*
X143659629Y-100632090D01*
X143664024Y-100600690D01*
X143662400Y-100572376D01*
X143662400Y-89423997D01*
X143664288Y-89400073D01*
X143660059Y-89364268D01*
X143656519Y-89328332D01*
X143655364Y-89324524D01*
X143654897Y-89320572D01*
X143643758Y-89286263D01*
X143633281Y-89251725D01*
X143631404Y-89248214D01*
X143630176Y-89244431D01*
X143612560Y-89212959D01*
X143595544Y-89181124D01*
X143593019Y-89178047D01*
X143591076Y-89174576D01*
X143567642Y-89147125D01*
X143544758Y-89119242D01*
X143541685Y-89116720D01*
X143539099Y-89113691D01*
X143510736Y-89091321D01*
X143482875Y-89068456D01*
X143479371Y-89066583D01*
X143476243Y-89064116D01*
X143444074Y-89047716D01*
X143412274Y-89030719D01*
X143408467Y-89029564D01*
X143404922Y-89027757D01*
X143370176Y-89017949D01*
X143335667Y-89007481D01*
X143311782Y-89005128D01*
X131838131Y-86953548D01*
X131509644Y-86865870D01*
X131224906Y-86726103D01*
X130972740Y-86533694D01*
X130762749Y-86295969D01*
X130602931Y-86021985D01*
X130499373Y-85722169D01*
X130453851Y-85392219D01*
X130453419Y-85369835D01*
X130454000Y-85363941D01*
X130454000Y-72028854D01*
X130486876Y-71693556D01*
X130578488Y-71390122D01*
X130727290Y-71110266D01*
X130927620Y-70864637D01*
X131171843Y-70662598D01*
X131450654Y-70511845D01*
X131753439Y-70418118D01*
X132083762Y-70383400D01*
X177784216Y-70383380D01*
X178115449Y-70415858D01*
M02*
