G04 #@! TF.GenerationSoftware,KiCad,Pcbnew,(5.1.5)-3*
G04 #@! TF.CreationDate,2020-01-04T12:29:47-06:00*
G04 #@! TF.ProjectId,HMC1121_4W_6CM,484d4331-3132-4315-9f34-575f36434d2e,rev?*
G04 #@! TF.SameCoordinates,Original*
G04 #@! TF.FileFunction,Legend,Top*
G04 #@! TF.FilePolarity,Positive*
%FSLAX46Y46*%
G04 Gerber Fmt 4.6, Leading zero omitted, Abs format (unit mm)*
G04 Created by KiCad (PCBNEW (5.1.5)-3) date 2020-01-04 12:29:47*
%MOMM*%
%LPD*%
G04 APERTURE LIST*
%ADD10C,0.152400*%
%ADD11C,0.150000*%
%ADD12C,0.300000*%
%ADD13C,0.025400*%
%ADD14C,0.120000*%
%ADD15C,0.010000*%
%ADD16C,0.127000*%
G04 APERTURE END LIST*
D10*
X170002628Y-78959971D02*
X169288342Y-78959971D01*
X169216914Y-79674257D01*
X169288342Y-79602828D01*
X169431200Y-79531400D01*
X169788342Y-79531400D01*
X169931200Y-79602828D01*
X170002628Y-79674257D01*
X170074057Y-79817114D01*
X170074057Y-80174257D01*
X170002628Y-80317114D01*
X169931200Y-80388542D01*
X169788342Y-80459971D01*
X169431200Y-80459971D01*
X169288342Y-80388542D01*
X169216914Y-80317114D01*
X171359771Y-80388542D02*
X171216914Y-80459971D01*
X170931200Y-80459971D01*
X170788342Y-80388542D01*
X170716914Y-80317114D01*
X170645485Y-80174257D01*
X170645485Y-79745685D01*
X170716914Y-79602828D01*
X170788342Y-79531400D01*
X170931200Y-79459971D01*
X171216914Y-79459971D01*
X171359771Y-79531400D01*
X172002628Y-80459971D02*
X172002628Y-79459971D01*
X172002628Y-79602828D02*
X172074057Y-79531400D01*
X172216914Y-79459971D01*
X172431200Y-79459971D01*
X172574057Y-79531400D01*
X172645485Y-79674257D01*
X172645485Y-80459971D01*
X172645485Y-79674257D02*
X172716914Y-79531400D01*
X172859771Y-79459971D01*
X173074057Y-79459971D01*
X173216914Y-79531400D01*
X173288342Y-79674257D01*
X173288342Y-80459971D01*
X175788342Y-79459971D02*
X175788342Y-80459971D01*
X175431200Y-78888542D02*
X175074057Y-79959971D01*
X176002628Y-79959971D01*
X176431200Y-78959971D02*
X176788342Y-80459971D01*
X177074057Y-79388542D01*
X177359771Y-80459971D01*
X177716914Y-78959971D01*
X133116571Y-103531771D02*
X131973714Y-103960342D01*
X133116571Y-104388914D01*
X133759428Y-103174628D02*
X133830857Y-103103200D01*
X133973714Y-103031771D01*
X134330857Y-103031771D01*
X134473714Y-103103200D01*
X134545142Y-103174628D01*
X134616571Y-103317485D01*
X134616571Y-103460342D01*
X134545142Y-103674628D01*
X133688000Y-104531771D01*
X134616571Y-104531771D01*
X135902285Y-103531771D02*
X135902285Y-104531771D01*
X135545142Y-102960342D02*
X135188000Y-104031771D01*
X136116571Y-104031771D01*
X138473714Y-104531771D02*
X138473714Y-103031771D01*
X138473714Y-104460342D02*
X138330857Y-104531771D01*
X138045142Y-104531771D01*
X137902285Y-104460342D01*
X137830857Y-104388914D01*
X137759428Y-104246057D01*
X137759428Y-103817485D01*
X137830857Y-103674628D01*
X137902285Y-103603200D01*
X138045142Y-103531771D01*
X138330857Y-103531771D01*
X138473714Y-103603200D01*
X139688000Y-103746057D02*
X139902285Y-103817485D01*
X139973714Y-103888914D01*
X140045142Y-104031771D01*
X140045142Y-104246057D01*
X139973714Y-104388914D01*
X139902285Y-104460342D01*
X139759428Y-104531771D01*
X139188000Y-104531771D01*
X139188000Y-103031771D01*
X139688000Y-103031771D01*
X139830857Y-103103200D01*
X139902285Y-103174628D01*
X139973714Y-103317485D01*
X139973714Y-103460342D01*
X139902285Y-103603200D01*
X139830857Y-103674628D01*
X139688000Y-103746057D01*
X139188000Y-103746057D01*
X140688000Y-104531771D02*
X140688000Y-103531771D01*
X140688000Y-103674628D02*
X140759428Y-103603200D01*
X140902285Y-103531771D01*
X141116571Y-103531771D01*
X141259428Y-103603200D01*
X141330857Y-103746057D01*
X141330857Y-104531771D01*
X141330857Y-103746057D02*
X141402285Y-103603200D01*
X141545142Y-103531771D01*
X141759428Y-103531771D01*
X141902285Y-103603200D01*
X141973714Y-103746057D01*
X141973714Y-104531771D01*
X143830857Y-104531771D02*
X143830857Y-103031771D01*
X144545142Y-103531771D02*
X144545142Y-104531771D01*
X144545142Y-103674628D02*
X144616571Y-103603200D01*
X144759428Y-103531771D01*
X144973714Y-103531771D01*
X145116571Y-103603200D01*
X145188000Y-103746057D01*
X145188000Y-104531771D01*
X145902285Y-104388914D02*
X145973714Y-104460342D01*
X145902285Y-104531771D01*
X145830857Y-104460342D01*
X145902285Y-104388914D01*
X145902285Y-104531771D01*
X132259428Y-106934171D02*
X131402285Y-106934171D01*
X131830857Y-106934171D02*
X131830857Y-105434171D01*
X131688000Y-105648457D01*
X131545142Y-105791314D01*
X131402285Y-105862742D01*
X133188000Y-105434171D02*
X133330857Y-105434171D01*
X133473714Y-105505600D01*
X133545142Y-105577028D01*
X133616571Y-105719885D01*
X133688000Y-106005600D01*
X133688000Y-106362742D01*
X133616571Y-106648457D01*
X133545142Y-106791314D01*
X133473714Y-106862742D01*
X133330857Y-106934171D01*
X133188000Y-106934171D01*
X133045142Y-106862742D01*
X132973714Y-106791314D01*
X132902285Y-106648457D01*
X132830857Y-106362742D01*
X132830857Y-106005600D01*
X132902285Y-105719885D01*
X132973714Y-105577028D01*
X133045142Y-105505600D01*
X133188000Y-105434171D01*
X136116571Y-106934171D02*
X136116571Y-105434171D01*
X136116571Y-106862742D02*
X135973714Y-106934171D01*
X135688000Y-106934171D01*
X135545142Y-106862742D01*
X135473714Y-106791314D01*
X135402285Y-106648457D01*
X135402285Y-106219885D01*
X135473714Y-106077028D01*
X135545142Y-106005600D01*
X135688000Y-105934171D01*
X135973714Y-105934171D01*
X136116571Y-106005600D01*
X137330857Y-106148457D02*
X137545142Y-106219885D01*
X137616571Y-106291314D01*
X137688000Y-106434171D01*
X137688000Y-106648457D01*
X137616571Y-106791314D01*
X137545142Y-106862742D01*
X137402285Y-106934171D01*
X136830857Y-106934171D01*
X136830857Y-105434171D01*
X137330857Y-105434171D01*
X137473714Y-105505600D01*
X137545142Y-105577028D01*
X137616571Y-105719885D01*
X137616571Y-105862742D01*
X137545142Y-106005600D01*
X137473714Y-106077028D01*
X137330857Y-106148457D01*
X136830857Y-106148457D01*
X138330857Y-106934171D02*
X138330857Y-105934171D01*
X138330857Y-106077028D02*
X138402285Y-106005600D01*
X138545142Y-105934171D01*
X138759428Y-105934171D01*
X138902285Y-106005600D01*
X138973714Y-106148457D01*
X138973714Y-106934171D01*
X138973714Y-106148457D02*
X139045142Y-106005600D01*
X139188000Y-105934171D01*
X139402285Y-105934171D01*
X139545142Y-106005600D01*
X139616571Y-106148457D01*
X139616571Y-106934171D01*
X141473714Y-106934171D02*
X141473714Y-105434171D01*
X142330857Y-106934171D01*
X142330857Y-105434171D01*
X143259428Y-106934171D02*
X143116571Y-106862742D01*
X143045142Y-106791314D01*
X142973714Y-106648457D01*
X142973714Y-106219885D01*
X143045142Y-106077028D01*
X143116571Y-106005600D01*
X143259428Y-105934171D01*
X143473714Y-105934171D01*
X143616571Y-106005600D01*
X143688000Y-106077028D01*
X143759428Y-106219885D01*
X143759428Y-106648457D01*
X143688000Y-106791314D01*
X143616571Y-106862742D01*
X143473714Y-106934171D01*
X143259428Y-106934171D01*
X144402285Y-106934171D02*
X144402285Y-105934171D01*
X144402285Y-106077028D02*
X144473714Y-106005600D01*
X144616571Y-105934171D01*
X144830857Y-105934171D01*
X144973714Y-106005600D01*
X145045142Y-106148457D01*
X145045142Y-106934171D01*
X145045142Y-106148457D02*
X145116571Y-106005600D01*
X145259428Y-105934171D01*
X145473714Y-105934171D01*
X145616571Y-106005600D01*
X145688000Y-106148457D01*
X145688000Y-106934171D01*
X146402285Y-106791314D02*
X146473714Y-106862742D01*
X146402285Y-106934171D01*
X146330857Y-106862742D01*
X146402285Y-106791314D01*
X146402285Y-106934171D01*
X135825904Y-71242000D02*
X135729142Y-71193619D01*
X135584000Y-71193619D01*
X135438857Y-71242000D01*
X135342095Y-71338761D01*
X135293714Y-71435523D01*
X135245333Y-71629047D01*
X135245333Y-71774190D01*
X135293714Y-71967714D01*
X135342095Y-72064476D01*
X135438857Y-72161238D01*
X135584000Y-72209619D01*
X135680761Y-72209619D01*
X135825904Y-72161238D01*
X135874285Y-72112857D01*
X135874285Y-71774190D01*
X135680761Y-71774190D01*
X136309714Y-72209619D02*
X136309714Y-71193619D01*
X136890285Y-72209619D01*
X136890285Y-71193619D01*
X137374095Y-72209619D02*
X137374095Y-71193619D01*
X137616000Y-71193619D01*
X137761142Y-71242000D01*
X137857904Y-71338761D01*
X137906285Y-71435523D01*
X137954666Y-71629047D01*
X137954666Y-71774190D01*
X137906285Y-71967714D01*
X137857904Y-72064476D01*
X137761142Y-72161238D01*
X137616000Y-72209619D01*
X137374095Y-72209619D01*
X136081104Y-110794800D02*
X135984342Y-110746419D01*
X135839200Y-110746419D01*
X135694057Y-110794800D01*
X135597295Y-110891561D01*
X135548914Y-110988323D01*
X135500533Y-111181847D01*
X135500533Y-111326990D01*
X135548914Y-111520514D01*
X135597295Y-111617276D01*
X135694057Y-111714038D01*
X135839200Y-111762419D01*
X135935961Y-111762419D01*
X136081104Y-111714038D01*
X136129485Y-111665657D01*
X136129485Y-111326990D01*
X135935961Y-111326990D01*
X136564914Y-111762419D02*
X136564914Y-110746419D01*
X137145485Y-111762419D01*
X137145485Y-110746419D01*
X137629295Y-111762419D02*
X137629295Y-110746419D01*
X137871200Y-110746419D01*
X138016342Y-110794800D01*
X138113104Y-110891561D01*
X138161485Y-110988323D01*
X138209866Y-111181847D01*
X138209866Y-111326990D01*
X138161485Y-111520514D01*
X138113104Y-111617276D01*
X138016342Y-111714038D01*
X137871200Y-111762419D01*
X137629295Y-111762419D01*
X136107714Y-116080419D02*
X135769047Y-115596609D01*
X135527142Y-116080419D02*
X135527142Y-115064419D01*
X135914190Y-115064419D01*
X136010952Y-115112800D01*
X136059333Y-115161180D01*
X136107714Y-115257942D01*
X136107714Y-115403085D01*
X136059333Y-115499847D01*
X136010952Y-115548228D01*
X135914190Y-115596609D01*
X135527142Y-115596609D01*
X136881809Y-115548228D02*
X136543142Y-115548228D01*
X136543142Y-116080419D02*
X136543142Y-115064419D01*
X137026952Y-115064419D01*
X137849428Y-116080419D02*
X137849428Y-115064419D01*
X137849428Y-116032038D02*
X137752666Y-116080419D01*
X137559142Y-116080419D01*
X137462380Y-116032038D01*
X137414000Y-115983657D01*
X137365619Y-115886895D01*
X137365619Y-115596609D01*
X137414000Y-115499847D01*
X137462380Y-115451466D01*
X137559142Y-115403085D01*
X137752666Y-115403085D01*
X137849428Y-115451466D01*
X138720285Y-116032038D02*
X138623523Y-116080419D01*
X138430000Y-116080419D01*
X138333238Y-116032038D01*
X138284857Y-115935276D01*
X138284857Y-115548228D01*
X138333238Y-115451466D01*
X138430000Y-115403085D01*
X138623523Y-115403085D01*
X138720285Y-115451466D01*
X138768666Y-115548228D01*
X138768666Y-115644990D01*
X138284857Y-115741752D01*
X139058952Y-115403085D02*
X139446000Y-115403085D01*
X139204095Y-115064419D02*
X139204095Y-115935276D01*
X139252476Y-116032038D01*
X139349238Y-116080419D01*
X139446000Y-116080419D01*
X154477961Y-70510400D02*
X154381200Y-70462019D01*
X154236057Y-70462019D01*
X154090914Y-70510400D01*
X153994152Y-70607161D01*
X153945771Y-70703923D01*
X153897390Y-70897447D01*
X153897390Y-71042590D01*
X153945771Y-71236114D01*
X153994152Y-71332876D01*
X154090914Y-71429638D01*
X154236057Y-71478019D01*
X154332819Y-71478019D01*
X154477961Y-71429638D01*
X154526342Y-71381257D01*
X154526342Y-71042590D01*
X154332819Y-71042590D01*
X155397200Y-71478019D02*
X155397200Y-70945828D01*
X155348819Y-70849066D01*
X155252057Y-70800685D01*
X155058533Y-70800685D01*
X154961771Y-70849066D01*
X155397200Y-71429638D02*
X155300438Y-71478019D01*
X155058533Y-71478019D01*
X154961771Y-71429638D01*
X154913390Y-71332876D01*
X154913390Y-71236114D01*
X154961771Y-71139352D01*
X155058533Y-71090971D01*
X155300438Y-71090971D01*
X155397200Y-71042590D01*
X155735866Y-70800685D02*
X156122914Y-70800685D01*
X155881009Y-70462019D02*
X155881009Y-71332876D01*
X155929390Y-71429638D01*
X156026152Y-71478019D01*
X156122914Y-71478019D01*
X156848628Y-71429638D02*
X156751866Y-71478019D01*
X156558342Y-71478019D01*
X156461580Y-71429638D01*
X156413200Y-71332876D01*
X156413200Y-70945828D01*
X156461580Y-70849066D01*
X156558342Y-70800685D01*
X156751866Y-70800685D01*
X156848628Y-70849066D01*
X156897009Y-70945828D01*
X156897009Y-71042590D01*
X156413200Y-71139352D01*
X140863561Y-70256400D02*
X140766800Y-70208019D01*
X140621657Y-70208019D01*
X140476514Y-70256400D01*
X140379752Y-70353161D01*
X140331371Y-70449923D01*
X140282990Y-70643447D01*
X140282990Y-70788590D01*
X140331371Y-70982114D01*
X140379752Y-71078876D01*
X140476514Y-71175638D01*
X140621657Y-71224019D01*
X140718419Y-71224019D01*
X140863561Y-71175638D01*
X140911942Y-71127257D01*
X140911942Y-70788590D01*
X140718419Y-70788590D01*
X141782800Y-71224019D02*
X141782800Y-70691828D01*
X141734419Y-70595066D01*
X141637657Y-70546685D01*
X141444133Y-70546685D01*
X141347371Y-70595066D01*
X141782800Y-71175638D02*
X141686038Y-71224019D01*
X141444133Y-71224019D01*
X141347371Y-71175638D01*
X141298990Y-71078876D01*
X141298990Y-70982114D01*
X141347371Y-70885352D01*
X141444133Y-70836971D01*
X141686038Y-70836971D01*
X141782800Y-70788590D01*
X142121466Y-70546685D02*
X142508514Y-70546685D01*
X142266609Y-70208019D02*
X142266609Y-71078876D01*
X142314990Y-71175638D01*
X142411752Y-71224019D01*
X142508514Y-71224019D01*
X143234228Y-71175638D02*
X143137466Y-71224019D01*
X142943942Y-71224019D01*
X142847180Y-71175638D01*
X142798800Y-71078876D01*
X142798800Y-70691828D01*
X142847180Y-70595066D01*
X142943942Y-70546685D01*
X143137466Y-70546685D01*
X143234228Y-70595066D01*
X143282609Y-70691828D01*
X143282609Y-70788590D01*
X142798800Y-70885352D01*
X154833561Y-116840000D02*
X154736800Y-116791619D01*
X154591657Y-116791619D01*
X154446514Y-116840000D01*
X154349752Y-116936761D01*
X154301371Y-117033523D01*
X154252990Y-117227047D01*
X154252990Y-117372190D01*
X154301371Y-117565714D01*
X154349752Y-117662476D01*
X154446514Y-117759238D01*
X154591657Y-117807619D01*
X154688419Y-117807619D01*
X154833561Y-117759238D01*
X154881942Y-117710857D01*
X154881942Y-117372190D01*
X154688419Y-117372190D01*
X155752800Y-117807619D02*
X155752800Y-117275428D01*
X155704419Y-117178666D01*
X155607657Y-117130285D01*
X155414133Y-117130285D01*
X155317371Y-117178666D01*
X155752800Y-117759238D02*
X155656038Y-117807619D01*
X155414133Y-117807619D01*
X155317371Y-117759238D01*
X155268990Y-117662476D01*
X155268990Y-117565714D01*
X155317371Y-117468952D01*
X155414133Y-117420571D01*
X155656038Y-117420571D01*
X155752800Y-117372190D01*
X156091466Y-117130285D02*
X156478514Y-117130285D01*
X156236609Y-116791619D02*
X156236609Y-117662476D01*
X156284990Y-117759238D01*
X156381752Y-117807619D01*
X156478514Y-117807619D01*
X157204228Y-117759238D02*
X157107466Y-117807619D01*
X156913942Y-117807619D01*
X156817180Y-117759238D01*
X156768800Y-117662476D01*
X156768800Y-117275428D01*
X156817180Y-117178666D01*
X156913942Y-117130285D01*
X157107466Y-117130285D01*
X157204228Y-117178666D01*
X157252609Y-117275428D01*
X157252609Y-117372190D01*
X156768800Y-117468952D01*
X161935885Y-117960019D02*
X161935885Y-116944019D01*
X162177790Y-116944019D01*
X162322933Y-116992400D01*
X162419695Y-117089161D01*
X162468076Y-117185923D01*
X162516457Y-117379447D01*
X162516457Y-117524590D01*
X162468076Y-117718114D01*
X162419695Y-117814876D01*
X162322933Y-117911638D01*
X162177790Y-117960019D01*
X161935885Y-117960019D01*
X162951885Y-117960019D02*
X162951885Y-117282685D01*
X162951885Y-117476209D02*
X163000266Y-117379447D01*
X163048647Y-117331066D01*
X163145409Y-117282685D01*
X163242171Y-117282685D01*
X164016266Y-117960019D02*
X164016266Y-117427828D01*
X163967885Y-117331066D01*
X163871123Y-117282685D01*
X163677600Y-117282685D01*
X163580838Y-117331066D01*
X164016266Y-117911638D02*
X163919504Y-117960019D01*
X163677600Y-117960019D01*
X163580838Y-117911638D01*
X163532457Y-117814876D01*
X163532457Y-117718114D01*
X163580838Y-117621352D01*
X163677600Y-117572971D01*
X163919504Y-117572971D01*
X164016266Y-117524590D01*
X164500076Y-117960019D02*
X164500076Y-117282685D01*
X164500076Y-116944019D02*
X164451695Y-116992400D01*
X164500076Y-117040780D01*
X164548457Y-116992400D01*
X164500076Y-116944019D01*
X164500076Y-117040780D01*
X164983885Y-117282685D02*
X164983885Y-117960019D01*
X164983885Y-117379447D02*
X165032266Y-117331066D01*
X165129028Y-117282685D01*
X165274171Y-117282685D01*
X165370933Y-117331066D01*
X165419314Y-117427828D01*
X165419314Y-117960019D01*
X147254685Y-117655219D02*
X147254685Y-116639219D01*
X147496590Y-116639219D01*
X147641733Y-116687600D01*
X147738495Y-116784361D01*
X147786876Y-116881123D01*
X147835257Y-117074647D01*
X147835257Y-117219790D01*
X147786876Y-117413314D01*
X147738495Y-117510076D01*
X147641733Y-117606838D01*
X147496590Y-117655219D01*
X147254685Y-117655219D01*
X148270685Y-117655219D02*
X148270685Y-116977885D01*
X148270685Y-117171409D02*
X148319066Y-117074647D01*
X148367447Y-117026266D01*
X148464209Y-116977885D01*
X148560971Y-116977885D01*
X149335066Y-117655219D02*
X149335066Y-117123028D01*
X149286685Y-117026266D01*
X149189923Y-116977885D01*
X148996400Y-116977885D01*
X148899638Y-117026266D01*
X149335066Y-117606838D02*
X149238304Y-117655219D01*
X148996400Y-117655219D01*
X148899638Y-117606838D01*
X148851257Y-117510076D01*
X148851257Y-117413314D01*
X148899638Y-117316552D01*
X148996400Y-117268171D01*
X149238304Y-117268171D01*
X149335066Y-117219790D01*
X149818876Y-117655219D02*
X149818876Y-116977885D01*
X149818876Y-116639219D02*
X149770495Y-116687600D01*
X149818876Y-116735980D01*
X149867257Y-116687600D01*
X149818876Y-116639219D01*
X149818876Y-116735980D01*
X150302685Y-116977885D02*
X150302685Y-117655219D01*
X150302685Y-117074647D02*
X150351066Y-117026266D01*
X150447828Y-116977885D01*
X150592971Y-116977885D01*
X150689733Y-117026266D01*
X150738114Y-117123028D01*
X150738114Y-117655219D01*
X147308285Y-71459619D02*
X147308285Y-70443619D01*
X147550190Y-70443619D01*
X147695333Y-70492000D01*
X147792095Y-70588761D01*
X147840476Y-70685523D01*
X147888857Y-70879047D01*
X147888857Y-71024190D01*
X147840476Y-71217714D01*
X147792095Y-71314476D01*
X147695333Y-71411238D01*
X147550190Y-71459619D01*
X147308285Y-71459619D01*
X148324285Y-71459619D02*
X148324285Y-70782285D01*
X148324285Y-70975809D02*
X148372666Y-70879047D01*
X148421047Y-70830666D01*
X148517809Y-70782285D01*
X148614571Y-70782285D01*
X149388666Y-71459619D02*
X149388666Y-70927428D01*
X149340285Y-70830666D01*
X149243523Y-70782285D01*
X149050000Y-70782285D01*
X148953238Y-70830666D01*
X149388666Y-71411238D02*
X149291904Y-71459619D01*
X149050000Y-71459619D01*
X148953238Y-71411238D01*
X148904857Y-71314476D01*
X148904857Y-71217714D01*
X148953238Y-71120952D01*
X149050000Y-71072571D01*
X149291904Y-71072571D01*
X149388666Y-71024190D01*
X149872476Y-71459619D02*
X149872476Y-70782285D01*
X149872476Y-70443619D02*
X149824095Y-70492000D01*
X149872476Y-70540380D01*
X149920857Y-70492000D01*
X149872476Y-70443619D01*
X149872476Y-70540380D01*
X150356285Y-70782285D02*
X150356285Y-71459619D01*
X150356285Y-70879047D02*
X150404666Y-70830666D01*
X150501428Y-70782285D01*
X150646571Y-70782285D01*
X150743333Y-70830666D01*
X150791714Y-70927428D01*
X150791714Y-71459619D01*
X161605685Y-71478019D02*
X161605685Y-70462019D01*
X161847590Y-70462019D01*
X161992733Y-70510400D01*
X162089495Y-70607161D01*
X162137876Y-70703923D01*
X162186257Y-70897447D01*
X162186257Y-71042590D01*
X162137876Y-71236114D01*
X162089495Y-71332876D01*
X161992733Y-71429638D01*
X161847590Y-71478019D01*
X161605685Y-71478019D01*
X162621685Y-71478019D02*
X162621685Y-70800685D01*
X162621685Y-70994209D02*
X162670066Y-70897447D01*
X162718447Y-70849066D01*
X162815209Y-70800685D01*
X162911971Y-70800685D01*
X163686066Y-71478019D02*
X163686066Y-70945828D01*
X163637685Y-70849066D01*
X163540923Y-70800685D01*
X163347400Y-70800685D01*
X163250638Y-70849066D01*
X163686066Y-71429638D02*
X163589304Y-71478019D01*
X163347400Y-71478019D01*
X163250638Y-71429638D01*
X163202257Y-71332876D01*
X163202257Y-71236114D01*
X163250638Y-71139352D01*
X163347400Y-71090971D01*
X163589304Y-71090971D01*
X163686066Y-71042590D01*
X164169876Y-71478019D02*
X164169876Y-70800685D01*
X164169876Y-70462019D02*
X164121495Y-70510400D01*
X164169876Y-70558780D01*
X164218257Y-70510400D01*
X164169876Y-70462019D01*
X164169876Y-70558780D01*
X164653685Y-70800685D02*
X164653685Y-71478019D01*
X164653685Y-70897447D02*
X164702066Y-70849066D01*
X164798828Y-70800685D01*
X164943971Y-70800685D01*
X165040733Y-70849066D01*
X165089114Y-70945828D01*
X165089114Y-71478019D01*
D11*
X172288095Y-71350000D02*
X172192857Y-71302380D01*
X172050000Y-71302380D01*
X171907142Y-71350000D01*
X171811904Y-71445238D01*
X171764285Y-71540476D01*
X171716666Y-71730952D01*
X171716666Y-71873809D01*
X171764285Y-72064285D01*
X171811904Y-72159523D01*
X171907142Y-72254761D01*
X172050000Y-72302380D01*
X172145238Y-72302380D01*
X172288095Y-72254761D01*
X172335714Y-72207142D01*
X172335714Y-71873809D01*
X172145238Y-71873809D01*
X172764285Y-72302380D02*
X172764285Y-71302380D01*
X173335714Y-72302380D01*
X173335714Y-71302380D01*
X173811904Y-72302380D02*
X173811904Y-71302380D01*
X174050000Y-71302380D01*
X174192857Y-71350000D01*
X174288095Y-71445238D01*
X174335714Y-71540476D01*
X174383333Y-71730952D01*
X174383333Y-71873809D01*
X174335714Y-72064285D01*
X174288095Y-72159523D01*
X174192857Y-72254761D01*
X174050000Y-72302380D01*
X173811904Y-72302380D01*
X173618685Y-118841828D02*
X174380590Y-118841828D01*
X175332971Y-118222780D02*
X174856780Y-118222780D01*
X174809161Y-118698971D01*
X174856780Y-118651352D01*
X174952019Y-118603733D01*
X175190114Y-118603733D01*
X175285352Y-118651352D01*
X175332971Y-118698971D01*
X175380590Y-118794209D01*
X175380590Y-119032304D01*
X175332971Y-119127542D01*
X175285352Y-119175161D01*
X175190114Y-119222780D01*
X174952019Y-119222780D01*
X174856780Y-119175161D01*
X174809161Y-119127542D01*
X175666304Y-118222780D02*
X175999638Y-119222780D01*
X176332971Y-118222780D01*
D12*
X181571428Y-77178571D02*
X182428571Y-77178571D01*
X182000000Y-78678571D02*
X182000000Y-77178571D01*
X182928571Y-78535714D02*
X183000000Y-78607142D01*
X182928571Y-78678571D01*
X182857142Y-78607142D01*
X182928571Y-78535714D01*
X182928571Y-78678571D01*
X184714285Y-78607142D02*
X184928571Y-78678571D01*
X185285714Y-78678571D01*
X185428571Y-78607142D01*
X185500000Y-78535714D01*
X185571428Y-78392857D01*
X185571428Y-78250000D01*
X185500000Y-78107142D01*
X185428571Y-78035714D01*
X185285714Y-77964285D01*
X185000000Y-77892857D01*
X184857142Y-77821428D01*
X184785714Y-77750000D01*
X184714285Y-77607142D01*
X184714285Y-77464285D01*
X184785714Y-77321428D01*
X184857142Y-77250000D01*
X185000000Y-77178571D01*
X185357142Y-77178571D01*
X185571428Y-77250000D01*
X186214285Y-78678571D02*
X186214285Y-77678571D01*
X186214285Y-77178571D02*
X186142857Y-77250000D01*
X186214285Y-77321428D01*
X186285714Y-77250000D01*
X186214285Y-77178571D01*
X186214285Y-77321428D01*
X187142857Y-78678571D02*
X187000000Y-78607142D01*
X186928571Y-78464285D01*
X186928571Y-77178571D01*
X187714285Y-78678571D02*
X187714285Y-77178571D01*
X187857142Y-78107142D02*
X188285714Y-78678571D01*
X188285714Y-77678571D02*
X187714285Y-78250000D01*
D10*
X169249542Y-77742171D02*
X169249542Y-76242171D01*
X169249542Y-76956457D02*
X170106685Y-76956457D01*
X170106685Y-77742171D02*
X170106685Y-76242171D01*
X170820971Y-77742171D02*
X170820971Y-76242171D01*
X171320971Y-77313600D01*
X171820971Y-76242171D01*
X171820971Y-77742171D01*
X173392400Y-77599314D02*
X173320971Y-77670742D01*
X173106685Y-77742171D01*
X172963828Y-77742171D01*
X172749542Y-77670742D01*
X172606685Y-77527885D01*
X172535257Y-77385028D01*
X172463828Y-77099314D01*
X172463828Y-76885028D01*
X172535257Y-76599314D01*
X172606685Y-76456457D01*
X172749542Y-76313600D01*
X172963828Y-76242171D01*
X173106685Y-76242171D01*
X173320971Y-76313600D01*
X173392400Y-76385028D01*
X174820971Y-77742171D02*
X173963828Y-77742171D01*
X174392400Y-77742171D02*
X174392400Y-76242171D01*
X174249542Y-76456457D01*
X174106685Y-76599314D01*
X173963828Y-76670742D01*
X176249542Y-77742171D02*
X175392400Y-77742171D01*
X175820971Y-77742171D02*
X175820971Y-76242171D01*
X175678114Y-76456457D01*
X175535257Y-76599314D01*
X175392400Y-76670742D01*
X176820971Y-76385028D02*
X176892400Y-76313600D01*
X177035257Y-76242171D01*
X177392400Y-76242171D01*
X177535257Y-76313600D01*
X177606685Y-76385028D01*
X177678114Y-76527885D01*
X177678114Y-76670742D01*
X177606685Y-76885028D01*
X176749542Y-77742171D01*
X177678114Y-77742171D01*
X179106685Y-77742171D02*
X178249542Y-77742171D01*
X178678114Y-77742171D02*
X178678114Y-76242171D01*
X178535257Y-76456457D01*
X178392400Y-76599314D01*
X178249542Y-76670742D01*
X170250942Y-82949171D02*
X169750942Y-82234885D01*
X169393800Y-82949171D02*
X169393800Y-81449171D01*
X169965228Y-81449171D01*
X170108085Y-81520600D01*
X170179514Y-81592028D01*
X170250942Y-81734885D01*
X170250942Y-81949171D01*
X170179514Y-82092028D01*
X170108085Y-82163457D01*
X169965228Y-82234885D01*
X169393800Y-82234885D01*
X171465228Y-82877742D02*
X171322371Y-82949171D01*
X171036657Y-82949171D01*
X170893800Y-82877742D01*
X170822371Y-82734885D01*
X170822371Y-82163457D01*
X170893800Y-82020600D01*
X171036657Y-81949171D01*
X171322371Y-81949171D01*
X171465228Y-82020600D01*
X171536657Y-82163457D01*
X171536657Y-82306314D01*
X170822371Y-82449171D01*
X172036657Y-81949171D02*
X172393800Y-82949171D01*
X172750942Y-81949171D01*
X173322371Y-82806314D02*
X173393800Y-82877742D01*
X173322371Y-82949171D01*
X173250942Y-82877742D01*
X173322371Y-82806314D01*
X173322371Y-82949171D01*
X175465228Y-81449171D02*
X175608085Y-81449171D01*
X175750942Y-81520600D01*
X175822371Y-81592028D01*
X175893800Y-81734885D01*
X175965228Y-82020600D01*
X175965228Y-82377742D01*
X175893800Y-82663457D01*
X175822371Y-82806314D01*
X175750942Y-82877742D01*
X175608085Y-82949171D01*
X175465228Y-82949171D01*
X175322371Y-82877742D01*
X175250942Y-82806314D01*
X175179514Y-82663457D01*
X175108085Y-82377742D01*
X175108085Y-82020600D01*
X175179514Y-81734885D01*
X175250942Y-81592028D01*
X175322371Y-81520600D01*
X175465228Y-81449171D01*
D13*
X149206857Y-69788314D02*
X149206857Y-69026314D01*
X149533428Y-69788314D02*
X149533428Y-69389171D01*
X149497142Y-69316600D01*
X149424571Y-69280314D01*
X149315714Y-69280314D01*
X149243142Y-69316600D01*
X149206857Y-69352885D01*
X150005142Y-69788314D02*
X149932571Y-69752028D01*
X149896285Y-69715742D01*
X149860000Y-69643171D01*
X149860000Y-69425457D01*
X149896285Y-69352885D01*
X149932571Y-69316600D01*
X150005142Y-69280314D01*
X150114000Y-69280314D01*
X150186571Y-69316600D01*
X150222857Y-69352885D01*
X150259142Y-69425457D01*
X150259142Y-69643171D01*
X150222857Y-69715742D01*
X150186571Y-69752028D01*
X150114000Y-69788314D01*
X150005142Y-69788314D01*
X150694571Y-69788314D02*
X150622000Y-69752028D01*
X150585714Y-69679457D01*
X150585714Y-69026314D01*
X151275142Y-69752028D02*
X151202571Y-69788314D01*
X151057428Y-69788314D01*
X150984857Y-69752028D01*
X150948571Y-69679457D01*
X150948571Y-69389171D01*
X150984857Y-69316600D01*
X151057428Y-69280314D01*
X151202571Y-69280314D01*
X151275142Y-69316600D01*
X151311428Y-69389171D01*
X151311428Y-69461742D01*
X150948571Y-69534314D01*
X176308657Y-69280314D02*
X176308657Y-69897171D01*
X176272371Y-69969742D01*
X176236085Y-70006028D01*
X176163514Y-70042314D01*
X176054657Y-70042314D01*
X175982085Y-70006028D01*
X176308657Y-69752028D02*
X176236085Y-69788314D01*
X176090942Y-69788314D01*
X176018371Y-69752028D01*
X175982085Y-69715742D01*
X175945800Y-69643171D01*
X175945800Y-69425457D01*
X175982085Y-69352885D01*
X176018371Y-69316600D01*
X176090942Y-69280314D01*
X176236085Y-69280314D01*
X176308657Y-69316600D01*
X176671514Y-69280314D02*
X176671514Y-69788314D01*
X176671514Y-69352885D02*
X176707800Y-69316600D01*
X176780371Y-69280314D01*
X176889228Y-69280314D01*
X176961800Y-69316600D01*
X176998085Y-69389171D01*
X176998085Y-69788314D01*
X177687514Y-69788314D02*
X177687514Y-69026314D01*
X177687514Y-69752028D02*
X177614942Y-69788314D01*
X177469800Y-69788314D01*
X177397228Y-69752028D01*
X177360942Y-69715742D01*
X177324657Y-69643171D01*
X177324657Y-69425457D01*
X177360942Y-69352885D01*
X177397228Y-69316600D01*
X177469800Y-69280314D01*
X177614942Y-69280314D01*
X177687514Y-69316600D01*
X161819771Y-69940714D02*
X161819771Y-69178714D01*
X161819771Y-69904428D02*
X161747200Y-69940714D01*
X161602057Y-69940714D01*
X161529485Y-69904428D01*
X161493200Y-69868142D01*
X161456914Y-69795571D01*
X161456914Y-69577857D01*
X161493200Y-69505285D01*
X161529485Y-69469000D01*
X161602057Y-69432714D01*
X161747200Y-69432714D01*
X161819771Y-69469000D01*
X162182628Y-69940714D02*
X162182628Y-69432714D01*
X162182628Y-69577857D02*
X162218914Y-69505285D01*
X162255200Y-69469000D01*
X162327771Y-69432714D01*
X162400342Y-69432714D01*
X162980914Y-69940714D02*
X162980914Y-69541571D01*
X162944628Y-69469000D01*
X162872057Y-69432714D01*
X162726914Y-69432714D01*
X162654342Y-69469000D01*
X162980914Y-69904428D02*
X162908342Y-69940714D01*
X162726914Y-69940714D01*
X162654342Y-69904428D01*
X162618057Y-69831857D01*
X162618057Y-69759285D01*
X162654342Y-69686714D01*
X162726914Y-69650428D01*
X162908342Y-69650428D01*
X162980914Y-69614142D01*
X163343771Y-69940714D02*
X163343771Y-69432714D01*
X163343771Y-69178714D02*
X163307485Y-69215000D01*
X163343771Y-69251285D01*
X163380057Y-69215000D01*
X163343771Y-69178714D01*
X163343771Y-69251285D01*
X163706628Y-69432714D02*
X163706628Y-69940714D01*
X163706628Y-69505285D02*
X163742914Y-69469000D01*
X163815485Y-69432714D01*
X163924342Y-69432714D01*
X163996914Y-69469000D01*
X164033200Y-69541571D01*
X164033200Y-69940714D01*
X140734142Y-69686714D02*
X140734142Y-68924714D01*
X140734142Y-69215000D02*
X140806714Y-69178714D01*
X140951857Y-69178714D01*
X141024428Y-69215000D01*
X141060714Y-69251285D01*
X141097000Y-69323857D01*
X141097000Y-69541571D01*
X141060714Y-69614142D01*
X141024428Y-69650428D01*
X140951857Y-69686714D01*
X140806714Y-69686714D01*
X140734142Y-69650428D01*
X141423571Y-69686714D02*
X141423571Y-69178714D01*
X141423571Y-68924714D02*
X141387285Y-68961000D01*
X141423571Y-68997285D01*
X141459857Y-68961000D01*
X141423571Y-68924714D01*
X141423571Y-68997285D01*
X142113000Y-69686714D02*
X142113000Y-69287571D01*
X142076714Y-69215000D01*
X142004142Y-69178714D01*
X141859000Y-69178714D01*
X141786428Y-69215000D01*
X142113000Y-69650428D02*
X142040428Y-69686714D01*
X141859000Y-69686714D01*
X141786428Y-69650428D01*
X141750142Y-69577857D01*
X141750142Y-69505285D01*
X141786428Y-69432714D01*
X141859000Y-69396428D01*
X142040428Y-69396428D01*
X142113000Y-69360142D01*
X142439571Y-69650428D02*
X142512142Y-69686714D01*
X142657285Y-69686714D01*
X142729857Y-69650428D01*
X142766142Y-69577857D01*
X142766142Y-69541571D01*
X142729857Y-69469000D01*
X142657285Y-69432714D01*
X142548428Y-69432714D01*
X142475857Y-69396428D01*
X142439571Y-69323857D01*
X142439571Y-69287571D01*
X142475857Y-69215000D01*
X142548428Y-69178714D01*
X142657285Y-69178714D01*
X142729857Y-69215000D01*
X132315857Y-69178714D02*
X132315857Y-69795571D01*
X132279571Y-69868142D01*
X132243285Y-69904428D01*
X132170714Y-69940714D01*
X132061857Y-69940714D01*
X131989285Y-69904428D01*
X132315857Y-69650428D02*
X132243285Y-69686714D01*
X132098142Y-69686714D01*
X132025571Y-69650428D01*
X131989285Y-69614142D01*
X131953000Y-69541571D01*
X131953000Y-69323857D01*
X131989285Y-69251285D01*
X132025571Y-69215000D01*
X132098142Y-69178714D01*
X132243285Y-69178714D01*
X132315857Y-69215000D01*
X132678714Y-69178714D02*
X132678714Y-69686714D01*
X132678714Y-69251285D02*
X132715000Y-69215000D01*
X132787571Y-69178714D01*
X132896428Y-69178714D01*
X132969000Y-69215000D01*
X133005285Y-69287571D01*
X133005285Y-69686714D01*
X133694714Y-69686714D02*
X133694714Y-68924714D01*
X133694714Y-69650428D02*
X133622142Y-69686714D01*
X133477000Y-69686714D01*
X133404428Y-69650428D01*
X133368142Y-69614142D01*
X133331857Y-69541571D01*
X133331857Y-69323857D01*
X133368142Y-69251285D01*
X133404428Y-69215000D01*
X133477000Y-69178714D01*
X133622142Y-69178714D01*
X133694714Y-69215000D01*
D14*
X170144800Y-108980400D02*
X170144800Y-111430400D01*
X173364800Y-110780400D02*
X173364800Y-108980400D01*
X141704600Y-111435000D02*
X140244600Y-111435000D01*
X141704600Y-108275000D02*
X139544600Y-108275000D01*
X141704600Y-108275000D02*
X141704600Y-109205000D01*
X141704600Y-111435000D02*
X141704600Y-110505000D01*
X159623979Y-70508400D02*
X159298421Y-70508400D01*
X159623979Y-71528400D02*
X159298421Y-71528400D01*
X171862779Y-112520000D02*
X171537221Y-112520000D01*
X171862779Y-113540000D02*
X171537221Y-113540000D01*
X174038800Y-111597221D02*
X174038800Y-111922779D01*
X175058800Y-111597221D02*
X175058800Y-111922779D01*
X171147200Y-106068779D02*
X171147200Y-105743221D01*
X170127200Y-106068779D02*
X170127200Y-105743221D01*
X173230000Y-106080779D02*
X173230000Y-105755221D01*
X172210000Y-106080779D02*
X172210000Y-105755221D01*
D11*
X159329120Y-92499180D02*
X159329120Y-98000820D01*
X158579820Y-91749880D02*
X159329120Y-92499180D01*
X158579820Y-98750120D02*
X159329120Y-98000820D01*
X152328880Y-92499180D02*
X153078180Y-91749880D01*
X153078180Y-91749880D02*
X158579820Y-91749880D01*
X153078180Y-98750120D02*
X152328880Y-98000820D01*
X158579820Y-98750120D02*
X153078180Y-98750120D01*
X152280620Y-92999560D02*
G75*
G03X152280620Y-92999560I-251460J0D01*
G01*
X152328880Y-98000820D02*
X152328880Y-92499180D01*
X152328880Y-92849700D02*
X153428700Y-91749880D01*
D14*
X152763136Y-110434800D02*
X153967264Y-110434800D01*
X152763136Y-108614800D02*
X153967264Y-108614800D01*
X158640864Y-108614800D02*
X157436736Y-108614800D01*
X158640864Y-110434800D02*
X157436736Y-110434800D01*
X157436736Y-79904000D02*
X158640864Y-79904000D01*
X157436736Y-78084000D02*
X158640864Y-78084000D01*
X147922064Y-80319200D02*
X146717936Y-80319200D01*
X147922064Y-82139200D02*
X146717936Y-82139200D01*
X152697264Y-80319200D02*
X151493136Y-80319200D01*
X152697264Y-82139200D02*
X151493136Y-82139200D01*
X163177136Y-85695200D02*
X164381264Y-85695200D01*
X163177136Y-83875200D02*
X164381264Y-83875200D01*
X162821536Y-110485600D02*
X164025664Y-110485600D01*
X162821536Y-108665600D02*
X164025664Y-108665600D01*
X148379264Y-108614800D02*
X147175136Y-108614800D01*
X148379264Y-110434800D02*
X147175136Y-110434800D01*
X140427664Y-116692000D02*
X139223536Y-116692000D01*
X140427664Y-118512000D02*
X139223536Y-118512000D01*
X140427664Y-112755000D02*
X139223536Y-112755000D01*
X140427664Y-114575000D02*
X139223536Y-114575000D01*
X160987200Y-85862379D02*
X160987200Y-85536821D01*
X159967200Y-85862379D02*
X159967200Y-85536821D01*
X153418000Y-102931179D02*
X153418000Y-102605621D01*
X152398000Y-102931179D02*
X152398000Y-102605621D01*
X159710000Y-104262779D02*
X159710000Y-103937221D01*
X158690000Y-104262779D02*
X158690000Y-103937221D01*
X158240000Y-86552821D02*
X158240000Y-86878379D01*
X159260000Y-86552821D02*
X159260000Y-86878379D01*
X151382000Y-88102321D02*
X151382000Y-88427879D01*
X152402000Y-88102321D02*
X152402000Y-88427879D01*
D15*
G36*
X133587402Y-79308201D02*
G01*
X133706690Y-79341267D01*
X133817687Y-79397723D01*
X133920002Y-79476819D01*
X134013243Y-79577805D01*
X134097019Y-79699931D01*
X134170941Y-79842448D01*
X134234617Y-80004604D01*
X134287656Y-80185650D01*
X134329667Y-80384837D01*
X134360260Y-80601414D01*
X134378595Y-80826287D01*
X134384073Y-81087776D01*
X134372625Y-81351594D01*
X134344927Y-81613483D01*
X134301650Y-81869186D01*
X134243467Y-82114445D01*
X134171052Y-82345004D01*
X134116133Y-82486237D01*
X134058249Y-82608696D01*
X133990229Y-82728085D01*
X133915099Y-82840328D01*
X133835881Y-82941346D01*
X133755598Y-83027065D01*
X133677274Y-83093406D01*
X133654127Y-83109231D01*
X133565471Y-83156476D01*
X133468928Y-83191323D01*
X133370795Y-83212475D01*
X133277369Y-83218637D01*
X133194946Y-83208512D01*
X133184900Y-83205796D01*
X133059940Y-83156770D01*
X132946201Y-83085745D01*
X132843557Y-82992543D01*
X132751881Y-82876988D01*
X132671047Y-82738900D01*
X132600927Y-82578105D01*
X132541396Y-82394423D01*
X132506770Y-82255782D01*
X132481281Y-82132905D01*
X132461796Y-82016759D01*
X132447686Y-81900968D01*
X132438324Y-81779158D01*
X132433082Y-81644953D01*
X132431332Y-81491979D01*
X132431329Y-81489550D01*
X132431912Y-81467528D01*
X132943190Y-81467528D01*
X132948756Y-81658719D01*
X132963724Y-81847400D01*
X132987679Y-82027428D01*
X133020211Y-82192655D01*
X133040265Y-82270281D01*
X133070027Y-82361188D01*
X133105817Y-82447790D01*
X133145598Y-82526822D01*
X133187330Y-82595017D01*
X133228976Y-82649112D01*
X133268497Y-82685842D01*
X133303854Y-82701942D01*
X133310058Y-82702400D01*
X133335343Y-82695561D01*
X133368469Y-82678616D01*
X133376373Y-82673537D01*
X133434506Y-82623081D01*
X133494043Y-82550254D01*
X133553293Y-82457896D01*
X133610567Y-82348845D01*
X133664173Y-82225941D01*
X133699400Y-82130900D01*
X133759761Y-81929286D01*
X133807061Y-81714813D01*
X133841164Y-81491720D01*
X133861936Y-81264247D01*
X133869241Y-81036635D01*
X133862944Y-80813123D01*
X133842912Y-80597951D01*
X133809008Y-80395360D01*
X133761098Y-80209588D01*
X133760595Y-80207981D01*
X133725531Y-80110424D01*
X133685180Y-80022376D01*
X133641489Y-79946661D01*
X133596402Y-79886104D01*
X133551866Y-79843529D01*
X133509825Y-79821760D01*
X133492997Y-79819500D01*
X133470166Y-79824718D01*
X133442381Y-79842328D01*
X133405653Y-79875261D01*
X133375558Y-79905787D01*
X133297599Y-80002153D01*
X133225543Y-80121743D01*
X133159945Y-80262952D01*
X133101361Y-80424173D01*
X133050347Y-80603799D01*
X133007457Y-80800224D01*
X132973247Y-81011843D01*
X132961908Y-81102200D01*
X132947436Y-81279973D01*
X132943190Y-81467528D01*
X132431912Y-81467528D01*
X132438132Y-81232978D01*
X132458711Y-80984218D01*
X132492518Y-80745093D01*
X132539002Y-80517427D01*
X132597612Y-80303041D01*
X132667800Y-80103758D01*
X132749015Y-79921401D01*
X132840708Y-79757794D01*
X132942328Y-79614758D01*
X133024985Y-79521817D01*
X133122111Y-79437802D01*
X133227495Y-79372718D01*
X133337677Y-79327879D01*
X133449194Y-79304602D01*
X133558583Y-79304200D01*
X133587402Y-79308201D01*
G37*
X133587402Y-79308201D02*
X133706690Y-79341267D01*
X133817687Y-79397723D01*
X133920002Y-79476819D01*
X134013243Y-79577805D01*
X134097019Y-79699931D01*
X134170941Y-79842448D01*
X134234617Y-80004604D01*
X134287656Y-80185650D01*
X134329667Y-80384837D01*
X134360260Y-80601414D01*
X134378595Y-80826287D01*
X134384073Y-81087776D01*
X134372625Y-81351594D01*
X134344927Y-81613483D01*
X134301650Y-81869186D01*
X134243467Y-82114445D01*
X134171052Y-82345004D01*
X134116133Y-82486237D01*
X134058249Y-82608696D01*
X133990229Y-82728085D01*
X133915099Y-82840328D01*
X133835881Y-82941346D01*
X133755598Y-83027065D01*
X133677274Y-83093406D01*
X133654127Y-83109231D01*
X133565471Y-83156476D01*
X133468928Y-83191323D01*
X133370795Y-83212475D01*
X133277369Y-83218637D01*
X133194946Y-83208512D01*
X133184900Y-83205796D01*
X133059940Y-83156770D01*
X132946201Y-83085745D01*
X132843557Y-82992543D01*
X132751881Y-82876988D01*
X132671047Y-82738900D01*
X132600927Y-82578105D01*
X132541396Y-82394423D01*
X132506770Y-82255782D01*
X132481281Y-82132905D01*
X132461796Y-82016759D01*
X132447686Y-81900968D01*
X132438324Y-81779158D01*
X132433082Y-81644953D01*
X132431332Y-81491979D01*
X132431329Y-81489550D01*
X132431912Y-81467528D01*
X132943190Y-81467528D01*
X132948756Y-81658719D01*
X132963724Y-81847400D01*
X132987679Y-82027428D01*
X133020211Y-82192655D01*
X133040265Y-82270281D01*
X133070027Y-82361188D01*
X133105817Y-82447790D01*
X133145598Y-82526822D01*
X133187330Y-82595017D01*
X133228976Y-82649112D01*
X133268497Y-82685842D01*
X133303854Y-82701942D01*
X133310058Y-82702400D01*
X133335343Y-82695561D01*
X133368469Y-82678616D01*
X133376373Y-82673537D01*
X133434506Y-82623081D01*
X133494043Y-82550254D01*
X133553293Y-82457896D01*
X133610567Y-82348845D01*
X133664173Y-82225941D01*
X133699400Y-82130900D01*
X133759761Y-81929286D01*
X133807061Y-81714813D01*
X133841164Y-81491720D01*
X133861936Y-81264247D01*
X133869241Y-81036635D01*
X133862944Y-80813123D01*
X133842912Y-80597951D01*
X133809008Y-80395360D01*
X133761098Y-80209588D01*
X133760595Y-80207981D01*
X133725531Y-80110424D01*
X133685180Y-80022376D01*
X133641489Y-79946661D01*
X133596402Y-79886104D01*
X133551866Y-79843529D01*
X133509825Y-79821760D01*
X133492997Y-79819500D01*
X133470166Y-79824718D01*
X133442381Y-79842328D01*
X133405653Y-79875261D01*
X133375558Y-79905787D01*
X133297599Y-80002153D01*
X133225543Y-80121743D01*
X133159945Y-80262952D01*
X133101361Y-80424173D01*
X133050347Y-80603799D01*
X133007457Y-80800224D01*
X132973247Y-81011843D01*
X132961908Y-81102200D01*
X132947436Y-81279973D01*
X132943190Y-81467528D01*
X132431912Y-81467528D01*
X132438132Y-81232978D01*
X132458711Y-80984218D01*
X132492518Y-80745093D01*
X132539002Y-80517427D01*
X132597612Y-80303041D01*
X132667800Y-80103758D01*
X132749015Y-79921401D01*
X132840708Y-79757794D01*
X132942328Y-79614758D01*
X133024985Y-79521817D01*
X133122111Y-79437802D01*
X133227495Y-79372718D01*
X133337677Y-79327879D01*
X133449194Y-79304602D01*
X133558583Y-79304200D01*
X133587402Y-79308201D01*
G36*
X138411055Y-77886562D02*
G01*
X138445996Y-77892507D01*
X138478333Y-77903236D01*
X138508695Y-77916661D01*
X138596679Y-77971738D01*
X138672444Y-78047997D01*
X138734647Y-78143667D01*
X138781943Y-78256975D01*
X138791868Y-78289949D01*
X138802051Y-78340632D01*
X138810659Y-78411924D01*
X138817193Y-78499054D01*
X138819969Y-78558510D01*
X138822405Y-78637951D01*
X138822725Y-78698836D01*
X138820479Y-78747951D01*
X138815215Y-78792087D01*
X138806481Y-78838031D01*
X138799302Y-78869660D01*
X138779403Y-78939943D01*
X138751693Y-79018477D01*
X138718915Y-79099022D01*
X138683811Y-79175337D01*
X138649125Y-79241181D01*
X138617599Y-79290313D01*
X138610462Y-79299339D01*
X138596279Y-79311379D01*
X138563118Y-79336868D01*
X138512717Y-79374558D01*
X138446813Y-79423202D01*
X138367146Y-79481551D01*
X138275454Y-79548359D01*
X138173475Y-79622379D01*
X138062947Y-79702362D01*
X137945608Y-79787060D01*
X137823197Y-79875228D01*
X137697452Y-79965616D01*
X137570112Y-80056978D01*
X137442914Y-80148066D01*
X137317597Y-80237633D01*
X137195900Y-80324430D01*
X137079559Y-80407211D01*
X136970315Y-80484729D01*
X136869905Y-80555734D01*
X136780067Y-80618981D01*
X136702539Y-80673221D01*
X136639061Y-80717207D01*
X136591369Y-80749691D01*
X136568323Y-80764910D01*
X136512570Y-80790827D01*
X136448308Y-80805526D01*
X136385291Y-80807679D01*
X136334879Y-80796656D01*
X136262709Y-80754485D01*
X136210938Y-80697258D01*
X136179486Y-80624841D01*
X136168270Y-80537102D01*
X136168277Y-80525803D01*
X136167635Y-80497923D01*
X136165404Y-80447030D01*
X136161721Y-80375450D01*
X136156723Y-80285512D01*
X136150547Y-80179543D01*
X136143330Y-80059871D01*
X136135209Y-79928823D01*
X136126322Y-79788727D01*
X136116805Y-79641910D01*
X136111267Y-79557857D01*
X136099448Y-79377991D01*
X136089427Y-79221883D01*
X136081128Y-79087963D01*
X136074475Y-78974656D01*
X136072988Y-78947056D01*
X136593823Y-78947056D01*
X136595419Y-79007237D01*
X136598693Y-79087212D01*
X136603570Y-79185135D01*
X136609972Y-79299163D01*
X136617824Y-79427451D01*
X136618698Y-79441186D01*
X136627788Y-79583015D01*
X136635503Y-79701527D01*
X136642052Y-79798756D01*
X136647643Y-79876734D01*
X136652484Y-79937495D01*
X136656781Y-79983073D01*
X136660745Y-80015501D01*
X136664582Y-80036813D01*
X136668500Y-80049041D01*
X136672708Y-80054221D01*
X136677412Y-80054384D01*
X136681216Y-80052542D01*
X136696581Y-80042303D01*
X136728536Y-80020207D01*
X136772974Y-79989118D01*
X136825787Y-79951904D01*
X136848850Y-79935581D01*
X136888320Y-79907613D01*
X136945991Y-79866752D01*
X137019335Y-79814788D01*
X137105825Y-79753511D01*
X137202937Y-79684710D01*
X137308143Y-79610176D01*
X137418917Y-79531699D01*
X137532732Y-79451068D01*
X137591800Y-79409222D01*
X137701135Y-79331703D01*
X137804670Y-79258175D01*
X137900471Y-79190020D01*
X137986607Y-79128617D01*
X138061145Y-79075347D01*
X138122154Y-79031589D01*
X138167702Y-78998725D01*
X138195856Y-78978134D01*
X138204323Y-78971639D01*
X138225711Y-78942766D01*
X138248654Y-78895256D01*
X138270969Y-78835596D01*
X138290475Y-78770271D01*
X138304988Y-78705770D01*
X138312168Y-78651100D01*
X138313184Y-78600571D01*
X138310664Y-78544353D01*
X138305364Y-78489201D01*
X138298040Y-78441869D01*
X138289449Y-78409113D01*
X138283980Y-78399246D01*
X138268909Y-78398245D01*
X138238499Y-78403264D01*
X138223606Y-78406821D01*
X138188465Y-78416405D01*
X138133842Y-78431916D01*
X138062184Y-78452623D01*
X137975938Y-78477795D01*
X137877552Y-78506700D01*
X137769472Y-78538606D01*
X137654147Y-78572782D01*
X137534023Y-78608495D01*
X137411549Y-78645014D01*
X137289171Y-78681607D01*
X137169337Y-78717543D01*
X137054494Y-78752089D01*
X136947090Y-78784515D01*
X136849571Y-78814087D01*
X136764386Y-78840076D01*
X136693982Y-78861748D01*
X136640806Y-78878373D01*
X136607306Y-78889217D01*
X136595973Y-78893455D01*
X136593982Y-78908514D01*
X136593823Y-78947056D01*
X136072988Y-78947056D01*
X136069394Y-78880391D01*
X136065808Y-78803597D01*
X136063643Y-78742700D01*
X136062823Y-78696129D01*
X136063273Y-78662312D01*
X136064917Y-78639675D01*
X136066776Y-78629500D01*
X136099546Y-78552362D01*
X136150844Y-78492000D01*
X136218804Y-78450053D01*
X136295226Y-78429020D01*
X136317383Y-78424016D01*
X136361348Y-78412515D01*
X136424578Y-78395254D01*
X136504532Y-78372967D01*
X136598669Y-78346391D01*
X136704447Y-78316262D01*
X136819325Y-78283317D01*
X136940761Y-78248291D01*
X137066215Y-78211919D01*
X137193144Y-78174940D01*
X137319008Y-78138087D01*
X137441264Y-78102098D01*
X137557372Y-78067708D01*
X137664790Y-78035653D01*
X137760976Y-78006670D01*
X137843389Y-77981494D01*
X137883900Y-77968919D01*
X137971671Y-77941618D01*
X138040080Y-77921044D01*
X138093965Y-77906219D01*
X138138167Y-77896166D01*
X138177525Y-77889906D01*
X138216880Y-77886461D01*
X138261071Y-77884853D01*
X138303000Y-77884235D01*
X138365919Y-77884203D01*
X138411055Y-77886562D01*
G37*
X138411055Y-77886562D02*
X138445996Y-77892507D01*
X138478333Y-77903236D01*
X138508695Y-77916661D01*
X138596679Y-77971738D01*
X138672444Y-78047997D01*
X138734647Y-78143667D01*
X138781943Y-78256975D01*
X138791868Y-78289949D01*
X138802051Y-78340632D01*
X138810659Y-78411924D01*
X138817193Y-78499054D01*
X138819969Y-78558510D01*
X138822405Y-78637951D01*
X138822725Y-78698836D01*
X138820479Y-78747951D01*
X138815215Y-78792087D01*
X138806481Y-78838031D01*
X138799302Y-78869660D01*
X138779403Y-78939943D01*
X138751693Y-79018477D01*
X138718915Y-79099022D01*
X138683811Y-79175337D01*
X138649125Y-79241181D01*
X138617599Y-79290313D01*
X138610462Y-79299339D01*
X138596279Y-79311379D01*
X138563118Y-79336868D01*
X138512717Y-79374558D01*
X138446813Y-79423202D01*
X138367146Y-79481551D01*
X138275454Y-79548359D01*
X138173475Y-79622379D01*
X138062947Y-79702362D01*
X137945608Y-79787060D01*
X137823197Y-79875228D01*
X137697452Y-79965616D01*
X137570112Y-80056978D01*
X137442914Y-80148066D01*
X137317597Y-80237633D01*
X137195900Y-80324430D01*
X137079559Y-80407211D01*
X136970315Y-80484729D01*
X136869905Y-80555734D01*
X136780067Y-80618981D01*
X136702539Y-80673221D01*
X136639061Y-80717207D01*
X136591369Y-80749691D01*
X136568323Y-80764910D01*
X136512570Y-80790827D01*
X136448308Y-80805526D01*
X136385291Y-80807679D01*
X136334879Y-80796656D01*
X136262709Y-80754485D01*
X136210938Y-80697258D01*
X136179486Y-80624841D01*
X136168270Y-80537102D01*
X136168277Y-80525803D01*
X136167635Y-80497923D01*
X136165404Y-80447030D01*
X136161721Y-80375450D01*
X136156723Y-80285512D01*
X136150547Y-80179543D01*
X136143330Y-80059871D01*
X136135209Y-79928823D01*
X136126322Y-79788727D01*
X136116805Y-79641910D01*
X136111267Y-79557857D01*
X136099448Y-79377991D01*
X136089427Y-79221883D01*
X136081128Y-79087963D01*
X136074475Y-78974656D01*
X136072988Y-78947056D01*
X136593823Y-78947056D01*
X136595419Y-79007237D01*
X136598693Y-79087212D01*
X136603570Y-79185135D01*
X136609972Y-79299163D01*
X136617824Y-79427451D01*
X136618698Y-79441186D01*
X136627788Y-79583015D01*
X136635503Y-79701527D01*
X136642052Y-79798756D01*
X136647643Y-79876734D01*
X136652484Y-79937495D01*
X136656781Y-79983073D01*
X136660745Y-80015501D01*
X136664582Y-80036813D01*
X136668500Y-80049041D01*
X136672708Y-80054221D01*
X136677412Y-80054384D01*
X136681216Y-80052542D01*
X136696581Y-80042303D01*
X136728536Y-80020207D01*
X136772974Y-79989118D01*
X136825787Y-79951904D01*
X136848850Y-79935581D01*
X136888320Y-79907613D01*
X136945991Y-79866752D01*
X137019335Y-79814788D01*
X137105825Y-79753511D01*
X137202937Y-79684710D01*
X137308143Y-79610176D01*
X137418917Y-79531699D01*
X137532732Y-79451068D01*
X137591800Y-79409222D01*
X137701135Y-79331703D01*
X137804670Y-79258175D01*
X137900471Y-79190020D01*
X137986607Y-79128617D01*
X138061145Y-79075347D01*
X138122154Y-79031589D01*
X138167702Y-78998725D01*
X138195856Y-78978134D01*
X138204323Y-78971639D01*
X138225711Y-78942766D01*
X138248654Y-78895256D01*
X138270969Y-78835596D01*
X138290475Y-78770271D01*
X138304988Y-78705770D01*
X138312168Y-78651100D01*
X138313184Y-78600571D01*
X138310664Y-78544353D01*
X138305364Y-78489201D01*
X138298040Y-78441869D01*
X138289449Y-78409113D01*
X138283980Y-78399246D01*
X138268909Y-78398245D01*
X138238499Y-78403264D01*
X138223606Y-78406821D01*
X138188465Y-78416405D01*
X138133842Y-78431916D01*
X138062184Y-78452623D01*
X137975938Y-78477795D01*
X137877552Y-78506700D01*
X137769472Y-78538606D01*
X137654147Y-78572782D01*
X137534023Y-78608495D01*
X137411549Y-78645014D01*
X137289171Y-78681607D01*
X137169337Y-78717543D01*
X137054494Y-78752089D01*
X136947090Y-78784515D01*
X136849571Y-78814087D01*
X136764386Y-78840076D01*
X136693982Y-78861748D01*
X136640806Y-78878373D01*
X136607306Y-78889217D01*
X136595973Y-78893455D01*
X136593982Y-78908514D01*
X136593823Y-78947056D01*
X136072988Y-78947056D01*
X136069394Y-78880391D01*
X136065808Y-78803597D01*
X136063643Y-78742700D01*
X136062823Y-78696129D01*
X136063273Y-78662312D01*
X136064917Y-78639675D01*
X136066776Y-78629500D01*
X136099546Y-78552362D01*
X136150844Y-78492000D01*
X136218804Y-78450053D01*
X136295226Y-78429020D01*
X136317383Y-78424016D01*
X136361348Y-78412515D01*
X136424578Y-78395254D01*
X136504532Y-78372967D01*
X136598669Y-78346391D01*
X136704447Y-78316262D01*
X136819325Y-78283317D01*
X136940761Y-78248291D01*
X137066215Y-78211919D01*
X137193144Y-78174940D01*
X137319008Y-78138087D01*
X137441264Y-78102098D01*
X137557372Y-78067708D01*
X137664790Y-78035653D01*
X137760976Y-78006670D01*
X137843389Y-77981494D01*
X137883900Y-77968919D01*
X137971671Y-77941618D01*
X138040080Y-77921044D01*
X138093965Y-77906219D01*
X138138167Y-77896166D01*
X138177525Y-77889906D01*
X138216880Y-77886461D01*
X138261071Y-77884853D01*
X138303000Y-77884235D01*
X138365919Y-77884203D01*
X138411055Y-77886562D01*
G36*
X135712200Y-75662281D02*
G01*
X135793913Y-75663011D01*
X135899362Y-75664527D01*
X136026896Y-75666783D01*
X136174864Y-75669734D01*
X136341616Y-75673334D01*
X136525500Y-75677536D01*
X136724866Y-75682295D01*
X136938062Y-75687565D01*
X137163440Y-75693300D01*
X137399346Y-75699454D01*
X137644132Y-75705982D01*
X137896145Y-75712837D01*
X138153736Y-75719975D01*
X138415253Y-75727348D01*
X138679046Y-75734911D01*
X138943464Y-75742618D01*
X139206856Y-75750423D01*
X139467572Y-75758281D01*
X139723960Y-75766145D01*
X139974370Y-75773971D01*
X140217151Y-75781710D01*
X140450653Y-75789319D01*
X140673225Y-75796751D01*
X140883215Y-75803961D01*
X141078973Y-75810901D01*
X141135100Y-75812939D01*
X141319521Y-75819738D01*
X141480660Y-75825924D01*
X141620618Y-75831746D01*
X141741497Y-75837455D01*
X141845400Y-75843299D01*
X141934429Y-75849530D01*
X142010685Y-75856396D01*
X142076271Y-75864148D01*
X142133290Y-75873036D01*
X142183843Y-75883309D01*
X142230034Y-75895216D01*
X142273963Y-75909009D01*
X142317733Y-75924937D01*
X142363446Y-75943249D01*
X142413206Y-75964196D01*
X142415266Y-75965073D01*
X142476167Y-75991328D01*
X142521440Y-76012754D01*
X142556914Y-76033640D01*
X142588420Y-76058276D01*
X142621787Y-76090952D01*
X142662844Y-76135958D01*
X142691619Y-76168430D01*
X142788779Y-76282672D01*
X142870456Y-76389337D01*
X142941629Y-76495903D01*
X143007273Y-76609845D01*
X143072367Y-76738641D01*
X143075339Y-76744855D01*
X143137357Y-76883514D01*
X143187433Y-77016433D01*
X143226876Y-77149161D01*
X143256997Y-77287246D01*
X143279103Y-77436236D01*
X143294506Y-77601680D01*
X143300433Y-77698600D01*
X143302515Y-77781825D01*
X143301533Y-77886387D01*
X143297785Y-78008449D01*
X143291568Y-78144169D01*
X143283180Y-78289710D01*
X143272918Y-78441232D01*
X143261079Y-78594897D01*
X143247962Y-78746864D01*
X143233864Y-78893295D01*
X143219081Y-79030352D01*
X143203912Y-79154194D01*
X143188653Y-79260983D01*
X143173603Y-79346879D01*
X143172186Y-79353856D01*
X143154294Y-79440662D01*
X143210107Y-79494906D01*
X143242525Y-79531255D01*
X143286632Y-79588321D01*
X143341544Y-79664748D01*
X143406377Y-79759185D01*
X143480247Y-79870277D01*
X143562269Y-79996671D01*
X143651559Y-80137013D01*
X143747234Y-80289950D01*
X143848408Y-80454128D01*
X143954198Y-80628194D01*
X143998728Y-80702150D01*
X144035553Y-80763845D01*
X144082129Y-80842478D01*
X144137444Y-80936312D01*
X144200491Y-81043610D01*
X144270260Y-81162635D01*
X144345743Y-81291649D01*
X144425930Y-81428916D01*
X144509812Y-81572697D01*
X144596381Y-81721257D01*
X144684628Y-81872857D01*
X144773543Y-82025761D01*
X144862117Y-82178232D01*
X144949342Y-82328532D01*
X145034209Y-82474924D01*
X145115708Y-82615671D01*
X145192830Y-82749035D01*
X145264568Y-82873281D01*
X145329910Y-82986669D01*
X145387850Y-83087464D01*
X145437377Y-83173928D01*
X145477482Y-83244324D01*
X145507157Y-83296914D01*
X145525393Y-83329963D01*
X145529052Y-83336915D01*
X145563052Y-83427354D01*
X145573044Y-83519674D01*
X145558969Y-83615789D01*
X145520770Y-83717616D01*
X145517317Y-83724750D01*
X145507550Y-83742947D01*
X145494284Y-83764439D01*
X145476828Y-83790016D01*
X145454491Y-83820467D01*
X145426584Y-83856585D01*
X145392416Y-83899160D01*
X145351297Y-83948982D01*
X145302537Y-84006842D01*
X145245444Y-84073531D01*
X145179329Y-84149840D01*
X145103501Y-84236559D01*
X145017270Y-84334479D01*
X144919945Y-84444391D01*
X144810837Y-84567085D01*
X144689254Y-84703353D01*
X144554507Y-84853984D01*
X144405905Y-85019770D01*
X144242757Y-85201501D01*
X144064374Y-85399968D01*
X143870065Y-85615962D01*
X143737626Y-85763100D01*
X143574955Y-85943567D01*
X143428674Y-86105374D01*
X143298399Y-86248933D01*
X143183748Y-86374657D01*
X143084339Y-86482962D01*
X142999786Y-86574259D01*
X142929709Y-86648962D01*
X142873724Y-86707485D01*
X142831449Y-86750242D01*
X142802499Y-86777646D01*
X142786872Y-86789904D01*
X142732755Y-86811380D01*
X142663184Y-86822813D01*
X142574887Y-86824593D01*
X142519400Y-86821757D01*
X142495921Y-86820542D01*
X142448073Y-86818460D01*
X142376869Y-86815548D01*
X142283322Y-86811844D01*
X142168446Y-86807386D01*
X142033255Y-86802211D01*
X141878762Y-86796357D01*
X141705982Y-86789863D01*
X141515928Y-86782765D01*
X141309614Y-86775102D01*
X141088054Y-86766911D01*
X140852261Y-86758230D01*
X140603249Y-86749098D01*
X140342032Y-86739551D01*
X140069623Y-86729628D01*
X139787037Y-86719367D01*
X139495287Y-86708804D01*
X139319000Y-86702437D01*
X139181305Y-86697677D01*
X139047225Y-86693439D01*
X138919644Y-86689788D01*
X138801447Y-86686789D01*
X138695517Y-86684507D01*
X138604740Y-86683006D01*
X138531999Y-86682352D01*
X138480179Y-86682609D01*
X138461750Y-86683157D01*
X138413901Y-86685013D01*
X138345083Y-86687110D01*
X138259726Y-86689343D01*
X138162257Y-86691606D01*
X138057105Y-86693791D01*
X137948699Y-86695793D01*
X137902950Y-86696559D01*
X137823640Y-86697895D01*
X137721834Y-86699691D01*
X137600432Y-86701893D01*
X137462331Y-86704446D01*
X137310432Y-86707295D01*
X137147634Y-86710386D01*
X136976834Y-86713664D01*
X136800933Y-86717073D01*
X136622829Y-86720560D01*
X136445422Y-86724068D01*
X136391650Y-86725139D01*
X136160342Y-86729708D01*
X135952792Y-86733685D01*
X135767364Y-86737060D01*
X135602422Y-86739827D01*
X135456331Y-86741977D01*
X135327454Y-86743504D01*
X135214157Y-86744399D01*
X135114804Y-86744655D01*
X135027759Y-86744263D01*
X134951386Y-86743217D01*
X134884049Y-86741508D01*
X134824114Y-86739129D01*
X134769943Y-86736072D01*
X134719903Y-86732330D01*
X134672356Y-86727894D01*
X134625668Y-86722757D01*
X134578202Y-86716911D01*
X134575550Y-86716570D01*
X134376278Y-86686564D01*
X134186539Y-86648434D01*
X134001615Y-86600676D01*
X133816787Y-86541790D01*
X133627339Y-86470271D01*
X133428554Y-86384619D01*
X133216650Y-86283794D01*
X133013995Y-86177930D01*
X132826899Y-86067839D01*
X132650463Y-85949965D01*
X132479787Y-85820750D01*
X132309972Y-85676638D01*
X132136118Y-85514073D01*
X132079559Y-85458300D01*
X131848121Y-85209650D01*
X131634077Y-84943046D01*
X131438297Y-84659827D01*
X131261652Y-84361330D01*
X131105014Y-84048893D01*
X130996583Y-83794600D01*
X130884942Y-83488562D01*
X130794415Y-83187816D01*
X130723988Y-82887340D01*
X130672649Y-82582117D01*
X130639384Y-82267126D01*
X130623407Y-81946750D01*
X130622605Y-81872417D01*
X131131901Y-81872417D01*
X131144702Y-82169101D01*
X131177176Y-82471029D01*
X131228633Y-82773717D01*
X131298386Y-83072678D01*
X131385745Y-83363427D01*
X131432676Y-83495928D01*
X131518663Y-83713612D01*
X131608423Y-83913311D01*
X131705714Y-84102440D01*
X131814295Y-84288412D01*
X131909176Y-84435950D01*
X132103798Y-84706870D01*
X132312121Y-84956491D01*
X132534378Y-85185050D01*
X132770800Y-85392784D01*
X133021621Y-85579928D01*
X133057920Y-85604514D01*
X133175284Y-85677657D01*
X133311870Y-85753685D01*
X133462084Y-85830067D01*
X133620331Y-85904269D01*
X133781020Y-85973758D01*
X133938555Y-86036002D01*
X134087342Y-86088468D01*
X134206257Y-86124445D01*
X134307803Y-86149082D01*
X134425776Y-86172587D01*
X134552175Y-86193746D01*
X134679002Y-86211346D01*
X134798258Y-86224175D01*
X134901946Y-86231017D01*
X134910654Y-86231310D01*
X134966359Y-86233000D01*
X134958205Y-85029675D01*
X134956917Y-84845426D01*
X134955549Y-84660230D01*
X134954124Y-84476760D01*
X134952667Y-84297689D01*
X134951200Y-84125689D01*
X134949748Y-83963434D01*
X134948335Y-83813597D01*
X134946984Y-83678850D01*
X134945719Y-83561868D01*
X134944565Y-83465322D01*
X134943682Y-83400900D01*
X134942841Y-83337457D01*
X134941857Y-83250472D01*
X134940744Y-83141801D01*
X134939519Y-83013301D01*
X134938197Y-82866828D01*
X134936792Y-82704238D01*
X134935320Y-82527389D01*
X134933796Y-82338138D01*
X134932236Y-82138340D01*
X134930654Y-81929853D01*
X134929067Y-81714534D01*
X134927489Y-81494238D01*
X134925935Y-81270823D01*
X134924794Y-81102200D01*
X134923283Y-80880684D01*
X134921737Y-80662780D01*
X134920170Y-80450180D01*
X134918598Y-80244577D01*
X134917036Y-80047661D01*
X134915498Y-79861126D01*
X134914000Y-79686664D01*
X134912555Y-79525967D01*
X134911179Y-79380727D01*
X134909886Y-79252636D01*
X134908692Y-79143387D01*
X134907611Y-79054671D01*
X134906658Y-78988181D01*
X134905941Y-78949550D01*
X134904619Y-78877721D01*
X134903387Y-78784623D01*
X134902272Y-78674384D01*
X134901306Y-78551135D01*
X134900517Y-78419005D01*
X134899935Y-78282124D01*
X134899589Y-78144622D01*
X134899503Y-78049273D01*
X134899406Y-77461545D01*
X135410038Y-77461545D01*
X135410160Y-77520255D01*
X135410493Y-77599427D01*
X135411025Y-77697416D01*
X135411745Y-77812577D01*
X135412643Y-77943264D01*
X135413708Y-78087831D01*
X135414928Y-78244634D01*
X135416294Y-78412027D01*
X135417794Y-78588364D01*
X135419417Y-78772000D01*
X135419483Y-78779266D01*
X135421372Y-78991610D01*
X135423325Y-79216396D01*
X135425311Y-79449833D01*
X135427299Y-79688133D01*
X135429261Y-79927506D01*
X135431164Y-80164164D01*
X135432978Y-80394318D01*
X135434673Y-80614179D01*
X135436219Y-80819957D01*
X135437584Y-81007864D01*
X135438726Y-81172050D01*
X135439922Y-81341994D01*
X135441216Y-81512315D01*
X135442578Y-81680164D01*
X135443983Y-81842696D01*
X135445403Y-81997063D01*
X135446811Y-82140420D01*
X135448180Y-82269920D01*
X135449483Y-82382717D01*
X135450692Y-82475963D01*
X135451782Y-82546813D01*
X135451837Y-82550000D01*
X135452771Y-82611580D01*
X135453821Y-82696312D01*
X135454966Y-82801947D01*
X135456190Y-82926237D01*
X135457473Y-83066933D01*
X135458795Y-83221786D01*
X135460140Y-83388550D01*
X135461486Y-83564975D01*
X135462817Y-83748812D01*
X135464112Y-83937814D01*
X135465354Y-84129733D01*
X135466180Y-84264500D01*
X135467316Y-84448850D01*
X135468472Y-84626223D01*
X135469634Y-84794950D01*
X135470787Y-84953358D01*
X135471918Y-85099777D01*
X135473011Y-85232538D01*
X135474053Y-85349970D01*
X135475029Y-85450401D01*
X135475925Y-85532162D01*
X135476727Y-85593581D01*
X135477420Y-85632990D01*
X135477991Y-85648716D01*
X135478005Y-85648800D01*
X135479119Y-85666665D01*
X135480186Y-85705956D01*
X135481144Y-85762698D01*
X135481932Y-85832918D01*
X135482487Y-85912641D01*
X135482628Y-85945780D01*
X135483600Y-86223710D01*
X135988425Y-86214673D01*
X136228662Y-86210354D01*
X136444682Y-86206430D01*
X136637664Y-86202874D01*
X136808786Y-86199660D01*
X136959227Y-86196761D01*
X137090166Y-86194151D01*
X137202782Y-86191802D01*
X137298255Y-86189690D01*
X137377762Y-86187787D01*
X137442483Y-86186066D01*
X137493597Y-86184502D01*
X137532283Y-86183067D01*
X137559719Y-86181736D01*
X137577085Y-86180481D01*
X137585560Y-86179277D01*
X137586770Y-86178762D01*
X137583374Y-86165938D01*
X137570055Y-86134060D01*
X137548446Y-86086696D01*
X137520179Y-86027412D01*
X137486886Y-85959775D01*
X137482892Y-85951788D01*
X137438948Y-85863296D01*
X137394851Y-85772847D01*
X137349666Y-85678381D01*
X137302458Y-85577837D01*
X137252295Y-85469155D01*
X137198241Y-85350276D01*
X137139362Y-85219139D01*
X137074726Y-85073684D01*
X137003396Y-84911851D01*
X136924440Y-84731580D01*
X136836923Y-84530811D01*
X136798439Y-84442300D01*
X136718401Y-84258084D01*
X136647872Y-84095697D01*
X136586239Y-83953669D01*
X136532886Y-83830533D01*
X136487201Y-83724820D01*
X136448570Y-83635062D01*
X136416377Y-83559792D01*
X136390011Y-83497542D01*
X136368856Y-83446842D01*
X136352299Y-83406226D01*
X136339726Y-83374225D01*
X136330523Y-83349371D01*
X136324077Y-83330197D01*
X136320196Y-83316705D01*
X136888660Y-83316705D01*
X136891311Y-83331782D01*
X136904226Y-83369462D01*
X136927188Y-83429214D01*
X136959977Y-83510505D01*
X137002374Y-83612805D01*
X137054160Y-83735579D01*
X137115118Y-83878298D01*
X137185027Y-84040427D01*
X137209431Y-84096730D01*
X137300574Y-84306520D01*
X137382695Y-84494959D01*
X137456711Y-84664071D01*
X137523536Y-84815882D01*
X137584086Y-84952416D01*
X137639277Y-85075697D01*
X137690025Y-85187749D01*
X137737244Y-85290598D01*
X137781851Y-85386267D01*
X137824761Y-85476782D01*
X137866891Y-85564166D01*
X137909154Y-85650445D01*
X137942746Y-85718164D01*
X138004147Y-85839170D01*
X138056825Y-85938075D01*
X138101677Y-86016285D01*
X138139596Y-86075207D01*
X138171480Y-86116247D01*
X138198224Y-86140812D01*
X138217557Y-86149784D01*
X138252953Y-86157646D01*
X138271250Y-86161924D01*
X138298012Y-86164646D01*
X138338989Y-86164979D01*
X138366946Y-86163870D01*
X138399307Y-86160060D01*
X138434169Y-86151333D01*
X138476159Y-86135936D01*
X138529905Y-86112117D01*
X138600036Y-86078123D01*
X138620946Y-86067692D01*
X138716117Y-86019253D01*
X138791928Y-85978622D01*
X138852253Y-85943339D01*
X138900965Y-85910944D01*
X138941936Y-85878978D01*
X138979039Y-85844980D01*
X138991820Y-85832155D01*
X139021210Y-85799439D01*
X139045916Y-85764883D01*
X139066324Y-85726061D01*
X139082822Y-85680549D01*
X139095797Y-85625922D01*
X139105636Y-85559754D01*
X139112726Y-85479622D01*
X139117454Y-85383101D01*
X139120208Y-85267765D01*
X139121373Y-85131191D01*
X139121450Y-85020150D01*
X139120882Y-84876609D01*
X139119470Y-84750502D01*
X139116939Y-84636160D01*
X139113019Y-84527916D01*
X139107435Y-84420103D01*
X139099917Y-84307053D01*
X139090189Y-84183099D01*
X139077981Y-84042572D01*
X139070436Y-83959700D01*
X139051850Y-83783061D01*
X139026779Y-83584927D01*
X138995695Y-83368233D01*
X138959071Y-83135913D01*
X138917380Y-82890899D01*
X138871095Y-82636127D01*
X138820688Y-82374530D01*
X138792132Y-82232500D01*
X138774530Y-82147293D01*
X138759667Y-82083055D01*
X138745101Y-82035891D01*
X138728393Y-82001904D01*
X138707100Y-81977197D01*
X138678783Y-81957873D01*
X138640999Y-81940036D01*
X138597910Y-81922447D01*
X138505909Y-81885444D01*
X138477479Y-81911358D01*
X138463696Y-81923629D01*
X138432331Y-81951371D01*
X138384871Y-81993274D01*
X138322801Y-82048028D01*
X138247608Y-82114323D01*
X138160778Y-82190849D01*
X138063797Y-82276297D01*
X137958150Y-82369356D01*
X137845324Y-82468717D01*
X137726805Y-82573071D01*
X137674350Y-82619250D01*
X137554302Y-82725000D01*
X137439680Y-82826105D01*
X137331929Y-82921284D01*
X137232494Y-83009254D01*
X137142818Y-83088734D01*
X137064346Y-83158440D01*
X136998523Y-83217092D01*
X136946792Y-83263406D01*
X136910599Y-83296100D01*
X136891387Y-83313893D01*
X136888660Y-83316705D01*
X136320196Y-83316705D01*
X136319772Y-83315233D01*
X136316996Y-83303013D01*
X136315134Y-83292067D01*
X136313960Y-83283750D01*
X136315584Y-83206854D01*
X136341835Y-83135392D01*
X136374877Y-83089096D01*
X136394591Y-83069143D01*
X136431359Y-83034485D01*
X136483597Y-82986513D01*
X136549719Y-82926615D01*
X136628138Y-82856181D01*
X136717268Y-82776600D01*
X136815524Y-82689261D01*
X136921320Y-82595554D01*
X137033069Y-82496867D01*
X137149186Y-82394590D01*
X137268086Y-82290112D01*
X137388181Y-82184823D01*
X137507886Y-82080112D01*
X137625616Y-81977367D01*
X137739784Y-81877979D01*
X137848804Y-81783337D01*
X137951091Y-81694829D01*
X138045058Y-81613845D01*
X138129120Y-81541774D01*
X138201691Y-81480006D01*
X138261184Y-81429930D01*
X138306014Y-81392935D01*
X138334596Y-81370410D01*
X138344271Y-81363910D01*
X138394438Y-81346484D01*
X138446221Y-81340135D01*
X138504432Y-81345374D01*
X138573882Y-81362712D01*
X138659381Y-81392661D01*
X138676174Y-81399166D01*
X138808058Y-81453942D01*
X138917329Y-81506554D01*
X139006486Y-81558670D01*
X139078026Y-81611955D01*
X139134448Y-81668076D01*
X139178248Y-81728698D01*
X139183461Y-81737544D01*
X139198741Y-81767589D01*
X139213902Y-81805161D01*
X139229475Y-81852430D01*
X139245993Y-81911565D01*
X139263985Y-81984737D01*
X139283985Y-82074116D01*
X139306522Y-82181873D01*
X139332129Y-82310178D01*
X139361336Y-82461200D01*
X139363743Y-82473800D01*
X139413419Y-82739969D01*
X139456767Y-82985943D01*
X139494305Y-83215988D01*
X139526550Y-83434368D01*
X139554020Y-83645348D01*
X139577233Y-83853194D01*
X139596707Y-84062171D01*
X139612960Y-84276543D01*
X139626509Y-84500577D01*
X139637426Y-84728050D01*
X139644462Y-84966102D01*
X139644343Y-85183328D01*
X139637121Y-85379149D01*
X139622847Y-85552985D01*
X139601574Y-85704257D01*
X139573353Y-85832386D01*
X139538235Y-85936791D01*
X139527181Y-85961678D01*
X139501745Y-86008580D01*
X139467540Y-86062917D01*
X139433235Y-86111215D01*
X139372612Y-86190309D01*
X140015731Y-86213088D01*
X140160983Y-86218286D01*
X140325843Y-86224274D01*
X140504538Y-86230840D01*
X140691296Y-86237767D01*
X140880343Y-86244842D01*
X141065907Y-86251847D01*
X141242216Y-86258570D01*
X141395450Y-86264481D01*
X141567483Y-86271183D01*
X141715854Y-86276972D01*
X141842282Y-86281868D01*
X141948488Y-86285890D01*
X142036191Y-86289057D01*
X142107113Y-86291388D01*
X142162973Y-86292903D01*
X142205492Y-86293621D01*
X142236389Y-86293561D01*
X142257385Y-86292742D01*
X142270199Y-86291183D01*
X142276554Y-86288904D01*
X142278167Y-86285924D01*
X142276760Y-86282262D01*
X142274053Y-86277938D01*
X142272206Y-86274275D01*
X142266698Y-86258934D01*
X142253474Y-86221546D01*
X142233209Y-86164037D01*
X142206581Y-86088333D01*
X142174265Y-85996360D01*
X142136938Y-85890044D01*
X142095277Y-85771311D01*
X142049958Y-85642086D01*
X142001658Y-85504298D01*
X141952167Y-85363050D01*
X141848303Y-85066838D01*
X141751825Y-84792261D01*
X141662822Y-84539570D01*
X141581384Y-84309019D01*
X141507600Y-84100858D01*
X141441561Y-83915341D01*
X141383356Y-83752719D01*
X141333074Y-83613244D01*
X141290806Y-83497169D01*
X141256640Y-83404746D01*
X141242878Y-83368154D01*
X141202680Y-83265726D01*
X141153671Y-83146927D01*
X141097101Y-83014397D01*
X141034214Y-82870781D01*
X140966259Y-82718719D01*
X140894483Y-82560854D01*
X140820132Y-82399828D01*
X140744453Y-82238284D01*
X140668694Y-82078864D01*
X140594102Y-81924210D01*
X140521923Y-81776964D01*
X140453405Y-81639768D01*
X140389794Y-81515266D01*
X140332339Y-81406098D01*
X140282285Y-81314908D01*
X140240879Y-81244337D01*
X140239371Y-81241900D01*
X140184848Y-81157528D01*
X140134785Y-81090156D01*
X140085360Y-81037910D01*
X140032750Y-80998916D01*
X139973134Y-80971300D01*
X139902690Y-80953190D01*
X139817597Y-80942711D01*
X139714032Y-80937990D01*
X139617611Y-80937100D01*
X139540295Y-80936889D01*
X139483440Y-80935858D01*
X139442105Y-80933405D01*
X139411351Y-80928928D01*
X139386240Y-80921826D01*
X139361830Y-80911498D01*
X139346709Y-80904122D01*
X139281797Y-80859101D01*
X139237575Y-80799536D01*
X139214696Y-80726486D01*
X139214676Y-80726217D01*
X140506683Y-80726217D01*
X140524408Y-80752493D01*
X140527613Y-80756041D01*
X140569391Y-80807813D01*
X140619988Y-80882121D01*
X140678857Y-80977891D01*
X140745449Y-81094051D01*
X140819216Y-81229526D01*
X140899609Y-81383244D01*
X140986080Y-81554130D01*
X141078081Y-81741112D01*
X141175062Y-81943117D01*
X141276476Y-82159070D01*
X141381774Y-82387899D01*
X141490408Y-82628530D01*
X141531831Y-82721450D01*
X141556779Y-82778032D01*
X141581360Y-82834792D01*
X141606010Y-82892922D01*
X141631163Y-82953614D01*
X141657253Y-83018059D01*
X141684717Y-83087449D01*
X141713987Y-83162977D01*
X141745499Y-83245833D01*
X141779688Y-83337210D01*
X141816988Y-83438300D01*
X141857834Y-83550293D01*
X141902661Y-83674383D01*
X141951903Y-83811760D01*
X142005995Y-83963618D01*
X142065373Y-84131146D01*
X142130469Y-84315538D01*
X142201720Y-84517985D01*
X142279560Y-84739679D01*
X142364423Y-84981811D01*
X142456745Y-85245574D01*
X142555558Y-85528150D01*
X142600764Y-85657461D01*
X142638326Y-85764833D01*
X142668980Y-85852307D01*
X142693461Y-85921922D01*
X142712506Y-85975716D01*
X142726852Y-86015728D01*
X142737234Y-86044000D01*
X142744389Y-86062568D01*
X142749053Y-86073474D01*
X142751962Y-86078755D01*
X142753853Y-86080452D01*
X142755007Y-86080600D01*
X142763935Y-86071375D01*
X142788648Y-86044580D01*
X142827953Y-86001536D01*
X142880656Y-85943563D01*
X142945561Y-85871979D01*
X143021474Y-85788106D01*
X143107200Y-85693263D01*
X143201546Y-85588770D01*
X143303316Y-85475946D01*
X143411316Y-85356113D01*
X143524351Y-85230590D01*
X143539441Y-85213825D01*
X143743433Y-84987044D01*
X143930714Y-84778549D01*
X144101700Y-84587869D01*
X144256807Y-84414531D01*
X144396449Y-84258062D01*
X144521043Y-84117992D01*
X144631004Y-83993848D01*
X144726747Y-83885158D01*
X144808687Y-83791451D01*
X144877241Y-83712253D01*
X144932823Y-83647095D01*
X144975850Y-83595502D01*
X145006736Y-83557004D01*
X145025897Y-83531128D01*
X145033749Y-83517402D01*
X145034000Y-83515992D01*
X145027745Y-83502808D01*
X145009610Y-83469331D01*
X144980541Y-83417193D01*
X144941482Y-83348025D01*
X144893377Y-83263458D01*
X144837172Y-83165125D01*
X144773811Y-83054657D01*
X144704239Y-82933685D01*
X144629401Y-82803841D01*
X144550241Y-82666757D01*
X144467705Y-82524065D01*
X144382736Y-82377395D01*
X144296280Y-82228380D01*
X144209282Y-82078652D01*
X144122686Y-81929841D01*
X144037438Y-81783579D01*
X143954481Y-81641499D01*
X143874760Y-81505231D01*
X143799221Y-81376408D01*
X143728809Y-81256660D01*
X143664467Y-81147620D01*
X143607140Y-81050920D01*
X143588526Y-81019650D01*
X143514637Y-80896485D01*
X143439237Y-80772291D01*
X143363547Y-80648973D01*
X143288789Y-80528434D01*
X143216184Y-80412580D01*
X143146954Y-80303317D01*
X143082320Y-80202548D01*
X143023504Y-80112180D01*
X142971728Y-80034117D01*
X142928213Y-79970263D01*
X142894181Y-79922525D01*
X142870853Y-79892807D01*
X142859646Y-79883000D01*
X142830190Y-79886282D01*
X142783547Y-79894980D01*
X142726905Y-79907368D01*
X142667455Y-79921724D01*
X142612385Y-79936321D01*
X142568883Y-79949437D01*
X142546347Y-79958145D01*
X142494048Y-79982566D01*
X142420129Y-80014195D01*
X142327041Y-80052127D01*
X142217234Y-80095460D01*
X142093159Y-80143289D01*
X141957266Y-80194711D01*
X141812005Y-80248822D01*
X141659827Y-80304719D01*
X141503182Y-80361496D01*
X141344521Y-80418252D01*
X141186294Y-80474082D01*
X141030952Y-80528082D01*
X140880944Y-80579349D01*
X140738721Y-80626978D01*
X140684250Y-80644911D01*
X140622894Y-80665497D01*
X140570042Y-80684164D01*
X140530518Y-80699141D01*
X140509142Y-80708654D01*
X140507168Y-80709999D01*
X140506683Y-80726217D01*
X139214676Y-80726217D01*
X139211449Y-80683598D01*
X139220194Y-80607931D01*
X139236450Y-80566686D01*
X139252044Y-80544884D01*
X139282637Y-80507896D01*
X139325534Y-80458764D01*
X139378041Y-80400526D01*
X139437466Y-80336222D01*
X139489623Y-80280936D01*
X139590967Y-80173442D01*
X139675675Y-80081058D01*
X139745612Y-80001493D01*
X139802646Y-79932458D01*
X139848645Y-79871662D01*
X139885476Y-79816816D01*
X139915007Y-79765629D01*
X139923780Y-79748523D01*
X139968537Y-79658497D01*
X139935066Y-79456423D01*
X139893325Y-79207163D01*
X139854531Y-78981549D01*
X139818338Y-78778043D01*
X139784399Y-78595106D01*
X139752367Y-78431198D01*
X139721895Y-78284781D01*
X139692636Y-78154317D01*
X139664244Y-78038265D01*
X139636371Y-77935088D01*
X139608671Y-77843246D01*
X139580797Y-77761200D01*
X139552403Y-77687412D01*
X139523141Y-77620342D01*
X139519519Y-77612597D01*
X139493910Y-77564106D01*
X139469056Y-77532712D01*
X139438846Y-77511056D01*
X139432323Y-77507601D01*
X139389339Y-77488831D01*
X139336617Y-77471696D01*
X139329700Y-77470000D01*
X140022788Y-77470000D01*
X140029373Y-77488909D01*
X140042603Y-77526321D01*
X140060556Y-77576824D01*
X140081315Y-77635006D01*
X140081348Y-77635100D01*
X140112606Y-77728682D01*
X140143433Y-77833832D01*
X140174364Y-77952841D01*
X140205937Y-78088001D01*
X140238689Y-78241606D01*
X140273154Y-78415947D01*
X140308660Y-78606650D01*
X140343191Y-78797741D01*
X140373094Y-78965418D01*
X140398611Y-79111197D01*
X140419983Y-79236592D01*
X140437451Y-79343119D01*
X140451257Y-79432294D01*
X140461642Y-79505631D01*
X140468846Y-79564645D01*
X140473112Y-79610852D01*
X140474681Y-79645767D01*
X140474700Y-79649357D01*
X140465186Y-79756515D01*
X140435988Y-79866030D01*
X140386115Y-79980539D01*
X140314579Y-80102678D01*
X140291933Y-80136559D01*
X140261897Y-80180595D01*
X140236788Y-80217678D01*
X140220494Y-80242055D01*
X140217161Y-80247206D01*
X140225908Y-80247740D01*
X140257221Y-80240095D01*
X140309773Y-80224709D01*
X140382237Y-80202019D01*
X140473286Y-80172465D01*
X140581591Y-80136483D01*
X140705827Y-80094512D01*
X140844665Y-80046991D01*
X140996779Y-79994356D01*
X141160841Y-79937048D01*
X141224000Y-79914854D01*
X141473328Y-79826009D01*
X141698920Y-79743327D01*
X141900675Y-79666849D01*
X142078494Y-79596617D01*
X142232279Y-79532671D01*
X142361930Y-79475054D01*
X142467348Y-79423807D01*
X142548435Y-79378972D01*
X142605090Y-79340590D01*
X142614805Y-79332548D01*
X142635263Y-79313507D01*
X142649757Y-79294626D01*
X142660501Y-79270200D01*
X142669709Y-79234521D01*
X142679597Y-79181885D01*
X142684587Y-79152750D01*
X142693681Y-79090768D01*
X142703917Y-79006323D01*
X142715024Y-78902313D01*
X142726731Y-78781635D01*
X142738766Y-78647187D01*
X142750860Y-78501867D01*
X142762742Y-78348572D01*
X142773001Y-78206600D01*
X142784455Y-77970886D01*
X142784552Y-77755598D01*
X142773326Y-77561323D01*
X142750813Y-77388644D01*
X142717046Y-77238148D01*
X142715672Y-77233330D01*
X142682773Y-77136152D01*
X142638172Y-77029459D01*
X142585081Y-76919297D01*
X142526714Y-76811716D01*
X142466284Y-76712762D01*
X142407005Y-76628484D01*
X142371304Y-76585209D01*
X142335250Y-76544969D01*
X141175837Y-76997959D01*
X140976293Y-77076011D01*
X140799341Y-77145426D01*
X140643860Y-77206663D01*
X140508728Y-77260183D01*
X140392820Y-77306445D01*
X140295016Y-77345908D01*
X140214192Y-77379031D01*
X140149227Y-77406276D01*
X140098997Y-77428100D01*
X140062381Y-77444963D01*
X140038256Y-77457326D01*
X140025498Y-77465646D01*
X140022788Y-77470000D01*
X139329700Y-77470000D01*
X139273254Y-77456162D01*
X139198347Y-77442197D01*
X139110996Y-77429769D01*
X139010297Y-77418844D01*
X138895350Y-77409390D01*
X138765250Y-77401375D01*
X138619098Y-77394766D01*
X138455990Y-77389531D01*
X138275025Y-77385636D01*
X138075300Y-77383050D01*
X137855913Y-77381739D01*
X137615963Y-77381671D01*
X137354547Y-77382813D01*
X137070763Y-77385133D01*
X136763709Y-77388599D01*
X136432484Y-77393177D01*
X136315450Y-77394962D01*
X136166545Y-77397323D01*
X136025224Y-77399645D01*
X135893513Y-77401889D01*
X135773440Y-77404017D01*
X135667032Y-77405991D01*
X135576317Y-77407771D01*
X135503322Y-77409321D01*
X135450074Y-77410600D01*
X135418600Y-77411572D01*
X135410467Y-77412095D01*
X135410136Y-77424943D01*
X135410038Y-77461545D01*
X134899406Y-77461545D01*
X134899400Y-77428396D01*
X134800975Y-77437158D01*
X134519431Y-77469895D01*
X134256338Y-77516972D01*
X134008379Y-77579639D01*
X133772239Y-77659144D01*
X133544601Y-77756737D01*
X133322150Y-77873667D01*
X133101569Y-78011183D01*
X132904854Y-78151358D01*
X132692034Y-78320507D01*
X132499241Y-78493478D01*
X132322019Y-78675009D01*
X132155912Y-78869840D01*
X131996465Y-79082709D01*
X131909524Y-79209900D01*
X131829715Y-79332328D01*
X131762644Y-79440285D01*
X131705234Y-79539172D01*
X131654405Y-79634392D01*
X131607080Y-79731348D01*
X131584823Y-79779828D01*
X131473942Y-80040343D01*
X131380972Y-80292105D01*
X131304574Y-80540537D01*
X131243412Y-80791063D01*
X131196148Y-81049106D01*
X131161443Y-81320088D01*
X131139460Y-81585464D01*
X131131901Y-81872417D01*
X130622605Y-81872417D01*
X130621296Y-81751183D01*
X130625613Y-81568614D01*
X130636935Y-81389407D01*
X130655835Y-81203926D01*
X130677636Y-81038700D01*
X130694469Y-80926803D01*
X130712355Y-80820547D01*
X130732037Y-80717258D01*
X130754264Y-80614260D01*
X130779780Y-80508877D01*
X130809333Y-80398433D01*
X130843668Y-80280253D01*
X130883532Y-80151661D01*
X130929671Y-80009982D01*
X130982832Y-79852541D01*
X131043760Y-79676661D01*
X131109785Y-79489300D01*
X131172092Y-79313821D01*
X131227028Y-79159972D01*
X131275608Y-79025406D01*
X131318850Y-78907778D01*
X131357773Y-78804742D01*
X131393392Y-78713953D01*
X131426725Y-78633065D01*
X131458790Y-78559732D01*
X131490603Y-78491609D01*
X131523182Y-78426350D01*
X131557544Y-78361611D01*
X131594706Y-78295044D01*
X131635686Y-78224305D01*
X131681501Y-78147048D01*
X131719100Y-78084326D01*
X131821524Y-77914697D01*
X131887904Y-77806190D01*
X132499100Y-77806190D01*
X132508234Y-77802378D01*
X132532508Y-77785936D01*
X132567230Y-77760103D01*
X132578475Y-77751402D01*
X132623659Y-77717249D01*
X132681173Y-77675334D01*
X132742228Y-77632007D01*
X132778500Y-77606882D01*
X132936609Y-77504750D01*
X133106252Y-77406211D01*
X133281725Y-77314087D01*
X133457323Y-77231202D01*
X133627340Y-77160376D01*
X133786073Y-77104433D01*
X133807631Y-77097779D01*
X133910624Y-77067768D01*
X134009330Y-77041688D01*
X134107972Y-77018763D01*
X134210772Y-76998212D01*
X134321951Y-76979259D01*
X134445733Y-76961124D01*
X134586339Y-76943030D01*
X134747992Y-76924199D01*
X134751482Y-76923808D01*
X134843071Y-76913424D01*
X134927395Y-76903617D01*
X135000847Y-76894826D01*
X135059819Y-76887491D01*
X135100703Y-76882051D01*
X135119782Y-76878971D01*
X135148508Y-76877285D01*
X135189174Y-76880793D01*
X135207230Y-76883741D01*
X135230494Y-76885509D01*
X135277967Y-76886732D01*
X135348465Y-76887415D01*
X135440804Y-76887566D01*
X135553799Y-76887191D01*
X135686266Y-76886296D01*
X135837020Y-76884888D01*
X136004877Y-76882974D01*
X136188652Y-76880560D01*
X136387162Y-76877653D01*
X136432780Y-76876947D01*
X136766930Y-76872162D01*
X137076616Y-76868652D01*
X137362744Y-76866419D01*
X137626219Y-76865467D01*
X137867944Y-76865801D01*
X138088826Y-76867422D01*
X138289769Y-76870337D01*
X138471677Y-76874546D01*
X138635457Y-76880056D01*
X138772900Y-76886381D01*
X138923319Y-76895249D01*
X139052174Y-76905017D01*
X139163296Y-76916251D01*
X139260518Y-76929518D01*
X139347672Y-76945383D01*
X139428593Y-76964412D01*
X139507111Y-76987172D01*
X139549421Y-77001062D01*
X139659192Y-77038415D01*
X140425721Y-76739023D01*
X140562181Y-76685730D01*
X140694649Y-76634006D01*
X140820725Y-76584788D01*
X140938005Y-76539014D01*
X141044088Y-76497621D01*
X141136572Y-76461546D01*
X141213056Y-76431726D01*
X141271136Y-76409098D01*
X141308411Y-76394600D01*
X141312900Y-76392859D01*
X141433550Y-76346086D01*
X141331950Y-76337616D01*
X141294681Y-76335170D01*
X141235881Y-76332145D01*
X141159408Y-76328700D01*
X141069120Y-76324997D01*
X140968875Y-76321196D01*
X140862531Y-76317458D01*
X140792200Y-76315145D01*
X140664861Y-76311076D01*
X140524178Y-76306581D01*
X140377717Y-76301901D01*
X140233043Y-76297278D01*
X140097723Y-76292955D01*
X139979323Y-76289172D01*
X139966700Y-76288769D01*
X139873863Y-76285860D01*
X139760152Y-76282391D01*
X139630080Y-76278494D01*
X139488164Y-76274303D01*
X139338919Y-76269948D01*
X139186860Y-76265564D01*
X139036502Y-76261283D01*
X138906250Y-76257624D01*
X138707416Y-76252077D01*
X138531941Y-76247175D01*
X138377791Y-76242860D01*
X138242935Y-76239075D01*
X138125339Y-76235759D01*
X138022973Y-76232857D01*
X137933802Y-76230309D01*
X137855796Y-76228057D01*
X137786921Y-76226043D01*
X137725146Y-76224209D01*
X137668438Y-76222497D01*
X137614764Y-76220848D01*
X137562094Y-76219204D01*
X137541000Y-76218540D01*
X137401552Y-76214262D01*
X137251509Y-76209883D01*
X137093625Y-76205467D01*
X136930657Y-76201079D01*
X136765358Y-76196785D01*
X136600485Y-76192651D01*
X136438792Y-76188741D01*
X136283035Y-76185121D01*
X136135970Y-76181855D01*
X136000351Y-76179010D01*
X135878934Y-76176651D01*
X135774474Y-76174843D01*
X135689726Y-76173651D01*
X135627447Y-76173140D01*
X135624474Y-76173132D01*
X135532460Y-76173226D01*
X135458330Y-76174348D01*
X135395035Y-76177099D01*
X135335527Y-76182084D01*
X135272758Y-76189903D01*
X135199679Y-76201160D01*
X135109243Y-76216456D01*
X135101142Y-76217856D01*
X135007116Y-76234660D01*
X134927599Y-76250441D01*
X134855708Y-76266987D01*
X134784565Y-76286089D01*
X134707288Y-76309535D01*
X134616997Y-76339115D01*
X134557707Y-76359189D01*
X134296743Y-76453006D01*
X134056111Y-76549872D01*
X133830756Y-76652058D01*
X133615620Y-76761835D01*
X133438900Y-76861697D01*
X133224194Y-77002907D01*
X133026164Y-77163272D01*
X132844936Y-77342680D01*
X132725629Y-77482700D01*
X132686028Y-77533811D01*
X132644188Y-77589856D01*
X132602915Y-77646825D01*
X132565018Y-77700707D01*
X132533304Y-77747492D01*
X132510583Y-77783171D01*
X132499661Y-77803734D01*
X132499100Y-77806190D01*
X131887904Y-77806190D01*
X131913075Y-77765046D01*
X131995292Y-77633187D01*
X132069711Y-77516937D01*
X132137870Y-77414110D01*
X132201305Y-77322522D01*
X132261554Y-77239988D01*
X132320154Y-77164323D01*
X132378642Y-77093342D01*
X132438554Y-77024861D01*
X132501430Y-76956695D01*
X132543280Y-76912902D01*
X132660843Y-76797442D01*
X132781565Y-76691917D01*
X132910083Y-76592901D01*
X133051030Y-76496962D01*
X133209043Y-76400672D01*
X133321917Y-76336923D01*
X133474756Y-76254940D01*
X133621601Y-76180982D01*
X133767736Y-76112763D01*
X133918445Y-76047994D01*
X134079014Y-75984390D01*
X134254725Y-75919665D01*
X134416771Y-75863138D01*
X134520291Y-75828318D01*
X134607439Y-75800596D01*
X134685583Y-75778032D01*
X134762089Y-75758690D01*
X134844325Y-75740633D01*
X134939659Y-75721924D01*
X134988271Y-75712873D01*
X135274050Y-75660250D01*
X135712200Y-75662281D01*
G37*
X135712200Y-75662281D02*
X135793913Y-75663011D01*
X135899362Y-75664527D01*
X136026896Y-75666783D01*
X136174864Y-75669734D01*
X136341616Y-75673334D01*
X136525500Y-75677536D01*
X136724866Y-75682295D01*
X136938062Y-75687565D01*
X137163440Y-75693300D01*
X137399346Y-75699454D01*
X137644132Y-75705982D01*
X137896145Y-75712837D01*
X138153736Y-75719975D01*
X138415253Y-75727348D01*
X138679046Y-75734911D01*
X138943464Y-75742618D01*
X139206856Y-75750423D01*
X139467572Y-75758281D01*
X139723960Y-75766145D01*
X139974370Y-75773971D01*
X140217151Y-75781710D01*
X140450653Y-75789319D01*
X140673225Y-75796751D01*
X140883215Y-75803961D01*
X141078973Y-75810901D01*
X141135100Y-75812939D01*
X141319521Y-75819738D01*
X141480660Y-75825924D01*
X141620618Y-75831746D01*
X141741497Y-75837455D01*
X141845400Y-75843299D01*
X141934429Y-75849530D01*
X142010685Y-75856396D01*
X142076271Y-75864148D01*
X142133290Y-75873036D01*
X142183843Y-75883309D01*
X142230034Y-75895216D01*
X142273963Y-75909009D01*
X142317733Y-75924937D01*
X142363446Y-75943249D01*
X142413206Y-75964196D01*
X142415266Y-75965073D01*
X142476167Y-75991328D01*
X142521440Y-76012754D01*
X142556914Y-76033640D01*
X142588420Y-76058276D01*
X142621787Y-76090952D01*
X142662844Y-76135958D01*
X142691619Y-76168430D01*
X142788779Y-76282672D01*
X142870456Y-76389337D01*
X142941629Y-76495903D01*
X143007273Y-76609845D01*
X143072367Y-76738641D01*
X143075339Y-76744855D01*
X143137357Y-76883514D01*
X143187433Y-77016433D01*
X143226876Y-77149161D01*
X143256997Y-77287246D01*
X143279103Y-77436236D01*
X143294506Y-77601680D01*
X143300433Y-77698600D01*
X143302515Y-77781825D01*
X143301533Y-77886387D01*
X143297785Y-78008449D01*
X143291568Y-78144169D01*
X143283180Y-78289710D01*
X143272918Y-78441232D01*
X143261079Y-78594897D01*
X143247962Y-78746864D01*
X143233864Y-78893295D01*
X143219081Y-79030352D01*
X143203912Y-79154194D01*
X143188653Y-79260983D01*
X143173603Y-79346879D01*
X143172186Y-79353856D01*
X143154294Y-79440662D01*
X143210107Y-79494906D01*
X143242525Y-79531255D01*
X143286632Y-79588321D01*
X143341544Y-79664748D01*
X143406377Y-79759185D01*
X143480247Y-79870277D01*
X143562269Y-79996671D01*
X143651559Y-80137013D01*
X143747234Y-80289950D01*
X143848408Y-80454128D01*
X143954198Y-80628194D01*
X143998728Y-80702150D01*
X144035553Y-80763845D01*
X144082129Y-80842478D01*
X144137444Y-80936312D01*
X144200491Y-81043610D01*
X144270260Y-81162635D01*
X144345743Y-81291649D01*
X144425930Y-81428916D01*
X144509812Y-81572697D01*
X144596381Y-81721257D01*
X144684628Y-81872857D01*
X144773543Y-82025761D01*
X144862117Y-82178232D01*
X144949342Y-82328532D01*
X145034209Y-82474924D01*
X145115708Y-82615671D01*
X145192830Y-82749035D01*
X145264568Y-82873281D01*
X145329910Y-82986669D01*
X145387850Y-83087464D01*
X145437377Y-83173928D01*
X145477482Y-83244324D01*
X145507157Y-83296914D01*
X145525393Y-83329963D01*
X145529052Y-83336915D01*
X145563052Y-83427354D01*
X145573044Y-83519674D01*
X145558969Y-83615789D01*
X145520770Y-83717616D01*
X145517317Y-83724750D01*
X145507550Y-83742947D01*
X145494284Y-83764439D01*
X145476828Y-83790016D01*
X145454491Y-83820467D01*
X145426584Y-83856585D01*
X145392416Y-83899160D01*
X145351297Y-83948982D01*
X145302537Y-84006842D01*
X145245444Y-84073531D01*
X145179329Y-84149840D01*
X145103501Y-84236559D01*
X145017270Y-84334479D01*
X144919945Y-84444391D01*
X144810837Y-84567085D01*
X144689254Y-84703353D01*
X144554507Y-84853984D01*
X144405905Y-85019770D01*
X144242757Y-85201501D01*
X144064374Y-85399968D01*
X143870065Y-85615962D01*
X143737626Y-85763100D01*
X143574955Y-85943567D01*
X143428674Y-86105374D01*
X143298399Y-86248933D01*
X143183748Y-86374657D01*
X143084339Y-86482962D01*
X142999786Y-86574259D01*
X142929709Y-86648962D01*
X142873724Y-86707485D01*
X142831449Y-86750242D01*
X142802499Y-86777646D01*
X142786872Y-86789904D01*
X142732755Y-86811380D01*
X142663184Y-86822813D01*
X142574887Y-86824593D01*
X142519400Y-86821757D01*
X142495921Y-86820542D01*
X142448073Y-86818460D01*
X142376869Y-86815548D01*
X142283322Y-86811844D01*
X142168446Y-86807386D01*
X142033255Y-86802211D01*
X141878762Y-86796357D01*
X141705982Y-86789863D01*
X141515928Y-86782765D01*
X141309614Y-86775102D01*
X141088054Y-86766911D01*
X140852261Y-86758230D01*
X140603249Y-86749098D01*
X140342032Y-86739551D01*
X140069623Y-86729628D01*
X139787037Y-86719367D01*
X139495287Y-86708804D01*
X139319000Y-86702437D01*
X139181305Y-86697677D01*
X139047225Y-86693439D01*
X138919644Y-86689788D01*
X138801447Y-86686789D01*
X138695517Y-86684507D01*
X138604740Y-86683006D01*
X138531999Y-86682352D01*
X138480179Y-86682609D01*
X138461750Y-86683157D01*
X138413901Y-86685013D01*
X138345083Y-86687110D01*
X138259726Y-86689343D01*
X138162257Y-86691606D01*
X138057105Y-86693791D01*
X137948699Y-86695793D01*
X137902950Y-86696559D01*
X137823640Y-86697895D01*
X137721834Y-86699691D01*
X137600432Y-86701893D01*
X137462331Y-86704446D01*
X137310432Y-86707295D01*
X137147634Y-86710386D01*
X136976834Y-86713664D01*
X136800933Y-86717073D01*
X136622829Y-86720560D01*
X136445422Y-86724068D01*
X136391650Y-86725139D01*
X136160342Y-86729708D01*
X135952792Y-86733685D01*
X135767364Y-86737060D01*
X135602422Y-86739827D01*
X135456331Y-86741977D01*
X135327454Y-86743504D01*
X135214157Y-86744399D01*
X135114804Y-86744655D01*
X135027759Y-86744263D01*
X134951386Y-86743217D01*
X134884049Y-86741508D01*
X134824114Y-86739129D01*
X134769943Y-86736072D01*
X134719903Y-86732330D01*
X134672356Y-86727894D01*
X134625668Y-86722757D01*
X134578202Y-86716911D01*
X134575550Y-86716570D01*
X134376278Y-86686564D01*
X134186539Y-86648434D01*
X134001615Y-86600676D01*
X133816787Y-86541790D01*
X133627339Y-86470271D01*
X133428554Y-86384619D01*
X133216650Y-86283794D01*
X133013995Y-86177930D01*
X132826899Y-86067839D01*
X132650463Y-85949965D01*
X132479787Y-85820750D01*
X132309972Y-85676638D01*
X132136118Y-85514073D01*
X132079559Y-85458300D01*
X131848121Y-85209650D01*
X131634077Y-84943046D01*
X131438297Y-84659827D01*
X131261652Y-84361330D01*
X131105014Y-84048893D01*
X130996583Y-83794600D01*
X130884942Y-83488562D01*
X130794415Y-83187816D01*
X130723988Y-82887340D01*
X130672649Y-82582117D01*
X130639384Y-82267126D01*
X130623407Y-81946750D01*
X130622605Y-81872417D01*
X131131901Y-81872417D01*
X131144702Y-82169101D01*
X131177176Y-82471029D01*
X131228633Y-82773717D01*
X131298386Y-83072678D01*
X131385745Y-83363427D01*
X131432676Y-83495928D01*
X131518663Y-83713612D01*
X131608423Y-83913311D01*
X131705714Y-84102440D01*
X131814295Y-84288412D01*
X131909176Y-84435950D01*
X132103798Y-84706870D01*
X132312121Y-84956491D01*
X132534378Y-85185050D01*
X132770800Y-85392784D01*
X133021621Y-85579928D01*
X133057920Y-85604514D01*
X133175284Y-85677657D01*
X133311870Y-85753685D01*
X133462084Y-85830067D01*
X133620331Y-85904269D01*
X133781020Y-85973758D01*
X133938555Y-86036002D01*
X134087342Y-86088468D01*
X134206257Y-86124445D01*
X134307803Y-86149082D01*
X134425776Y-86172587D01*
X134552175Y-86193746D01*
X134679002Y-86211346D01*
X134798258Y-86224175D01*
X134901946Y-86231017D01*
X134910654Y-86231310D01*
X134966359Y-86233000D01*
X134958205Y-85029675D01*
X134956917Y-84845426D01*
X134955549Y-84660230D01*
X134954124Y-84476760D01*
X134952667Y-84297689D01*
X134951200Y-84125689D01*
X134949748Y-83963434D01*
X134948335Y-83813597D01*
X134946984Y-83678850D01*
X134945719Y-83561868D01*
X134944565Y-83465322D01*
X134943682Y-83400900D01*
X134942841Y-83337457D01*
X134941857Y-83250472D01*
X134940744Y-83141801D01*
X134939519Y-83013301D01*
X134938197Y-82866828D01*
X134936792Y-82704238D01*
X134935320Y-82527389D01*
X134933796Y-82338138D01*
X134932236Y-82138340D01*
X134930654Y-81929853D01*
X134929067Y-81714534D01*
X134927489Y-81494238D01*
X134925935Y-81270823D01*
X134924794Y-81102200D01*
X134923283Y-80880684D01*
X134921737Y-80662780D01*
X134920170Y-80450180D01*
X134918598Y-80244577D01*
X134917036Y-80047661D01*
X134915498Y-79861126D01*
X134914000Y-79686664D01*
X134912555Y-79525967D01*
X134911179Y-79380727D01*
X134909886Y-79252636D01*
X134908692Y-79143387D01*
X134907611Y-79054671D01*
X134906658Y-78988181D01*
X134905941Y-78949550D01*
X134904619Y-78877721D01*
X134903387Y-78784623D01*
X134902272Y-78674384D01*
X134901306Y-78551135D01*
X134900517Y-78419005D01*
X134899935Y-78282124D01*
X134899589Y-78144622D01*
X134899503Y-78049273D01*
X134899406Y-77461545D01*
X135410038Y-77461545D01*
X135410160Y-77520255D01*
X135410493Y-77599427D01*
X135411025Y-77697416D01*
X135411745Y-77812577D01*
X135412643Y-77943264D01*
X135413708Y-78087831D01*
X135414928Y-78244634D01*
X135416294Y-78412027D01*
X135417794Y-78588364D01*
X135419417Y-78772000D01*
X135419483Y-78779266D01*
X135421372Y-78991610D01*
X135423325Y-79216396D01*
X135425311Y-79449833D01*
X135427299Y-79688133D01*
X135429261Y-79927506D01*
X135431164Y-80164164D01*
X135432978Y-80394318D01*
X135434673Y-80614179D01*
X135436219Y-80819957D01*
X135437584Y-81007864D01*
X135438726Y-81172050D01*
X135439922Y-81341994D01*
X135441216Y-81512315D01*
X135442578Y-81680164D01*
X135443983Y-81842696D01*
X135445403Y-81997063D01*
X135446811Y-82140420D01*
X135448180Y-82269920D01*
X135449483Y-82382717D01*
X135450692Y-82475963D01*
X135451782Y-82546813D01*
X135451837Y-82550000D01*
X135452771Y-82611580D01*
X135453821Y-82696312D01*
X135454966Y-82801947D01*
X135456190Y-82926237D01*
X135457473Y-83066933D01*
X135458795Y-83221786D01*
X135460140Y-83388550D01*
X135461486Y-83564975D01*
X135462817Y-83748812D01*
X135464112Y-83937814D01*
X135465354Y-84129733D01*
X135466180Y-84264500D01*
X135467316Y-84448850D01*
X135468472Y-84626223D01*
X135469634Y-84794950D01*
X135470787Y-84953358D01*
X135471918Y-85099777D01*
X135473011Y-85232538D01*
X135474053Y-85349970D01*
X135475029Y-85450401D01*
X135475925Y-85532162D01*
X135476727Y-85593581D01*
X135477420Y-85632990D01*
X135477991Y-85648716D01*
X135478005Y-85648800D01*
X135479119Y-85666665D01*
X135480186Y-85705956D01*
X135481144Y-85762698D01*
X135481932Y-85832918D01*
X135482487Y-85912641D01*
X135482628Y-85945780D01*
X135483600Y-86223710D01*
X135988425Y-86214673D01*
X136228662Y-86210354D01*
X136444682Y-86206430D01*
X136637664Y-86202874D01*
X136808786Y-86199660D01*
X136959227Y-86196761D01*
X137090166Y-86194151D01*
X137202782Y-86191802D01*
X137298255Y-86189690D01*
X137377762Y-86187787D01*
X137442483Y-86186066D01*
X137493597Y-86184502D01*
X137532283Y-86183067D01*
X137559719Y-86181736D01*
X137577085Y-86180481D01*
X137585560Y-86179277D01*
X137586770Y-86178762D01*
X137583374Y-86165938D01*
X137570055Y-86134060D01*
X137548446Y-86086696D01*
X137520179Y-86027412D01*
X137486886Y-85959775D01*
X137482892Y-85951788D01*
X137438948Y-85863296D01*
X137394851Y-85772847D01*
X137349666Y-85678381D01*
X137302458Y-85577837D01*
X137252295Y-85469155D01*
X137198241Y-85350276D01*
X137139362Y-85219139D01*
X137074726Y-85073684D01*
X137003396Y-84911851D01*
X136924440Y-84731580D01*
X136836923Y-84530811D01*
X136798439Y-84442300D01*
X136718401Y-84258084D01*
X136647872Y-84095697D01*
X136586239Y-83953669D01*
X136532886Y-83830533D01*
X136487201Y-83724820D01*
X136448570Y-83635062D01*
X136416377Y-83559792D01*
X136390011Y-83497542D01*
X136368856Y-83446842D01*
X136352299Y-83406226D01*
X136339726Y-83374225D01*
X136330523Y-83349371D01*
X136324077Y-83330197D01*
X136320196Y-83316705D01*
X136888660Y-83316705D01*
X136891311Y-83331782D01*
X136904226Y-83369462D01*
X136927188Y-83429214D01*
X136959977Y-83510505D01*
X137002374Y-83612805D01*
X137054160Y-83735579D01*
X137115118Y-83878298D01*
X137185027Y-84040427D01*
X137209431Y-84096730D01*
X137300574Y-84306520D01*
X137382695Y-84494959D01*
X137456711Y-84664071D01*
X137523536Y-84815882D01*
X137584086Y-84952416D01*
X137639277Y-85075697D01*
X137690025Y-85187749D01*
X137737244Y-85290598D01*
X137781851Y-85386267D01*
X137824761Y-85476782D01*
X137866891Y-85564166D01*
X137909154Y-85650445D01*
X137942746Y-85718164D01*
X138004147Y-85839170D01*
X138056825Y-85938075D01*
X138101677Y-86016285D01*
X138139596Y-86075207D01*
X138171480Y-86116247D01*
X138198224Y-86140812D01*
X138217557Y-86149784D01*
X138252953Y-86157646D01*
X138271250Y-86161924D01*
X138298012Y-86164646D01*
X138338989Y-86164979D01*
X138366946Y-86163870D01*
X138399307Y-86160060D01*
X138434169Y-86151333D01*
X138476159Y-86135936D01*
X138529905Y-86112117D01*
X138600036Y-86078123D01*
X138620946Y-86067692D01*
X138716117Y-86019253D01*
X138791928Y-85978622D01*
X138852253Y-85943339D01*
X138900965Y-85910944D01*
X138941936Y-85878978D01*
X138979039Y-85844980D01*
X138991820Y-85832155D01*
X139021210Y-85799439D01*
X139045916Y-85764883D01*
X139066324Y-85726061D01*
X139082822Y-85680549D01*
X139095797Y-85625922D01*
X139105636Y-85559754D01*
X139112726Y-85479622D01*
X139117454Y-85383101D01*
X139120208Y-85267765D01*
X139121373Y-85131191D01*
X139121450Y-85020150D01*
X139120882Y-84876609D01*
X139119470Y-84750502D01*
X139116939Y-84636160D01*
X139113019Y-84527916D01*
X139107435Y-84420103D01*
X139099917Y-84307053D01*
X139090189Y-84183099D01*
X139077981Y-84042572D01*
X139070436Y-83959700D01*
X139051850Y-83783061D01*
X139026779Y-83584927D01*
X138995695Y-83368233D01*
X138959071Y-83135913D01*
X138917380Y-82890899D01*
X138871095Y-82636127D01*
X138820688Y-82374530D01*
X138792132Y-82232500D01*
X138774530Y-82147293D01*
X138759667Y-82083055D01*
X138745101Y-82035891D01*
X138728393Y-82001904D01*
X138707100Y-81977197D01*
X138678783Y-81957873D01*
X138640999Y-81940036D01*
X138597910Y-81922447D01*
X138505909Y-81885444D01*
X138477479Y-81911358D01*
X138463696Y-81923629D01*
X138432331Y-81951371D01*
X138384871Y-81993274D01*
X138322801Y-82048028D01*
X138247608Y-82114323D01*
X138160778Y-82190849D01*
X138063797Y-82276297D01*
X137958150Y-82369356D01*
X137845324Y-82468717D01*
X137726805Y-82573071D01*
X137674350Y-82619250D01*
X137554302Y-82725000D01*
X137439680Y-82826105D01*
X137331929Y-82921284D01*
X137232494Y-83009254D01*
X137142818Y-83088734D01*
X137064346Y-83158440D01*
X136998523Y-83217092D01*
X136946792Y-83263406D01*
X136910599Y-83296100D01*
X136891387Y-83313893D01*
X136888660Y-83316705D01*
X136320196Y-83316705D01*
X136319772Y-83315233D01*
X136316996Y-83303013D01*
X136315134Y-83292067D01*
X136313960Y-83283750D01*
X136315584Y-83206854D01*
X136341835Y-83135392D01*
X136374877Y-83089096D01*
X136394591Y-83069143D01*
X136431359Y-83034485D01*
X136483597Y-82986513D01*
X136549719Y-82926615D01*
X136628138Y-82856181D01*
X136717268Y-82776600D01*
X136815524Y-82689261D01*
X136921320Y-82595554D01*
X137033069Y-82496867D01*
X137149186Y-82394590D01*
X137268086Y-82290112D01*
X137388181Y-82184823D01*
X137507886Y-82080112D01*
X137625616Y-81977367D01*
X137739784Y-81877979D01*
X137848804Y-81783337D01*
X137951091Y-81694829D01*
X138045058Y-81613845D01*
X138129120Y-81541774D01*
X138201691Y-81480006D01*
X138261184Y-81429930D01*
X138306014Y-81392935D01*
X138334596Y-81370410D01*
X138344271Y-81363910D01*
X138394438Y-81346484D01*
X138446221Y-81340135D01*
X138504432Y-81345374D01*
X138573882Y-81362712D01*
X138659381Y-81392661D01*
X138676174Y-81399166D01*
X138808058Y-81453942D01*
X138917329Y-81506554D01*
X139006486Y-81558670D01*
X139078026Y-81611955D01*
X139134448Y-81668076D01*
X139178248Y-81728698D01*
X139183461Y-81737544D01*
X139198741Y-81767589D01*
X139213902Y-81805161D01*
X139229475Y-81852430D01*
X139245993Y-81911565D01*
X139263985Y-81984737D01*
X139283985Y-82074116D01*
X139306522Y-82181873D01*
X139332129Y-82310178D01*
X139361336Y-82461200D01*
X139363743Y-82473800D01*
X139413419Y-82739969D01*
X139456767Y-82985943D01*
X139494305Y-83215988D01*
X139526550Y-83434368D01*
X139554020Y-83645348D01*
X139577233Y-83853194D01*
X139596707Y-84062171D01*
X139612960Y-84276543D01*
X139626509Y-84500577D01*
X139637426Y-84728050D01*
X139644462Y-84966102D01*
X139644343Y-85183328D01*
X139637121Y-85379149D01*
X139622847Y-85552985D01*
X139601574Y-85704257D01*
X139573353Y-85832386D01*
X139538235Y-85936791D01*
X139527181Y-85961678D01*
X139501745Y-86008580D01*
X139467540Y-86062917D01*
X139433235Y-86111215D01*
X139372612Y-86190309D01*
X140015731Y-86213088D01*
X140160983Y-86218286D01*
X140325843Y-86224274D01*
X140504538Y-86230840D01*
X140691296Y-86237767D01*
X140880343Y-86244842D01*
X141065907Y-86251847D01*
X141242216Y-86258570D01*
X141395450Y-86264481D01*
X141567483Y-86271183D01*
X141715854Y-86276972D01*
X141842282Y-86281868D01*
X141948488Y-86285890D01*
X142036191Y-86289057D01*
X142107113Y-86291388D01*
X142162973Y-86292903D01*
X142205492Y-86293621D01*
X142236389Y-86293561D01*
X142257385Y-86292742D01*
X142270199Y-86291183D01*
X142276554Y-86288904D01*
X142278167Y-86285924D01*
X142276760Y-86282262D01*
X142274053Y-86277938D01*
X142272206Y-86274275D01*
X142266698Y-86258934D01*
X142253474Y-86221546D01*
X142233209Y-86164037D01*
X142206581Y-86088333D01*
X142174265Y-85996360D01*
X142136938Y-85890044D01*
X142095277Y-85771311D01*
X142049958Y-85642086D01*
X142001658Y-85504298D01*
X141952167Y-85363050D01*
X141848303Y-85066838D01*
X141751825Y-84792261D01*
X141662822Y-84539570D01*
X141581384Y-84309019D01*
X141507600Y-84100858D01*
X141441561Y-83915341D01*
X141383356Y-83752719D01*
X141333074Y-83613244D01*
X141290806Y-83497169D01*
X141256640Y-83404746D01*
X141242878Y-83368154D01*
X141202680Y-83265726D01*
X141153671Y-83146927D01*
X141097101Y-83014397D01*
X141034214Y-82870781D01*
X140966259Y-82718719D01*
X140894483Y-82560854D01*
X140820132Y-82399828D01*
X140744453Y-82238284D01*
X140668694Y-82078864D01*
X140594102Y-81924210D01*
X140521923Y-81776964D01*
X140453405Y-81639768D01*
X140389794Y-81515266D01*
X140332339Y-81406098D01*
X140282285Y-81314908D01*
X140240879Y-81244337D01*
X140239371Y-81241900D01*
X140184848Y-81157528D01*
X140134785Y-81090156D01*
X140085360Y-81037910D01*
X140032750Y-80998916D01*
X139973134Y-80971300D01*
X139902690Y-80953190D01*
X139817597Y-80942711D01*
X139714032Y-80937990D01*
X139617611Y-80937100D01*
X139540295Y-80936889D01*
X139483440Y-80935858D01*
X139442105Y-80933405D01*
X139411351Y-80928928D01*
X139386240Y-80921826D01*
X139361830Y-80911498D01*
X139346709Y-80904122D01*
X139281797Y-80859101D01*
X139237575Y-80799536D01*
X139214696Y-80726486D01*
X139214676Y-80726217D01*
X140506683Y-80726217D01*
X140524408Y-80752493D01*
X140527613Y-80756041D01*
X140569391Y-80807813D01*
X140619988Y-80882121D01*
X140678857Y-80977891D01*
X140745449Y-81094051D01*
X140819216Y-81229526D01*
X140899609Y-81383244D01*
X140986080Y-81554130D01*
X141078081Y-81741112D01*
X141175062Y-81943117D01*
X141276476Y-82159070D01*
X141381774Y-82387899D01*
X141490408Y-82628530D01*
X141531831Y-82721450D01*
X141556779Y-82778032D01*
X141581360Y-82834792D01*
X141606010Y-82892922D01*
X141631163Y-82953614D01*
X141657253Y-83018059D01*
X141684717Y-83087449D01*
X141713987Y-83162977D01*
X141745499Y-83245833D01*
X141779688Y-83337210D01*
X141816988Y-83438300D01*
X141857834Y-83550293D01*
X141902661Y-83674383D01*
X141951903Y-83811760D01*
X142005995Y-83963618D01*
X142065373Y-84131146D01*
X142130469Y-84315538D01*
X142201720Y-84517985D01*
X142279560Y-84739679D01*
X142364423Y-84981811D01*
X142456745Y-85245574D01*
X142555558Y-85528150D01*
X142600764Y-85657461D01*
X142638326Y-85764833D01*
X142668980Y-85852307D01*
X142693461Y-85921922D01*
X142712506Y-85975716D01*
X142726852Y-86015728D01*
X142737234Y-86044000D01*
X142744389Y-86062568D01*
X142749053Y-86073474D01*
X142751962Y-86078755D01*
X142753853Y-86080452D01*
X142755007Y-86080600D01*
X142763935Y-86071375D01*
X142788648Y-86044580D01*
X142827953Y-86001536D01*
X142880656Y-85943563D01*
X142945561Y-85871979D01*
X143021474Y-85788106D01*
X143107200Y-85693263D01*
X143201546Y-85588770D01*
X143303316Y-85475946D01*
X143411316Y-85356113D01*
X143524351Y-85230590D01*
X143539441Y-85213825D01*
X143743433Y-84987044D01*
X143930714Y-84778549D01*
X144101700Y-84587869D01*
X144256807Y-84414531D01*
X144396449Y-84258062D01*
X144521043Y-84117992D01*
X144631004Y-83993848D01*
X144726747Y-83885158D01*
X144808687Y-83791451D01*
X144877241Y-83712253D01*
X144932823Y-83647095D01*
X144975850Y-83595502D01*
X145006736Y-83557004D01*
X145025897Y-83531128D01*
X145033749Y-83517402D01*
X145034000Y-83515992D01*
X145027745Y-83502808D01*
X145009610Y-83469331D01*
X144980541Y-83417193D01*
X144941482Y-83348025D01*
X144893377Y-83263458D01*
X144837172Y-83165125D01*
X144773811Y-83054657D01*
X144704239Y-82933685D01*
X144629401Y-82803841D01*
X144550241Y-82666757D01*
X144467705Y-82524065D01*
X144382736Y-82377395D01*
X144296280Y-82228380D01*
X144209282Y-82078652D01*
X144122686Y-81929841D01*
X144037438Y-81783579D01*
X143954481Y-81641499D01*
X143874760Y-81505231D01*
X143799221Y-81376408D01*
X143728809Y-81256660D01*
X143664467Y-81147620D01*
X143607140Y-81050920D01*
X143588526Y-81019650D01*
X143514637Y-80896485D01*
X143439237Y-80772291D01*
X143363547Y-80648973D01*
X143288789Y-80528434D01*
X143216184Y-80412580D01*
X143146954Y-80303317D01*
X143082320Y-80202548D01*
X143023504Y-80112180D01*
X142971728Y-80034117D01*
X142928213Y-79970263D01*
X142894181Y-79922525D01*
X142870853Y-79892807D01*
X142859646Y-79883000D01*
X142830190Y-79886282D01*
X142783547Y-79894980D01*
X142726905Y-79907368D01*
X142667455Y-79921724D01*
X142612385Y-79936321D01*
X142568883Y-79949437D01*
X142546347Y-79958145D01*
X142494048Y-79982566D01*
X142420129Y-80014195D01*
X142327041Y-80052127D01*
X142217234Y-80095460D01*
X142093159Y-80143289D01*
X141957266Y-80194711D01*
X141812005Y-80248822D01*
X141659827Y-80304719D01*
X141503182Y-80361496D01*
X141344521Y-80418252D01*
X141186294Y-80474082D01*
X141030952Y-80528082D01*
X140880944Y-80579349D01*
X140738721Y-80626978D01*
X140684250Y-80644911D01*
X140622894Y-80665497D01*
X140570042Y-80684164D01*
X140530518Y-80699141D01*
X140509142Y-80708654D01*
X140507168Y-80709999D01*
X140506683Y-80726217D01*
X139214676Y-80726217D01*
X139211449Y-80683598D01*
X139220194Y-80607931D01*
X139236450Y-80566686D01*
X139252044Y-80544884D01*
X139282637Y-80507896D01*
X139325534Y-80458764D01*
X139378041Y-80400526D01*
X139437466Y-80336222D01*
X139489623Y-80280936D01*
X139590967Y-80173442D01*
X139675675Y-80081058D01*
X139745612Y-80001493D01*
X139802646Y-79932458D01*
X139848645Y-79871662D01*
X139885476Y-79816816D01*
X139915007Y-79765629D01*
X139923780Y-79748523D01*
X139968537Y-79658497D01*
X139935066Y-79456423D01*
X139893325Y-79207163D01*
X139854531Y-78981549D01*
X139818338Y-78778043D01*
X139784399Y-78595106D01*
X139752367Y-78431198D01*
X139721895Y-78284781D01*
X139692636Y-78154317D01*
X139664244Y-78038265D01*
X139636371Y-77935088D01*
X139608671Y-77843246D01*
X139580797Y-77761200D01*
X139552403Y-77687412D01*
X139523141Y-77620342D01*
X139519519Y-77612597D01*
X139493910Y-77564106D01*
X139469056Y-77532712D01*
X139438846Y-77511056D01*
X139432323Y-77507601D01*
X139389339Y-77488831D01*
X139336617Y-77471696D01*
X139329700Y-77470000D01*
X140022788Y-77470000D01*
X140029373Y-77488909D01*
X140042603Y-77526321D01*
X140060556Y-77576824D01*
X140081315Y-77635006D01*
X140081348Y-77635100D01*
X140112606Y-77728682D01*
X140143433Y-77833832D01*
X140174364Y-77952841D01*
X140205937Y-78088001D01*
X140238689Y-78241606D01*
X140273154Y-78415947D01*
X140308660Y-78606650D01*
X140343191Y-78797741D01*
X140373094Y-78965418D01*
X140398611Y-79111197D01*
X140419983Y-79236592D01*
X140437451Y-79343119D01*
X140451257Y-79432294D01*
X140461642Y-79505631D01*
X140468846Y-79564645D01*
X140473112Y-79610852D01*
X140474681Y-79645767D01*
X140474700Y-79649357D01*
X140465186Y-79756515D01*
X140435988Y-79866030D01*
X140386115Y-79980539D01*
X140314579Y-80102678D01*
X140291933Y-80136559D01*
X140261897Y-80180595D01*
X140236788Y-80217678D01*
X140220494Y-80242055D01*
X140217161Y-80247206D01*
X140225908Y-80247740D01*
X140257221Y-80240095D01*
X140309773Y-80224709D01*
X140382237Y-80202019D01*
X140473286Y-80172465D01*
X140581591Y-80136483D01*
X140705827Y-80094512D01*
X140844665Y-80046991D01*
X140996779Y-79994356D01*
X141160841Y-79937048D01*
X141224000Y-79914854D01*
X141473328Y-79826009D01*
X141698920Y-79743327D01*
X141900675Y-79666849D01*
X142078494Y-79596617D01*
X142232279Y-79532671D01*
X142361930Y-79475054D01*
X142467348Y-79423807D01*
X142548435Y-79378972D01*
X142605090Y-79340590D01*
X142614805Y-79332548D01*
X142635263Y-79313507D01*
X142649757Y-79294626D01*
X142660501Y-79270200D01*
X142669709Y-79234521D01*
X142679597Y-79181885D01*
X142684587Y-79152750D01*
X142693681Y-79090768D01*
X142703917Y-79006323D01*
X142715024Y-78902313D01*
X142726731Y-78781635D01*
X142738766Y-78647187D01*
X142750860Y-78501867D01*
X142762742Y-78348572D01*
X142773001Y-78206600D01*
X142784455Y-77970886D01*
X142784552Y-77755598D01*
X142773326Y-77561323D01*
X142750813Y-77388644D01*
X142717046Y-77238148D01*
X142715672Y-77233330D01*
X142682773Y-77136152D01*
X142638172Y-77029459D01*
X142585081Y-76919297D01*
X142526714Y-76811716D01*
X142466284Y-76712762D01*
X142407005Y-76628484D01*
X142371304Y-76585209D01*
X142335250Y-76544969D01*
X141175837Y-76997959D01*
X140976293Y-77076011D01*
X140799341Y-77145426D01*
X140643860Y-77206663D01*
X140508728Y-77260183D01*
X140392820Y-77306445D01*
X140295016Y-77345908D01*
X140214192Y-77379031D01*
X140149227Y-77406276D01*
X140098997Y-77428100D01*
X140062381Y-77444963D01*
X140038256Y-77457326D01*
X140025498Y-77465646D01*
X140022788Y-77470000D01*
X139329700Y-77470000D01*
X139273254Y-77456162D01*
X139198347Y-77442197D01*
X139110996Y-77429769D01*
X139010297Y-77418844D01*
X138895350Y-77409390D01*
X138765250Y-77401375D01*
X138619098Y-77394766D01*
X138455990Y-77389531D01*
X138275025Y-77385636D01*
X138075300Y-77383050D01*
X137855913Y-77381739D01*
X137615963Y-77381671D01*
X137354547Y-77382813D01*
X137070763Y-77385133D01*
X136763709Y-77388599D01*
X136432484Y-77393177D01*
X136315450Y-77394962D01*
X136166545Y-77397323D01*
X136025224Y-77399645D01*
X135893513Y-77401889D01*
X135773440Y-77404017D01*
X135667032Y-77405991D01*
X135576317Y-77407771D01*
X135503322Y-77409321D01*
X135450074Y-77410600D01*
X135418600Y-77411572D01*
X135410467Y-77412095D01*
X135410136Y-77424943D01*
X135410038Y-77461545D01*
X134899406Y-77461545D01*
X134899400Y-77428396D01*
X134800975Y-77437158D01*
X134519431Y-77469895D01*
X134256338Y-77516972D01*
X134008379Y-77579639D01*
X133772239Y-77659144D01*
X133544601Y-77756737D01*
X133322150Y-77873667D01*
X133101569Y-78011183D01*
X132904854Y-78151358D01*
X132692034Y-78320507D01*
X132499241Y-78493478D01*
X132322019Y-78675009D01*
X132155912Y-78869840D01*
X131996465Y-79082709D01*
X131909524Y-79209900D01*
X131829715Y-79332328D01*
X131762644Y-79440285D01*
X131705234Y-79539172D01*
X131654405Y-79634392D01*
X131607080Y-79731348D01*
X131584823Y-79779828D01*
X131473942Y-80040343D01*
X131380972Y-80292105D01*
X131304574Y-80540537D01*
X131243412Y-80791063D01*
X131196148Y-81049106D01*
X131161443Y-81320088D01*
X131139460Y-81585464D01*
X131131901Y-81872417D01*
X130622605Y-81872417D01*
X130621296Y-81751183D01*
X130625613Y-81568614D01*
X130636935Y-81389407D01*
X130655835Y-81203926D01*
X130677636Y-81038700D01*
X130694469Y-80926803D01*
X130712355Y-80820547D01*
X130732037Y-80717258D01*
X130754264Y-80614260D01*
X130779780Y-80508877D01*
X130809333Y-80398433D01*
X130843668Y-80280253D01*
X130883532Y-80151661D01*
X130929671Y-80009982D01*
X130982832Y-79852541D01*
X131043760Y-79676661D01*
X131109785Y-79489300D01*
X131172092Y-79313821D01*
X131227028Y-79159972D01*
X131275608Y-79025406D01*
X131318850Y-78907778D01*
X131357773Y-78804742D01*
X131393392Y-78713953D01*
X131426725Y-78633065D01*
X131458790Y-78559732D01*
X131490603Y-78491609D01*
X131523182Y-78426350D01*
X131557544Y-78361611D01*
X131594706Y-78295044D01*
X131635686Y-78224305D01*
X131681501Y-78147048D01*
X131719100Y-78084326D01*
X131821524Y-77914697D01*
X131887904Y-77806190D01*
X132499100Y-77806190D01*
X132508234Y-77802378D01*
X132532508Y-77785936D01*
X132567230Y-77760103D01*
X132578475Y-77751402D01*
X132623659Y-77717249D01*
X132681173Y-77675334D01*
X132742228Y-77632007D01*
X132778500Y-77606882D01*
X132936609Y-77504750D01*
X133106252Y-77406211D01*
X133281725Y-77314087D01*
X133457323Y-77231202D01*
X133627340Y-77160376D01*
X133786073Y-77104433D01*
X133807631Y-77097779D01*
X133910624Y-77067768D01*
X134009330Y-77041688D01*
X134107972Y-77018763D01*
X134210772Y-76998212D01*
X134321951Y-76979259D01*
X134445733Y-76961124D01*
X134586339Y-76943030D01*
X134747992Y-76924199D01*
X134751482Y-76923808D01*
X134843071Y-76913424D01*
X134927395Y-76903617D01*
X135000847Y-76894826D01*
X135059819Y-76887491D01*
X135100703Y-76882051D01*
X135119782Y-76878971D01*
X135148508Y-76877285D01*
X135189174Y-76880793D01*
X135207230Y-76883741D01*
X135230494Y-76885509D01*
X135277967Y-76886732D01*
X135348465Y-76887415D01*
X135440804Y-76887566D01*
X135553799Y-76887191D01*
X135686266Y-76886296D01*
X135837020Y-76884888D01*
X136004877Y-76882974D01*
X136188652Y-76880560D01*
X136387162Y-76877653D01*
X136432780Y-76876947D01*
X136766930Y-76872162D01*
X137076616Y-76868652D01*
X137362744Y-76866419D01*
X137626219Y-76865467D01*
X137867944Y-76865801D01*
X138088826Y-76867422D01*
X138289769Y-76870337D01*
X138471677Y-76874546D01*
X138635457Y-76880056D01*
X138772900Y-76886381D01*
X138923319Y-76895249D01*
X139052174Y-76905017D01*
X139163296Y-76916251D01*
X139260518Y-76929518D01*
X139347672Y-76945383D01*
X139428593Y-76964412D01*
X139507111Y-76987172D01*
X139549421Y-77001062D01*
X139659192Y-77038415D01*
X140425721Y-76739023D01*
X140562181Y-76685730D01*
X140694649Y-76634006D01*
X140820725Y-76584788D01*
X140938005Y-76539014D01*
X141044088Y-76497621D01*
X141136572Y-76461546D01*
X141213056Y-76431726D01*
X141271136Y-76409098D01*
X141308411Y-76394600D01*
X141312900Y-76392859D01*
X141433550Y-76346086D01*
X141331950Y-76337616D01*
X141294681Y-76335170D01*
X141235881Y-76332145D01*
X141159408Y-76328700D01*
X141069120Y-76324997D01*
X140968875Y-76321196D01*
X140862531Y-76317458D01*
X140792200Y-76315145D01*
X140664861Y-76311076D01*
X140524178Y-76306581D01*
X140377717Y-76301901D01*
X140233043Y-76297278D01*
X140097723Y-76292955D01*
X139979323Y-76289172D01*
X139966700Y-76288769D01*
X139873863Y-76285860D01*
X139760152Y-76282391D01*
X139630080Y-76278494D01*
X139488164Y-76274303D01*
X139338919Y-76269948D01*
X139186860Y-76265564D01*
X139036502Y-76261283D01*
X138906250Y-76257624D01*
X138707416Y-76252077D01*
X138531941Y-76247175D01*
X138377791Y-76242860D01*
X138242935Y-76239075D01*
X138125339Y-76235759D01*
X138022973Y-76232857D01*
X137933802Y-76230309D01*
X137855796Y-76228057D01*
X137786921Y-76226043D01*
X137725146Y-76224209D01*
X137668438Y-76222497D01*
X137614764Y-76220848D01*
X137562094Y-76219204D01*
X137541000Y-76218540D01*
X137401552Y-76214262D01*
X137251509Y-76209883D01*
X137093625Y-76205467D01*
X136930657Y-76201079D01*
X136765358Y-76196785D01*
X136600485Y-76192651D01*
X136438792Y-76188741D01*
X136283035Y-76185121D01*
X136135970Y-76181855D01*
X136000351Y-76179010D01*
X135878934Y-76176651D01*
X135774474Y-76174843D01*
X135689726Y-76173651D01*
X135627447Y-76173140D01*
X135624474Y-76173132D01*
X135532460Y-76173226D01*
X135458330Y-76174348D01*
X135395035Y-76177099D01*
X135335527Y-76182084D01*
X135272758Y-76189903D01*
X135199679Y-76201160D01*
X135109243Y-76216456D01*
X135101142Y-76217856D01*
X135007116Y-76234660D01*
X134927599Y-76250441D01*
X134855708Y-76266987D01*
X134784565Y-76286089D01*
X134707288Y-76309535D01*
X134616997Y-76339115D01*
X134557707Y-76359189D01*
X134296743Y-76453006D01*
X134056111Y-76549872D01*
X133830756Y-76652058D01*
X133615620Y-76761835D01*
X133438900Y-76861697D01*
X133224194Y-77002907D01*
X133026164Y-77163272D01*
X132844936Y-77342680D01*
X132725629Y-77482700D01*
X132686028Y-77533811D01*
X132644188Y-77589856D01*
X132602915Y-77646825D01*
X132565018Y-77700707D01*
X132533304Y-77747492D01*
X132510583Y-77783171D01*
X132499661Y-77803734D01*
X132499100Y-77806190D01*
X131887904Y-77806190D01*
X131913075Y-77765046D01*
X131995292Y-77633187D01*
X132069711Y-77516937D01*
X132137870Y-77414110D01*
X132201305Y-77322522D01*
X132261554Y-77239988D01*
X132320154Y-77164323D01*
X132378642Y-77093342D01*
X132438554Y-77024861D01*
X132501430Y-76956695D01*
X132543280Y-76912902D01*
X132660843Y-76797442D01*
X132781565Y-76691917D01*
X132910083Y-76592901D01*
X133051030Y-76496962D01*
X133209043Y-76400672D01*
X133321917Y-76336923D01*
X133474756Y-76254940D01*
X133621601Y-76180982D01*
X133767736Y-76112763D01*
X133918445Y-76047994D01*
X134079014Y-75984390D01*
X134254725Y-75919665D01*
X134416771Y-75863138D01*
X134520291Y-75828318D01*
X134607439Y-75800596D01*
X134685583Y-75778032D01*
X134762089Y-75758690D01*
X134844325Y-75740633D01*
X134939659Y-75721924D01*
X134988271Y-75712873D01*
X135274050Y-75660250D01*
X135712200Y-75662281D01*
D14*
X166999200Y-105430000D02*
X166999200Y-106430000D01*
X165639200Y-106430000D02*
X165639200Y-105430000D01*
X169132800Y-105430000D02*
X169132800Y-106430000D01*
X167772800Y-106430000D02*
X167772800Y-105430000D01*
D11*
X168038095Y-111502380D02*
X168038095Y-112311904D01*
X168085714Y-112407142D01*
X168133333Y-112454761D01*
X168228571Y-112502380D01*
X168419047Y-112502380D01*
X168514285Y-112454761D01*
X168561904Y-112407142D01*
X168609523Y-112311904D01*
X168609523Y-111502380D01*
X168990476Y-111502380D02*
X169609523Y-111502380D01*
X169276190Y-111883333D01*
X169419047Y-111883333D01*
X169514285Y-111930952D01*
X169561904Y-111978571D01*
X169609523Y-112073809D01*
X169609523Y-112311904D01*
X169561904Y-112407142D01*
X169514285Y-112454761D01*
X169419047Y-112502380D01*
X169133333Y-112502380D01*
X169038095Y-112454761D01*
X168990476Y-112407142D01*
X142988095Y-108702380D02*
X142988095Y-109511904D01*
X143035714Y-109607142D01*
X143083333Y-109654761D01*
X143178571Y-109702380D01*
X143369047Y-109702380D01*
X143464285Y-109654761D01*
X143511904Y-109607142D01*
X143559523Y-109511904D01*
X143559523Y-108702380D01*
X144559523Y-109702380D02*
X143988095Y-109702380D01*
X144273809Y-109702380D02*
X144273809Y-108702380D01*
X144178571Y-108845238D01*
X144083333Y-108940476D01*
X143988095Y-108988095D01*
X157964285Y-71902380D02*
X158535714Y-71902380D01*
X158250000Y-72902380D02*
X158250000Y-71902380D01*
X158869047Y-72902380D02*
X158869047Y-71902380D01*
X158869047Y-72378571D02*
X159440476Y-72378571D01*
X159440476Y-72902380D02*
X159440476Y-71902380D01*
X159869047Y-71997619D02*
X159916666Y-71950000D01*
X160011904Y-71902380D01*
X160250000Y-71902380D01*
X160345238Y-71950000D01*
X160392857Y-71997619D01*
X160440476Y-72092857D01*
X160440476Y-72188095D01*
X160392857Y-72330952D01*
X159821428Y-72902380D01*
X160440476Y-72902380D01*
X167751542Y-114552380D02*
X167418209Y-114076190D01*
X167180114Y-114552380D02*
X167180114Y-113552380D01*
X167561066Y-113552380D01*
X167656304Y-113600000D01*
X167703923Y-113647619D01*
X167751542Y-113742857D01*
X167751542Y-113885714D01*
X167703923Y-113980952D01*
X167656304Y-114028571D01*
X167561066Y-114076190D01*
X167180114Y-114076190D01*
X168703923Y-114552380D02*
X168132495Y-114552380D01*
X168418209Y-114552380D02*
X168418209Y-113552380D01*
X168322971Y-113695238D01*
X168227733Y-113790476D01*
X168132495Y-113838095D01*
X169322971Y-113552380D02*
X169418209Y-113552380D01*
X169513447Y-113600000D01*
X169561066Y-113647619D01*
X169608685Y-113742857D01*
X169656304Y-113933333D01*
X169656304Y-114171428D01*
X169608685Y-114361904D01*
X169561066Y-114457142D01*
X169513447Y-114504761D01*
X169418209Y-114552380D01*
X169322971Y-114552380D01*
X169227733Y-114504761D01*
X169180114Y-114457142D01*
X169132495Y-114361904D01*
X169084876Y-114171428D01*
X169084876Y-113933333D01*
X169132495Y-113742857D01*
X169180114Y-113647619D01*
X169227733Y-113600000D01*
X169322971Y-113552380D01*
X176283333Y-112152380D02*
X175950000Y-111676190D01*
X175711904Y-112152380D02*
X175711904Y-111152380D01*
X176092857Y-111152380D01*
X176188095Y-111200000D01*
X176235714Y-111247619D01*
X176283333Y-111342857D01*
X176283333Y-111485714D01*
X176235714Y-111580952D01*
X176188095Y-111628571D01*
X176092857Y-111676190D01*
X175711904Y-111676190D01*
X176759523Y-112152380D02*
X176950000Y-112152380D01*
X177045238Y-112104761D01*
X177092857Y-112057142D01*
X177188095Y-111914285D01*
X177235714Y-111723809D01*
X177235714Y-111342857D01*
X177188095Y-111247619D01*
X177140476Y-111200000D01*
X177045238Y-111152380D01*
X176854761Y-111152380D01*
X176759523Y-111200000D01*
X176711904Y-111247619D01*
X176664285Y-111342857D01*
X176664285Y-111580952D01*
X176711904Y-111676190D01*
X176759523Y-111723809D01*
X176854761Y-111771428D01*
X177045238Y-111771428D01*
X177140476Y-111723809D01*
X177188095Y-111676190D01*
X177235714Y-111580952D01*
X170433333Y-104302380D02*
X170100000Y-103826190D01*
X169861904Y-104302380D02*
X169861904Y-103302380D01*
X170242857Y-103302380D01*
X170338095Y-103350000D01*
X170385714Y-103397619D01*
X170433333Y-103492857D01*
X170433333Y-103635714D01*
X170385714Y-103730952D01*
X170338095Y-103778571D01*
X170242857Y-103826190D01*
X169861904Y-103826190D01*
X171004761Y-103730952D02*
X170909523Y-103683333D01*
X170861904Y-103635714D01*
X170814285Y-103540476D01*
X170814285Y-103492857D01*
X170861904Y-103397619D01*
X170909523Y-103350000D01*
X171004761Y-103302380D01*
X171195238Y-103302380D01*
X171290476Y-103350000D01*
X171338095Y-103397619D01*
X171385714Y-103492857D01*
X171385714Y-103540476D01*
X171338095Y-103635714D01*
X171290476Y-103683333D01*
X171195238Y-103730952D01*
X171004761Y-103730952D01*
X170909523Y-103778571D01*
X170861904Y-103826190D01*
X170814285Y-103921428D01*
X170814285Y-104111904D01*
X170861904Y-104207142D01*
X170909523Y-104254761D01*
X171004761Y-104302380D01*
X171195238Y-104302380D01*
X171290476Y-104254761D01*
X171338095Y-104207142D01*
X171385714Y-104111904D01*
X171385714Y-103921428D01*
X171338095Y-103826190D01*
X171290476Y-103778571D01*
X171195238Y-103730952D01*
X174433333Y-106702380D02*
X174100000Y-106226190D01*
X173861904Y-106702380D02*
X173861904Y-105702380D01*
X174242857Y-105702380D01*
X174338095Y-105750000D01*
X174385714Y-105797619D01*
X174433333Y-105892857D01*
X174433333Y-106035714D01*
X174385714Y-106130952D01*
X174338095Y-106178571D01*
X174242857Y-106226190D01*
X173861904Y-106226190D01*
X174766666Y-105702380D02*
X175433333Y-105702380D01*
X175004761Y-106702380D01*
X153507142Y-108007142D02*
X153459523Y-108054761D01*
X153316666Y-108102380D01*
X153221428Y-108102380D01*
X153078571Y-108054761D01*
X152983333Y-107959523D01*
X152935714Y-107864285D01*
X152888095Y-107673809D01*
X152888095Y-107530952D01*
X152935714Y-107340476D01*
X152983333Y-107245238D01*
X153078571Y-107150000D01*
X153221428Y-107102380D01*
X153316666Y-107102380D01*
X153459523Y-107150000D01*
X153507142Y-107197619D01*
X154459523Y-108102380D02*
X153888095Y-108102380D01*
X154173809Y-108102380D02*
X154173809Y-107102380D01*
X154078571Y-107245238D01*
X153983333Y-107340476D01*
X153888095Y-107388095D01*
X154935714Y-108102380D02*
X155126190Y-108102380D01*
X155221428Y-108054761D01*
X155269047Y-108007142D01*
X155364285Y-107864285D01*
X155411904Y-107673809D01*
X155411904Y-107292857D01*
X155364285Y-107197619D01*
X155316666Y-107150000D01*
X155221428Y-107102380D01*
X155030952Y-107102380D01*
X154935714Y-107150000D01*
X154888095Y-107197619D01*
X154840476Y-107292857D01*
X154840476Y-107530952D01*
X154888095Y-107626190D01*
X154935714Y-107673809D01*
X155030952Y-107721428D01*
X155221428Y-107721428D01*
X155316666Y-107673809D01*
X155364285Y-107626190D01*
X155411904Y-107530952D01*
X156457142Y-108107142D02*
X156409523Y-108154761D01*
X156266666Y-108202380D01*
X156171428Y-108202380D01*
X156028571Y-108154761D01*
X155933333Y-108059523D01*
X155885714Y-107964285D01*
X155838095Y-107773809D01*
X155838095Y-107630952D01*
X155885714Y-107440476D01*
X155933333Y-107345238D01*
X156028571Y-107250000D01*
X156171428Y-107202380D01*
X156266666Y-107202380D01*
X156409523Y-107250000D01*
X156457142Y-107297619D01*
X157409523Y-108202380D02*
X156838095Y-108202380D01*
X157123809Y-108202380D02*
X157123809Y-107202380D01*
X157028571Y-107345238D01*
X156933333Y-107440476D01*
X156838095Y-107488095D01*
X157980952Y-107630952D02*
X157885714Y-107583333D01*
X157838095Y-107535714D01*
X157790476Y-107440476D01*
X157790476Y-107392857D01*
X157838095Y-107297619D01*
X157885714Y-107250000D01*
X157980952Y-107202380D01*
X158171428Y-107202380D01*
X158266666Y-107250000D01*
X158314285Y-107297619D01*
X158361904Y-107392857D01*
X158361904Y-107440476D01*
X158314285Y-107535714D01*
X158266666Y-107583333D01*
X158171428Y-107630952D01*
X157980952Y-107630952D01*
X157885714Y-107678571D01*
X157838095Y-107726190D01*
X157790476Y-107821428D01*
X157790476Y-108011904D01*
X157838095Y-108107142D01*
X157885714Y-108154761D01*
X157980952Y-108202380D01*
X158171428Y-108202380D01*
X158266666Y-108154761D01*
X158314285Y-108107142D01*
X158361904Y-108011904D01*
X158361904Y-107821428D01*
X158314285Y-107726190D01*
X158266666Y-107678571D01*
X158171428Y-107630952D01*
X160307142Y-82857142D02*
X160259523Y-82904761D01*
X160116666Y-82952380D01*
X160021428Y-82952380D01*
X159878571Y-82904761D01*
X159783333Y-82809523D01*
X159735714Y-82714285D01*
X159688095Y-82523809D01*
X159688095Y-82380952D01*
X159735714Y-82190476D01*
X159783333Y-82095238D01*
X159878571Y-82000000D01*
X160021428Y-81952380D01*
X160116666Y-81952380D01*
X160259523Y-82000000D01*
X160307142Y-82047619D01*
X161259523Y-82952380D02*
X160688095Y-82952380D01*
X160973809Y-82952380D02*
X160973809Y-81952380D01*
X160878571Y-82095238D01*
X160783333Y-82190476D01*
X160688095Y-82238095D01*
X161592857Y-81952380D02*
X162259523Y-81952380D01*
X161830952Y-82952380D01*
X147407142Y-86357142D02*
X147359523Y-86404761D01*
X147216666Y-86452380D01*
X147121428Y-86452380D01*
X146978571Y-86404761D01*
X146883333Y-86309523D01*
X146835714Y-86214285D01*
X146788095Y-86023809D01*
X146788095Y-85880952D01*
X146835714Y-85690476D01*
X146883333Y-85595238D01*
X146978571Y-85500000D01*
X147121428Y-85452380D01*
X147216666Y-85452380D01*
X147359523Y-85500000D01*
X147407142Y-85547619D01*
X148359523Y-86452380D02*
X147788095Y-86452380D01*
X148073809Y-86452380D02*
X148073809Y-85452380D01*
X147978571Y-85595238D01*
X147883333Y-85690476D01*
X147788095Y-85738095D01*
X149216666Y-85452380D02*
X149026190Y-85452380D01*
X148930952Y-85500000D01*
X148883333Y-85547619D01*
X148788095Y-85690476D01*
X148740476Y-85880952D01*
X148740476Y-86261904D01*
X148788095Y-86357142D01*
X148835714Y-86404761D01*
X148930952Y-86452380D01*
X149121428Y-86452380D01*
X149216666Y-86404761D01*
X149264285Y-86357142D01*
X149311904Y-86261904D01*
X149311904Y-86023809D01*
X149264285Y-85928571D01*
X149216666Y-85880952D01*
X149121428Y-85833333D01*
X148930952Y-85833333D01*
X148835714Y-85880952D01*
X148788095Y-85928571D01*
X148740476Y-86023809D01*
X153839942Y-91307142D02*
X153792323Y-91354761D01*
X153649466Y-91402380D01*
X153554228Y-91402380D01*
X153411371Y-91354761D01*
X153316133Y-91259523D01*
X153268514Y-91164285D01*
X153220895Y-90973809D01*
X153220895Y-90830952D01*
X153268514Y-90640476D01*
X153316133Y-90545238D01*
X153411371Y-90450000D01*
X153554228Y-90402380D01*
X153649466Y-90402380D01*
X153792323Y-90450000D01*
X153839942Y-90497619D01*
X154792323Y-91402380D02*
X154220895Y-91402380D01*
X154506609Y-91402380D02*
X154506609Y-90402380D01*
X154411371Y-90545238D01*
X154316133Y-90640476D01*
X154220895Y-90688095D01*
X155697085Y-90402380D02*
X155220895Y-90402380D01*
X155173276Y-90878571D01*
X155220895Y-90830952D01*
X155316133Y-90783333D01*
X155554228Y-90783333D01*
X155649466Y-90830952D01*
X155697085Y-90878571D01*
X155744704Y-90973809D01*
X155744704Y-91211904D01*
X155697085Y-91307142D01*
X155649466Y-91354761D01*
X155554228Y-91402380D01*
X155316133Y-91402380D01*
X155220895Y-91354761D01*
X155173276Y-91307142D01*
X157407142Y-91307142D02*
X157359523Y-91354761D01*
X157216666Y-91402380D01*
X157121428Y-91402380D01*
X156978571Y-91354761D01*
X156883333Y-91259523D01*
X156835714Y-91164285D01*
X156788095Y-90973809D01*
X156788095Y-90830952D01*
X156835714Y-90640476D01*
X156883333Y-90545238D01*
X156978571Y-90450000D01*
X157121428Y-90402380D01*
X157216666Y-90402380D01*
X157359523Y-90450000D01*
X157407142Y-90497619D01*
X158359523Y-91402380D02*
X157788095Y-91402380D01*
X158073809Y-91402380D02*
X158073809Y-90402380D01*
X157978571Y-90545238D01*
X157883333Y-90640476D01*
X157788095Y-90688095D01*
X159216666Y-90735714D02*
X159216666Y-91402380D01*
X158978571Y-90354761D02*
X158740476Y-91069047D01*
X159359523Y-91069047D01*
X159207142Y-99757142D02*
X159159523Y-99804761D01*
X159016666Y-99852380D01*
X158921428Y-99852380D01*
X158778571Y-99804761D01*
X158683333Y-99709523D01*
X158635714Y-99614285D01*
X158588095Y-99423809D01*
X158588095Y-99280952D01*
X158635714Y-99090476D01*
X158683333Y-98995238D01*
X158778571Y-98900000D01*
X158921428Y-98852380D01*
X159016666Y-98852380D01*
X159159523Y-98900000D01*
X159207142Y-98947619D01*
X160159523Y-99852380D02*
X159588095Y-99852380D01*
X159873809Y-99852380D02*
X159873809Y-98852380D01*
X159778571Y-98995238D01*
X159683333Y-99090476D01*
X159588095Y-99138095D01*
X160492857Y-98852380D02*
X161111904Y-98852380D01*
X160778571Y-99233333D01*
X160921428Y-99233333D01*
X161016666Y-99280952D01*
X161064285Y-99328571D01*
X161111904Y-99423809D01*
X161111904Y-99661904D01*
X161064285Y-99757142D01*
X161016666Y-99804761D01*
X160921428Y-99852380D01*
X160635714Y-99852380D01*
X160540476Y-99804761D01*
X160492857Y-99757142D01*
X151757142Y-100007142D02*
X151709523Y-100054761D01*
X151566666Y-100102380D01*
X151471428Y-100102380D01*
X151328571Y-100054761D01*
X151233333Y-99959523D01*
X151185714Y-99864285D01*
X151138095Y-99673809D01*
X151138095Y-99530952D01*
X151185714Y-99340476D01*
X151233333Y-99245238D01*
X151328571Y-99150000D01*
X151471428Y-99102380D01*
X151566666Y-99102380D01*
X151709523Y-99150000D01*
X151757142Y-99197619D01*
X152709523Y-100102380D02*
X152138095Y-100102380D01*
X152423809Y-100102380D02*
X152423809Y-99102380D01*
X152328571Y-99245238D01*
X152233333Y-99340476D01*
X152138095Y-99388095D01*
X153090476Y-99197619D02*
X153138095Y-99150000D01*
X153233333Y-99102380D01*
X153471428Y-99102380D01*
X153566666Y-99150000D01*
X153614285Y-99197619D01*
X153661904Y-99292857D01*
X153661904Y-99388095D01*
X153614285Y-99530952D01*
X153042857Y-100102380D01*
X153661904Y-100102380D01*
X150774495Y-90866980D02*
X150774495Y-91676504D01*
X150822114Y-91771742D01*
X150869733Y-91819361D01*
X150964971Y-91866980D01*
X151155447Y-91866980D01*
X151250685Y-91819361D01*
X151298304Y-91771742D01*
X151345923Y-91676504D01*
X151345923Y-90866980D01*
X151774495Y-90962219D02*
X151822114Y-90914600D01*
X151917352Y-90866980D01*
X152155447Y-90866980D01*
X152250685Y-90914600D01*
X152298304Y-90962219D01*
X152345923Y-91057457D01*
X152345923Y-91152695D01*
X152298304Y-91295552D01*
X151726876Y-91866980D01*
X152345923Y-91866980D01*
X170157142Y-117557142D02*
X170109523Y-117604761D01*
X169966666Y-117652380D01*
X169871428Y-117652380D01*
X169728571Y-117604761D01*
X169633333Y-117509523D01*
X169585714Y-117414285D01*
X169538095Y-117223809D01*
X169538095Y-117080952D01*
X169585714Y-116890476D01*
X169633333Y-116795238D01*
X169728571Y-116700000D01*
X169871428Y-116652380D01*
X169966666Y-116652380D01*
X170109523Y-116700000D01*
X170157142Y-116747619D01*
X170538095Y-116747619D02*
X170585714Y-116700000D01*
X170680952Y-116652380D01*
X170919047Y-116652380D01*
X171014285Y-116700000D01*
X171061904Y-116747619D01*
X171109523Y-116842857D01*
X171109523Y-116938095D01*
X171061904Y-117080952D01*
X170490476Y-117652380D01*
X171109523Y-117652380D01*
X171680952Y-117080952D02*
X171585714Y-117033333D01*
X171538095Y-116985714D01*
X171490476Y-116890476D01*
X171490476Y-116842857D01*
X171538095Y-116747619D01*
X171585714Y-116700000D01*
X171680952Y-116652380D01*
X171871428Y-116652380D01*
X171966666Y-116700000D01*
X172014285Y-116747619D01*
X172061904Y-116842857D01*
X172061904Y-116890476D01*
X172014285Y-116985714D01*
X171966666Y-117033333D01*
X171871428Y-117080952D01*
X171680952Y-117080952D01*
X171585714Y-117128571D01*
X171538095Y-117176190D01*
X171490476Y-117271428D01*
X171490476Y-117461904D01*
X171538095Y-117557142D01*
X171585714Y-117604761D01*
X171680952Y-117652380D01*
X171871428Y-117652380D01*
X171966666Y-117604761D01*
X172014285Y-117557142D01*
X172061904Y-117461904D01*
X172061904Y-117271428D01*
X172014285Y-117176190D01*
X171966666Y-117128571D01*
X171871428Y-117080952D01*
X152057142Y-111757142D02*
X152009523Y-111804761D01*
X151866666Y-111852380D01*
X151771428Y-111852380D01*
X151628571Y-111804761D01*
X151533333Y-111709523D01*
X151485714Y-111614285D01*
X151438095Y-111423809D01*
X151438095Y-111280952D01*
X151485714Y-111090476D01*
X151533333Y-110995238D01*
X151628571Y-110900000D01*
X151771428Y-110852380D01*
X151866666Y-110852380D01*
X152009523Y-110900000D01*
X152057142Y-110947619D01*
X152438095Y-110947619D02*
X152485714Y-110900000D01*
X152580952Y-110852380D01*
X152819047Y-110852380D01*
X152914285Y-110900000D01*
X152961904Y-110947619D01*
X153009523Y-111042857D01*
X153009523Y-111138095D01*
X152961904Y-111280952D01*
X152390476Y-111852380D01*
X153009523Y-111852380D01*
X153342857Y-110852380D02*
X154009523Y-110852380D01*
X153580952Y-111852380D01*
X158057142Y-111807142D02*
X158009523Y-111854761D01*
X157866666Y-111902380D01*
X157771428Y-111902380D01*
X157628571Y-111854761D01*
X157533333Y-111759523D01*
X157485714Y-111664285D01*
X157438095Y-111473809D01*
X157438095Y-111330952D01*
X157485714Y-111140476D01*
X157533333Y-111045238D01*
X157628571Y-110950000D01*
X157771428Y-110902380D01*
X157866666Y-110902380D01*
X158009523Y-110950000D01*
X158057142Y-110997619D01*
X158438095Y-110997619D02*
X158485714Y-110950000D01*
X158580952Y-110902380D01*
X158819047Y-110902380D01*
X158914285Y-110950000D01*
X158961904Y-110997619D01*
X159009523Y-111092857D01*
X159009523Y-111188095D01*
X158961904Y-111330952D01*
X158390476Y-111902380D01*
X159009523Y-111902380D01*
X159866666Y-110902380D02*
X159676190Y-110902380D01*
X159580952Y-110950000D01*
X159533333Y-110997619D01*
X159438095Y-111140476D01*
X159390476Y-111330952D01*
X159390476Y-111711904D01*
X159438095Y-111807142D01*
X159485714Y-111854761D01*
X159580952Y-111902380D01*
X159771428Y-111902380D01*
X159866666Y-111854761D01*
X159914285Y-111807142D01*
X159961904Y-111711904D01*
X159961904Y-111473809D01*
X159914285Y-111378571D01*
X159866666Y-111330952D01*
X159771428Y-111283333D01*
X159580952Y-111283333D01*
X159485714Y-111330952D01*
X159438095Y-111378571D01*
X159390476Y-111473809D01*
X157357142Y-77657142D02*
X157309523Y-77704761D01*
X157166666Y-77752380D01*
X157071428Y-77752380D01*
X156928571Y-77704761D01*
X156833333Y-77609523D01*
X156785714Y-77514285D01*
X156738095Y-77323809D01*
X156738095Y-77180952D01*
X156785714Y-76990476D01*
X156833333Y-76895238D01*
X156928571Y-76800000D01*
X157071428Y-76752380D01*
X157166666Y-76752380D01*
X157309523Y-76800000D01*
X157357142Y-76847619D01*
X157738095Y-76847619D02*
X157785714Y-76800000D01*
X157880952Y-76752380D01*
X158119047Y-76752380D01*
X158214285Y-76800000D01*
X158261904Y-76847619D01*
X158309523Y-76942857D01*
X158309523Y-77038095D01*
X158261904Y-77180952D01*
X157690476Y-77752380D01*
X158309523Y-77752380D01*
X159214285Y-76752380D02*
X158738095Y-76752380D01*
X158690476Y-77228571D01*
X158738095Y-77180952D01*
X158833333Y-77133333D01*
X159071428Y-77133333D01*
X159166666Y-77180952D01*
X159214285Y-77228571D01*
X159261904Y-77323809D01*
X159261904Y-77561904D01*
X159214285Y-77657142D01*
X159166666Y-77704761D01*
X159071428Y-77752380D01*
X158833333Y-77752380D01*
X158738095Y-77704761D01*
X158690476Y-77657142D01*
X146907142Y-79607142D02*
X146859523Y-79654761D01*
X146716666Y-79702380D01*
X146621428Y-79702380D01*
X146478571Y-79654761D01*
X146383333Y-79559523D01*
X146335714Y-79464285D01*
X146288095Y-79273809D01*
X146288095Y-79130952D01*
X146335714Y-78940476D01*
X146383333Y-78845238D01*
X146478571Y-78750000D01*
X146621428Y-78702380D01*
X146716666Y-78702380D01*
X146859523Y-78750000D01*
X146907142Y-78797619D01*
X147288095Y-78797619D02*
X147335714Y-78750000D01*
X147430952Y-78702380D01*
X147669047Y-78702380D01*
X147764285Y-78750000D01*
X147811904Y-78797619D01*
X147859523Y-78892857D01*
X147859523Y-78988095D01*
X147811904Y-79130952D01*
X147240476Y-79702380D01*
X147859523Y-79702380D01*
X148716666Y-79035714D02*
X148716666Y-79702380D01*
X148478571Y-78654761D02*
X148240476Y-79369047D01*
X148859523Y-79369047D01*
X148307142Y-106557142D02*
X148259523Y-106604761D01*
X148116666Y-106652380D01*
X148021428Y-106652380D01*
X147878571Y-106604761D01*
X147783333Y-106509523D01*
X147735714Y-106414285D01*
X147688095Y-106223809D01*
X147688095Y-106080952D01*
X147735714Y-105890476D01*
X147783333Y-105795238D01*
X147878571Y-105700000D01*
X148021428Y-105652380D01*
X148116666Y-105652380D01*
X148259523Y-105700000D01*
X148307142Y-105747619D01*
X148688095Y-105747619D02*
X148735714Y-105700000D01*
X148830952Y-105652380D01*
X149069047Y-105652380D01*
X149164285Y-105700000D01*
X149211904Y-105747619D01*
X149259523Y-105842857D01*
X149259523Y-105938095D01*
X149211904Y-106080952D01*
X148640476Y-106652380D01*
X149259523Y-106652380D01*
X149592857Y-105652380D02*
X150211904Y-105652380D01*
X149878571Y-106033333D01*
X150021428Y-106033333D01*
X150116666Y-106080952D01*
X150164285Y-106128571D01*
X150211904Y-106223809D01*
X150211904Y-106461904D01*
X150164285Y-106557142D01*
X150116666Y-106604761D01*
X150021428Y-106652380D01*
X149735714Y-106652380D01*
X149640476Y-106604761D01*
X149592857Y-106557142D01*
X161757142Y-106807142D02*
X161709523Y-106854761D01*
X161566666Y-106902380D01*
X161471428Y-106902380D01*
X161328571Y-106854761D01*
X161233333Y-106759523D01*
X161185714Y-106664285D01*
X161138095Y-106473809D01*
X161138095Y-106330952D01*
X161185714Y-106140476D01*
X161233333Y-106045238D01*
X161328571Y-105950000D01*
X161471428Y-105902380D01*
X161566666Y-105902380D01*
X161709523Y-105950000D01*
X161757142Y-105997619D01*
X162138095Y-105997619D02*
X162185714Y-105950000D01*
X162280952Y-105902380D01*
X162519047Y-105902380D01*
X162614285Y-105950000D01*
X162661904Y-105997619D01*
X162709523Y-106092857D01*
X162709523Y-106188095D01*
X162661904Y-106330952D01*
X162090476Y-106902380D01*
X162709523Y-106902380D01*
X163090476Y-105997619D02*
X163138095Y-105950000D01*
X163233333Y-105902380D01*
X163471428Y-105902380D01*
X163566666Y-105950000D01*
X163614285Y-105997619D01*
X163661904Y-106092857D01*
X163661904Y-106188095D01*
X163614285Y-106330952D01*
X163042857Y-106902380D01*
X163661904Y-106902380D01*
X159057142Y-81357142D02*
X159009523Y-81404761D01*
X158866666Y-81452380D01*
X158771428Y-81452380D01*
X158628571Y-81404761D01*
X158533333Y-81309523D01*
X158485714Y-81214285D01*
X158438095Y-81023809D01*
X158438095Y-80880952D01*
X158485714Y-80690476D01*
X158533333Y-80595238D01*
X158628571Y-80500000D01*
X158771428Y-80452380D01*
X158866666Y-80452380D01*
X159009523Y-80500000D01*
X159057142Y-80547619D01*
X159438095Y-80547619D02*
X159485714Y-80500000D01*
X159580952Y-80452380D01*
X159819047Y-80452380D01*
X159914285Y-80500000D01*
X159961904Y-80547619D01*
X160009523Y-80642857D01*
X160009523Y-80738095D01*
X159961904Y-80880952D01*
X159390476Y-81452380D01*
X160009523Y-81452380D01*
X160961904Y-81452380D02*
X160390476Y-81452380D01*
X160676190Y-81452380D02*
X160676190Y-80452380D01*
X160580952Y-80595238D01*
X160485714Y-80690476D01*
X160390476Y-80738095D01*
X147407142Y-84857142D02*
X147359523Y-84904761D01*
X147216666Y-84952380D01*
X147121428Y-84952380D01*
X146978571Y-84904761D01*
X146883333Y-84809523D01*
X146835714Y-84714285D01*
X146788095Y-84523809D01*
X146788095Y-84380952D01*
X146835714Y-84190476D01*
X146883333Y-84095238D01*
X146978571Y-84000000D01*
X147121428Y-83952380D01*
X147216666Y-83952380D01*
X147359523Y-84000000D01*
X147407142Y-84047619D01*
X147788095Y-84047619D02*
X147835714Y-84000000D01*
X147930952Y-83952380D01*
X148169047Y-83952380D01*
X148264285Y-84000000D01*
X148311904Y-84047619D01*
X148359523Y-84142857D01*
X148359523Y-84238095D01*
X148311904Y-84380952D01*
X147740476Y-84952380D01*
X148359523Y-84952380D01*
X148978571Y-83952380D02*
X149073809Y-83952380D01*
X149169047Y-84000000D01*
X149216666Y-84047619D01*
X149264285Y-84142857D01*
X149311904Y-84333333D01*
X149311904Y-84571428D01*
X149264285Y-84761904D01*
X149216666Y-84857142D01*
X149169047Y-84904761D01*
X149073809Y-84952380D01*
X148978571Y-84952380D01*
X148883333Y-84904761D01*
X148835714Y-84857142D01*
X148788095Y-84761904D01*
X148740476Y-84571428D01*
X148740476Y-84333333D01*
X148788095Y-84142857D01*
X148835714Y-84047619D01*
X148883333Y-84000000D01*
X148978571Y-83952380D01*
X153707142Y-86992857D02*
X153754761Y-87040476D01*
X153802380Y-87183333D01*
X153802380Y-87278571D01*
X153754761Y-87421428D01*
X153659523Y-87516666D01*
X153564285Y-87564285D01*
X153373809Y-87611904D01*
X153230952Y-87611904D01*
X153040476Y-87564285D01*
X152945238Y-87516666D01*
X152850000Y-87421428D01*
X152802380Y-87278571D01*
X152802380Y-87183333D01*
X152850000Y-87040476D01*
X152897619Y-86992857D01*
X153802380Y-86040476D02*
X153802380Y-86611904D01*
X153802380Y-86326190D02*
X152802380Y-86326190D01*
X152945238Y-86421428D01*
X153040476Y-86516666D01*
X153088095Y-86611904D01*
X153802380Y-85088095D02*
X153802380Y-85659523D01*
X153802380Y-85373809D02*
X152802380Y-85373809D01*
X152945238Y-85469047D01*
X153040476Y-85564285D01*
X153088095Y-85659523D01*
X160607142Y-90007142D02*
X160559523Y-90054761D01*
X160416666Y-90102380D01*
X160321428Y-90102380D01*
X160178571Y-90054761D01*
X160083333Y-89959523D01*
X160035714Y-89864285D01*
X159988095Y-89673809D01*
X159988095Y-89530952D01*
X160035714Y-89340476D01*
X160083333Y-89245238D01*
X160178571Y-89150000D01*
X160321428Y-89102380D01*
X160416666Y-89102380D01*
X160559523Y-89150000D01*
X160607142Y-89197619D01*
X161559523Y-90102380D02*
X160988095Y-90102380D01*
X161273809Y-90102380D02*
X161273809Y-89102380D01*
X161178571Y-89245238D01*
X161083333Y-89340476D01*
X160988095Y-89388095D01*
X162178571Y-89102380D02*
X162273809Y-89102380D01*
X162369047Y-89150000D01*
X162416666Y-89197619D01*
X162464285Y-89292857D01*
X162511904Y-89483333D01*
X162511904Y-89721428D01*
X162464285Y-89911904D01*
X162416666Y-90007142D01*
X162369047Y-90054761D01*
X162273809Y-90102380D01*
X162178571Y-90102380D01*
X162083333Y-90054761D01*
X162035714Y-90007142D01*
X161988095Y-89911904D01*
X161940476Y-89721428D01*
X161940476Y-89483333D01*
X161988095Y-89292857D01*
X162035714Y-89197619D01*
X162083333Y-89150000D01*
X162178571Y-89102380D01*
X160533333Y-102007142D02*
X160485714Y-102054761D01*
X160342857Y-102102380D01*
X160247619Y-102102380D01*
X160104761Y-102054761D01*
X160009523Y-101959523D01*
X159961904Y-101864285D01*
X159914285Y-101673809D01*
X159914285Y-101530952D01*
X159961904Y-101340476D01*
X160009523Y-101245238D01*
X160104761Y-101150000D01*
X160247619Y-101102380D01*
X160342857Y-101102380D01*
X160485714Y-101150000D01*
X160533333Y-101197619D01*
X161009523Y-102102380D02*
X161200000Y-102102380D01*
X161295238Y-102054761D01*
X161342857Y-102007142D01*
X161438095Y-101864285D01*
X161485714Y-101673809D01*
X161485714Y-101292857D01*
X161438095Y-101197619D01*
X161390476Y-101150000D01*
X161295238Y-101102380D01*
X161104761Y-101102380D01*
X161009523Y-101150000D01*
X160961904Y-101197619D01*
X160914285Y-101292857D01*
X160914285Y-101530952D01*
X160961904Y-101626190D01*
X161009523Y-101673809D01*
X161104761Y-101721428D01*
X161295238Y-101721428D01*
X161390476Y-101673809D01*
X161438095Y-101626190D01*
X161485714Y-101530952D01*
X156433333Y-102807142D02*
X156385714Y-102854761D01*
X156242857Y-102902380D01*
X156147619Y-102902380D01*
X156004761Y-102854761D01*
X155909523Y-102759523D01*
X155861904Y-102664285D01*
X155814285Y-102473809D01*
X155814285Y-102330952D01*
X155861904Y-102140476D01*
X155909523Y-102045238D01*
X156004761Y-101950000D01*
X156147619Y-101902380D01*
X156242857Y-101902380D01*
X156385714Y-101950000D01*
X156433333Y-101997619D01*
X157004761Y-102330952D02*
X156909523Y-102283333D01*
X156861904Y-102235714D01*
X156814285Y-102140476D01*
X156814285Y-102092857D01*
X156861904Y-101997619D01*
X156909523Y-101950000D01*
X157004761Y-101902380D01*
X157195238Y-101902380D01*
X157290476Y-101950000D01*
X157338095Y-101997619D01*
X157385714Y-102092857D01*
X157385714Y-102140476D01*
X157338095Y-102235714D01*
X157290476Y-102283333D01*
X157195238Y-102330952D01*
X157004761Y-102330952D01*
X156909523Y-102378571D01*
X156861904Y-102426190D01*
X156814285Y-102521428D01*
X156814285Y-102711904D01*
X156861904Y-102807142D01*
X156909523Y-102854761D01*
X157004761Y-102902380D01*
X157195238Y-102902380D01*
X157290476Y-102854761D01*
X157338095Y-102807142D01*
X157385714Y-102711904D01*
X157385714Y-102521428D01*
X157338095Y-102426190D01*
X157290476Y-102378571D01*
X157195238Y-102330952D01*
X151983333Y-79657142D02*
X151935714Y-79704761D01*
X151792857Y-79752380D01*
X151697619Y-79752380D01*
X151554761Y-79704761D01*
X151459523Y-79609523D01*
X151411904Y-79514285D01*
X151364285Y-79323809D01*
X151364285Y-79180952D01*
X151411904Y-78990476D01*
X151459523Y-78895238D01*
X151554761Y-78800000D01*
X151697619Y-78752380D01*
X151792857Y-78752380D01*
X151935714Y-78800000D01*
X151983333Y-78847619D01*
X152316666Y-78752380D02*
X152983333Y-78752380D01*
X152554761Y-79752380D01*
X163612533Y-83322342D02*
X163564914Y-83369961D01*
X163422057Y-83417580D01*
X163326819Y-83417580D01*
X163183961Y-83369961D01*
X163088723Y-83274723D01*
X163041104Y-83179485D01*
X162993485Y-82989009D01*
X162993485Y-82846152D01*
X163041104Y-82655676D01*
X163088723Y-82560438D01*
X163183961Y-82465200D01*
X163326819Y-82417580D01*
X163422057Y-82417580D01*
X163564914Y-82465200D01*
X163612533Y-82512819D01*
X164469676Y-82417580D02*
X164279200Y-82417580D01*
X164183961Y-82465200D01*
X164136342Y-82512819D01*
X164041104Y-82655676D01*
X163993485Y-82846152D01*
X163993485Y-83227104D01*
X164041104Y-83322342D01*
X164088723Y-83369961D01*
X164183961Y-83417580D01*
X164374438Y-83417580D01*
X164469676Y-83369961D01*
X164517295Y-83322342D01*
X164564914Y-83227104D01*
X164564914Y-82989009D01*
X164517295Y-82893771D01*
X164469676Y-82846152D01*
X164374438Y-82798533D01*
X164183961Y-82798533D01*
X164088723Y-82846152D01*
X164041104Y-82893771D01*
X163993485Y-82989009D01*
X165583333Y-111807142D02*
X165535714Y-111854761D01*
X165392857Y-111902380D01*
X165297619Y-111902380D01*
X165154761Y-111854761D01*
X165059523Y-111759523D01*
X165011904Y-111664285D01*
X164964285Y-111473809D01*
X164964285Y-111330952D01*
X165011904Y-111140476D01*
X165059523Y-111045238D01*
X165154761Y-110950000D01*
X165297619Y-110902380D01*
X165392857Y-110902380D01*
X165535714Y-110950000D01*
X165583333Y-110997619D01*
X166488095Y-110902380D02*
X166011904Y-110902380D01*
X165964285Y-111378571D01*
X166011904Y-111330952D01*
X166107142Y-111283333D01*
X166345238Y-111283333D01*
X166440476Y-111330952D01*
X166488095Y-111378571D01*
X166535714Y-111473809D01*
X166535714Y-111711904D01*
X166488095Y-111807142D01*
X166440476Y-111854761D01*
X166345238Y-111902380D01*
X166107142Y-111902380D01*
X166011904Y-111854761D01*
X165964285Y-111807142D01*
X146083333Y-112107142D02*
X146035714Y-112154761D01*
X145892857Y-112202380D01*
X145797619Y-112202380D01*
X145654761Y-112154761D01*
X145559523Y-112059523D01*
X145511904Y-111964285D01*
X145464285Y-111773809D01*
X145464285Y-111630952D01*
X145511904Y-111440476D01*
X145559523Y-111345238D01*
X145654761Y-111250000D01*
X145797619Y-111202380D01*
X145892857Y-111202380D01*
X146035714Y-111250000D01*
X146083333Y-111297619D01*
X146940476Y-111535714D02*
X146940476Y-112202380D01*
X146702380Y-111154761D02*
X146464285Y-111869047D01*
X147083333Y-111869047D01*
X168233333Y-108757142D02*
X168185714Y-108804761D01*
X168042857Y-108852380D01*
X167947619Y-108852380D01*
X167804761Y-108804761D01*
X167709523Y-108709523D01*
X167661904Y-108614285D01*
X167614285Y-108423809D01*
X167614285Y-108280952D01*
X167661904Y-108090476D01*
X167709523Y-107995238D01*
X167804761Y-107900000D01*
X167947619Y-107852380D01*
X168042857Y-107852380D01*
X168185714Y-107900000D01*
X168233333Y-107947619D01*
X168566666Y-107852380D02*
X169185714Y-107852380D01*
X168852380Y-108233333D01*
X168995238Y-108233333D01*
X169090476Y-108280952D01*
X169138095Y-108328571D01*
X169185714Y-108423809D01*
X169185714Y-108661904D01*
X169138095Y-108757142D01*
X169090476Y-108804761D01*
X168995238Y-108852380D01*
X168709523Y-108852380D01*
X168614285Y-108804761D01*
X168566666Y-108757142D01*
X143033333Y-117957142D02*
X142985714Y-118004761D01*
X142842857Y-118052380D01*
X142747619Y-118052380D01*
X142604761Y-118004761D01*
X142509523Y-117909523D01*
X142461904Y-117814285D01*
X142414285Y-117623809D01*
X142414285Y-117480952D01*
X142461904Y-117290476D01*
X142509523Y-117195238D01*
X142604761Y-117100000D01*
X142747619Y-117052380D01*
X142842857Y-117052380D01*
X142985714Y-117100000D01*
X143033333Y-117147619D01*
X143414285Y-117147619D02*
X143461904Y-117100000D01*
X143557142Y-117052380D01*
X143795238Y-117052380D01*
X143890476Y-117100000D01*
X143938095Y-117147619D01*
X143985714Y-117242857D01*
X143985714Y-117338095D01*
X143938095Y-117480952D01*
X143366666Y-118052380D01*
X143985714Y-118052380D01*
X143133333Y-114107142D02*
X143085714Y-114154761D01*
X142942857Y-114202380D01*
X142847619Y-114202380D01*
X142704761Y-114154761D01*
X142609523Y-114059523D01*
X142561904Y-113964285D01*
X142514285Y-113773809D01*
X142514285Y-113630952D01*
X142561904Y-113440476D01*
X142609523Y-113345238D01*
X142704761Y-113250000D01*
X142847619Y-113202380D01*
X142942857Y-113202380D01*
X143085714Y-113250000D01*
X143133333Y-113297619D01*
X144085714Y-114202380D02*
X143514285Y-114202380D01*
X143800000Y-114202380D02*
X143800000Y-113202380D01*
X143704761Y-113345238D01*
X143609523Y-113440476D01*
X143514285Y-113488095D01*
D16*
X166360323Y-100637219D02*
X166360323Y-101362933D01*
X166311942Y-101508076D01*
X166215180Y-101604838D01*
X166070038Y-101653219D01*
X165973276Y-101653219D01*
X167376323Y-101653219D02*
X166795752Y-101653219D01*
X167086038Y-101653219D02*
X167086038Y-100637219D01*
X166989276Y-100782361D01*
X166892514Y-100879123D01*
X166795752Y-100927504D01*
X168247180Y-100975885D02*
X168247180Y-101653219D01*
X168005276Y-100588838D02*
X167763371Y-101314552D01*
X168392323Y-101314552D01*
D11*
X161274285Y-86269580D02*
X161845714Y-86269580D01*
X161560000Y-87269580D02*
X161560000Y-86269580D01*
X162179047Y-87269580D02*
X162179047Y-86269580D01*
X162179047Y-86745771D02*
X162750476Y-86745771D01*
X162750476Y-87269580D02*
X162750476Y-86269580D01*
X163750476Y-87269580D02*
X163179047Y-87269580D01*
X163464761Y-87269580D02*
X163464761Y-86269580D01*
X163369523Y-86412438D01*
X163274285Y-86507676D01*
X163179047Y-86555295D01*
X150683333Y-103402380D02*
X150350000Y-102926190D01*
X150111904Y-103402380D02*
X150111904Y-102402380D01*
X150492857Y-102402380D01*
X150588095Y-102450000D01*
X150635714Y-102497619D01*
X150683333Y-102592857D01*
X150683333Y-102735714D01*
X150635714Y-102830952D01*
X150588095Y-102878571D01*
X150492857Y-102926190D01*
X150111904Y-102926190D01*
X151540476Y-102735714D02*
X151540476Y-103402380D01*
X151302380Y-102354761D02*
X151064285Y-103069047D01*
X151683333Y-103069047D01*
X160811333Y-104653980D02*
X160478000Y-104177790D01*
X160239904Y-104653980D02*
X160239904Y-103653980D01*
X160620857Y-103653980D01*
X160716095Y-103701600D01*
X160763714Y-103749219D01*
X160811333Y-103844457D01*
X160811333Y-103987314D01*
X160763714Y-104082552D01*
X160716095Y-104130171D01*
X160620857Y-104177790D01*
X160239904Y-104177790D01*
X161144666Y-103653980D02*
X161763714Y-103653980D01*
X161430380Y-104034933D01*
X161573238Y-104034933D01*
X161668476Y-104082552D01*
X161716095Y-104130171D01*
X161763714Y-104225409D01*
X161763714Y-104463504D01*
X161716095Y-104558742D01*
X161668476Y-104606361D01*
X161573238Y-104653980D01*
X161287523Y-104653980D01*
X161192285Y-104606361D01*
X161144666Y-104558742D01*
X156906933Y-88387180D02*
X156573600Y-87910990D01*
X156335504Y-88387180D02*
X156335504Y-87387180D01*
X156716457Y-87387180D01*
X156811695Y-87434800D01*
X156859314Y-87482419D01*
X156906933Y-87577657D01*
X156906933Y-87720514D01*
X156859314Y-87815752D01*
X156811695Y-87863371D01*
X156716457Y-87910990D01*
X156335504Y-87910990D01*
X157287885Y-87482419D02*
X157335504Y-87434800D01*
X157430742Y-87387180D01*
X157668838Y-87387180D01*
X157764076Y-87434800D01*
X157811695Y-87482419D01*
X157859314Y-87577657D01*
X157859314Y-87672895D01*
X157811695Y-87815752D01*
X157240266Y-88387180D01*
X157859314Y-88387180D01*
X149633333Y-89602380D02*
X149300000Y-89126190D01*
X149061904Y-89602380D02*
X149061904Y-88602380D01*
X149442857Y-88602380D01*
X149538095Y-88650000D01*
X149585714Y-88697619D01*
X149633333Y-88792857D01*
X149633333Y-88935714D01*
X149585714Y-89030952D01*
X149538095Y-89078571D01*
X149442857Y-89126190D01*
X149061904Y-89126190D01*
X150585714Y-89602380D02*
X150014285Y-89602380D01*
X150300000Y-89602380D02*
X150300000Y-88602380D01*
X150204761Y-88745238D01*
X150109523Y-88840476D01*
X150014285Y-88888095D01*
D16*
X144385733Y-100637219D02*
X144385733Y-101362933D01*
X144337352Y-101508076D01*
X144240590Y-101604838D01*
X144095447Y-101653219D01*
X143998685Y-101653219D01*
X144821161Y-100733980D02*
X144869542Y-100685600D01*
X144966304Y-100637219D01*
X145208209Y-100637219D01*
X145304971Y-100685600D01*
X145353352Y-100733980D01*
X145401733Y-100830742D01*
X145401733Y-100927504D01*
X145353352Y-101072647D01*
X144772780Y-101653219D01*
X145401733Y-101653219D01*
D11*
X166133333Y-104302380D02*
X165800000Y-103826190D01*
X165561904Y-104302380D02*
X165561904Y-103302380D01*
X165942857Y-103302380D01*
X166038095Y-103350000D01*
X166085714Y-103397619D01*
X166133333Y-103492857D01*
X166133333Y-103635714D01*
X166085714Y-103730952D01*
X166038095Y-103778571D01*
X165942857Y-103826190D01*
X165561904Y-103826190D01*
X167038095Y-103302380D02*
X166561904Y-103302380D01*
X166514285Y-103778571D01*
X166561904Y-103730952D01*
X166657142Y-103683333D01*
X166895238Y-103683333D01*
X166990476Y-103730952D01*
X167038095Y-103778571D01*
X167085714Y-103873809D01*
X167085714Y-104111904D01*
X167038095Y-104207142D01*
X166990476Y-104254761D01*
X166895238Y-104302380D01*
X166657142Y-104302380D01*
X166561904Y-104254761D01*
X166514285Y-104207142D01*
X168286133Y-104302380D02*
X167952800Y-103826190D01*
X167714704Y-104302380D02*
X167714704Y-103302380D01*
X168095657Y-103302380D01*
X168190895Y-103350000D01*
X168238514Y-103397619D01*
X168286133Y-103492857D01*
X168286133Y-103635714D01*
X168238514Y-103730952D01*
X168190895Y-103778571D01*
X168095657Y-103826190D01*
X167714704Y-103826190D01*
X169143276Y-103302380D02*
X168952800Y-103302380D01*
X168857561Y-103350000D01*
X168809942Y-103397619D01*
X168714704Y-103540476D01*
X168667085Y-103730952D01*
X168667085Y-104111904D01*
X168714704Y-104207142D01*
X168762323Y-104254761D01*
X168857561Y-104302380D01*
X169048038Y-104302380D01*
X169143276Y-104254761D01*
X169190895Y-104207142D01*
X169238514Y-104111904D01*
X169238514Y-103873809D01*
X169190895Y-103778571D01*
X169143276Y-103730952D01*
X169048038Y-103683333D01*
X168857561Y-103683333D01*
X168762323Y-103730952D01*
X168714704Y-103778571D01*
X168667085Y-103873809D01*
M02*
